<svg width="64" height="64" viewBox="0 0 64 64" fill="none" xmlns="http://www.w3.org/2000/svg">
<rect x="0.000244141" width="64" height="64" rx="32" fill="#EFCE76"/>
<path d="M20.3961 22.9784C20.6967 21.6971 21.6972 20.6966 22.9785 20.396V20.396C24.089 20.1355 25.2446 20.1355 26.3551 20.396V20.396C27.6364 20.6966 28.6369 21.6971 28.9374 22.9784V22.9784C29.1979 24.0888 29.1979 25.2445 28.9374 26.3549V26.3549C28.6369 27.6363 27.6364 28.6368 26.3551 28.9373V28.9373C25.2446 29.1978 24.089 29.1978 22.9785 28.9373V28.9373C21.6972 28.6368 20.6967 27.6363 20.3961 26.3549V26.3549C20.1357 25.2445 20.1357 24.0888 20.3961 22.9784V22.9784Z" stroke="#363853" stroke-width="1.5"/>
<path d="M20.3961 37.6451C20.6967 36.3637 21.6972 35.3632 22.9785 35.0627V35.0627C24.089 34.8022 25.2446 34.8022 26.3551 35.0627V35.0627C27.6364 35.3632 28.6369 36.3637 28.9374 37.6451V37.6451C29.1979 38.7555 29.1979 39.9112 28.9374 41.0216V41.0216C28.6369 42.3029 27.6364 43.3034 26.3551 43.604V43.604C25.2446 43.8645 24.089 43.8645 22.9785 43.604V43.604C21.6972 43.3034 20.6967 42.3029 20.3961 41.0216V41.0216C20.1357 39.9112 20.1357 38.7555 20.3961 37.6451V37.6451Z" stroke="#363853" stroke-width="1.5"/>
<path d="M35.0626 22.9784C35.3632 21.6971 36.3637 20.6966 37.645 20.396V20.396C38.7555 20.1355 39.9111 20.1355 41.0216 20.396V20.396C42.3029 20.6966 43.3034 21.6971 43.6039 22.9784V22.9784C43.8644 24.0888 43.8644 25.2445 43.6039 26.3549V26.3549C43.3034 27.6363 42.3029 28.6368 41.0216 28.9373V28.9373C39.9111 29.1978 38.7555 29.1978 37.645 28.9373V28.9373C36.3637 28.6368 35.3632 27.6363 35.0626 26.3549V26.3549C34.8022 25.2445 34.8022 24.0888 35.0626 22.9784V22.9784Z" stroke="#363853" stroke-width="1.5"/>
<path d="M35.0626 37.6451C35.3632 36.3637 36.3637 35.3632 37.645 35.0627V35.0627C38.7555 34.8022 39.9111 34.8022 41.0216 35.0627V35.0627C42.3029 35.3632 43.3034 36.3637 43.6039 37.6451V37.6451C43.8644 38.7555 43.8644 39.9112 43.6039 41.0216V41.0216C43.3034 42.3029 42.3029 43.3034 41.0216 43.604V43.604C39.9111 43.8645 38.7555 43.8645 37.645 43.604V43.604C36.3637 43.3034 35.3632 42.3029 35.0626 41.0216V41.0216C34.8022 39.9112 34.8022 38.7555 35.0626 37.6451V37.6451Z" stroke="#363853" stroke-width="1.5"/>
</svg>
