<svg width="64" height="64" viewBox="0 0 64 64" fill="none" xmlns="http://www.w3.org/2000/svg">
<rect x="0.000366211" width="64" height="64" rx="32" fill="#A58DC4"/>
<path d="M27.5956 28.0772H35.6378M27.5956 32.6855H32.7134M33.4815 41.2357H34.8967C38.7457 41.2357 42.094 38.4666 42.9974 34.5361C43.4461 32.5843 43.4461 30.5484 42.9974 28.5965L42.879 28.0812C42.0082 24.2928 39.1699 21.3494 35.5528 20.4835L35.0446 20.3619C33.0289 19.8794 30.9357 19.8794 28.9199 20.3619L28.6225 20.4331C24.8763 21.3298 21.9367 24.3783 21.0349 28.3019C20.5417 30.4474 20.5462 32.7049 21.0394 34.8504C21.9553 38.8353 24.6497 42.1517 28.2643 43.6971L28.4218 43.7644C29.986 44.4331 31.7778 43.6278 32.4196 41.9869C32.5962 41.5353 33.0168 41.2357 33.4815 41.2357Z" stroke="#363853" stroke-width="1.5" stroke-linecap="round"/>
</svg>
