<svg width="136" height="143" viewBox="0 0 136 143" fill="none" xmlns="http://www.w3.org/2000/svg">
<g clip-path="url(#clip0_101_4072)">
<path d="M23.8176 151.921H122.574C122.574 151.921 140.307 140.794 134.498 128.032C128.689 115.271 97.8083 135.58 97.8083 135.58C97.8083 135.58 126.061 98.7857 104.001 91.1364C81.9402 83.4871 55.6118 127.41 55.6118 127.41C55.6118 127.41 49.0381 92.4773 29.6268 96.5951C10.2155 100.713 23.8176 151.921 23.8176 151.921Z" fill="#F2E8E0"/>
<path d="M122.574 152.271H23.8176C23.6622 152.271 23.526 152.165 23.4855 152.012C23.092 150.53 13.9425 115.56 22.3654 101.595C24.1168 98.6905 26.5364 96.8927 29.5566 96.2521C33.6058 95.3926 37.4145 96.1486 40.8757 98.4981C50.5528 105.066 54.8781 122.444 55.7712 126.494C57.418 123.863 63.4034 114.622 71.2841 106.163C83.6035 92.9406 94.9559 87.6302 104.112 90.8049C108.371 92.2818 111.09 94.9458 112.196 98.7242C115.581 110.293 103.106 128.859 99.1932 134.289C104.436 131.042 121.262 121.285 130.176 123.911C132.341 124.548 133.9 125.886 134.81 127.885C140.68 140.78 122.934 152.106 122.754 152.219C122.7 152.253 122.638 152.271 122.574 152.271L122.574 152.271ZM24.0825 151.571H122.474C123.758 150.734 139.601 140.075 134.186 128.18C133.363 126.372 131.95 125.163 129.985 124.584C119.866 121.599 98.2125 135.731 97.9949 135.874C97.8538 135.968 97.6672 135.942 97.5544 135.816C97.4411 135.69 97.4339 135.499 97.5374 135.364C97.5822 135.306 102.062 129.445 106.005 122.036C109.624 115.236 113.522 105.707 111.536 98.9234C110.498 95.3757 107.926 92.8672 103.89 91.4678C82.3378 83.9954 56.1669 127.155 55.9053 127.592C55.8312 127.715 55.6906 127.777 55.5504 127.754C55.4106 127.728 55.3007 127.617 55.2738 127.476C55.2341 127.265 51.1852 106.336 40.4931 99.0798C37.1908 96.8398 33.5587 96.1189 29.6967 96.9378C26.8696 97.5373 24.6 99.2275 22.9516 101.961C19.5413 107.616 18.6637 118.022 20.4135 132.055C21.6149 141.689 23.6845 150.017 24.0824 151.571L24.0825 151.571Z" fill="black"/>
<path d="M73.7496 56.8076C73.7496 56.8076 84.242 11.6256 104.028 19.2086C113.773 22.9437 102.91 31.1347 93.938 36.7168C86.7562 41.1851 81.6561 55.847 81.6561 55.847C81.6561 55.847 76.9253 56.9632 73.7496 56.8076V56.8076Z" fill="#96E693"/>
<path d="M74.3961 57.1726C74.1697 57.1726 73.9482 57.1676 73.733 57.1572C73.6309 57.1521 73.5362 57.1011 73.4748 57.0181C73.4132 56.9346 73.3913 56.8279 73.4148 56.7267C73.4323 56.652 75.1886 49.1594 78.5378 40.8913C83.0512 29.7485 88.1498 22.5751 93.6917 19.5709C97.0611 17.7453 100.579 17.5123 104.149 18.8806C106.673 19.8482 108.032 21.1959 108.189 22.8865C108.507 26.3052 103.904 30.9267 94.1172 37.0153C87.1205 41.3687 82.0309 55.8185 81.9803 55.9639C81.9411 56.077 81.8482 56.1614 81.7337 56.1883C81.5516 56.2311 77.5231 57.1726 74.396 57.1726H74.3961ZM74.1861 56.4709C76.9026 56.507 80.5488 55.7364 81.3972 55.5472C81.6859 54.7502 82.9128 51.4624 84.7993 47.7952C87.712 42.1324 90.7262 38.3043 93.7585 36.418C103.166 30.5651 107.791 26.0348 107.505 22.9522C107.374 21.5506 106.164 20.4012 103.906 19.5362C100.53 18.2423 97.202 18.4611 94.0151 20.1891C81.9571 26.7255 75.0892 52.8398 74.1861 56.4709Z" fill="black"/>
<path d="M76.8444 57.1576C76.809 57.1576 76.7732 57.1522 76.7376 57.1403C76.5571 57.0801 76.4586 56.8827 76.5175 56.699C82.3185 38.6185 100.038 23.4101 100.216 23.2582C100.362 23.1351 100.578 23.1543 100.7 23.3029C100.822 23.451 100.803 23.6722 100.657 23.7962C100.48 23.9462 82.9104 39.0297 77.1714 56.916C77.1239 57.0637 76.9893 57.1576 76.8444 57.1576Z" fill="black"/>
<path d="M93.1451 31.0762C93.0524 31.0762 92.9633 31.0379 92.8981 30.9695C92.8251 30.8929 92.7904 30.7867 92.8041 30.6809L93.5968 24.4937C93.6212 24.3018 93.7914 24.1691 93.9824 24.1914C94.1707 24.2165 94.3035 24.3925 94.2789 24.584L93.5421 30.3343L98.9491 29.7931C99.1405 29.7708 99.3065 29.9148 99.3251 30.1073C99.3437 30.2997 99.2055 30.4711 99.0163 30.4898L93.1787 31.0743C93.1675 31.0757 93.1563 31.0762 93.1451 31.0762V31.0762Z" fill="black"/>
<path d="M84.1944 42.4246C84.1754 42.4246 84.1559 42.4233 84.1364 42.4196C83.9492 42.3872 83.8231 42.2067 83.8549 42.0161C84.3735 38.8988 84.891 35.3716 84.8467 34.8628C84.7949 34.7315 84.8249 34.576 84.9331 34.4748C85.073 34.344 85.2905 34.3526 85.4191 34.4953C85.5563 34.6471 85.7442 34.855 84.5329 42.1328C84.5045 42.3038 84.359 42.4246 84.1944 42.4246Z" fill="black"/>
<path d="M69.1029 56.8076C69.1029 56.8076 58.6105 11.6256 38.8248 19.2086C29.0791 22.9437 39.9422 31.1347 48.9144 36.7168C56.0962 41.1851 61.1963 55.847 61.1963 55.847C61.1963 55.847 65.9271 56.9632 69.1029 56.8076V56.8076Z" fill="#96E693"/>
<path d="M68.4563 57.1726C65.3292 57.1726 61.3006 56.2311 61.1186 56.1883C61.0042 56.1614 60.9112 56.077 60.872 55.9639C60.8214 55.8184 55.7293 41.3673 48.7349 37.0153C38.9485 30.9267 34.3455 26.3052 34.6628 22.8865C34.8198 21.1959 36.1793 19.8481 38.7035 18.8806C42.2728 17.5132 45.791 17.7449 49.1606 19.5709C54.7026 22.5756 59.8011 29.7485 64.3145 40.8913C67.6637 49.1594 69.42 56.652 69.4375 56.7267C69.461 56.828 69.4391 56.9346 69.3775 57.0181C69.3161 57.1011 69.2214 57.1521 69.1193 57.1572C68.9043 57.1677 68.6824 57.1726 68.4563 57.1726ZM61.4551 55.5472C62.3034 55.7364 65.9475 56.5065 68.6663 56.4709C67.7627 52.8393 60.8928 26.7242 48.8368 20.1892C45.65 18.4616 42.3221 18.2418 38.9458 19.5363C36.6885 20.4012 35.4779 21.5506 35.3478 22.9522C35.0614 26.0344 39.6863 30.5651 49.0936 36.4181C52.126 38.3043 55.1403 42.1324 58.0531 47.7953C59.9395 51.4624 61.1665 54.7502 61.4551 55.5472Z" fill="black"/>
<path d="M66.008 57.1576C65.8631 57.1576 65.7285 57.0637 65.6811 56.916C59.9405 39.0247 42.3725 23.9462 42.1958 23.7962C42.0498 23.6722 42.0303 23.4515 42.1522 23.3028C42.274 23.1542 42.4907 23.1337 42.6365 23.2582C42.8148 23.41 60.5339 38.6185 66.335 56.699C66.3938 56.8827 66.2953 57.0802 66.1148 57.1403C66.0794 57.1522 66.0434 57.1576 66.008 57.1576Z" fill="black"/>
<path d="M49.7072 31.0762C49.696 31.0762 49.6849 31.0758 49.6736 31.0744L43.8359 30.4899C43.6466 30.4712 43.5085 30.2997 43.5271 30.1073C43.5459 29.9149 43.7156 29.7713 43.9031 29.7932L49.3102 30.3344L48.5732 24.584C48.5486 24.3925 48.6814 24.2165 48.8697 24.1915C49.0585 24.1682 49.2307 24.3018 49.2553 24.4938L50.0483 30.681C50.0619 30.7867 50.0272 30.893 49.9542 30.9696C49.8891 31.0379 49.7999 31.0762 49.7072 31.0762Z" fill="black"/>
<path d="M58.658 42.4247C58.4934 42.4247 58.3478 42.3039 58.3194 42.1329C57.1081 34.8551 57.296 34.6472 57.4332 34.4953C57.5618 34.3526 57.7797 34.344 57.9192 34.4748C58.0274 34.576 58.0574 34.7315 58.0056 34.8628C57.9613 35.3721 58.4788 38.8988 58.9974 42.0161C59.0292 42.2067 58.9032 42.3873 58.7159 42.4196C58.6964 42.4233 58.677 42.4247 58.658 42.4247ZM57.9403 34.9686C57.9401 34.9691 57.9396 34.9691 57.9393 34.9695C57.9395 34.9691 57.9398 34.9691 57.9403 34.9686Z" fill="black"/>
<path d="M33.4001 125.075L24.6863 151.921H46.9732L53.5794 125.075H33.4001Z" fill="#F9EA31"/>
<path d="M46.9732 152.271H24.6862C24.5759 152.271 24.4722 152.218 24.4074 152.126C24.3427 152.035 24.325 151.918 24.3597 151.811L33.0735 124.965C33.1198 124.822 33.2515 124.725 33.4 124.725H53.5793C53.6852 124.725 53.7853 124.775 53.8505 124.86C53.9157 124.945 53.9387 125.056 53.913 125.16L47.3069 152.006C47.2686 152.162 47.1311 152.271 46.9732 152.271H46.9732ZM25.1621 151.571H46.7047L53.1386 125.425H33.6486L25.1621 151.571H25.1621Z" fill="black"/>
<path d="M107.764 125.075L116.477 151.921H94.1906L87.5844 125.075H107.764Z" fill="#F9EA31"/>
<path d="M116.477 152.271H94.1907C94.0328 152.271 93.8953 152.162 93.857 152.006L87.2507 125.16C87.2249 125.056 87.248 124.945 87.3131 124.86C87.3783 124.775 87.4784 124.725 87.5843 124.725H107.764C107.912 124.725 108.044 124.822 108.09 124.965L116.804 151.811C116.839 151.918 116.821 152.035 116.756 152.126C116.691 152.217 116.588 152.271 116.477 152.271ZM94.4592 151.571H116.002L107.515 125.425H88.0251L94.4592 151.571Z" fill="black"/>
<path d="M57.2115 54.2252C57.2115 54.2252 72.7252 50.9968 85.1661 54.6925V66.6453H58.8535L57.2115 54.2252Z" fill="#F9EA31"/>
<path d="M85.1661 66.9956H58.8535C58.6812 66.9956 58.5355 66.8661 58.5126 66.6919L56.8707 54.2715C56.8466 54.0892 56.9654 53.9186 57.1426 53.8822C57.2985 53.8489 72.8828 50.6787 85.2624 54.3564C85.4093 54.3997 85.5101 54.5369 85.5101 54.6924V66.6454C85.5101 66.8387 85.3561 66.9956 85.1661 66.9956ZM59.1542 66.2952H84.8222V54.9559C73.6163 51.7215 59.8429 54.0837 57.5959 54.5068L59.1542 66.2952Z" fill="black"/>
<path d="M96.0051 99.163C93.024 94.7276 84.9114 91.9263 84.9114 91.9263H56.4179C56.4179 91.9263 48.3053 94.7276 45.3243 99.163C42.3432 103.598 33.4001 125.075 33.4001 125.075H48.5986L52.3794 135.58V151.921H88.95V135.58L92.7307 125.075H107.929C107.929 125.075 98.9861 103.598 96.0051 99.163Z" fill="#96E693"/>
<path d="M88.95 152.271H52.3795C52.1896 152.271 52.0355 152.114 52.0355 151.921V135.642L48.3583 125.425H33.4C33.2847 125.425 33.177 125.367 33.1132 125.269C33.0496 125.17 33.0384 125.046 33.0834 124.938C33.4491 124.06 42.0739 103.379 45.0402 98.9651C48.0514 94.4849 55.9718 91.7106 56.3075 91.5947C56.3431 91.5824 56.3803 91.576 56.4179 91.576H84.9114C84.949 91.576 84.9863 91.5824 85.0218 91.5947C85.3575 91.7106 93.2777 94.4849 96.2889 98.9651C99.2552 103.379 107.88 124.06 108.246 124.938C108.291 125.046 108.28 125.17 108.216 125.269C108.152 125.367 108.044 125.425 107.929 125.425H92.9708L89.2938 135.642V151.921C89.2938 152.114 89.1398 152.271 88.9498 152.271H88.95ZM52.7235 151.571H88.606V135.58C88.606 135.539 88.6131 135.498 88.6271 135.46L92.4077 124.955C92.4572 124.817 92.5862 124.725 92.7307 124.725H107.409C106.059 121.506 98.4003 103.347 95.7211 99.3609C92.9631 95.2569 85.552 92.5267 84.8535 92.2764H56.4759C55.7775 92.5267 48.3661 95.2569 45.6081 99.3609C42.929 103.347 35.2699 121.506 33.9205 124.725H48.5986C48.7431 124.725 48.8718 124.817 48.9215 124.955L52.7025 135.46C52.7164 135.498 52.7235 135.539 52.7235 135.58L52.7235 151.571Z" fill="black"/>
<path d="M91.5175 71.3224C93.7217 67.9538 93.5838 63.9635 91.2093 62.4097C88.8348 60.856 85.123 62.3272 82.9187 65.6958C80.7145 69.0644 80.8524 73.0547 83.2269 74.6085C85.6014 76.1622 89.3132 74.691 91.5175 71.3224Z" fill="#F9EA31"/>
<path d="M85.3873 75.5796C84.4797 75.5796 83.642 75.3275 82.9316 74.8282C80.4571 73.0888 80.3667 68.8389 82.7299 65.3542C83.8628 63.6836 85.386 62.4297 87.0194 61.8242C88.6946 61.2028 90.2868 61.3327 91.5039 62.1881C92.7212 63.0439 93.4044 64.5143 93.4275 66.328C93.4499 68.0976 92.8385 69.992 91.7057 71.6621C90.5728 73.3327 89.0495 74.5866 87.4162 75.192C86.7186 75.451 86.0352 75.5796 85.3873 75.5796V75.5796ZM89.0455 62.1384C88.4774 62.1384 87.8741 62.2524 87.2547 62.4822C85.7543 63.0384 84.3485 64.1997 83.296 65.7517C81.1482 68.9187 81.1601 72.7318 83.3226 74.2519C84.3514 74.9751 85.7216 75.0753 87.1808 74.5341C88.6812 73.9779 90.0871 72.8166 91.1396 71.2646C92.1921 69.7125 92.7604 67.9626 92.7396 66.3372C92.7194 64.7564 92.1419 63.4875 91.1129 62.7644C90.5208 62.3481 89.8157 62.1384 89.0455 62.1384Z" fill="black"/>
<path d="M87.2178 77.2901C88.9612 77.2901 90.3745 75.8513 90.3745 74.0765C90.3745 72.3017 88.9612 70.8629 87.2178 70.8629C85.4744 70.8629 84.0611 72.3017 84.0611 74.0765C84.0611 75.8513 85.4744 77.2901 87.2178 77.2901Z" fill="#96E693"/>
<path d="M87.2178 77.6401C85.2874 77.6401 83.7172 76.0416 83.7172 74.0765C83.7172 72.1114 85.2874 70.5128 87.2178 70.5128C89.1481 70.5128 90.7183 72.1114 90.7183 74.0765C90.7183 76.0416 89.1481 77.6401 87.2178 77.6401ZM87.2178 71.2131C85.6668 71.2131 84.4051 72.4975 84.4051 74.0764C84.4051 75.6553 85.6668 76.9397 87.2178 76.9397C88.7688 76.9397 90.0304 75.6553 90.0304 74.0764C90.0304 72.4975 88.7688 71.2131 87.2178 71.2131Z" fill="black"/>
<path d="M60.1742 73.6768V89.2111L56.4179 91.9263C56.4179 91.9263 64.2257 104.629 71.0938 104.997C79.6767 104.117 86.1046 92.1597 86.1046 92.1597C83.7733 90.9925 82.3851 90.223 81.8143 87.5032V78.5893L60.1742 73.6768Z" fill="#F9EA31"/>
<path d="M71.0938 105.347C71.0878 105.347 71.0817 105.347 71.0757 105.347C68.132 105.189 64.7164 102.904 60.9231 98.5561C58.1259 95.3494 56.1461 92.1441 56.1264 92.1118C56.0297 91.9549 56.0702 91.7479 56.2189 91.6408L59.8303 89.03V73.677C59.8303 73.5708 59.8777 73.4705 59.9591 73.4039C60.0406 73.3369 60.147 73.3123 60.249 73.3351L81.8891 78.2474C82.0465 78.2835 82.1582 78.4252 82.1582 78.5894V87.4657C82.6912 89.9565 83.9331 90.6824 86.2565 91.8455C86.3407 91.8874 86.4043 91.9631 86.4325 92.0538C86.4609 92.1451 86.4515 92.244 86.4063 92.3279C86.3902 92.358 84.7501 95.3868 82.0761 98.4795C79.5904 101.355 75.673 104.88 71.1283 105.346C71.1169 105.347 71.1052 105.347 71.0938 105.347ZM56.8853 92.0179C58.0728 93.8654 65.0365 104.292 71.0857 104.646C78.601 103.855 84.5342 94.1932 85.6238 92.3083C83.3652 91.1621 82.0451 90.2789 81.4779 87.5761C81.4728 87.5524 81.4703 87.5278 81.4703 87.5032V78.8703L60.5182 74.1139V89.2111C60.5182 89.3247 60.4642 89.4309 60.3733 89.4966L56.8853 92.0179L56.8853 92.0179Z" fill="black"/>
<path d="M49.924 60.5742C52.209 59.7113 55.1297 60.4926 57.4196 62.3439L57.2115 54.2252C57.2115 54.2252 58.6191 56.7235 71.6185 56.832C80.9438 56.9098 85.1661 54.6925 85.1661 54.6925V71.634C85.1661 79.5357 78.8145 86.1911 71.0538 86.0576C64.0792 85.9376 58.3618 80.5764 57.5282 73.6769C54.4263 74.4993 50.3899 72.5918 48.2673 69.2044C46.0272 65.6296 46.769 61.7657 49.924 60.5742Z" fill="#F9EA31"/>
<path d="M71.2837 86.4097C71.205 86.4097 71.1267 86.4092 71.0478 86.4079C64.1318 86.2884 58.2609 81.0268 57.2382 74.1024C54.0097 74.7393 50.0933 72.7696 47.9773 69.3925C46.6899 67.338 46.3007 65.1006 46.9096 63.2532C47.3743 61.8434 48.4024 60.7756 49.8044 60.2458C51.934 59.4419 54.7167 59.9896 57.0573 61.635L56.8678 54.2342C56.8636 54.0737 56.967 53.9309 57.1186 53.8881C57.2712 53.8434 57.4317 53.9118 57.5099 54.0509C57.5186 54.0627 59.2098 56.3785 71.6214 56.482C80.736 56.5691 84.9671 54.4029 85.0089 54.381C85.1151 54.3245 85.2427 54.3295 85.3453 54.3938C85.4476 54.4572 85.5101 54.5702 85.5101 54.6924V71.6339C85.5101 75.5892 83.9085 79.4607 81.1163 82.2561C78.4349 84.9402 74.9511 86.4097 71.2837 86.4097L71.2837 86.4097ZM57.5282 73.3268C57.5965 73.3268 57.6639 73.3473 57.7214 73.3875C57.8034 73.444 57.8573 73.5343 57.8697 73.6342C58.687 80.4018 64.3575 85.5918 71.0595 85.7076C74.6337 85.7755 78.0274 84.3657 80.6338 81.7568C83.2955 79.0922 84.8221 75.4028 84.8221 71.6339V55.2322C83.4473 55.8067 79.2335 57.2438 71.6155 57.1823C62.2698 57.1043 58.8196 55.8076 57.5756 55.0038L57.7633 62.3349C57.7669 62.4708 57.6927 62.5966 57.5732 62.6573C57.4542 62.7179 57.3107 62.7024 57.2057 62.6181C54.9421 60.7884 52.1311 60.1131 50.0435 60.9023C48.8231 61.3633 47.9647 62.2533 47.5617 63.4761C47.0193 65.1216 47.3821 67.1405 48.5573 69.0158C50.5689 72.2266 54.4712 74.1238 57.4415 73.3382C57.4702 73.3304 57.4993 73.3268 57.5281 73.3268L57.5282 73.3268Z" fill="black"/>
<path d="M55.5363 70.2939C55.4107 70.2939 55.2897 70.2237 55.2293 70.1019C53.0488 65.7175 50.2635 65.4513 50.2355 65.449C50.0463 65.434 49.9045 65.2657 49.9191 65.0728C49.9334 64.88 50.1016 64.7422 50.2883 64.7505C50.4177 64.7605 53.4895 65.0532 55.8428 69.7855C55.9288 69.9583 55.8609 70.1689 55.6915 70.256C55.6415 70.2815 55.5887 70.2939 55.5363 70.2939Z" fill="black"/>
<path d="M65.7402 60.4935C64.9286 60.5479 63.6577 60.8463 62.7942 62.0742C62.6008 62.3491 62.1972 62.1011 62.2459 61.7352C62.3754 60.762 62.6696 59.6637 63.3325 59.2731C64.1262 58.8055 65.2022 58.6717 65.8803 59.0782C66.4648 59.4287 66.3623 60.4518 65.7402 60.4935Z" fill="black"/>
<path d="M79.8445 60.3751C80.6575 60.3489 81.9508 60.5201 82.9276 61.6566C83.1463 61.911 83.5243 61.6243 83.4409 61.2649C83.219 60.3092 82.8213 59.2452 82.1242 58.9221C81.2897 58.5352 80.2059 58.5086 79.5699 58.9804C79.0216 59.3871 79.2214 60.3952 79.8445 60.3751Z" fill="black"/>
<path d="M72.1165 73.858C71.9597 73.858 71.8182 73.7486 71.7815 73.5867C71.7389 73.398 71.8543 73.2101 72.0395 73.1668C74.2468 72.6479 74.8306 71.0571 74.9822 70.1553C75.1562 69.1194 74.8834 68.3238 74.7337 68.2266C74.445 68.1094 73.3303 68.8481 72.3563 69.8101C72.2572 69.9082 72.1094 69.9355 71.9828 69.8813C71.8554 69.8265 71.7728 69.6998 71.7728 69.5589V63.5085C71.7728 63.3152 71.9268 63.1583 72.1168 63.1583C72.3067 63.1583 72.4608 63.3152 72.4608 63.5085V68.7669C73.1979 68.1258 74.3241 67.3051 74.9964 67.5801C75.5618 67.8103 75.7848 68.8914 75.713 69.8397C75.6554 70.5998 75.2315 73.1353 72.194 73.8488C72.168 73.8552 72.1421 73.858 72.1165 73.858L72.1165 73.858Z" fill="black"/>
<path d="M68.5994 79.389C67.5995 79.3895 66.7389 79.136 66.0297 78.6308C64.3826 77.4581 64.041 75.2741 63.9122 74.4516C63.8956 74.3458 63.8846 74.266 63.8732 74.2195C63.8056 74.0664 63.8546 73.8812 63.9964 73.785C64.1538 73.6779 64.3677 73.7212 64.4734 73.8821C64.5343 73.9751 64.5497 74.0745 64.5916 74.3417C64.7075 75.0835 65.0161 77.0546 66.424 78.0567C67.2837 78.6691 68.4379 78.8382 69.8543 78.5569C70.0395 78.5227 70.2211 78.644 70.2576 78.8337C70.2939 79.0238 70.1721 79.2075 69.9856 79.2445C69.4978 79.3411 69.0354 79.389 68.5994 79.389Z" fill="black"/>
<path d="M52.3793 77.2901C54.1227 77.2901 55.536 75.8513 55.536 74.0765C55.536 72.3017 54.1227 70.8629 52.3793 70.8629C50.636 70.8629 49.2227 72.3017 49.2227 74.0765C49.2227 75.8513 50.636 77.2901 52.3793 77.2901Z" fill="#96E693"/>
<path d="M52.3795 77.6401C50.4491 77.6401 48.8787 76.0416 48.8787 74.0765C48.8787 72.1114 50.4492 70.5128 52.3795 70.5128C54.3098 70.5128 55.8801 72.1114 55.8801 74.0765C55.8801 76.0416 54.3098 77.6401 52.3795 77.6401ZM52.3795 71.2131C50.8285 71.2131 49.5666 72.4975 49.5666 74.0764C49.5666 75.6553 50.8285 76.9397 52.3795 76.9397C53.9305 76.9397 55.1921 75.6553 55.1921 74.0764C55.1921 72.4975 53.9305 71.2131 52.3795 71.2131Z" fill="black"/>
<path d="M59.9797 80.1074C59.9797 80.1074 64.7023 89.4363 70.4351 90.9926C76.1678 92.5489 81.8143 80.966 81.8143 80.966C81.8143 80.966 70.4681 92.1775 59.9797 80.1074Z" fill="black"/>
<path d="M71.5206 91.4876C71.1317 91.4876 70.7398 91.4375 70.3463 91.3308C64.5331 89.7527 59.8695 80.6544 59.674 80.2678C59.5945 80.1105 59.6422 79.9181 59.7855 79.8182C59.9286 79.7188 60.1225 79.743 60.2372 79.8752C63.2677 83.3627 66.6608 85.2029 70.3223 85.3447C76.5634 85.5818 81.5254 80.763 81.5747 80.7146C81.6952 80.5956 81.8822 80.5829 82.0172 80.6832C82.1524 80.7835 82.1968 80.9686 82.1224 81.1213C81.9023 81.5727 77.0017 91.4877 71.5207 91.4877L71.5206 91.4876ZM61.6549 82.3058C63.4439 85.14 66.7904 89.6406 70.5236 90.6541C74.6517 91.7721 78.8607 85.4851 80.6336 82.417C78.67 83.9057 74.8644 86.2246 70.2961 86.0445C67.2069 85.925 64.3099 84.6699 61.6549 82.3058L61.6549 82.3058Z" fill="black"/>
<path d="M64.5363 66.9955C64.5257 66.9955 64.5152 66.9955 64.5047 66.9951C63.5877 66.9855 62.7405 66.551 61.987 65.7047C61.8593 65.5611 61.8701 65.34 62.0107 65.2101C62.1518 65.081 62.3692 65.0915 62.4967 65.2342C63.1152 65.9291 63.7917 66.2856 64.5074 66.2947C64.5168 66.2952 64.5265 66.2952 64.5358 66.2952C65.791 66.2952 66.794 65.2392 66.8041 65.2283C66.9346 65.0888 67.1525 65.0828 67.29 65.2159C67.4277 65.3486 67.4338 65.5698 67.3035 65.7102C67.2544 65.7626 66.0918 66.9955 64.5363 66.9955L64.5363 66.9955Z" fill="black"/>
<path d="M79.3617 66.9956C77.806 66.9956 76.6436 65.7627 76.5946 65.7103C76.4642 65.5698 76.4703 65.3487 76.608 65.216C76.7455 65.0834 76.9634 65.0893 77.094 65.2284C77.1041 65.2393 78.107 66.2953 79.3622 66.2953C79.3716 66.2953 79.381 66.2953 79.3906 66.2948C80.1063 66.2857 80.7828 65.9292 81.4014 65.2343C81.5286 65.0911 81.7458 65.0802 81.8873 65.2101C82.0279 65.3401 82.0387 65.5612 81.9111 65.7048C81.1575 66.551 80.3104 66.9856 79.3934 66.9952C79.3828 66.9956 79.3723 66.9956 79.3618 66.9956L79.3617 66.9956Z" fill="black"/>
<path d="M57.5828 74.4266C57.4071 74.4266 57.257 74.2902 57.2407 74.1083L56.8689 69.9756C56.8517 69.7832 56.991 69.6127 57.1802 69.5949C57.3699 69.5771 57.537 69.7189 57.5542 69.9118L57.926 74.0445C57.9432 74.2369 57.8039 74.4074 57.6147 74.4252C57.6039 74.4261 57.5933 74.4266 57.5828 74.4266Z" fill="black"/>
<path d="M85.1659 71.213C85.1003 71.213 85.0342 71.1939 84.9758 71.1547C84.8174 71.0475 84.7745 70.83 84.8797 70.6691C87.051 67.3443 89.8141 66.7087 89.9308 66.6832C90.1166 66.6408 90.2984 66.763 90.3385 66.9513C90.3788 67.1401 90.261 67.3266 90.0759 67.368C90.0499 67.3735 87.4605 67.9826 85.4525 71.0566C85.3862 71.1583 85.2772 71.213 85.1659 71.213Z" fill="black"/>
<path d="M60.6861 139.592C56.8342 139.592 52.3582 136.01 52.1656 135.854C52.0169 135.734 51.992 135.514 52.11 135.363C52.2283 135.211 52.4453 135.186 52.5933 135.306C52.6394 135.343 57.2664 139.021 60.9036 138.888C61.0948 138.867 61.2533 139.03 61.2609 139.223C61.2685 139.417 61.1207 139.58 60.9309 139.587C60.8496 139.591 60.7681 139.592 60.6861 139.592V139.592Z" fill="black"/>
<path d="M80.867 140.249C80.6842 140.249 80.532 140.103 80.5237 139.915C80.515 139.721 80.6618 139.558 80.8515 139.549C85.6793 139.326 88.6463 135.408 88.6756 135.369C88.7905 135.215 89.0066 135.185 89.1575 135.301C89.3089 135.418 89.3389 135.637 89.2243 135.792C89.0962 135.964 86.0296 140.011 80.8829 140.249C80.8775 140.249 80.8721 140.249 80.867 140.249L80.867 140.249Z" fill="black"/>
<path d="M48.599 125.425C48.5831 125.425 48.5672 125.424 48.5511 125.422C48.363 125.395 48.2318 125.218 48.258 125.027L50.2577 110.437C50.2841 110.245 50.4601 110.113 50.6458 110.138C50.8339 110.165 50.9651 110.342 50.9389 110.533L48.9392 125.123C48.9152 125.299 48.7679 125.425 48.599 125.425Z" fill="black"/>
<path d="M92.7311 125.425C92.7208 125.425 92.7108 125.425 92.7004 125.424C92.5114 125.407 92.3717 125.237 92.388 125.045C92.425 124.503 91.5536 115.644 90.9587 109.821C90.939 109.629 91.0762 109.456 91.2652 109.436C91.4533 109.415 91.6233 109.556 91.643 109.748C91.796 111.245 93.1351 124.392 93.0733 125.106C93.0576 125.288 92.9074 125.425 92.7312 125.425L92.7311 125.425Z" fill="black"/>
<path d="M70.1718 56.8076C70.1718 56.8076 70.0098 45.3932 65.5765 44.8485C61.1431 44.3037 60.9902 46.8716 57.3213 42.8253C53.6523 38.7789 51.0535 36.4445 48.5311 38.8567C46.0086 41.269 46.6202 39.6349 41.2696 38.4677C35.919 37.3005 34.161 43.4478 36.9127 46.0935C39.6645 48.7392 43.5627 45.7044 44.7857 48.1167C46.0087 50.5289 47.9196 54.6531 51.8943 52.5521C55.869 50.4511 61.1935 52.9636 61.4358 55.637C61.4358 55.637 68.0407 56.7832 70.1718 56.8075L70.1718 56.8076Z" fill="#D797CA"/>
<path d="M70.1718 57.1576H70.168C68.0341 57.1335 61.6488 56.0291 61.3781 55.9822C61.2245 55.9557 61.1076 55.8272 61.0935 55.6694C61.0108 54.7589 60.2056 53.7955 58.9392 53.0911C57.2937 52.1769 54.5033 51.5677 52.0529 52.8631C50.867 53.4895 49.7471 53.64 48.7239 53.3072C46.6841 52.6451 45.4806 50.2596 44.6019 48.5184L44.4801 48.2772C44.0179 47.3653 43.13 47.3954 41.6007 47.5285C40.0905 47.6608 38.2112 47.8235 36.6764 46.3481C35.1819 44.9109 34.8417 42.4256 35.8678 40.4386C36.8871 38.4643 38.933 37.5999 41.3417 38.1251C43.2622 38.5441 44.4519 39.0329 45.2393 39.3562C46.644 39.9338 46.8252 40.0082 48.2956 38.6016C49.0818 37.8497 49.8976 37.4868 50.7922 37.5324C52.7026 37.6012 54.6495 39.3625 57.5741 42.5879C59.8323 45.0782 60.5921 44.9383 62.1016 44.6583C62.9551 44.5006 64.0165 44.3031 65.6176 44.501C70.2957 45.0755 70.509 56.3237 70.5158 56.8024C70.5171 56.8968 70.4809 56.9875 70.4154 57.0546C70.3509 57.1207 70.2632 57.1576 70.1718 57.1576ZM61.7391 55.3339C62.8827 55.5281 67.7123 56.3337 69.8169 56.445C69.7837 55.5855 69.6574 53.3468 69.1981 51.0945C68.6782 48.5453 67.6208 45.4526 65.5352 45.1959C64.0364 45.0122 63.0318 45.1982 62.2248 45.3473C60.4893 45.6678 59.4717 45.713 57.0684 43.063C54.7945 40.5553 52.6018 38.2984 50.7678 38.2323C50.0669 38.2013 49.4125 38.4944 48.7667 39.1122C47.0412 40.7619 46.5947 40.6689 44.9819 40.0059C44.1706 39.6726 43.0599 39.2162 41.1974 38.8099C39.0774 38.3462 37.3567 39.0598 36.4767 40.7641C35.5915 42.479 35.8741 44.6132 37.1489 45.8392C38.4592 47.099 40.0966 46.9558 41.5421 46.8309C43.0091 46.7033 44.3951 46.5824 45.0915 47.9562L45.2138 48.1983C46.0374 49.8306 47.1656 52.0666 48.9331 52.6401C49.7872 52.9174 50.704 52.7869 51.7359 52.2412C54.4263 50.8186 57.4753 51.4789 59.2688 52.4764C60.6422 53.2401 61.527 54.2692 61.7391 55.3339Z" fill="black"/>
<path d="M65.6911 56.7928C65.5997 56.7928 65.5084 56.7559 65.4407 56.6825C65.3677 56.6036 58.0688 48.7486 51.8868 45.4302C45.7324 42.1269 39.9445 41.9701 39.8868 41.9691C39.6969 41.965 39.5461 41.8055 39.5499 41.6121C39.5535 41.4188 39.7282 41.2806 39.9004 41.2688C39.9597 41.2702 45.9023 41.4266 52.2075 44.811C58.4916 48.1841 65.8678 56.123 65.9417 56.2028C66.0718 56.3437 66.0651 56.5653 65.9269 56.6975C65.8604 56.7613 65.7758 56.7927 65.6911 56.7927V56.7928Z" fill="black"/>
<path d="M47.9194 46.5214C47.7653 46.5214 47.6249 46.4151 47.5859 46.256C47.5398 46.0686 47.6518 45.8785 47.8361 45.8315L51.5545 44.885L49.6733 40.895C49.5911 40.7209 49.6634 40.5116 49.8345 40.4282C50.0061 40.3434 50.2114 40.4177 50.2936 40.5923L52.3574 44.9694C52.4019 45.0642 52.4026 45.1746 52.3585 45.2699C52.3146 45.3647 52.2308 45.435 52.1307 45.4605L48.0032 46.511C47.9752 46.5183 47.947 46.5215 47.9194 46.5215L47.9194 46.5214Z" fill="black"/>
<path d="M60.2568 51.5185C60.24 51.5185 60.2232 51.5171 60.2062 51.5148L55.7228 50.8363C55.5349 50.8076 55.4053 50.6298 55.4332 50.4383C55.461 50.2472 55.6359 50.12 55.824 50.1433L59.8797 50.757L59.6155 47.3716C59.6004 47.1787 59.7417 47.0101 59.931 46.9945C60.1227 46.9822 60.2861 47.1231 60.3011 47.316L60.5996 51.1404C60.6079 51.2466 60.5683 51.3515 60.4915 51.424C60.4274 51.4851 60.3432 51.5184 60.2568 51.5184L60.2568 51.5185Z" fill="black"/>
<path d="M41.1551 44.2453C41.0519 44.2453 40.9496 44.1979 40.8819 44.108C40.7663 43.9544 40.7948 43.7346 40.9457 43.6169L43.0117 42.0052L41.4484 39.7802C41.3378 39.6229 41.3734 39.4041 41.5279 39.2914C41.6824 39.1806 41.8976 39.2157 42.0078 39.3726L43.7648 41.8734C43.8728 42.0271 43.8416 42.2405 43.6943 42.3554L41.364 44.1732C41.3017 44.2216 41.2281 44.2453 41.1551 44.2453Z" fill="black"/>
<path d="M73.7496 56.8076C73.7496 56.8076 73.9116 45.3932 78.345 44.8485C82.7783 44.3037 82.9312 46.8716 86.6001 42.8253C90.2691 38.7789 92.8679 36.4445 95.3904 38.8567C97.9128 41.269 97.3013 39.6349 102.652 38.4677C108.002 37.3005 109.76 43.4478 107.009 46.0935C104.257 48.7392 100.359 45.7044 99.1357 48.1167C97.9127 50.5289 96.0018 54.6531 92.0271 52.5521C88.0524 50.4511 82.7279 52.9636 82.4856 55.637C82.4856 55.637 75.8807 56.7832 73.7496 56.8075L73.7496 56.8076Z" fill="#D797CA"/>
<path d="M73.7497 57.1576C73.6583 57.1576 73.5705 57.1207 73.506 57.0546C73.4406 56.9876 73.4044 56.8968 73.4057 56.8024C73.4124 56.3237 73.6258 45.0756 78.3036 44.501C79.9047 44.3027 80.9664 44.5001 81.8196 44.6583C83.3309 44.9374 84.0889 45.0778 86.3471 42.5879C89.2717 39.3625 91.2186 37.6012 93.129 37.5324C94.0205 37.4859 94.8394 37.8497 95.6259 38.6016C97.0958 40.0082 97.2763 39.9339 98.6822 39.3562C99.4693 39.0329 100.659 38.5442 102.58 38.1251C104.988 37.6008 107.035 38.4648 108.053 40.4386C109.08 42.4256 108.739 44.911 107.245 46.3481C105.71 47.8235 103.831 47.6603 102.321 47.5285C100.792 47.395 99.9043 47.3649 99.4414 48.2772L99.3198 48.518C98.441 50.2597 97.2374 52.6452 95.1973 53.3072C94.1744 53.64 93.0549 53.49 91.8685 52.8631C89.418 51.5673 86.6275 52.176 84.9822 53.0911C83.7159 53.7955 82.9106 54.7589 82.828 55.6694C82.8139 55.8272 82.697 55.9557 82.5433 55.9822C82.2726 56.0291 75.887 57.1335 73.7534 57.1576H73.7497ZM79.5998 45.1193C79.2337 45.1193 78.8317 45.1412 78.386 45.1959C76.2987 45.4526 75.2413 48.5503 74.7216 51.1031C74.2634 53.3545 74.1375 55.5869 74.1046 56.4449C76.2087 56.3341 81.0388 55.528 82.1824 55.3338C82.3945 54.2692 83.2792 53.2401 84.6526 52.4764C86.4459 51.4788 89.495 50.819 92.1856 52.2411C93.2177 52.7869 94.1343 52.9173 94.9884 52.6401C96.7559 52.0665 97.884 49.8306 98.7077 48.1978L98.8299 47.9562C99.5262 46.5829 100.912 46.7032 102.379 46.8309C103.823 46.9553 105.462 47.099 106.772 45.8392C108.047 44.6132 108.33 42.4789 107.445 40.7641C106.564 39.0602 104.844 38.3467 102.724 38.8099C100.862 39.2162 99.7506 39.6726 98.9395 40.0058C97.3263 40.6679 96.8802 40.7614 95.1547 39.1122C94.5091 38.4944 93.8591 38.2026 93.1536 38.2322C91.3194 38.2984 89.1266 40.5553 86.8528 43.063C84.4499 45.7129 83.4326 45.6678 81.6966 45.3473C81.1294 45.2424 80.4646 45.1193 79.5998 45.1193Z" fill="black"/>
<path d="M78.2302 56.7929C78.1455 56.7929 78.0609 56.7614 77.9944 56.6976C77.8562 56.5654 77.8495 56.3438 77.9796 56.2029C78.0535 56.1231 85.4297 48.1842 91.7138 44.8112C98.019 41.4267 103.962 41.2703 104.021 41.2689C104.201 41.2794 104.368 41.4189 104.371 41.6122C104.375 41.8056 104.224 41.9652 104.035 41.9693C103.977 41.9702 98.189 42.127 92.0345 45.4303C85.8526 48.7487 78.5536 56.6037 78.4806 56.6826C78.413 56.756 78.3216 56.7929 78.2302 56.7929Z" fill="black"/>
<path d="M96.0019 46.5214C95.9744 46.5214 95.9464 46.5182 95.9182 46.5109L91.7906 45.4604C91.6905 45.4348 91.6068 45.3646 91.5628 45.2698C91.5187 45.1745 91.5194 45.0641 91.564 44.9693L93.6277 40.5922C93.7099 40.4176 93.9153 40.3432 94.0868 40.428C94.2579 40.5115 94.3302 40.7208 94.248 40.8949L92.3668 44.8849L96.0853 45.8314C96.2696 45.8783 96.3815 46.0685 96.3354 46.2559C96.2964 46.415 96.156 46.5212 96.002 46.5212L96.0019 46.5214Z" fill="black"/>
<path d="M83.6647 51.5185C83.5782 51.5185 83.494 51.4852 83.43 51.4241C83.3534 51.3516 83.3135 51.2472 83.3218 51.1405L83.6201 47.3161C83.6349 47.1232 83.7952 46.9814 83.9903 46.9946C84.1795 47.0101 84.3208 47.1788 84.3058 47.3717L84.0418 50.7571L88.0972 50.1434C88.2858 50.1197 88.4603 50.2473 88.488 50.4384C88.516 50.6299 88.3864 50.8077 88.1985 50.8364L83.7153 51.5149C83.6985 51.5172 83.6815 51.5186 83.6647 51.5186V51.5185Z" fill="black"/>
<path d="M102.766 44.2453C102.693 44.2453 102.619 44.2216 102.557 44.1733L100.227 42.3554C100.08 42.2405 100.049 42.0271 100.157 41.8735L101.913 39.3726C102.023 39.2154 102.239 39.1789 102.393 39.2915C102.547 39.4041 102.583 39.623 102.473 39.7803L100.91 42.0053L102.975 43.617C103.126 43.7347 103.155 43.9544 103.039 44.1081C102.972 44.1979 102.869 44.2453 102.766 44.2453H102.766Z" fill="black"/>
<path d="M81.0266 28.4055C82.6229 28.4055 83.9169 25.4863 83.9169 21.8852C83.9169 18.2842 82.6229 15.365 81.0266 15.365C79.4304 15.365 78.1364 18.2842 78.1364 21.8852C78.1364 25.4863 79.4304 28.4055 81.0266 28.4055Z" fill="#CFE8FD"/>
<path d="M81.0266 28.7559C79.2129 28.7559 77.7923 25.738 77.7923 21.8853C77.7923 18.0326 79.2129 15.0146 81.0266 15.0146C82.8402 15.0146 84.2607 18.0326 84.2607 21.8853C84.2607 25.738 82.84 28.7559 81.0266 28.7559ZM81.0266 15.715C79.7969 15.715 78.4802 18.1944 78.4802 21.8853C78.4802 25.5761 79.7969 28.0556 81.0266 28.0556C82.2562 28.0556 83.5727 25.5761 83.5727 21.8853C83.5727 18.1944 82.2562 15.715 81.0266 15.715Z" fill="black"/>
<path d="M81.0266 38.5992C82.6229 38.5992 83.9169 35.68 83.9169 32.079C83.9169 28.4779 82.6229 25.5587 81.0266 25.5587C79.4304 25.5587 78.1364 28.4779 78.1364 32.079C78.1364 35.68 79.4304 38.5992 81.0266 38.5992Z" fill="#CFE8FD"/>
<path d="M81.0266 38.9494C79.2129 38.9494 77.7923 35.9315 77.7923 32.0788C77.7923 28.2261 79.2129 25.2086 81.0266 25.2086C82.8402 25.2086 84.2607 28.2265 84.2607 32.0788C84.2607 35.9311 82.84 38.9494 81.0266 38.9494ZM81.0266 25.909C79.7969 25.909 78.4802 28.3879 78.4802 32.0788C78.4802 35.7696 79.7969 38.2491 81.0266 38.2491C82.2562 38.2491 83.5727 35.7696 83.5727 32.0788C83.5727 28.3879 82.2562 25.909 81.0266 25.909Z" fill="black"/>
<path d="M86.0332 29.9243C89.5705 29.9243 92.438 28.607 92.438 26.982C92.438 25.357 89.5705 24.0397 86.0332 24.0397C82.4959 24.0397 79.6284 25.357 79.6284 26.982C79.6284 28.607 82.4959 29.9243 86.0332 29.9243Z" fill="#CFE8FD"/>
<path d="M86.0331 30.2746C82.2488 30.2746 79.2844 28.8284 79.2844 26.9823C79.2844 25.1362 82.2488 23.6895 86.0331 23.6895C89.8174 23.6895 92.7819 25.1357 92.7819 26.9823C92.7819 28.8288 89.8174 30.2746 86.0331 30.2746ZM86.0331 24.3897C82.4076 24.3897 79.9723 25.7302 79.9723 26.9823C79.9723 28.2343 82.4076 29.5743 86.0331 29.5743C89.6587 29.5743 92.0939 28.2338 92.0939 26.9823C92.0939 25.7307 89.6587 24.3897 86.0331 24.3897Z" fill="black"/>
<path d="M76.02 29.9243C79.5572 29.9243 82.4247 28.607 82.4247 26.982C82.4247 25.357 79.5572 24.0397 76.02 24.0397C72.4827 24.0397 69.6152 25.357 69.6152 26.982C69.6152 28.607 72.4827 29.9243 76.02 29.9243Z" fill="#CFE8FD"/>
<path d="M76.0201 30.2746C72.2356 30.2746 69.2711 28.8284 69.2711 26.9823C69.2711 25.1362 72.2356 23.6895 76.0201 23.6895C79.8046 23.6895 82.7688 25.1357 82.7688 26.9823C82.7688 28.8288 79.8044 30.2746 76.0201 30.2746ZM76.0201 24.3897C72.3946 24.3897 69.959 25.7302 69.959 26.9823C69.959 28.2343 72.3946 29.5743 76.0201 29.5743C79.6456 29.5743 82.0809 28.2338 82.0809 26.9823C82.0809 25.7307 79.6456 24.3897 76.0201 24.3897Z" fill="black"/>
<path d="M86.6565 25.4124C89.1462 22.8546 90.2291 19.8705 89.0751 18.7473C87.9211 17.624 84.9674 18.787 82.4777 21.3448C79.988 23.9026 78.9051 26.8866 80.0591 28.0099C81.2131 29.1331 84.1668 27.9702 86.6565 25.4124Z" fill="#CFE8FD"/>
<path d="M81.2756 28.7878C80.6607 28.7878 80.1552 28.6031 79.7947 28.2361C78.5122 26.9307 79.6039 23.7743 82.2799 21.05C83.5232 19.7843 84.9163 18.8145 86.2024 18.3194C87.5778 17.79 88.6914 17.8611 89.3388 18.5199C89.986 19.1788 90.0561 20.3127 89.5359 21.7129C89.0497 23.0224 88.0971 24.4404 86.8536 25.7061C85.6103 26.9718 84.2172 27.9416 82.9311 28.4367C82.322 28.6711 81.7642 28.7878 81.2756 28.7878ZM87.8542 18.6695C87.4518 18.6695 86.9739 18.7711 86.4459 18.9741C85.2489 19.435 83.9423 20.3478 82.7664 21.5451C81.5905 22.7424 80.6936 24.0724 80.2411 25.2911C79.8284 26.4018 79.8431 27.295 80.2812 27.7409C80.7194 28.1868 81.5968 28.201 82.6878 27.7819C83.8848 27.321 85.1914 26.4082 86.3673 25.2109C87.5432 24.014 88.4401 22.6836 88.8926 21.4653C89.3053 20.3542 89.2906 19.461 88.8525 19.0151C88.6264 18.7848 88.2832 18.6695 87.8542 18.6695Z" fill="black"/>
<path d="M79.5761 32.6204C82.0658 30.0626 83.1486 27.0785 81.9947 25.9553C80.8407 24.832 77.8869 25.995 75.3972 28.5528C72.9075 31.1106 71.8247 34.0946 72.9787 35.2179C74.1326 36.3411 77.0864 35.1782 79.5761 32.6204Z" fill="#CFE8FD"/>
<path d="M74.1953 35.9958C73.5804 35.9958 73.0749 35.8112 72.7144 35.4441C71.4319 34.1388 72.5236 30.9823 75.1996 28.258C76.4429 26.9923 77.836 26.0225 79.1221 25.5274C80.4975 24.998 81.6114 25.0691 82.2585 25.728C82.9057 26.3868 82.9758 27.5207 82.4555 28.9209C81.9694 30.2304 81.0167 31.6484 79.7732 32.9141C78.5299 34.1798 77.1369 35.1496 75.8508 35.6447C75.2417 35.8791 74.6839 35.9958 74.1953 35.9958ZM80.7739 25.8775C80.3715 25.8775 79.8936 25.9792 79.3656 26.1821C78.1686 26.6431 76.862 27.5558 75.6861 28.7531C74.5102 29.9504 73.6133 31.2804 73.1608 32.4992C72.7481 33.6098 72.7628 34.503 73.2009 34.9489C73.6393 35.3948 74.5165 35.4095 75.6075 34.99C76.8045 34.529 78.1111 33.6162 79.287 32.4189C80.4629 31.2221 81.3597 29.8916 81.8123 28.6733C82.225 27.5622 82.2102 26.669 81.7722 26.2231C81.546 25.9929 81.2029 25.8775 80.7739 25.8775Z" fill="black"/>
<path d="M89.0746 35.2168C90.2285 34.0936 89.1457 31.1095 86.656 28.5517C84.1663 25.9939 81.2125 24.831 80.0586 25.9542C78.9046 27.0775 79.9874 30.0615 82.4771 32.6193C84.9668 35.1771 87.9206 36.3401 89.0746 35.2168Z" fill="#CFE8FD"/>
<path d="M87.858 35.9959C87.3691 35.9959 86.8115 35.8791 86.2024 35.6448C84.9163 35.1497 83.5233 34.1798 82.28 32.9142C81.0365 31.6485 80.0838 30.2305 79.5977 28.921C79.0774 27.5208 79.1475 26.3869 79.7947 25.728C80.4418 25.0692 81.5562 24.9985 82.9311 25.5274C84.2172 26.0226 85.6103 26.9924 86.8536 28.2581C89.5296 30.9824 90.6213 34.1388 89.3388 35.4442C88.9783 35.8112 88.4726 35.9959 87.8579 35.9959H87.858ZM81.2794 25.8776C80.8503 25.8776 80.5073 25.9929 80.2811 26.2232C79.8431 26.6691 79.8283 27.5623 80.241 28.6734C80.6936 29.8917 81.5904 31.2221 82.7663 32.419C83.9422 33.6163 85.2489 34.5291 86.4458 34.99C87.537 35.4095 88.4144 35.3954 88.8524 34.949C89.2905 34.5031 89.3053 33.6099 88.8925 32.4992C88.44 31.2805 87.5431 29.9505 86.3672 28.7532C85.1913 27.5559 83.8847 26.6431 82.6877 26.1822C82.1597 25.9793 81.6818 25.8776 81.2794 25.8776Z" fill="black"/>
<path d="M81.9942 28.009C83.1481 26.8857 82.0653 23.9016 79.5756 21.3438C77.0859 18.786 74.1321 17.6231 72.9782 18.7463C71.8242 19.8696 72.907 22.8537 75.3967 25.4115C77.8864 27.9693 80.8402 29.1322 81.9942 28.009Z" fill="#CFE8FD"/>
<path d="M80.7776 28.7878C80.2887 28.7878 79.7311 28.6711 79.122 28.4367C77.836 27.9416 76.4429 26.9718 75.1996 25.7061C73.9561 24.4404 73.0034 23.0224 72.5173 21.7129C71.9971 20.3127 72.0672 19.1788 72.7143 18.52C73.3615 17.8611 74.4758 17.7909 75.8507 18.3194C77.1368 18.8145 78.5299 19.7843 79.7732 21.05C82.4492 23.7743 83.5409 26.9308 82.2584 28.2361C81.8979 28.6032 81.3923 28.7878 80.7776 28.7878ZM74.199 18.6695C73.77 18.6695 73.4269 18.7849 73.2007 19.0151C72.7627 19.461 72.7479 20.3542 73.1606 21.4653C73.6132 22.6836 74.51 24.0141 75.6859 25.2109C76.8618 26.4082 78.1685 27.321 79.3654 27.782C80.4566 28.2014 81.3338 28.1873 81.7721 27.7409C82.2101 27.295 82.2249 26.4018 81.8122 25.2912C81.3596 24.0724 80.4627 22.7424 79.2868 21.5451C78.111 20.3478 76.8043 19.435 75.6074 18.9741C75.0793 18.7712 74.6015 18.6695 74.1991 18.6695H74.199Z" fill="black"/>
<path d="M80.6051 31.4442C82.7931 31.4442 84.5668 29.6385 84.5668 27.4111C84.5668 25.1837 82.7931 23.3781 80.6051 23.3781C78.4171 23.3781 76.6434 25.1837 76.6434 27.4111C76.6434 29.6385 78.4171 31.4442 80.6051 31.4442Z" fill="#D797CA"/>
<path d="M80.6052 31.7942C78.231 31.7942 76.2996 29.8282 76.2996 27.4113C76.2996 24.9943 78.231 23.0278 80.6052 23.0278C82.9793 23.0278 84.9108 24.9943 84.9108 27.4113C84.9108 29.8282 82.9793 31.7942 80.6052 31.7942ZM80.6052 23.7281C78.6104 23.7281 76.9875 25.3805 76.9875 27.4113C76.9875 29.4421 78.6104 31.0939 80.6052 31.0939C82.6 31.0939 84.2228 29.4421 84.2228 27.4113C84.2228 25.3805 82.6 23.7281 80.6052 23.7281Z" fill="black"/>
<path d="M58.6584 20.5325C60.2546 20.5325 61.5486 17.6132 61.5486 14.0122C61.5486 10.4112 60.2546 7.49194 58.6584 7.49194C57.0621 7.49194 55.7681 10.4112 55.7681 14.0122C55.7681 17.6132 57.0621 20.5325 58.6584 20.5325Z" fill="#CFE8FD"/>
<path d="M58.6583 20.8827C56.8449 20.8827 55.4243 17.8648 55.4243 14.0121C55.4243 10.1594 56.8449 7.14172 58.6583 7.14172C60.4718 7.14172 61.8926 10.1596 61.8926 14.0121C61.8926 17.8646 60.472 20.8827 58.6583 20.8827ZM58.6583 7.84202C57.4287 7.84202 56.1122 10.3212 56.1122 14.0121C56.1122 17.703 57.4288 20.1824 58.6583 20.1824C59.8879 20.1824 61.2047 17.703 61.2047 14.0121C61.2047 10.3212 59.888 7.84202 58.6583 7.84202Z" fill="black"/>
<path d="M58.6584 30.7262C60.2546 30.7262 61.5486 27.807 61.5486 24.2059C61.5486 20.6049 60.2546 17.6857 58.6584 17.6857C57.0621 17.6857 55.7681 20.6049 55.7681 24.2059C55.7681 27.807 57.0621 30.7262 58.6584 30.7262Z" fill="#CFE8FD"/>
<path d="M58.6583 31.0763C56.8449 31.0763 55.4243 28.0583 55.4243 24.2056C55.4243 20.3529 56.8449 17.3354 58.6583 17.3354C60.4718 17.3354 61.8926 20.3534 61.8926 24.2056C61.8926 28.0579 60.472 31.0763 58.6583 31.0763ZM58.6583 18.0358C57.4287 18.0358 56.1122 20.5148 56.1122 24.2056C56.1122 27.8965 57.4288 30.3759 58.6583 30.3759C59.8879 30.3759 61.2047 27.8965 61.2047 24.2056C61.2047 20.5148 59.888 18.0358 58.6583 18.0358Z" fill="black"/>
<path d="M63.665 22.0514C67.2022 22.0514 70.0698 20.7341 70.0698 19.1091C70.0698 17.4841 67.2022 16.1667 63.665 16.1667C60.1277 16.1667 57.2602 17.4841 57.2602 19.1091C57.2602 20.7341 60.1277 22.0514 63.665 22.0514Z" fill="#CFE8FD"/>
<path d="M63.6649 22.4015C59.8806 22.4015 56.9161 20.9552 56.9161 19.1091C56.9161 17.263 59.8806 15.8168 63.6649 15.8168C67.4492 15.8168 70.4137 17.263 70.4137 19.1091C70.4137 20.9552 67.4492 22.4015 63.6649 22.4015ZM63.6649 16.5171C60.0394 16.5171 57.6041 17.8576 57.6041 19.1091C57.6041 20.3607 60.0394 21.7012 63.6649 21.7012C67.2904 21.7012 69.7257 20.3607 69.7257 19.1091C69.7257 17.8576 67.2904 16.5171 63.6649 16.5171Z" fill="black"/>
<path d="M53.6518 22.0514C57.1891 22.0514 60.0566 20.7341 60.0566 19.1091C60.0566 17.4841 57.1891 16.1667 53.6518 16.1667C50.1145 16.1667 47.247 17.4841 47.247 19.1091C47.247 20.7341 50.1145 22.0514 53.6518 22.0514Z" fill="#CFE8FD"/>
<path d="M53.6518 22.4015C49.8675 22.4015 46.9031 20.9552 46.9031 19.1091C46.9031 17.263 49.8675 15.8168 53.6518 15.8168C57.4361 15.8168 60.4006 17.263 60.4006 19.1091C60.4006 20.9552 57.4361 22.4015 53.6518 22.4015ZM53.6518 16.5171C50.0263 16.5171 47.591 17.8576 47.591 19.1091C47.591 20.3607 50.0263 21.7012 53.6518 21.7012C57.2774 21.7012 59.7126 20.3607 59.7126 19.1091C59.7126 17.8576 57.2774 16.5171 53.6518 16.5171Z" fill="black"/>
<path d="M64.2883 17.5392C66.778 14.9814 67.8608 11.9973 66.7068 10.8741C65.5528 9.75086 62.5991 10.9138 60.1094 13.4716C57.6197 16.0294 56.5369 19.0135 57.6908 20.1367C58.8448 21.26 61.7986 20.097 64.2883 17.5392Z" fill="#CFE8FD"/>
<path d="M58.9074 20.9147C58.2925 20.9147 57.787 20.7301 57.4265 20.3631C56.144 19.0577 57.2357 15.9012 59.9117 13.1769C61.1552 11.9112 62.5481 10.9412 63.8342 10.4463C65.2102 9.91694 66.3236 9.98805 66.9706 10.6471C67.6177 11.3058 67.6878 12.4397 67.1676 13.8399C66.6815 15.1494 65.7288 16.5674 64.4853 17.8331C63.242 19.0987 61.849 20.0686 60.5629 20.5637C59.9538 20.798 59.396 20.9148 58.9073 20.9148L58.9074 20.9147ZM65.486 10.7967C65.0835 10.7967 64.6057 10.8981 64.0776 11.1013C62.8807 11.562 61.5741 12.4748 60.3982 13.6721C59.2223 14.8694 58.3254 16.1994 57.8728 17.4181C57.4601 18.5288 57.4749 19.422 57.9129 19.8679C58.3514 20.3138 59.2286 20.3284 60.3196 19.9089C61.5165 19.448 62.8232 18.5352 63.9991 17.3379C65.175 16.141 66.0718 14.8106 66.5244 13.5923C66.9371 12.4812 66.9223 11.5882 66.4843 11.1423C66.2581 10.9121 65.9151 10.7967 65.486 10.7967L65.486 10.7967Z" fill="black"/>
<path d="M57.2078 24.7472C59.6975 22.1894 60.7803 19.2053 59.6264 18.0821C58.4724 16.9589 55.5186 18.1218 53.0289 20.6796C50.5392 23.2374 49.4564 26.2215 50.6104 27.3447C51.7643 28.468 54.7181 27.305 57.2078 24.7472Z" fill="#CFE8FD"/>
<path d="M51.827 28.1226C51.2121 28.1226 50.7066 27.938 50.3461 27.571C49.0636 26.2656 50.1553 23.1091 52.8313 20.3848C54.0746 19.1191 55.4677 18.1493 56.7538 17.6542C58.1294 17.1248 59.2428 17.196 59.8902 17.8548C60.5374 18.5136 60.6075 19.6476 60.0873 21.0478C59.6011 22.3572 58.6484 23.7752 57.4049 25.0409C56.1617 26.3066 54.7686 27.2764 53.4825 27.7716C52.8734 28.0059 52.3156 28.1226 51.8269 28.1226H51.827ZM58.4056 18.0043C58.0032 18.0043 57.5253 18.106 56.9973 18.3089C55.8003 18.7699 54.4937 19.6826 53.3178 20.88C52.1419 22.0773 51.245 23.4073 50.7925 24.626C50.3798 25.7366 50.3945 26.6299 50.8326 27.0758C51.2708 27.5221 52.1482 27.5358 53.2392 27.1168C54.4362 26.6558 55.7428 25.743 56.9187 24.5457C58.0946 23.3489 58.9915 22.0184 59.444 20.8002C59.8567 19.689 59.842 18.7958 59.4039 18.3499C59.1777 18.1197 58.8346 18.0043 58.4056 18.0043Z" fill="black"/>
<path d="M66.7064 27.3439C67.8604 26.2207 66.7776 23.2366 64.2879 20.6788C61.7982 18.121 58.8444 16.9581 57.6905 18.0813C56.5365 19.2045 57.6193 22.1886 60.109 24.7464C62.5987 27.3042 65.5525 28.4672 66.7064 27.3439Z" fill="#CFE8FD"/>
<path d="M65.4897 28.1227C65.0009 28.1227 64.4433 28.0059 63.8342 27.7716C62.5481 27.2765 61.155 26.3066 59.9117 25.041C58.6682 23.7753 57.7156 22.3573 57.2294 21.0478C56.7092 19.6476 56.7793 18.5137 57.4265 17.8548C58.0741 17.1965 59.1884 17.1253 60.5629 17.6542C61.849 18.1494 63.2421 19.1192 64.4854 20.3849C67.1614 23.1092 68.2531 26.2656 66.9706 27.571C66.61 27.938 66.1045 28.1227 65.4897 28.1227ZM58.9112 18.0044C58.4821 18.0044 58.1391 18.1197 57.9129 18.35C57.4748 18.7959 57.4601 19.6891 57.8728 20.8002C58.3253 22.0185 59.2222 23.3489 60.3981 24.5458C61.574 25.7431 62.8806 26.6559 64.0776 27.1168C65.1688 27.5363 66.046 27.5226 66.4842 27.0758C66.9223 26.6299 66.937 25.7367 66.5243 24.626C66.0718 23.4073 65.1749 22.0773 63.999 20.88C62.8231 19.6827 61.5165 18.7699 60.3195 18.309C59.7915 18.1061 59.3136 18.0044 58.9112 18.0044Z" fill="black"/>
<path d="M59.626 20.136C60.78 19.0128 59.6971 16.0287 57.2074 13.4709C54.7177 10.9131 51.764 9.75018 50.61 10.8734C49.456 11.9967 50.5389 14.9807 53.0286 17.5385C55.5183 20.0963 58.472 21.2593 59.626 20.136Z" fill="#CFE8FD"/>
<path d="M58.4094 20.9147C57.9205 20.9147 57.3629 20.7979 56.7538 20.5636C55.4677 20.0684 54.0746 19.0986 52.8314 17.8329C51.5879 16.5673 50.6352 15.1493 50.149 13.8398C49.6288 12.4396 49.6989 11.3056 50.3461 10.647C50.9937 9.98772 52.1076 9.91727 53.4825 10.4462C54.7686 10.9411 56.1615 11.9111 57.405 13.1768C60.081 15.9011 61.1727 19.0576 59.8902 20.3629C59.5297 20.73 59.024 20.9146 58.4093 20.9146L58.4094 20.9147ZM51.8308 10.7966C51.4017 10.7966 51.0587 10.912 50.8325 11.1422C50.3945 11.5881 50.3797 12.4811 50.7924 13.5922C51.2449 14.8105 52.1418 16.1409 53.3177 17.3378C54.4936 18.5351 55.8002 19.4479 56.9972 19.9088C58.0884 20.3283 58.9658 20.3142 59.4038 19.8678C59.8419 19.4219 59.8566 18.5287 59.4439 17.418C58.9914 16.1993 58.0945 14.8693 56.9186 13.672C55.7427 12.4747 54.4361 11.5619 53.2391 11.1011C52.7111 10.898 52.2332 10.7965 51.8308 10.7965L51.8308 10.7966Z" fill="black"/>
<path d="M58.6584 23.1422C60.8464 23.1422 62.6201 21.3365 62.6201 19.1091C62.6201 16.8817 60.8464 15.076 58.6584 15.076C56.4704 15.076 54.6967 16.8817 54.6967 19.1091C54.6967 21.3365 56.4704 23.1422 58.6584 23.1422Z" fill="#D797CA"/>
<path d="M58.6583 23.4921C56.2842 23.4921 54.3527 21.5261 54.3527 19.1091C54.3527 16.6922 56.2842 14.7257 58.6583 14.7257C61.0325 14.7257 62.964 16.6922 62.964 19.1091C62.964 21.5261 61.0325 23.4921 58.6583 23.4921ZM58.6583 15.426C56.6635 15.426 55.0407 17.0783 55.0407 19.1091C55.0407 21.1399 56.6635 22.7918 58.6583 22.7918C60.6531 22.7918 62.276 21.1399 62.276 19.1091C62.276 17.0783 60.6531 15.426 58.6583 15.426Z" fill="black"/>
<path d="M69.1028 57.1576H69.1001C68.9099 57.1563 68.7572 56.9981 68.7588 56.8047C68.9158 37.0756 64.8988 27.9909 64.8582 27.9011C64.7785 27.726 64.8538 27.5176 65.026 27.4364C65.1991 27.3562 65.4031 27.4319 65.4826 27.607C65.5249 27.7004 66.5331 29.945 67.5327 34.6841C68.4515 39.0402 69.5294 46.4151 69.4467 56.8102C69.4452 57.0026 69.2916 57.1576 69.1028 57.1576Z" fill="black"/>
<path d="M73.1928 57.1726C73.0163 57.1726 72.866 57.0349 72.8506 56.853C72.0601 47.5955 74.8526 35.5271 74.8808 35.4063C74.9249 35.218 75.1099 35.1026 75.2951 35.1469C75.4798 35.1916 75.594 35.3808 75.5499 35.5686C75.5219 35.6885 72.7552 47.6489 73.5358 56.792C73.5524 56.9848 73.4122 57.1544 73.223 57.1713C73.2129 57.1722 73.2029 57.1727 73.1928 57.1727V57.1726Z" fill="black"/>
<path d="M70.897 47.5785C72.4932 47.5785 73.7872 44.6593 73.7872 41.0582C73.7872 37.4572 72.4932 34.538 70.897 34.538C69.3007 34.538 68.0067 37.4572 68.0067 41.0582C68.0067 44.6593 69.3007 47.5785 70.897 47.5785Z" fill="#CFE8FD"/>
<path d="M70.8969 47.9284C69.0835 47.9284 67.6628 44.9105 67.6628 41.0583C67.6628 37.206 69.0835 34.1876 70.8969 34.1876C72.7104 34.1876 74.1312 37.2055 74.1312 41.0583C74.1312 44.911 72.7106 47.9284 70.8969 47.9284ZM70.8969 34.888C69.6673 34.888 68.3508 37.3674 68.3508 41.0583C68.3508 44.7491 69.6673 47.2281 70.8969 47.2281C72.1265 47.2281 73.4433 44.7491 73.4433 41.0583C73.4433 37.3674 72.1266 34.888 70.8969 34.888Z" fill="black"/>
<path d="M70.897 57.7721C72.4932 57.7721 73.7872 54.8529 73.7872 51.2518C73.7872 47.6508 72.4932 44.7316 70.897 44.7316C69.3007 44.7316 68.0067 47.6508 68.0067 51.2518C68.0067 54.8529 69.3007 57.7721 70.897 57.7721Z" fill="#CFE8FD"/>
<path d="M70.8969 58.1224C69.0835 58.1224 67.6628 55.1045 67.6628 51.2518C67.6628 47.399 69.0835 44.3816 70.8969 44.3816C72.7104 44.3816 74.1312 47.3995 74.1312 51.2518C74.1312 55.104 72.7106 58.1224 70.8969 58.1224ZM70.8969 45.0819C69.6673 45.0819 68.3508 47.5609 68.3508 51.2518C68.3508 54.9426 69.6673 57.4221 70.8969 57.4221C72.1265 57.4221 73.4433 54.9426 73.4433 51.2518C73.4433 47.5609 72.1266 45.0819 70.8969 45.0819Z" fill="black"/>
<path d="M75.9036 49.0973C79.4409 49.0973 82.3084 47.78 82.3084 46.155C82.3084 44.53 79.4409 43.2126 75.9036 43.2126C72.3664 43.2126 69.4988 44.53 69.4988 46.155C69.4988 47.78 72.3664 49.0973 75.9036 49.0973Z" fill="#CFE8FD"/>
<path d="M75.9037 49.4476C72.1194 49.4476 69.1549 48.0013 69.1549 46.1548C69.1549 44.3082 72.1194 42.8624 75.9037 42.8624C79.688 42.8624 82.6524 44.3087 82.6524 46.1548C82.6524 48.0009 79.688 49.4476 75.9037 49.4476ZM75.9037 43.5627C72.2781 43.5627 69.8429 44.9032 69.8429 46.1548C69.8429 47.4064 72.2781 48.7473 75.9037 48.7473C79.5292 48.7473 81.9645 47.4068 81.9645 46.1548C81.9645 44.9028 79.5292 43.5627 75.9037 43.5627Z" fill="black"/>
<path d="M65.8904 49.0973C69.4277 49.0973 72.2952 47.78 72.2952 46.155C72.2952 44.53 69.4277 43.2126 65.8904 43.2126C62.3532 43.2126 59.4857 44.53 59.4857 46.155C59.4857 47.78 62.3532 49.0973 65.8904 49.0973Z" fill="#CFE8FD"/>
<path d="M65.8904 49.4476C62.1061 49.4476 59.1417 48.0013 59.1417 46.1548C59.1417 44.3082 62.1061 42.8624 65.8904 42.8624C69.6747 42.8624 72.6392 44.3087 72.6392 46.1548C72.6392 48.0009 69.6747 49.4476 65.8904 49.4476ZM65.8904 43.5627C62.2649 43.5627 59.8296 44.9032 59.8296 46.1548C59.8296 47.4064 62.2649 48.7473 65.8904 48.7473C69.516 48.7473 71.9512 47.4068 71.9512 46.1548C71.9512 44.9028 69.516 43.5627 65.8904 43.5627Z" fill="black"/>
<path d="M76.5268 44.5854C79.0165 42.0276 80.0994 39.0435 78.9454 37.9202C77.7914 36.797 74.8377 37.9599 72.348 40.5177C69.8583 43.0755 68.7754 46.0596 69.9294 47.1829C71.0834 48.3061 74.0371 47.1432 76.5268 44.5854Z" fill="#CFE8FD"/>
<path d="M71.1428 47.9549C70.5382 47.9549 70.0285 47.7794 69.6651 47.4092C69.0179 46.7504 68.9478 45.6164 69.468 44.2162C69.9544 42.9067 70.9068 41.4887 72.1503 40.2231C73.3936 38.9574 74.7867 37.9876 76.0728 37.4924C77.4482 36.9626 78.5621 37.0337 79.2092 37.693C79.8564 38.3518 79.9265 39.4858 79.4065 40.886C78.9204 42.195 77.9677 43.613 76.7242 44.8791C74.8068 46.8311 72.6711 47.9549 71.1428 47.9549ZM77.7245 37.8425C77.3221 37.8425 76.8442 37.9442 76.3162 38.1471C75.1192 38.6081 73.8126 39.5209 72.6367 40.7182C71.4608 41.915 70.5639 43.2455 70.1114 44.4638C69.6987 45.5749 69.7134 46.4681 70.1515 46.914C71.0212 47.7999 73.6739 46.9938 76.2378 44.384C77.4137 43.1867 78.3106 41.8562 78.7631 40.6379C79.1756 39.5273 79.161 38.634 78.7228 38.1881C78.4966 37.9579 78.1535 37.8425 77.7245 37.8425Z" fill="black"/>
<path d="M69.4463 51.7934C71.936 49.2356 73.0189 46.2515 71.8649 45.1283C70.7109 44.005 67.7572 45.1679 65.2675 47.7257C62.7778 50.2835 61.6949 53.2676 62.8489 54.3909C64.0029 55.5141 66.9566 54.3512 69.4463 51.7934Z" fill="#CFE8FD"/>
<path d="M64.0624 55.1628C63.4578 55.1628 62.9481 54.9873 62.5847 54.6171C61.3024 53.3117 62.3941 50.1552 65.0699 47.431C66.3132 46.1653 67.7063 45.1955 68.9924 44.7003C70.3678 44.171 71.4817 44.2421 72.1288 44.9009C72.776 45.5598 72.8461 46.6937 72.3261 48.0939C71.8399 49.4029 70.8873 50.8209 69.6438 52.0871C67.7264 54.039 65.5908 55.1628 64.0624 55.1628ZM70.6441 45.0505C70.2417 45.0505 69.7638 45.1521 69.2358 45.355C68.0389 45.816 66.7322 46.7288 65.5563 47.9261C62.9929 50.5359 62.2018 53.2369 63.0711 54.1219C63.9413 55.0069 66.5936 54.2017 69.1574 51.5919C70.3333 50.3946 71.2302 49.0641 71.6828 47.8459C72.0953 46.7352 72.0807 45.842 71.6424 45.3961C71.4163 45.1658 71.0732 45.0505 70.6441 45.0505Z" fill="black"/>
<path d="M78.9451 54.3898C80.0991 53.2666 79.0162 50.2825 76.5265 47.7247C74.0368 45.1669 71.0831 44.004 69.9291 45.1272C68.7751 46.2504 69.858 49.2345 72.3477 51.7923C74.8374 54.3501 77.7911 55.5131 78.9451 54.3898Z" fill="#CFE8FD"/>
<path d="M77.7283 55.1689C77.2395 55.1689 76.6818 55.0521 76.0728 54.8178C74.7867 54.3226 73.3936 53.3528 72.1503 52.0871C69.4745 49.3629 68.3828 46.2064 69.6651 44.901C70.9474 43.5961 74.0482 44.7068 76.7242 47.431C77.9677 48.6972 78.9204 50.1152 79.4065 51.4242C79.9265 52.8244 79.8564 53.9584 79.2092 54.6172C78.8487 54.9842 78.343 55.1689 77.7283 55.1689ZM71.1562 45.0505C70.7227 45.0505 70.3771 45.1664 70.1514 45.3961C69.2821 46.2811 70.0733 48.9821 72.6366 51.592C73.8125 52.7893 75.1192 53.7021 76.3161 54.163C77.4076 54.5825 78.2847 54.5688 78.7228 54.122C79.161 53.6761 79.1756 52.7829 78.7631 51.6722C78.3105 50.4539 77.4136 49.1235 76.2378 47.9262C74.3397 45.9939 72.3921 45.0505 71.1562 45.0505Z" fill="black"/>
<path d="M71.8647 47.1818C73.0187 46.0586 71.9359 43.0745 69.4462 40.5167C66.9565 37.9589 64.0027 36.796 62.8487 37.9192C61.6948 39.0424 62.7776 42.0265 65.2673 44.5843C67.757 47.1421 70.7107 48.305 71.8647 47.1818Z" fill="#CFE8FD"/>
<path d="M70.648 47.9609C70.1591 47.9609 69.6015 47.8441 68.9924 47.6098C67.7063 47.1146 66.3133 46.1448 65.07 44.8791C62.3942 42.1549 61.3025 38.9984 62.5848 37.693C63.8672 36.3885 66.9678 37.4983 69.6439 40.223C70.8874 41.4887 71.8401 42.9067 72.3262 44.2162C72.8462 45.6164 72.7761 46.7504 72.1289 47.4092C71.7684 47.7762 71.2627 47.9609 70.648 47.9609ZM64.0759 37.8425C63.6424 37.8425 63.2968 37.9584 63.0711 38.1881C62.2018 39.0731 62.9929 41.7741 65.5563 44.384C66.7322 45.5813 68.0389 46.4941 69.2358 46.955C70.327 47.3745 71.2042 47.3604 71.6425 46.914C72.0807 46.4681 72.0953 45.5749 71.6828 44.4637C71.2302 43.2455 70.3333 41.915 69.1574 40.7182C67.2594 38.7859 65.3118 37.8425 64.0759 37.8425Z" fill="black"/>
<path d="M70.4756 50.6171C72.6636 50.6171 74.4373 48.8115 74.4373 46.5841C74.4373 44.3567 72.6636 42.551 70.4756 42.551C68.2876 42.551 66.5139 44.3567 66.5139 46.5841C66.5139 48.8115 68.2876 50.6171 70.4756 50.6171Z" fill="#D797CA"/>
<path d="M70.4755 50.9673C68.1014 50.9673 66.1699 49.0013 66.1699 46.5844C66.1699 44.1674 68.1014 42.2009 70.4755 42.2009C72.8497 42.2009 74.7812 44.1674 74.7812 46.5844C74.7812 49.0013 72.8497 50.9673 70.4755 50.9673ZM70.4755 42.9012C68.4807 42.9012 66.8579 44.5536 66.8579 46.5844C66.8579 48.6152 68.4807 50.267 70.4755 50.267C72.4703 50.267 74.0932 48.6152 74.0932 46.5844C74.0932 44.5536 72.4703 42.9012 70.4755 42.9012Z" fill="black"/>
<path d="M89.2659 5.87539C87.6562 3.94789 84.1148 4.19762 84.1953 7.55708C84.2758 10.9165 89.2659 15.505 89.2659 15.505C89.2659 15.505 94.2561 10.9165 94.3366 7.55708C94.4171 4.19762 90.8757 3.94789 89.2659 5.87539Z" fill="#D797CA"/>
<path d="M89.2659 15.855C89.1833 15.855 89.1008 15.8249 89.0353 15.7647C88.8272 15.5732 83.9345 11.0354 83.8514 7.56549C83.8158 6.07613 84.4569 4.9648 85.6108 4.51662C86.8006 4.05473 88.2803 4.41378 89.2659 5.36675C90.2516 4.41338 91.7314 4.05478 92.9212 4.51662C94.0749 4.9648 94.7163 6.07618 94.6807 7.56549C94.5974 11.0354 89.7046 15.5732 89.4965 15.7647C89.4309 15.8249 89.3485 15.855 89.2659 15.855ZM86.7229 5.01358C86.4242 5.01358 86.1301 5.06464 85.856 5.17113C84.9782 5.51196 84.5106 6.35636 84.5393 7.54844C84.6054 10.3178 88.2967 14.0833 89.2659 15.0253C90.2348 14.0828 93.9265 10.3158 93.9927 7.54844C94.0214 6.35636 93.5536 5.51196 92.676 5.17113C91.6392 4.76832 90.3148 5.15996 89.5279 6.10217C89.4625 6.18038 89.3669 6.22551 89.2659 6.22551C89.1649 6.22551 89.0693 6.18038 89.0039 6.10217C88.4248 5.40893 87.555 5.01358 86.7229 5.01358Z" fill="black"/>
<path d="M37.2481 27.2339C35.6383 25.3064 32.0969 25.5561 32.1774 28.9156C32.2579 32.2751 37.2481 36.8635 37.2481 36.8635C37.2481 36.8635 42.2382 32.2751 42.3187 28.9156C42.3992 25.5561 38.8578 25.3064 37.2481 27.2339Z" fill="#F9EA31"/>
<path d="M37.2481 37.2138C37.1655 37.2138 37.0831 37.1837 37.0175 37.1235C36.8094 36.932 31.9167 32.394 31.8334 28.9242C31.7978 27.4347 32.4391 26.3235 33.5931 25.8754C34.7826 25.4135 36.2624 25.7723 37.2481 26.7257C38.2337 25.7719 39.7143 25.4139 40.903 25.8754C42.057 26.3231 42.6983 27.4347 42.6627 28.9242C42.5794 32.394 37.6868 36.932 37.4788 37.1235C37.4132 37.1837 37.3308 37.2138 37.2481 37.2138ZM34.7049 26.3723C34.4062 26.3723 34.1122 26.4229 33.8383 26.5296C32.9604 26.8707 32.4927 27.7146 32.5213 28.9069C32.5876 31.6741 36.279 35.4415 37.2482 36.3835C38.2171 35.4415 41.9085 31.6741 41.9748 28.9069C42.0035 27.7146 41.5356 26.8703 40.6579 26.5296C39.621 26.1256 38.2971 26.5187 37.5102 27.4607C37.3794 27.6175 37.117 27.6175 36.9862 27.4607C36.4071 26.7676 35.5373 26.3723 34.7049 26.3723Z" fill="black"/>
<path d="M101.601 45.0457C99.9917 43.1182 96.4503 43.3679 96.5307 46.7274C96.6112 50.0868 101.601 54.6753 101.601 54.6753C101.601 54.6753 106.592 50.0868 106.672 46.7274C106.753 43.3679 103.211 43.1182 101.601 45.0457Z" fill="#CFE8FD"/>
<path d="M101.601 55.0257C101.519 55.0257 101.436 54.9956 101.371 54.9354C101.163 54.7439 96.27 50.2059 96.1866 46.7361C96.1511 45.2466 96.7924 44.1354 97.9461 43.6873C99.1366 43.2258 100.616 43.5842 101.601 44.5371C102.587 43.5833 104.067 43.2235 105.256 43.6873C106.41 44.1354 107.052 45.2466 107.016 46.7361C106.933 50.2059 102.04 54.7439 101.832 54.9354C101.766 54.9956 101.684 55.0257 101.601 55.0257ZM99.0584 44.1838C98.7594 44.1838 98.4654 44.2348 98.1913 44.3415C97.3137 44.6826 96.8459 45.5265 96.8746 46.7188C96.9409 49.4859 100.632 53.2534 101.601 54.1954C102.571 53.2534 106.262 49.4859 106.328 46.7188C106.357 45.5265 105.889 44.6826 105.011 44.3415C103.975 43.938 102.65 44.3301 101.863 45.2721C101.733 45.4289 101.47 45.4289 101.339 45.2726C100.76 44.5791 99.8905 44.1838 99.0584 44.1838Z" fill="black"/>
<path d="M124.19 18.3507C107.463 18.1268 107.641 17.9453 107.861 34.9748C108.081 17.9453 108.259 18.1269 91.5311 18.3507C108.259 18.5747 108.081 18.7562 107.861 1.72668C107.641 18.7562 107.463 18.5746 124.19 18.3507Z" fill="#F9EA31"/>
<path d="M107.861 35.2344C107.721 35.2344 107.607 35.12 107.606 34.9782L107.598 34.4379C107.559 31.3917 107.526 28.9073 107.606 26.8811C107.477 23.5933 107.05 21.5771 105.871 20.3766C104.691 19.1761 102.71 18.7415 99.4803 18.6102C97.4901 18.6914 95.0511 18.659 92.0579 18.618L91.5277 18.6107C91.3879 18.6089 91.2758 18.493 91.2758 18.3508C91.2758 18.2086 91.3879 18.0928 91.5277 18.0909L92.0593 18.0836C95.0513 18.0431 97.4906 18.0107 99.4807 18.0914C102.711 17.9601 104.691 17.5256 105.871 16.3251C107.05 15.1241 107.477 13.1079 107.606 9.82007C107.526 7.79385 107.559 5.30965 107.598 2.263L107.606 1.72315C107.607 1.58088 107.721 1.46667 107.861 1.46667C108.001 1.46667 108.114 1.58088 108.116 1.72315L108.123 2.263C108.163 5.30965 108.195 7.79385 108.116 9.82007C108.245 13.1079 108.671 15.1241 109.851 16.3251C111.03 17.5256 113.011 17.9601 116.241 18.0914C118.231 18.0107 120.67 18.0431 123.662 18.0836L124.194 18.0909C124.334 18.0928 124.446 18.2086 124.446 18.3508C124.446 18.493 124.334 18.6089 124.194 18.6107L123.664 18.618C120.67 18.6586 118.231 18.6919 116.241 18.6102C113.01 18.7415 111.03 19.1756 109.851 20.3766C108.671 21.5771 108.245 23.5933 108.116 26.8811C108.195 28.9073 108.163 31.3918 108.123 34.4379L108.116 34.9778C108.114 35.12 108.001 35.2344 107.861 35.2344ZM102.403 18.3508C104.139 18.6253 105.364 19.1255 106.232 20.0091C107.1 20.8923 107.591 22.1393 107.861 23.9065C108.13 22.1393 108.622 20.8923 109.49 20.0091C110.357 19.1255 111.583 18.6253 113.319 18.3508C111.583 18.0763 110.357 17.5762 109.49 16.6925C108.622 15.8089 108.13 14.5619 107.861 12.7946C107.591 14.5619 107.1 15.8089 106.232 16.6925C105.364 17.5757 104.138 18.0759 102.403 18.3508Z" fill="black"/>
<path d="M118.555 11.3509C116.496 11.6627 116.247 11.9154 115.941 14.0123C115.635 11.9154 115.387 11.6627 113.327 11.3509C115.387 11.0391 115.635 10.7864 115.941 8.68958C116.247 10.7864 116.496 11.0391 118.555 11.3509Z" fill="#F9EA31"/>
<path d="M115.941 14.1872C115.856 14.1872 115.783 14.1238 115.771 14.0377C115.475 12.0133 115.291 11.8252 113.302 11.524C113.217 11.5113 113.155 11.4374 113.155 11.3508C113.155 11.2642 113.217 11.1903 113.302 11.1776C115.291 10.8766 115.475 10.6888 115.771 8.66373C115.783 8.578 115.856 8.5144 115.941 8.5144C116.026 8.5144 116.099 8.578 116.111 8.66373C116.407 10.6888 116.591 10.8766 118.581 11.1776C118.665 11.1904 118.727 11.264 118.727 11.3508C118.727 11.4377 118.665 11.5113 118.581 11.524C116.591 11.8252 116.407 12.0133 116.111 14.0377C116.099 14.1239 116.026 14.1872 115.941 14.1872ZM114.291 11.3508C115.324 11.5977 115.699 11.9791 115.941 13.0305C116.183 11.9791 116.558 11.5977 117.591 11.3508C116.558 11.1041 116.183 10.7227 115.941 9.67111C115.699 10.7227 115.324 11.1041 114.291 11.3508Z" fill="black"/>
<path d="M73.5112 2.83652C71.4516 3.14832 71.2033 3.40104 70.897 5.49786C70.5908 3.40104 70.3425 3.14832 68.2828 2.83652C70.3425 2.52472 70.5908 2.272 70.897 0.175171C71.2033 2.272 71.4516 2.52472 73.5112 2.83652Z" fill="#F9EA31"/>
<path d="M70.8969 5.67281C70.8116 5.67281 70.7393 5.60922 70.7267 5.52349C70.4311 3.49863 70.2466 3.31078 68.2574 3.00964C68.1732 2.99685 68.1107 2.923 68.1107 2.83641C68.1107 2.74982 68.1732 2.67591 68.2574 2.66317C70.2466 2.36223 70.4311 2.17438 70.7267 0.149327C70.7393 0.0635986 70.8116 0 70.8969 0C70.9822 0 71.0546 0.0635986 71.0671 0.149327C71.3629 2.17438 71.5475 2.36223 73.5364 2.66317C73.6207 2.67596 73.6831 2.74956 73.6831 2.83641C73.6831 2.92325 73.6207 2.9969 73.5364 3.00964C71.5474 3.31078 71.3629 3.49863 71.0671 5.52349C71.0546 5.60922 70.9822 5.67281 70.8969 5.67281ZM69.247 2.83641C70.28 3.08329 70.6546 3.46468 70.8969 4.51631C71.1394 3.46468 71.5141 3.08329 72.5471 2.83641C71.5141 2.58973 71.1394 2.20834 70.8969 1.1567C70.6546 2.20834 70.28 2.58973 69.247 2.83641Z" fill="black"/>
<path d="M81.0241 9.68792C76.9898 10.353 76.5035 10.8922 75.9036 15.3651C75.3037 10.8922 74.8175 10.353 70.7831 9.68792C74.8175 9.02285 75.3038 8.48366 75.9036 4.01074C76.5035 8.48366 76.9898 9.0228 81.0241 9.68792Z" fill="#F9EA31"/>
<path d="M75.9036 15.7228C75.7279 15.7228 75.5791 15.5906 75.5554 15.4132C74.9745 11.0836 74.6135 10.6819 70.7269 10.0413C70.5567 10.0133 70.4315 9.86352 70.4315 9.68795C70.4315 9.51238 70.5567 9.36265 70.7269 9.33458C74.6135 8.69397 74.9745 8.29228 75.5554 3.9624C75.5791 3.78505 75.7278 3.65283 75.9036 3.65283C76.0794 3.65283 76.2281 3.78505 76.2519 3.9624C76.8325 8.29228 77.1935 8.69397 81.0804 9.33458C81.2506 9.3626 81.3758 9.51238 81.3758 9.68795C81.3758 9.86352 81.2506 10.0133 81.0804 10.0413C77.1936 10.6819 76.8326 11.0836 76.2519 15.4132C76.2281 15.5906 76.0795 15.7228 75.9036 15.7228ZM72.6174 9.68795C74.6715 10.2086 75.4233 11.0027 75.9036 13.2097C76.3838 11.0027 77.1355 10.2087 79.1899 9.68795C77.1355 9.16728 76.3838 8.37324 75.9036 6.16622C75.4233 8.37324 74.6716 9.16723 72.6174 9.68795Z" fill="black"/>
<path d="M45.7728 15.365C41.7384 16.0301 41.2521 16.5693 40.6523 21.0422C40.0524 16.5693 39.5661 16.0302 35.5318 15.365C39.5661 14.7 40.0524 14.1608 40.6523 9.68787C41.2522 14.1608 41.7384 14.6999 45.7728 15.365Z" fill="#F9EA31"/>
<path d="M40.6522 21.4001C40.4764 21.4001 40.3277 21.2679 40.3039 21.0906C39.7233 16.7605 39.3623 16.3588 35.4754 15.7182C35.3052 15.6899 35.1801 15.5404 35.1801 15.3648C35.1801 15.1893 35.3052 15.0397 35.4754 15.0115C39.3622 14.3708 39.7232 13.9696 40.3039 9.63952C40.3277 9.46218 40.4764 9.32996 40.6522 9.32996C40.828 9.32996 40.9767 9.46218 41.0004 9.63952C41.5813 13.9696 41.9423 14.3708 45.8289 15.0115C45.9991 15.0397 46.1243 15.1893 46.1243 15.3648C46.1243 15.5404 45.9991 15.6899 45.8289 15.7182C41.9423 16.3588 41.5813 16.7605 41.0004 21.0906C40.9767 21.2679 40.828 21.4001 40.6522 21.4001ZM37.3659 15.3648C39.4203 15.8855 40.1721 16.6798 40.6522 18.887C41.1325 16.6798 41.8843 15.8855 43.9384 15.3648C41.8843 14.8442 41.1325 14.0503 40.6522 11.8433C40.1721 14.0504 39.4203 14.8442 37.3659 15.3648Z" fill="black"/>
<path d="M69.9459 109.827H69.9085C65.5957 109.811 61.3423 106.987 57.6084 101.66C54.8141 97.6742 53.2623 93.6358 53.2468 93.5955C53.1807 93.4214 53.2712 93.228 53.4492 93.1632C53.627 93.0976 53.8249 93.1873 53.8917 93.361C53.9517 93.5186 60.0089 109.119 69.9111 109.155H69.947C79.8731 109.155 88.5522 94.0266 88.6389 93.8734C88.7307 93.7111 88.941 93.6529 89.1063 93.7422C89.2726 93.8319 89.3329 94.0367 89.2409 94.199C89.2187 94.2379 86.9903 98.1481 83.5307 101.999C78.9298 107.121 74.233 109.827 69.9459 109.827Z" fill="black"/>
<path d="M21.3717 151.921H5.54928C5.54928 151.921 -4.999 119.823 3.94409 117.78C12.8872 115.737 21.3716 151.921 21.3716 151.921H21.3717Z" fill="#F2E8E0"/>
<path d="M21.3716 152.271H5.54917C5.40117 152.271 5.26991 152.175 5.22291 152.032C4.88837 151.014 -2.92568 127.006 1.19899 119.563C1.83675 118.412 2.73495 117.697 3.86876 117.439C13.0324 115.329 21.3564 150.349 21.7061 151.84C21.7305 151.944 21.7068 152.054 21.6416 152.138C21.5762 152.222 21.4768 152.271 21.3715 152.271H21.3716ZM5.79844 151.571H20.9331C20.4684 149.668 18.4848 141.793 15.6874 134.202C11.5188 122.891 7.47972 117.332 4.01925 118.121C3.07045 118.339 2.34376 118.923 1.79828 119.907C-1.96607 126.7 4.97973 149.007 5.79844 151.571Z" fill="black"/>
<path d="M113.659 116.516C113.659 116.516 122.984 102.82 125.888 106.867C128.793 110.913 111.518 122.118 113.659 116.516Z" fill="#F2E8E0"/>
<path d="M114.287 118.392C113.997 118.392 113.755 118.337 113.57 118.219C113.228 118.001 112.911 117.506 113.338 116.389C113.348 116.363 113.36 116.339 113.376 116.316C113.668 115.887 120.568 105.818 124.451 105.769C124.462 105.769 124.472 105.769 124.482 105.769C125.175 105.769 125.742 106.069 126.166 106.66C127.065 107.912 126.438 109.779 124.353 112.057C121.562 115.106 116.523 118.392 114.287 118.392H114.287ZM113.965 116.68C113.868 116.943 113.706 117.479 113.936 117.626C114.902 118.242 120.374 115.376 123.85 111.58C124.895 110.437 126.515 108.332 125.611 107.073C125.319 106.667 124.949 106.469 124.481 106.469C124.474 106.469 124.467 106.469 124.46 106.469C121.542 106.506 115.919 113.818 113.965 116.68L113.965 116.68Z" fill="black"/>
</g>
<defs>
<clipPath id="clip0_101_4072">
<rect width="136" height="152.271" fill="white"/>
</clipPath>
</defs>
</svg>
