<svg width="136" height="143" viewBox="0 0 136 143" fill="none" xmlns="http://www.w3.org/2000/svg">
<g clip-path="url(#clip0_101_3942)">
<path d="M23.1622 142.432H117.7L135.62 108.471L108.35 114.722L103.162 53.6355L60.9467 114.722L23.1622 71.5174V118.9L0.380493 112.953L23.1622 142.432Z" fill="#D797CA"/>
<path d="M117.701 142.821H23.1623C23.0459 142.821 22.9359 142.766 22.8636 142.673L0.0816839 113.194C-0.019338 113.063 -0.0272883 112.881 0.0613557 112.741C0.150523 112.602 0.31691 112.536 0.474393 112.576L22.7819 118.399V71.5174C22.7819 71.3565 22.8794 71.2117 23.0265 71.1545C23.1736 71.0953 23.3406 71.1383 23.446 71.2583L60.9114 114.099L102.852 53.4113C102.944 53.2782 103.108 53.219 103.262 53.2605C103.416 53.303 103.527 53.4392 103.541 53.6022L108.691 114.246L135.536 108.092C135.682 108.059 135.832 108.115 135.923 108.236C136.013 108.358 136.025 108.522 135.954 108.656L118.035 142.617C117.969 142.742 117.84 142.821 117.7 142.821L117.701 142.821ZM23.3466 142.043H117.474L134.889 109.037L108.433 115.102C108.326 115.128 108.214 115.103 108.125 115.036C108.037 114.97 107.981 114.868 107.971 114.756L102.873 54.7279L61.2572 114.947C61.1904 115.043 61.0844 115.104 60.9685 115.111C60.8536 115.116 60.7407 115.07 60.6629 114.982L23.5426 72.5359V118.9C23.5426 119.02 23.4882 119.133 23.3955 119.207C23.3034 119.28 23.1841 119.307 23.0682 119.276L1.37578 113.614L23.3465 142.043L23.3466 142.043Z" fill="black"/>
<path d="M74.0013 85.1808C74.0013 85.1808 86.4659 79.9804 94.5803 87.7325C102.695 95.4845 107.727 112.629 107.727 112.629L88.871 114.876L90.8639 142.432H42.3046L43.9685 117.53L27.0903 118.814C27.0903 118.814 28.8653 101.517 37.874 91.2414C46.225 81.7162 74.0013 85.1808 74.0013 85.1808L74.0013 85.1808Z" fill="#5A78FF"/>
<path d="M90.8639 142.821H42.3046C42.1991 142.821 42.0985 142.776 42.0267 142.697C41.9549 142.619 41.9177 142.513 41.9252 142.406L43.559 117.951L27.1184 119.201C27.0065 119.208 26.8955 119.167 26.8173 119.084C26.7385 119.001 26.6999 118.888 26.7118 118.773C26.7296 118.599 28.6037 101.232 37.5907 90.9816C41.1253 86.9504 48.3467 84.6858 59.0543 84.2506C66.4728 83.9509 73.0771 84.6813 73.9502 84.7836C74.5084 84.5619 77.4205 83.4665 81.2182 83.1623C86.7284 82.7199 91.4419 84.2025 94.8398 87.4486C102.936 95.1828 108.04 112.345 108.091 112.517C108.123 112.627 108.106 112.746 108.044 112.843C107.983 112.939 107.882 113.002 107.771 113.015L89.277 115.219L91.2432 142.403C91.2511 142.511 91.2145 142.617 91.1427 142.697C91.0703 142.776 90.9698 142.821 90.8638 142.821L90.8639 142.821ZM42.7117 142.043H90.4543L88.4916 114.905C88.4767 114.696 88.6243 114.514 88.8269 114.489L107.226 112.297C106.37 109.562 101.543 94.9165 94.3207 88.0164C86.4743 80.5211 74.2672 85.4891 74.1449 85.5408C74.0849 85.5656 74.0191 85.5752 73.9552 85.5666C73.8859 85.558 66.9408 84.7086 59.0746 85.028C48.7336 85.4491 41.5003 87.6874 38.1573 91.5009C30.1489 100.636 27.887 115.577 27.5245 118.391L43.9404 117.142C44.0503 117.136 44.1583 117.175 44.2366 117.254C44.3148 117.334 44.3555 117.444 44.348 117.556L42.7117 142.043Z" fill="black"/>
<path d="M51.608 78.2368L50.3617 96.0077C50.3617 96.0077 51.2276 101.558 55.7519 101.517C69.3754 101.392 76.0778 93.5456 76.0778 93.5456L75.0635 71.5172L51.6079 78.2367L51.608 78.2368Z" fill="#E9AC00"/>
<path d="M55.7014 101.905C50.9514 101.905 49.995 96.1278 49.9861 96.069C49.9812 96.0396 49.9802 96.0098 49.9822 95.9799L51.2288 78.2089C51.2401 78.0454 51.3511 77.9068 51.5056 77.8627L74.9611 71.1433C75.0731 71.1094 75.1924 71.1332 75.2865 71.202C75.3801 71.2714 75.4381 71.3807 75.4435 71.4991L76.4578 93.5276C76.4623 93.6278 76.4291 93.726 76.3647 93.8014C76.2964 93.8814 69.3919 101.781 55.7555 101.905H55.7015H55.7014ZM50.7444 95.9886C50.8365 96.5191 51.7547 101.128 55.7019 101.128H55.7485C68.1627 101.014 74.8075 94.3506 75.6906 93.4016L74.7061 72.0236L51.9681 78.5374L50.7444 95.9886Z" fill="black"/>
<path d="M82.9498 62.9695C80.4238 62.0093 77.1934 62.8739 74.6594 64.9269L75.1424 53.6355H43.9685V75.2137C43.9612 83.9858 50.9787 91.3803 59.5606 91.2396C67.2733 91.1131 73.6006 85.1669 74.5288 77.5081C77.9582 78.4241 82.4234 76.3103 84.7738 72.5519C87.2542 68.5854 86.4375 64.2953 82.9497 62.9694L82.9498 62.9695Z" fill="#E9AC00"/>
<path d="M59.3183 91.6305C55.2582 91.6305 51.4036 89.9956 48.4374 87.0102C45.352 83.9044 43.5844 79.6045 43.5883 75.213V53.6356C43.5883 53.421 43.7587 53.2468 43.9687 53.2468H75.1424C75.2464 53.2468 75.3454 53.2903 75.4172 53.3668C75.489 53.4432 75.5267 53.5465 75.5222 53.6528L75.074 64.1304C77.6617 62.3133 80.7314 61.7115 83.0823 62.6048C84.632 63.194 85.7677 64.3805 86.2802 65.946C86.9523 67.997 86.5199 70.4813 85.0941 72.7616C82.7515 76.5087 78.4141 78.6903 74.8492 77.9807C73.7115 85.6668 67.2147 91.5029 59.5664 91.6285C59.4842 91.63 59.401 91.6305 59.3183 91.6305ZM44.3491 54.0243V75.2135C44.3456 79.398 46.0305 83.4959 48.9713 86.4564C51.8508 89.3548 55.6232 90.9107 59.5545 90.851C66.9656 90.7295 73.241 84.9724 74.1513 77.4603C74.1647 77.349 74.2246 77.2492 74.3152 77.186C74.4054 77.1227 74.5183 77.1029 74.6248 77.1318C77.9078 78.0069 82.225 75.9048 84.4532 72.3424C85.7543 70.2616 86.1574 68.0198 85.5591 66.1925C85.1144 64.8349 84.1664 63.8464 82.8169 63.3336C80.5119 62.4564 77.4012 63.201 74.8957 65.2312C74.7793 65.3254 74.6188 65.3411 74.4866 65.2728C74.3538 65.2034 74.2731 65.0617 74.2795 64.9093L74.7451 54.0242H44.3491V54.0243Z" fill="black"/>
<path d="M76.7347 73.7542C76.6767 73.7542 76.6183 73.7406 76.5628 73.7122C76.3756 73.6151 76.3008 73.3812 76.3959 73.1894C79.0029 67.9384 82.3994 67.6165 82.5431 67.6053C82.7531 67.5967 82.9353 67.7496 82.9512 67.9637C82.967 68.1768 82.811 68.3631 82.6025 68.3803C82.5718 68.3833 79.473 68.7108 77.0744 73.5417C77.007 73.6763 76.8733 73.7543 76.7346 73.7543L76.7347 73.7542Z" fill="black"/>
<path d="M61.5482 61.4685C62.4445 61.3913 63.8825 61.5043 65.026 62.7063C65.282 62.9753 65.683 62.635 65.5704 62.2416C65.2709 61.1952 64.771 60.0393 63.9828 59.7225C63.0391 59.3431 61.8409 59.3779 61.1654 59.9386C60.5832 60.422 60.8612 61.5278 61.5482 61.4686L61.5482 61.4685Z" fill="black"/>
<path d="M50.289 61.4587C49.3928 61.3798 47.9547 61.4903 46.8092 62.6903C46.5527 62.959 46.1523 62.618 46.2656 62.2247C46.5668 61.1789 47.0686 60.0238 47.8574 59.7083C48.8016 59.3306 49.9998 59.3675 50.6743 59.9294C51.2557 60.4138 50.9758 61.5191 50.289 61.4587Z" fill="black"/>
<path d="M55.0254 78.7243C54.9967 78.7243 54.9679 78.7212 54.9392 78.7141C51.5804 77.919 51.1144 75.1032 51.0514 74.2594C50.9732 73.2065 51.2208 72.0069 51.8458 71.7523C52.5877 71.4476 53.8338 72.3598 54.6485 73.0714L54.6535 67.2343C54.6535 67.0197 54.8238 66.8461 55.0338 66.8461H55.0343C55.2443 66.8461 55.4142 67.0202 55.4142 67.2353L55.4087 73.9516C55.4087 74.1075 55.3171 74.2488 55.1765 74.3095C55.0353 74.3692 54.8733 74.3389 54.7634 74.23C53.6877 73.162 52.4614 72.339 52.1281 72.4742C51.9701 72.5779 51.6676 73.4607 51.8592 74.6107C52.0261 75.6124 52.6704 77.3789 55.1106 77.957C55.3156 78.0056 55.4429 78.2141 55.3954 78.4232C55.3548 78.6028 55.1983 78.7243 55.0254 78.7243Z" fill="black"/>
<path d="M61.5876 82.1242C61.498 82.1242 61.4083 82.0923 61.336 82.0271C60.4327 81.2142 57.7612 79.2264 56.274 79.7822C55.6722 80.007 55.2879 80.6644 55.1314 81.737C55.1002 81.9496 54.9031 82.0903 54.699 82.0645C54.491 82.0326 54.3479 81.8347 54.3786 81.6226C54.5797 80.2464 55.1294 79.3813 56.0135 79.0518C58.2288 78.2212 61.6926 81.3119 61.8392 81.444C61.9967 81.5862 62.0116 81.8317 61.8729 81.9926C61.7976 82.0797 61.6926 82.1242 61.5876 82.1242Z" fill="black"/>
<path d="M62.2874 68.6399C62.2795 68.6399 62.2721 68.6393 62.2641 68.6393C60.3827 68.6252 59.1336 66.8495 59.0816 66.7741C58.9603 66.599 59.0014 66.357 59.1723 66.233C59.3441 66.109 59.5809 66.1505 59.7022 66.3251C59.7131 66.3403 60.7848 67.8537 62.274 67.8618C62.2785 67.8624 62.283 67.8624 62.2869 67.8624C63.3002 67.8624 64.3066 67.1709 65.2793 65.8078C65.4036 65.6342 65.6408 65.5963 65.8112 65.7228C65.9806 65.8494 66.0177 66.0928 65.8944 66.2664C64.7702 67.8411 63.5568 68.6399 62.2874 68.6399Z" fill="black"/>
<path d="M49.0932 68.6784C48.9317 68.6784 48.7683 68.6648 48.6049 68.6354C47.7263 68.4764 47.0091 67.8923 46.4733 66.8997C46.3717 66.7119 46.4386 66.4751 46.6223 66.3718C46.8066 66.2676 47.0374 66.3364 47.1389 66.5242C47.5579 67.3001 48.0947 67.7526 48.7346 67.8691C50.0832 68.114 51.5294 66.8526 51.5432 66.84C51.7032 66.6993 51.9429 66.7165 52.0796 66.879C52.2173 67.0405 52.201 67.286 52.043 67.4267C51.9795 67.4829 50.6181 68.6784 49.0932 68.6784Z" fill="black"/>
<path d="M59.5554 56.4862C68.1639 56.4862 75.1424 55.2098 75.1424 53.6354C75.1424 52.061 68.1639 50.7847 59.5554 50.7847C50.947 50.7847 43.9684 52.061 43.9684 53.6354C43.9684 55.2098 50.947 56.4862 59.5554 56.4862Z" fill="#E9AC00"/>
<path d="M59.5556 56.875C53.1376 56.875 43.5884 56.0125 43.5884 53.6356C43.5884 51.2586 53.1376 50.3961 59.5556 50.3961C65.9737 50.3961 75.5229 51.2586 75.5229 53.6356C75.5229 56.0125 65.9737 56.875 59.5556 56.875ZM59.5556 51.1736C49.5717 51.1736 44.3492 52.7766 44.3492 53.6356C44.3492 54.4945 49.5717 56.0976 59.5556 56.0976C69.5396 56.0976 74.7621 54.4945 74.7621 53.6356C74.7621 52.7766 69.5396 51.1736 59.5556 51.1736Z" fill="black"/>
<path d="M50.989 88.6337V94.4528C50.989 94.4528 64.3609 99.5629 70.9045 85.8218C70.9045 85.8218 62.209 94.995 50.989 88.6337Z" fill="black"/>
<path d="M56.68 95.7426C53.3657 95.7426 50.9132 94.8391 50.8557 94.8169C50.7071 94.7602 50.6086 94.6149 50.6086 94.4529V88.6335C50.6086 88.4958 50.6799 88.3683 50.7958 88.2984C50.9112 88.2285 51.0553 88.2265 51.1737 88.2933C62.012 94.4407 70.5463 85.641 70.6309 85.5514C70.7617 85.4137 70.9687 85.394 71.1227 85.5033C71.2758 85.6132 71.3282 85.8202 71.2466 85.9918C67.4157 94.0363 61.2339 95.7426 56.6799 95.7426L56.68 95.7426ZM51.3693 94.1765C53.1512 94.7784 63.5081 97.7278 69.6107 87.442C66.6273 89.7142 59.6823 93.6496 51.3693 89.2819V94.1765Z" fill="black"/>
<path d="M79.1068 21.1574C84.7184 21.1574 89.2674 16.5082 89.2674 10.7731C89.2674 5.038 84.7184 0.388794 79.1068 0.388794C73.4953 0.388794 68.9463 5.038 68.9463 10.7731C68.9463 16.5082 73.4953 21.1574 79.1068 21.1574Z" fill="#F9EA31"/>
<path d="M79.1069 21.546C73.2945 21.546 68.5658 16.7131 68.5658 10.7733C68.5658 4.83339 73.2945 0 79.1069 0C84.9193 0 89.6476 4.83291 89.6476 10.7733C89.6476 16.7136 84.9188 21.546 79.1069 21.546ZM79.1069 0.777468C73.714 0.777468 69.3265 5.26161 69.3265 10.7733C69.3265 16.2849 73.714 20.7686 79.1069 20.7686C84.4998 20.7686 88.8868 16.2849 88.8868 10.7733C88.8868 5.26156 84.4998 0.777468 79.1069 0.777468Z" fill="black"/>
<path d="M89.3918 15.3089C88.3572 15.3089 87.3683 15.5214 86.4656 15.9049C85.3549 13.0024 82.596 10.9395 79.3655 10.9395C77.8339 10.9395 76.4139 11.406 75.217 12.199C74.1723 8.18724 70.602 5.22766 66.3471 5.22766C66.2811 5.22766 66.2152 5.22766 66.1493 5.2328C66.0833 5.22766 66.0174 5.22766 65.9515 5.22766C61.6965 5.22766 58.1262 8.18724 57.0815 12.199C55.8846 11.406 54.4646 10.9395 52.933 10.9395C49.7025 10.9395 46.9436 13.0024 45.833 15.9049C44.9302 15.5214 43.9413 15.3089 42.9067 15.3089C38.6923 15.3089 35.2792 18.7972 35.2792 23.0991C35.2792 27.4011 38.6923 30.8946 42.9067 30.8946C44.2 30.8946 45.4222 30.5629 46.4922 29.9823C47.8413 32.1645 50.2198 33.6157 52.933 33.6157C54.637 33.6157 56.2092 33.0404 57.477 32.0764C58.7449 33.0404 60.317 33.6157 62.0211 33.6157C63.5425 33.6157 64.9575 33.1596 66.1493 32.377C67.3411 33.1596 68.756 33.6157 70.2774 33.6157C71.9814 33.6157 73.5536 33.0404 74.8215 32.0764C76.0893 33.0404 77.6615 33.6157 79.3655 33.6157C82.0787 33.6157 84.4573 32.1645 85.8063 29.9823C86.8764 30.5629 88.0986 30.8946 89.3918 30.8946C93.6062 30.8946 97.0193 27.4063 97.0193 23.0991C97.0193 18.792 93.6062 15.3089 89.3918 15.3089Z" fill="#CFE8FD"/>
<path d="M79.3654 34.0044C77.7281 34.0044 76.1631 33.5042 74.8214 32.5547C73.4797 33.5042 71.9147 34.0044 70.2774 34.0044C68.8183 34.0044 67.3964 33.6004 66.1494 32.8346C64.9018 33.6005 63.4794 34.0044 62.0209 34.0044C60.3836 34.0044 58.8185 33.5042 57.4769 32.5547C56.1352 33.5042 54.5702 34.0044 52.9328 34.0044C50.2906 34.0044 47.8589 32.6954 46.3612 30.4844C45.286 31.0078 44.0994 31.2832 42.9068 31.2832C38.4911 31.2832 34.8989 27.6119 34.8989 23.099C34.8989 18.5861 38.4911 14.9198 42.9068 14.9198C43.8404 14.9198 44.7531 15.0829 45.6248 15.4052C46.9144 12.4437 49.7433 10.5506 52.9328 10.5506C54.3091 10.5506 55.6548 10.9135 56.8557 11.6049C58.1236 7.5961 61.794 4.83899 65.9512 4.83899C66.0171 4.83899 66.0829 4.83951 66.1493 4.84304C66.2152 4.83951 66.281 4.83899 66.3469 4.83899C70.5041 4.83899 74.1745 7.5961 75.4423 11.6049C76.6428 10.914 77.9894 10.5506 79.3653 10.5506C82.5548 10.5506 85.3837 12.4437 86.6733 15.4052C87.545 15.0828 88.4577 14.9198 89.3918 14.9198C93.8071 14.9198 97.3992 18.5891 97.3992 23.099C97.3992 27.6089 93.8071 31.2832 89.3918 31.2832C88.1992 31.2832 87.0121 31.0078 85.9369 30.4844C84.4392 32.6954 82.0075 34.0044 79.3653 34.0044H79.3654ZM74.8214 31.6876C74.9011 31.6876 74.9809 31.7134 75.0482 31.7645C76.3072 32.7212 77.7999 33.2269 79.3654 33.2269C81.8606 33.2269 84.1482 31.9362 85.4849 29.7748C85.5904 29.6032 85.8093 29.5435 85.9846 29.6392C87.0296 30.2061 88.2078 30.5057 89.392 30.5057C93.3877 30.5057 96.6386 27.1832 96.6386 23.099C96.6386 19.0148 93.3877 15.6973 89.392 15.6973C88.4316 15.6973 87.4961 15.8881 86.6116 16.2637C86.517 16.3042 86.4115 16.3037 86.3169 16.2627C86.2228 16.2217 86.1485 16.1437 86.1114 16.0466C85.0144 13.1801 82.3662 11.328 79.3654 11.328C77.9688 11.328 76.6059 11.7421 75.4242 12.5246C75.3221 12.5925 75.1933 12.6056 75.0804 12.5616C74.9665 12.5166 74.8809 12.4189 74.8496 12.2989C73.8245 8.36447 70.3284 5.61646 66.347 5.61646C66.292 5.61746 66.2341 5.61646 66.1781 5.6205C66.1583 5.6215 66.14 5.6215 66.1212 5.6205C66.0643 5.61646 66.0083 5.61646 65.9513 5.61646C61.9699 5.61646 58.4739 8.36442 57.4487 12.2989C57.4175 12.4189 57.3318 12.5166 57.2179 12.5616C57.105 12.6056 56.9762 12.5925 56.8742 12.5246C55.6925 11.7421 54.3295 11.328 52.9329 11.328C49.9321 11.328 47.284 13.1801 46.1869 16.0466C46.1498 16.1437 46.0755 16.2217 45.9814 16.2627C45.8873 16.3037 45.7823 16.3042 45.6867 16.2637C44.8022 15.8881 43.8672 15.6973 42.9068 15.6973C38.9106 15.6973 35.6597 19.0178 35.6597 23.099C35.6597 27.1802 38.9106 30.5057 42.9068 30.5057C44.091 30.5057 45.2687 30.2061 46.3137 29.6392C46.4895 29.543 46.7074 29.6032 46.8135 29.7748C48.1502 31.9362 50.4378 33.2269 52.9329 33.2269C54.4984 33.2269 55.9911 32.7212 57.2501 31.7645C57.3848 31.6623 57.569 31.6623 57.7037 31.7645C58.9627 32.7212 60.4554 33.2269 62.0209 33.2269C63.4145 33.2269 64.7711 32.8199 65.9439 32.05C66.0687 31.9681 66.2301 31.9681 66.3549 32.05C67.5272 32.8199 68.8837 33.2269 70.2774 33.2269C71.8429 33.2269 73.3356 32.7212 74.5946 31.7645C74.662 31.7134 74.7417 31.6876 74.8214 31.6876Z" fill="black"/>
<path d="M60.8131 27.115H76.6015L68.7072 37.8268L79.5198 38.9931L60.1746 54.5425L65.4531 41.8438H54.9001L60.8131 27.115Z" fill="#F9EA31"/>
<path d="M60.1746 54.9313C60.0934 54.9313 60.0117 54.9045 59.9433 54.8514C59.8057 54.7435 59.7566 54.5537 59.8245 54.3908L64.8781 42.2326H54.9001C54.7733 42.2326 54.6549 42.1678 54.5841 42.0605C54.5138 41.9527 54.4999 41.8161 54.548 41.6961L60.4609 26.9671C60.5198 26.8214 60.6585 26.7262 60.813 26.7262H76.6014C76.7455 26.7262 76.8773 26.8097 76.9417 26.9413C77.006 27.0734 76.9922 27.2309 76.905 27.3488L69.4152 37.5126L79.5601 38.6065C79.7137 38.6232 79.8425 38.7335 79.8855 38.8853C79.9286 39.0377 79.8766 39.2007 79.7553 39.2989L60.4099 54.8484C60.3411 54.9035 60.2579 54.9314 60.1747 54.9314L60.1746 54.9313ZM55.4672 41.4552H65.4531C65.5809 41.4552 65.6997 41.5205 65.77 41.6292C65.8409 41.7381 65.8533 41.8758 65.8032 41.9957L61.1037 53.301L78.5488 39.2791L68.6674 38.2136C68.5312 38.199 68.4133 38.1104 68.3588 37.9818C68.3038 37.8532 68.3212 37.7049 68.4039 37.593L75.8388 27.5036H61.0681L55.4672 41.4551L55.4672 41.4552Z" fill="black"/>
<path d="M43.3475 29.0802H53.119L48.2332 35.7097L54.9251 36.4315L42.9524 46.0551L46.2192 38.1958H39.688L43.3475 29.0802Z" fill="#F9EA31"/>
<path d="M42.9524 46.4439C42.8712 46.4439 42.7895 46.4171 42.7211 46.364C42.5835 46.2561 42.5344 46.0663 42.6023 45.9034L45.6442 38.5847H39.6881C39.5614 38.5847 39.443 38.5199 39.3722 38.4126C39.3019 38.3048 39.288 38.1681 39.336 38.0482L42.9955 28.9326C43.0545 28.7868 43.1932 28.6917 43.3477 28.6917H53.1192C53.2633 28.6917 53.3951 28.7752 53.4594 28.9068C53.5238 29.0389 53.51 29.1963 53.4228 29.3143L48.9417 35.3954L54.9655 36.0448C55.1191 36.0615 55.2478 36.1718 55.2909 36.3237C55.334 36.476 55.282 36.639 55.1607 36.7372L43.1878 46.361C43.1189 46.4162 43.0357 46.444 42.9526 46.444L42.9524 46.4439ZM40.2552 37.8072H46.2191C46.3469 37.8072 46.4658 37.8725 46.5361 37.9813C46.607 38.0901 46.6193 38.2278 46.5693 38.3478L43.8815 44.8135L53.9541 36.7174L48.1933 36.0963C48.0571 36.0817 47.9392 35.9931 47.8847 35.8645C47.8297 35.7359 47.8471 35.5876 47.9298 35.4757L52.3564 29.469H43.6027L40.2552 37.8071V37.8072Z" fill="black"/>
<path d="M83.6464 29.0802H93.4177L88.532 35.7097L95.2239 36.4315L83.2512 46.0551L86.5181 38.1958H79.9869L83.6464 29.0802Z" fill="#F9EA31"/>
<path d="M83.2512 46.4439C83.17 46.4439 83.0883 46.4171 83.02 46.364C82.8823 46.2561 82.8332 46.0663 82.9011 45.9034L85.943 38.5847H79.987C79.8602 38.5847 79.7418 38.5199 79.671 38.4126C79.6007 38.3048 79.5868 38.1681 79.6349 38.0482L83.2944 28.9326C83.3533 28.7868 83.492 28.6917 83.6465 28.6917H93.418C93.5621 28.6917 93.6939 28.7752 93.7583 28.9068C93.8226 29.0389 93.8088 29.1963 93.7216 29.3143L89.2405 35.3954L95.2639 36.0448C95.4174 36.0615 95.5462 36.1718 95.5893 36.3237C95.6324 36.476 95.5804 36.639 95.459 36.7372L83.4866 46.361C83.4178 46.4162 83.3345 46.444 83.2514 46.444L83.2512 46.4439ZM80.5541 37.8072H86.518C86.6457 37.8072 86.7646 37.8725 86.8349 37.9813C86.9058 38.0901 86.9182 38.2278 86.8681 38.3478L84.1803 44.8135L94.2524 36.7174L88.492 36.0963C88.3558 36.0817 88.238 35.9931 88.1835 35.8645C88.1285 35.7359 88.1458 35.5876 88.2286 35.4757L92.6552 29.469H83.9015L80.554 37.8071L80.5541 37.8072Z" fill="black"/>
<path d="M107.727 112.629L112.743 129.474C114.663 135.921 109.943 142.432 103.348 142.432H79.4954L66.7056 99.5353C66.7056 99.5353 62.2102 94.7119 64.2387 92.1204C64.2387 92.1204 73.8745 78.1258 73.621 76.9597C73.3674 75.7934 76.5531 75.3302 76.7352 77.6999C76.7352 77.6999 77.9629 73.461 79.6536 74.7568C81.3443 76.0526 80.1206 76.7511 80.1206 76.7511C80.1206 76.7511 82.7745 77.2279 82.5719 79.2966C82.3692 81.3653 78.9883 91.2415 78.9883 91.2415L86.2086 108.471L90.1573 114.722L107.727 112.629Z" fill="#E9AC00"/>
<path d="M103.348 142.821H79.4952C79.3278 142.821 79.1802 142.709 79.1312 142.545L66.3673 99.7352C65.7908 99.0975 61.8451 94.5561 63.9416 91.8775C68.4227 85.3682 73.2163 77.932 73.2455 77.0109C73.1688 76.6717 73.3015 76.3047 73.6145 76.038C74.1489 75.5819 75.1136 75.4807 75.86 75.8016C76.2349 75.9626 76.5341 76.2122 76.747 76.5335C77.119 75.6412 77.7504 74.4775 78.5973 74.1905C78.8999 74.0897 79.366 74.0497 79.882 74.4461C80.611 75.0049 80.9627 75.5662 80.9265 76.1149C80.9161 76.2758 80.8735 76.4166 80.8161 76.537C81.8462 76.8995 83.1041 77.7609 82.9501 79.3351C82.7565 81.3132 79.8285 89.957 79.3957 91.227L86.5452 108.288L90.3483 114.308L107.682 112.243C107.864 112.225 108.037 112.336 108.091 112.515L113.107 129.361C114.057 132.553 113.488 135.921 111.544 138.602C109.601 141.283 106.613 142.821 103.348 142.821ZM79.777 142.043H103.348C106.369 142.043 109.134 140.62 110.933 138.139C112.732 135.658 113.259 132.541 112.379 129.588L107.455 113.053L90.2012 115.109C90.0521 115.123 89.9159 115.057 89.8377 114.933L85.889 108.682C85.8771 108.664 85.8672 108.644 85.8587 108.624L78.6383 91.3941C78.6007 91.3051 78.5977 91.2048 78.6289 91.1127C78.6626 91.0145 81.9977 81.2576 82.1933 79.2582C82.3587 77.5681 80.078 77.1384 80.0547 77.1339C79.8962 77.1055 79.7724 76.9785 79.7457 76.816C79.7189 76.654 79.7947 76.492 79.9349 76.4121C79.9349 76.4121 80.1562 76.2744 80.1676 76.0582C80.181 75.8011 79.9106 75.4397 79.4252 75.0677C79.1503 74.8576 78.9577 74.887 78.8364 74.929C78.1079 75.1755 77.3843 76.8271 77.0995 77.8101C77.0475 77.9898 76.8751 78.1052 76.6954 78.0865C76.5131 78.0667 76.37 77.9169 76.3556 77.7301C76.2986 76.985 75.894 76.6596 75.5646 76.5179C75.0203 76.2835 74.381 76.3964 74.1016 76.6348C73.965 76.7512 73.9838 76.8383 73.9922 76.8752C74.2537 78.0794 67.476 88.0944 64.5495 92.3442C63.0415 94.2717 65.7941 97.9941 66.9808 99.2671C67.0219 99.3111 67.0521 99.3642 67.0694 99.4219L79.7768 142.043H79.777Z" fill="black"/>
<path d="M103.163 131.555C103.023 131.555 102.889 131.477 102.822 131.34C101.25 128.127 97.437 127.929 97.3988 127.927C97.2691 127.921 97.1507 127.848 97.0854 127.733L89.8278 114.917C89.7229 114.731 89.7848 114.494 89.9665 114.386C90.1488 114.277 90.381 114.342 90.4865 114.527L97.6436 127.166C98.537 127.255 101.939 127.797 103.502 130.993C103.597 131.185 103.52 131.418 103.332 131.514C103.278 131.542 103.22 131.555 103.163 131.555L103.163 131.555Z" fill="black"/>
<path d="M77.3819 85.0797C77.312 85.0797 77.2417 85.06 77.1783 85.019C77.001 84.9036 76.9485 84.6636 77.0614 84.4824C78.1995 82.6552 79.7373 76.7123 79.7527 76.6525C79.8067 76.445 80.0172 76.322 80.2172 76.3752C80.4208 76.4298 80.5421 76.6424 80.4886 76.8499C80.4243 77.099 78.9043 82.9705 77.7033 84.8995C77.631 85.0159 77.5077 85.0797 77.3819 85.0797Z" fill="black"/>
<path d="M74.0008 83.8623C73.921 83.8623 73.8403 83.8365 73.7714 83.7834C73.6041 83.6538 73.5714 83.4098 73.6981 83.2387C74.9957 81.4904 76.3057 77.2791 76.319 77.2371C76.3819 77.0327 76.5939 76.9167 76.796 76.9835C76.9965 77.0478 77.1075 77.2665 77.0441 77.471C76.9891 77.6492 75.6806 81.8539 74.3043 83.7085C74.2295 83.8092 74.1156 83.8623 74.0008 83.8623Z" fill="black"/>
<path d="M28.1045 112.629L23.6581 127.56C21.4545 134.96 26.8716 142.432 34.4396 142.432H42.3886L55.1784 99.5353C55.1784 99.5353 59.6739 94.7119 57.6453 92.1204C57.6453 92.1204 48.0095 78.1258 48.2631 76.9597C48.5166 75.7934 45.331 75.3302 45.1488 77.6999C45.1488 77.6999 43.9212 73.461 42.2305 74.7568C40.5398 76.0526 41.7634 76.7512 41.7634 76.7512C41.7634 76.7512 39.1095 77.2279 39.3122 79.2966C39.5148 81.3653 42.8958 91.2415 42.8958 91.2415L35.6755 108.471L31.7268 114.722L28.1046 112.629H28.1045Z" fill="#E9AC00"/>
<path d="M42.3888 142.821H34.4399C30.7111 142.821 27.2992 141.064 25.079 138.003C22.8592 134.94 22.2085 131.093 23.2941 127.447L27.7405 112.516C27.7742 112.403 27.8564 112.312 27.9633 112.268C28.0703 112.224 28.1907 112.233 28.2917 112.29L31.602 114.204L35.3387 108.288L42.4883 91.2272C42.0555 89.9572 39.1274 81.3134 38.9338 79.3352C38.7798 77.7611 40.0378 76.8996 41.0679 76.5371C41.0104 76.4167 40.9679 76.276 40.9575 76.115C40.9213 75.5663 41.2729 75.005 42.0019 74.4462C42.5185 74.0493 42.985 74.0893 43.2867 74.1906C44.1336 74.4776 44.765 75.6413 45.137 76.5337C45.3499 76.2123 45.6491 75.9627 46.024 75.8018C46.7708 75.4808 47.7356 75.5821 48.2695 76.0381C48.5825 76.3049 48.7152 76.6719 48.6345 77.0444C48.6677 77.9322 53.4613 85.3683 57.9563 91.8968C60.0399 94.5573 56.0931 99.0976 55.5166 99.7354L42.7528 142.545C42.7038 142.709 42.5562 142.821 42.3888 142.821V142.821ZM28.3303 113.206L24.0221 127.674C23.0073 131.081 23.6155 134.678 25.6901 137.539C27.7653 140.402 30.9542 142.043 34.4399 142.043H42.107L54.8144 99.422C54.8317 99.3643 54.862 99.3112 54.903 99.2672C54.9456 99.2216 59.1464 94.6605 57.3481 92.3635C54.4078 88.0945 47.6301 78.0795 47.8916 76.8753C47.9001 76.8384 47.9189 76.7513 47.7822 76.6349C47.5029 76.3965 46.864 76.2836 46.3192 76.518C45.9898 76.6597 45.5852 76.9852 45.5282 77.7302C45.5139 77.917 45.3712 78.0668 45.189 78.0866C45.0018 78.0987 44.8364 77.9899 44.7844 77.8102C44.4986 76.8267 43.7741 75.1746 43.047 74.9286C42.9271 74.8886 42.7335 74.8577 42.4586 75.0678C41.9733 75.4399 41.7029 75.8012 41.7163 76.0584C41.7276 76.2755 41.9505 76.4127 41.953 76.4142C42.0897 76.4972 42.1635 76.6597 42.1348 76.8191C42.1065 76.9791 41.9862 77.1056 41.8297 77.1339C41.7356 77.1511 39.5262 77.5758 39.6907 79.2583C39.8868 81.2577 43.2214 91.0145 43.2551 91.1128C43.2862 91.2049 43.2833 91.3051 43.2456 91.3942L36.0252 108.624C36.0168 108.644 36.0069 108.664 35.995 108.682L32.0463 114.934C31.9373 115.106 31.715 115.162 31.5397 115.061L28.3304 113.206L28.3303 113.206Z" fill="black"/>
<path d="M44.5021 85.0797C44.3763 85.0797 44.253 85.0159 44.1807 84.8995C42.9796 82.9705 41.4597 77.099 41.3953 76.8499C41.3418 76.6424 41.4632 76.4298 41.6667 76.3751C41.8688 76.322 42.0778 76.445 42.1313 76.6525C42.1466 76.7123 43.6844 82.6552 44.8225 84.4824C44.9355 84.6636 44.883 84.9035 44.7057 85.0189C44.6428 85.0599 44.5719 85.0797 44.5021 85.0797Z" fill="black"/>
<path d="M47.8832 83.8623C47.7683 83.8623 47.6544 83.8092 47.5796 83.7085C46.2033 81.8539 44.8948 77.6492 44.8399 77.471C44.7765 77.2665 44.8874 77.0478 45.088 76.9835C45.29 76.9167 45.502 77.0326 45.5649 77.2371C45.5783 77.2791 46.8888 81.4915 48.1858 83.2387C48.3126 83.4098 48.2799 83.6538 48.1125 83.7834C48.0437 83.8365 47.9629 83.8623 47.8832 83.8623H47.8832Z" fill="black"/>
<path d="M27.0897 124.472C27.0322 124.472 26.9733 124.458 26.9184 124.43C26.7312 124.333 26.6558 124.099 26.751 123.907L31.3876 114.547C31.4822 114.356 31.7105 114.276 31.8987 114.376C32.0859 114.472 32.1612 114.706 32.0661 114.898L27.4295 124.259C27.3626 124.394 27.2289 124.472 27.0897 124.472Z" fill="black"/>
<path d="M64.4923 71.5172C64.4923 71.5172 59.8908 77.2187 63.713 78.7736C67.5352 80.3286 64.4923 71.5172 64.4923 71.5172Z" fill="#CFE8FD"/>
<path d="M64.5186 79.3478C64.2368 79.3478 63.9208 79.2769 63.5721 79.1352C62.6727 78.7692 62.1111 78.1633 61.9031 77.3343C61.2934 74.9062 64.0798 71.4171 64.1991 71.2699C64.2858 71.1625 64.422 71.1089 64.5587 71.1347C64.6939 71.159 64.8053 71.2557 64.8509 71.3878C65.203 72.4077 66.8874 77.5676 65.4492 78.9803C65.2 79.2253 64.889 79.3477 64.5186 79.3477L64.5186 79.3478ZM64.3601 72.3404C63.6305 73.3821 62.2557 75.6123 62.64 77.1419C62.7866 77.7245 63.1833 78.1401 63.8534 78.4124C64.3581 78.6179 64.7182 78.6209 64.9217 78.4199C65.681 77.6744 65.0436 74.5473 64.3601 72.3403L64.3601 72.3404Z" fill="black"/>
</g>
<defs>
<clipPath id="clip0_101_3942">
<rect width="136" height="142.821" fill="white"/>
</clipPath>
</defs>
</svg>
