<svg width="152" height="149" viewBox="0 0 152 149" fill="none" xmlns="http://www.w3.org/2000/svg">
<path d="M76.1375 21.0386C81.5634 21.0386 85.9619 16.3944 85.9619 10.6654C85.9619 4.93644 81.5634 0.292183 76.1375 0.292183C70.7116 0.292183 66.313 4.93644 66.313 10.6654C66.313 16.3944 70.7116 21.0386 76.1375 21.0386Z" fill="#68AFE8"/>
<path d="M76.1374 21.3306C70.5675 21.3306 66.0361 16.5463 66.0361 10.6655C66.0361 4.78471 70.5675 0 76.1374 0C81.7073 0 86.2386 4.78447 86.2386 10.6655C86.2386 16.5466 81.7072 21.3306 76.1374 21.3306ZM76.1374 0.584179C70.8726 0.584179 66.5894 5.10661 66.5894 10.6655C66.5894 16.2244 70.8726 20.7465 76.1374 20.7465C81.4023 20.7465 85.6853 16.2242 85.6853 10.6655C85.6853 5.10684 81.402 0.584179 76.1374 0.584179Z" fill="black"/>
<path d="M76.1376 26.2766C80.0429 26.2766 83.2087 22.9339 83.2087 18.8105C83.2087 14.687 80.0429 11.3443 76.1376 11.3443C72.2323 11.3443 69.0664 14.687 69.0664 18.8105C69.0664 22.9339 72.2323 26.2766 76.1376 26.2766Z" fill="#F9EA31"/>
<path d="M76.1375 26.5687C72.0857 26.5687 68.7896 23.0882 68.7896 18.8105C68.7896 14.5329 72.0857 11.0523 76.1375 11.0523C80.1892 11.0523 83.4852 14.5329 83.4852 18.8105C83.4852 23.0882 80.189 26.5687 76.1375 26.5687ZM76.1375 11.6365C72.3908 11.6365 69.3428 14.8546 69.3428 18.8105C69.3428 22.7665 72.3908 25.9845 76.1375 25.9845C79.8841 25.9845 82.9319 22.7665 82.9319 18.8105C82.9319 14.8546 79.8839 11.6365 76.1375 11.6365Z" fill="black"/>
<path d="M76.1374 53.8659C86.0424 53.8659 94.0719 45.1046 94.0719 34.2969C94.0719 23.4893 86.0424 14.728 76.1374 14.728C66.2324 14.728 58.2029 23.4893 58.2029 34.2969C58.2029 45.1046 66.2324 53.8659 76.1374 53.8659Z" fill="#68AFE8"/>
<path d="M76.1376 54.1579C66.0959 54.1579 57.9263 45.2484 57.9263 34.2969C57.9263 23.3453 66.0959 14.4358 76.1376 14.4358C86.1792 14.4358 94.3487 23.3453 94.3487 34.2969C94.3487 45.2484 86.1792 54.1579 76.1376 54.1579ZM76.1376 15.0201C66.401 15.0201 58.4796 23.6675 58.4796 34.2969C58.4796 44.9262 66.401 53.5737 76.1376 53.5737C85.8741 53.5737 93.7954 44.9262 93.7954 34.2969C93.7954 23.6675 85.8741 15.0201 76.1376 15.0201Z" fill="black"/>
<path d="M92.8624 43.0347C94.5481 40.1695 94.3036 36.899 92.3164 35.7299C90.3292 34.5608 87.3518 35.9358 85.6662 38.801C83.9805 41.6662 84.225 44.9367 86.2122 46.1058C88.1993 47.2749 91.1768 45.8999 92.8624 43.0347Z" fill="#D797CA"/>
<path d="M87.7837 46.8094C87.0688 46.8094 86.3934 46.6101 85.8167 46.1898C83.8265 44.7388 83.7537 41.1936 85.6544 38.2867C86.5656 36.8931 87.7907 35.8472 89.1044 35.342C90.4516 34.8232 91.7324 34.932 92.7113 35.6456C93.6905 36.3595 94.2399 37.586 94.2584 39.099C94.2766 40.5752 93.7847 42.1555 92.8736 43.5486C91.5234 45.6135 89.5354 46.8093 87.7837 46.8093L87.7837 46.8094ZM90.7341 35.6041C90.2771 35.6041 89.792 35.6993 89.2937 35.8909C88.087 36.3549 86.9563 37.3236 86.1098 38.6183C84.3824 41.2602 84.3919 44.441 86.1312 45.7091C87.8703 46.9779 90.6905 45.8593 92.4183 43.2171C93.2648 41.9224 93.7219 40.4627 93.7054 39.1067C93.6891 37.7881 93.2245 36.7296 92.3969 36.1264C91.9207 35.7791 91.3535 35.6041 90.7341 35.6041Z" fill="black"/>
<path d="M89.2642 48.2432C90.6664 48.2432 91.8032 47.043 91.8032 45.5625C91.8032 44.0819 90.6664 42.8817 89.2642 42.8817C87.862 42.8817 86.7253 44.0819 86.7253 45.5625C86.7253 47.043 87.862 48.2432 89.2642 48.2432Z" fill="#F2E8E0"/>
<path d="M89.2642 48.5353C87.7117 48.5353 86.4487 47.2018 86.4487 45.5626C86.4487 43.9234 87.7117 42.5895 89.2642 42.5895C90.8168 42.5895 92.0799 43.9233 92.0799 45.5626C92.0799 47.2019 90.8168 48.5353 89.2642 48.5353ZM89.2642 43.1736C88.0168 43.1736 87.002 44.2454 87.002 45.5626C87.002 46.8797 88.0168 47.9511 89.2642 47.9511C90.5117 47.9511 91.5266 46.8797 91.5266 45.5626C91.5266 44.2454 90.5117 43.1736 89.2642 43.1736Z" fill="black"/>
<path d="M67.5134 45.2291V58.1875L64.4922 60.4525C64.4922 60.4525 70.7719 71.0488 76.2959 71.356C83.1991 70.6215 88.369 60.6473 88.369 60.6473C86.494 59.6736 85.3774 59.0317 84.9184 56.7629V49.3271L67.5134 45.2291Z" fill="#D797CA"/>
<path d="M76.2958 71.6483C76.2909 71.6483 76.2861 71.6483 76.2812 71.6479C73.9136 71.5163 71.1664 69.6104 68.1155 65.9831C65.8658 63.3081 64.2734 60.6343 64.2575 60.6073C64.1797 60.4765 64.2124 60.3038 64.3319 60.2145L67.2366 58.0366V45.229C67.2366 45.1403 67.2747 45.0567 67.3401 45.0012C67.4055 44.9453 67.4916 44.9251 67.5733 44.9437L84.9785 49.0419C85.1051 49.072 85.195 49.1902 85.195 49.3271V56.7316C85.6236 58.8094 86.6225 59.4149 88.491 60.3852C88.5587 60.4202 88.6099 60.4833 88.6326 60.559C88.6554 60.6351 88.6479 60.7176 88.6115 60.7876C88.5986 60.8127 87.2794 63.3393 85.1287 65.9192C83.1295 68.3172 79.9788 71.2576 76.3235 71.6467C76.3143 71.6479 76.305 71.6483 76.2958 71.6483ZM64.868 60.529C65.8231 62.0701 71.424 70.7681 76.2893 71.0633C82.3374 70.4023 87.1065 62.3436 87.9824 60.7713C86.1658 59.8154 85.1039 59.0783 84.6478 56.8237C84.6437 56.8039 84.6417 56.7834 84.6417 56.7628V49.5614L67.7898 45.5934V58.1876C67.7898 58.2823 67.7465 58.371 67.6733 58.4257L64.868 60.529Z" fill="black"/>
<path d="M59.269 34.2991C61.1068 33.5793 63.456 34.231 65.2977 35.7753V31.0582C65.2977 31.0582 74.002 31.145 76.3074 26.2766C80.2539 30.4634 87.6141 29.3928 87.6141 29.3928V43.525C87.6141 50.1165 82.5055 55.6683 76.2636 55.5569C70.654 55.4568 66.0555 50.9846 65.385 45.2291C62.8902 45.9152 59.6437 44.324 57.9365 41.4983C56.1348 38.5162 56.7314 35.2931 59.269 34.2991H59.269Z" fill="#D797CA"/>
<path d="M76.4492 55.8504C76.3856 55.8504 76.3224 55.85 76.2588 55.8489C70.6963 55.7496 65.9743 51.3605 65.1516 45.5843C62.5551 46.111 59.4052 44.4722 57.7032 41.6553C56.6676 39.9415 56.3547 38.0744 56.8446 36.5337C57.2185 35.3576 58.0453 34.4669 59.1727 34.0253C60.9182 33.3411 63.117 33.7914 65.0209 35.1937V31.0583C65.0209 30.9803 65.0505 30.9058 65.1029 30.8506C65.1553 30.7958 65.2423 30.7734 65.3001 30.7662C65.3878 30.7589 73.8592 30.7931 76.0599 26.1462C76.0997 26.0617 76.1755 26.0032 76.2634 25.9883C76.3515 25.9723 76.4406 26.0039 76.5035 26.0704C80.3086 30.1074 87.5042 29.1136 87.5761 29.1033C87.6552 29.0923 87.7357 29.117 87.7956 29.1725C87.8559 29.2281 87.8906 29.3083 87.8906 29.3928V43.5251C87.8906 46.8245 86.6024 50.0544 84.3563 52.3859C82.1998 54.6249 79.3984 55.8504 76.4492 55.8504ZM65.3849 44.9369C65.4398 44.9369 65.494 44.954 65.5403 44.9875C65.6062 45.0347 65.6497 45.11 65.6595 45.1933C66.3171 50.839 70.8779 55.1685 76.2682 55.2647C79.1247 55.3187 81.8719 54.1457 83.9684 51.9694C86.1094 49.7467 87.3372 46.669 87.3372 43.5251V29.7206C85.8956 29.8746 79.9859 30.2592 76.3766 26.7521C75.3149 28.6469 73.1204 30.0348 69.9987 30.778C68.0174 31.25 66.2429 31.3336 65.5742 31.3477V35.7753C65.5742 35.8875 65.5135 35.9894 65.4178 36.0385C65.3223 36.0864 65.2085 36.0735 65.1255 36.0039C63.3044 34.4772 61.0433 33.9154 59.365 34.573C58.3835 34.9576 57.6932 35.6996 57.3691 36.7196C56.9326 38.0923 57.2245 39.7768 58.1696 41.3412C59.7877 44.0195 62.9256 45.6025 65.3151 44.9464C65.338 44.94 65.3617 44.9369 65.3849 44.9369Z" fill="black"/>
<path d="M63.7828 42.4069C63.682 42.4069 63.5846 42.3483 63.5359 42.2467C61.7822 38.5898 59.542 38.3672 59.5195 38.3654C59.3671 38.3528 59.2531 38.2124 59.265 38.0516C59.2767 37.8907 59.4107 37.7736 59.562 37.7827C59.6663 37.7914 62.1367 38.0356 64.0295 41.9828C64.0986 42.1266 64.0441 42.3027 63.9077 42.3753C63.8676 42.3966 63.8251 42.4069 63.7829 42.4069L63.7828 42.4069Z" fill="black"/>
<path d="M71.99 34.2318C71.3371 34.2772 70.315 34.5261 69.6204 35.5503C69.4649 35.7796 69.1404 35.5728 69.1795 35.2675C69.2836 34.4557 69.5203 33.5396 70.0534 33.2137C70.6918 32.8236 71.5572 32.712 72.1026 33.0512C72.5727 33.3435 72.4903 34.1969 71.99 34.2318Z" fill="black"/>
<path d="M83.3339 34.1331C83.9878 34.1112 85.0281 34.254 85.8137 35.202C85.9896 35.4143 86.2935 35.1751 86.2264 34.8753C86.048 34.0781 85.7281 33.1905 85.1674 32.921C84.4962 32.5983 83.6246 32.576 83.1131 32.9696C82.6721 33.3088 82.8327 34.1498 83.3339 34.1331Z" fill="black"/>
<path d="M77.1183 45.3804C76.9923 45.3804 76.8784 45.2891 76.8489 45.1541C76.8147 44.9966 76.9074 44.8399 77.0564 44.8038C78.8315 44.371 79.3011 43.0443 79.4231 42.2916C79.5632 41.4275 79.3438 40.7638 79.2233 40.6832C78.9938 40.5824 78.0805 41.2145 77.3113 42.0034C77.2313 42.0851 77.113 42.1079 77.0108 42.0627C76.9083 42.017 76.8419 41.9113 76.8419 41.7938V36.747C76.8419 36.5858 76.9658 36.4549 77.1186 36.4549C77.2713 36.4549 77.3952 36.5857 77.3952 36.747V41.1331C77.9879 40.5987 78.8944 39.9153 79.4346 40.1434C79.889 40.3351 80.0685 41.2365 80.0109 42.0273C79.9648 42.6617 79.6242 44.7775 77.1806 45.3727C77.1597 45.3781 77.1389 45.3804 77.1183 45.3804Z" fill="black"/>
<path d="M74.2898 49.9943C73.4855 49.9943 72.7931 49.7828 72.2225 49.3615C70.898 48.3832 70.6231 46.5614 70.5196 45.8756C70.5063 45.7874 70.4974 45.7209 70.4882 45.6821C70.4339 45.5543 70.4733 45.3998 70.5873 45.3196C70.7141 45.2306 70.8859 45.266 70.9709 45.4006C71.0199 45.4782 71.0323 45.5611 71.066 45.7836C71.1593 46.4028 71.4075 48.0466 72.5397 48.883C73.2317 49.3935 74.1603 49.5349 75.2988 49.3003C75.4492 49.2676 75.5939 49.3733 75.6232 49.5311C75.6524 49.6898 75.5544 49.843 75.4044 49.8738C75.0123 49.9544 74.6404 49.9944 74.2899 49.9944L74.2898 49.9943Z" fill="black"/>
<path d="M61.2437 48.2432C62.6459 48.2432 63.7826 47.043 63.7826 45.5625C63.7826 44.0819 62.6459 42.8817 61.2437 42.8817C59.8415 42.8817 58.7048 44.0819 58.7048 45.5625C58.7048 47.043 59.8415 48.2432 61.2437 48.2432Z" fill="#F2E8E0"/>
<path d="M61.2439 48.5353C59.6913 48.5353 58.4282 47.2018 58.4282 45.5626C58.4282 43.9234 59.6913 42.5895 61.2439 42.5895C62.7964 42.5895 64.0594 43.9233 64.0594 45.5626C64.0594 47.2019 62.7964 48.5353 61.2439 48.5353ZM61.2439 43.1736C59.9964 43.1736 58.9815 44.2454 58.9815 45.5626C58.9815 46.8797 59.9964 47.9511 61.2439 47.9511C62.4914 47.9511 63.5061 46.8797 63.5061 45.5626C63.5061 44.2454 62.4914 43.1736 61.2439 43.1736Z" fill="black"/>
<path d="M67.3568 50.5933C67.3568 50.5933 71.1551 58.3754 75.7659 59.6736C80.3767 60.9719 84.9181 51.3096 84.9181 51.3096C84.9181 51.3096 75.7924 60.6621 67.3567 50.5934L67.3568 50.5933Z" fill="black"/>
<path d="M76.6389 60.0867C76.326 60.0867 76.011 60.0448 75.6946 59.9558C71.0191 58.6395 67.2681 51.0498 67.1109 50.7272C67.0469 50.596 67.0853 50.4355 67.2006 50.3522C67.3159 50.2693 67.4716 50.2895 67.5638 50.3998C70 53.3074 72.7276 54.8425 75.6706 54.9623C80.6929 55.1574 84.6856 51.1403 84.7256 51.1C84.8221 51.0007 84.973 50.9904 85.0813 51.0737C85.1901 51.1578 85.2257 51.3118 85.1659 51.4393C84.9889 51.8158 81.0472 60.0867 76.6388 60.0867L76.6389 60.0867ZM68.7041 52.4274C70.143 54.7915 72.8346 58.5459 75.8372 59.3914C79.1581 60.324 82.5423 55.0795 83.9686 52.5201C82.3891 53.762 79.3214 55.6895 75.654 55.5461C73.1696 55.4465 70.8393 54.399 68.7041 52.4274Z" fill="black"/>
<path d="M71.0215 39.6555H70.9963C70.2588 39.6471 69.5774 39.285 68.9713 38.5787C68.8687 38.4589 68.8773 38.2745 68.9906 38.1661C69.1039 38.0585 69.2788 38.0668 69.3812 38.1863C69.8798 38.7671 70.425 39.0648 71.002 39.0713H71.0215C72.0371 39.0713 72.837 38.1909 72.8451 38.1817C72.9501 38.065 73.1252 38.0596 73.2361 38.1703C73.3472 38.281 73.3521 38.4659 73.2471 38.5834C73.2076 38.6271 72.2727 39.6556 71.0215 39.6556L71.0215 39.6555Z" fill="black"/>
<path d="M82.9454 39.6555C81.6942 39.6555 80.7593 38.627 80.7198 38.5833C80.615 38.4661 80.6199 38.2817 80.7306 38.1706C80.8414 38.0599 81.0165 38.0653 81.1215 38.1813C81.1296 38.1904 81.9363 39.0713 82.9458 39.0713H82.9686C83.5443 39.0637 84.0884 38.7658 84.5858 38.1862C84.6883 38.0664 84.8632 38.058 84.9765 38.166C85.0898 38.2744 85.0984 38.4589 84.9957 38.5787C84.3897 39.2849 83.7083 39.647 82.9707 39.6554H82.9453L82.9454 39.6555Z" fill="black"/>
<path d="M65.4288 45.8546C65.2874 45.8546 65.1668 45.7409 65.1537 45.5892L64.8547 42.1414C64.8408 41.9809 64.9529 41.8386 65.105 41.8238C65.2568 41.8078 65.3917 41.9273 65.4058 42.0881L65.7048 45.5359C65.7186 45.6964 65.6066 45.8386 65.4544 45.8535C65.4458 45.8542 65.4373 45.8546 65.4288 45.8546Z" fill="black"/>
<path d="M87.6137 43.1736C87.5609 43.1736 87.5078 43.1576 87.4606 43.1246C87.3334 43.0356 87.2988 42.8542 87.3835 42.7199C89.1302 39.9468 91.3524 39.4166 91.4461 39.3953C91.5945 39.3596 91.7416 39.4619 91.7741 39.619C91.8065 39.7765 91.7118 39.932 91.5628 39.9666C91.5419 39.9711 89.4595 40.4793 87.8443 43.0432C87.7909 43.128 87.7032 43.1736 87.6137 43.1736Z" fill="black"/>
<path d="M17.2619 94.6284L33.369 113.161C42.3448 118.224 49.4454 107.48 49.4454 107.48L57.1123 87.5159C68.1912 71.2183 54.8862 63.3086 54.8862 63.3086C54.8862 63.3086 50.5213 63.2437 47.0171 68.5015L37.4681 95.6705L22.6104 83.8206L22.1801 81.2242C22.1801 81.2242 21.9342 72.1332 18.3685 71.356C16.5352 70.9564 15.6851 71.6116 15.3921 72.4617C15.1278 73.2286 15.7789 74.0708 16.528 73.8701C16.8091 73.7948 17.1513 73.8698 17.5386 74.2787C18.6451 75.4471 18.553 77.9787 17.0775 78.2708C15.602 78.5629 15.2893 75.9124 14.9257 74.9278C13.5117 71.0981 15.7864 69.9296 14.5569 69.2156C13.4078 68.5483 11.1756 70.9682 12.4206 75.4471L9.7463 72.6722L8.22474 68.242C8.22474 68.242 6.61094 67.4144 6.33429 69.9946C6.33429 69.9946 5.91932 73.2077 8.04029 75.8366L5.55048 74.2787L4.35164 70.7735C4.35164 70.7735 3.6139 69.6538 2.87616 70.8222V75.1063L6.19597 78.8063L4.04423 79.2769L2.43042 76.0151C2.43042 76.0151 1.00106 75.7717 1.23158 77.3783C1.23158 77.3783 1.41603 79.5203 2.84539 81.419L6.79533 83.0418C6.79533 83.0418 11.2678 85.768 12.0978 87.0338C12.9277 88.2996 17.2619 94.6284 17.2619 94.6284Z" fill="#D797CA"/>
<path d="M38.2618 114.799C36.5592 114.799 34.873 114.34 33.2386 113.418C33.211 113.403 33.1862 113.382 33.1651 113.358L17.058 94.8258C17.0508 94.8174 17.044 94.8087 17.0377 94.7996C16.9945 94.7364 12.6924 88.454 11.8703 87.1999C11.2218 86.2107 7.91889 84.0652 6.67526 83.3056L2.7451 81.6911C2.69955 81.672 2.65936 81.6409 2.62894 81.6005C1.16468 79.6559 0.963886 77.4956 0.955975 77.4047C0.873667 76.8338 0.977788 76.382 1.26741 76.0788C1.72111 75.6042 2.44373 75.7209 2.4745 75.7266C2.56059 75.7411 2.63516 75.7981 2.67553 75.8796L4.1926 78.9459L5.65366 78.6264L2.67536 75.3072C2.62673 75.2532 2.59951 75.1813 2.59951 75.1064V70.8222C2.59951 70.7644 2.61573 70.7081 2.64598 70.6602C2.921 70.2244 3.24086 70.0019 3.59662 69.998C4.15264 70.0057 4.53731 70.5438 4.57878 70.6066C4.59245 70.6275 4.60362 70.6503 4.61194 70.6743L5.77686 74.081L7.0679 74.8889C5.75383 72.4946 6.04507 70.073 6.0602 69.9551C6.16699 68.9593 6.48453 68.2983 7.00345 67.9967C7.64067 67.6258 8.31699 67.9643 8.34561 67.9792C8.41047 68.0123 8.46032 68.0708 8.48486 68.1423L9.98501 72.5101L11.9259 74.524C11.4735 71.9696 12.1519 70.063 13.1222 69.2403C13.6443 68.798 14.2306 68.6931 14.6902 68.9596C15.4164 69.3814 15.232 69.9961 15.0365 70.6468C14.7876 71.4764 14.4113 72.73 15.1835 74.8218C15.262 75.0349 15.3339 75.3034 15.4171 75.6145C15.7764 76.9597 16.1675 78.1556 17.0266 77.9836C17.566 77.8768 17.807 77.418 17.9142 77.0522C18.1647 76.1972 17.9192 75.0938 17.343 74.4852C17.0762 74.2038 16.8241 74.0927 16.5961 74.1532C16.1602 74.2707 15.7135 74.1216 15.4007 73.7561C15.0713 73.3713 14.9684 72.8369 15.1323 72.3618C15.3727 71.6639 16.1207 70.5681 18.4245 71.0702C22.1083 71.8731 22.4376 80.5821 22.4561 81.1945L22.8642 83.6572L37.3381 95.2009L46.7576 68.4002C46.7659 68.3766 46.7771 68.3542 46.7908 68.3336C50.3366 63.013 54.6942 63.0112 54.8902 63.0165C54.9363 63.0172 54.9817 63.0301 55.022 63.0541C55.2328 63.1792 60.2007 66.1949 61.4958 72.3751C62.4711 77.0305 61.0785 82.1723 57.3565 87.658L49.7018 107.59C49.6941 107.61 49.6842 107.629 49.6724 107.647C49.5985 107.759 47.834 110.402 44.9274 112.462C42.7308 114.018 40.4825 114.8 38.2619 114.8L38.2618 114.799ZM33.5407 112.926C41.9699 117.637 48.8089 107.911 49.2013 107.338L56.856 87.4061C56.8641 87.3849 56.8748 87.3647 56.8875 87.3457C60.5285 81.9901 61.897 76.9955 60.9553 72.5013C59.7902 66.9403 55.3941 63.9725 54.8136 63.6024C54.2514 63.6268 50.3939 63.966 47.2637 68.6389L37.7274 95.7721C37.697 95.8588 37.6297 95.925 37.5457 95.9508C37.4616 95.9775 37.371 95.9595 37.3013 95.9036L22.4437 84.0538C22.3878 84.0093 22.35 83.9438 22.3379 83.8708L21.9077 81.2742C21.9053 81.2605 21.9041 81.2465 21.9037 81.2324C21.9012 81.1437 21.6236 72.3636 18.3127 71.6421C16.8862 71.3321 15.9665 71.6493 15.6521 72.5618C15.5586 72.833 15.6195 73.1403 15.8111 73.3643C15.9865 73.5693 16.2234 73.6508 16.46 73.5872C16.7561 73.5081 17.2183 73.5275 17.7341 74.0722C18.4566 74.8348 18.7544 76.1606 18.4427 77.2248C18.2274 77.9592 17.7608 78.4328 17.1284 78.5579C15.7041 78.8378 15.2106 76.9943 14.8844 75.7731C14.8084 75.489 14.7367 75.2204 14.6679 75.034C13.8248 72.7501 14.2365 71.3778 14.5091 70.47C14.718 69.7739 14.7293 69.6492 14.4235 69.4716C14.1669 69.3228 13.8099 69.4065 13.4686 69.696C12.5187 70.5015 11.9083 72.5668 12.686 75.3649C12.7215 75.4923 12.6707 75.6293 12.5626 75.6977C12.455 75.7654 12.317 75.7491 12.2265 75.6555L9.55224 72.8805C9.52287 72.8497 9.50018 72.8128 9.48616 72.7718L8.00765 68.4671C7.85421 68.415 7.54353 68.3472 7.26613 68.5108C6.92085 68.7139 6.69376 69.2384 6.60907 70.0272C6.60436 70.0645 6.23947 73.1541 8.2508 75.6472C8.33851 75.756 8.33886 75.9157 8.2519 76.0249C8.16471 76.1336 8.01539 76.1603 7.89923 76.088L5.40942 74.5301C5.3541 74.4955 5.31199 74.4415 5.29017 74.378L4.10524 70.9131C4.02078 70.7998 3.80788 70.5602 3.60057 70.5822C3.42531 70.5849 3.26663 70.7511 3.1528 70.9142V74.99L6.39676 78.6055C6.46574 78.6824 6.48988 78.7927 6.45998 78.8938C6.42991 78.995 6.35028 79.0711 6.25198 79.0923L4.10018 79.5628C3.97808 79.5898 3.85593 79.5278 3.79904 79.4122L2.2562 76.2942C2.0995 76.287 1.825 76.3166 1.65533 76.4958C1.49938 76.6601 1.44871 76.9423 1.50514 77.3345C1.50874 77.3717 1.70017 79.3875 3.0161 81.1755L6.89566 82.7695C6.90881 82.7749 6.92143 82.7813 6.93364 82.7889C7.11844 82.9015 11.4697 85.5631 12.3252 86.8677C13.1254 88.0882 17.2492 94.1117 17.4766 94.4437L33.5407 112.926V112.926Z" fill="black"/>
<path d="M13.3886 83.1391C13.2683 83.1391 13.1575 83.0554 13.1228 82.9273C11.7792 77.9616 15.2876 76.3907 15.323 76.3756C15.4649 76.3136 15.6258 76.3862 15.6836 76.5361C15.7411 76.6851 15.6734 76.8552 15.5323 76.9164C15.4058 76.9715 12.451 78.318 13.6548 82.7668C13.6968 82.922 13.6118 83.0836 13.4648 83.1277C13.4394 83.1357 13.4139 83.1391 13.3886 83.1391Z" fill="black"/>
<path d="M41.9756 99.4318C41.9191 99.4318 41.862 99.4135 41.8128 99.3759L37.3051 95.9068C37.1817 95.8117 37.1545 95.6288 37.2446 95.4987C37.3343 95.3675 37.5075 95.3394 37.6311 95.4345L42.1389 98.9035C42.2622 98.9986 42.2895 99.1816 42.1994 99.3116C42.1453 99.3904 42.061 99.4318 41.9756 99.4318Z" fill="black"/>
<path d="M135.668 94.6284L119.561 113.161C110.585 118.224 103.484 107.48 103.484 107.48L95.8173 87.5159C84.7384 71.2183 98.0434 63.3086 98.0434 63.3086C98.0434 63.3086 102.408 63.2437 105.913 68.5015L115.462 95.6705L130.319 83.8206L130.749 81.2242C130.749 81.2242 130.995 72.1332 134.561 71.356C136.394 70.9564 137.244 71.6116 137.537 72.4617C137.802 73.2286 137.151 74.0708 136.402 73.8701C136.12 73.7948 135.778 73.8697 135.391 74.2787C134.284 75.4471 134.377 77.9787 135.852 78.2708C137.328 78.5629 137.64 75.9124 138.004 74.9278C139.418 71.0981 137.143 69.9296 138.373 69.2156C139.522 68.5483 141.754 70.9682 140.509 75.4471L143.183 72.6722L144.705 68.242C144.705 68.242 146.319 67.4143 146.595 69.9946C146.595 69.9946 147.01 73.2077 144.889 75.8366L147.379 74.2787L148.578 70.7735C148.578 70.7735 149.316 69.6538 150.053 70.8222V75.1063L146.734 78.8063L148.885 79.2769L150.499 76.0151C150.499 76.0151 151.929 75.7717 151.698 77.3783C151.698 77.3783 151.514 79.5203 150.084 81.419L146.134 83.0418C146.134 83.0418 141.662 85.768 140.832 87.0338C140.002 88.2996 135.668 94.6284 135.668 94.6284Z" fill="#D797CA"/>
<path d="M114.668 114.799C112.447 114.799 110.199 114.018 108.002 112.462C105.096 110.402 103.331 107.759 103.257 107.647C103.246 107.629 103.236 107.61 103.228 107.59L95.5732 87.658C91.8512 82.1723 90.4586 77.0305 91.4339 72.3751C92.7289 66.1949 97.6969 63.1792 97.9077 63.054C97.948 63.0301 97.9934 63.0172 98.0395 63.0164C98.2346 63.0206 102.593 63.0126 106.139 68.3336C106.153 68.3541 106.164 68.3766 106.172 68.4001L115.592 95.2009L130.065 83.6571L130.474 81.1944C130.492 80.5821 130.821 71.873 134.505 71.0701C136.809 70.5684 137.557 71.6638 137.797 72.3617C137.961 72.8368 137.859 73.3712 137.529 73.7561C137.216 74.1216 136.77 74.2707 136.334 74.1531C136.104 74.0926 135.853 74.2037 135.587 74.4852C135.011 75.0937 134.765 76.1971 135.016 77.0521C135.123 77.418 135.364 77.8767 135.903 77.9835C136.761 78.1558 137.153 76.9597 137.512 75.6152C137.596 75.3037 137.667 75.0348 137.746 74.8218C138.518 72.7299 138.142 71.4763 137.893 70.6468C137.698 69.996 137.513 69.3814 138.24 68.9596C138.699 68.6929 139.285 68.7979 139.808 69.2403C140.778 70.063 141.456 71.9696 141.004 74.524L142.945 72.5101L144.445 68.1423C144.469 68.0708 144.519 68.0122 144.584 67.9791C144.613 67.9643 145.288 67.6258 145.926 67.9966C146.445 68.2982 146.763 68.9592 146.87 69.9618C146.885 70.0736 147.176 72.4949 145.862 74.8887L147.153 74.0809L148.318 70.6742C148.326 70.6502 148.337 70.6274 148.351 70.6065C148.392 70.5441 148.768 69.9979 149.324 69.9979H149.333C149.689 70.0017 150.009 70.2243 150.284 70.6601C150.314 70.708 150.33 70.7643 150.33 70.8221V75.1063C150.33 75.1812 150.303 75.2531 150.254 75.3071L147.276 78.6263L148.737 78.9458L150.254 75.8794C150.294 75.7981 150.369 75.741 150.455 75.7265C150.486 75.7212 151.209 75.6044 151.662 76.0787C151.952 76.3818 152.056 76.8337 151.972 77.4217C151.966 77.4955 151.765 79.6558 150.301 81.6005C150.27 81.6408 150.23 81.672 150.185 81.691L146.255 83.3056C145.011 84.0652 141.708 86.211 141.059 87.1999C140.237 88.4539 135.935 94.7364 135.892 94.7996C135.886 94.8087 135.879 94.8174 135.872 94.8258L119.765 113.358C119.744 113.382 119.719 113.403 119.691 113.418C118.057 114.34 116.37 114.799 114.668 114.799H114.668ZM103.728 107.338C104.121 107.911 110.965 117.633 119.389 112.926L135.453 94.4436C135.68 94.1115 139.804 88.088 140.604 86.8676C141.46 85.563 145.811 82.9014 145.996 82.7888C146.008 82.7812 146.021 82.7747 146.034 82.7694L149.913 81.1754C151.229 79.3874 151.421 77.3716 151.422 77.3514C151.481 76.9411 151.43 76.6581 151.273 76.4938C151.103 76.3161 150.831 76.2849 150.673 76.2941L149.131 79.4121C149.073 79.5277 148.951 79.5908 148.829 79.5627L146.678 79.0922C146.579 79.0709 146.5 78.9949 146.47 78.8937C146.44 78.7925 146.464 78.6822 146.533 78.6054L149.777 74.9899V70.9141C149.663 70.7506 149.503 70.584 149.328 70.5821H149.324C149.096 70.5821 148.886 70.8328 148.824 70.9149L147.639 74.3779C147.618 74.4414 147.575 74.4954 147.52 74.53L145.03 76.0879C144.914 76.1598 144.765 76.1331 144.678 76.0247C144.591 75.9156 144.591 75.7558 144.679 75.6471C146.696 73.1467 146.325 70.0648 146.321 70.034C146.236 69.2383 146.009 68.7138 145.663 68.5108C145.387 68.3476 145.076 68.4149 144.922 68.467L143.443 72.7717C143.429 72.8128 143.407 72.8497 143.377 72.8805L140.703 75.6554C140.613 75.749 140.475 75.7654 140.367 75.6977C140.259 75.6292 140.208 75.4923 140.244 75.3649C141.021 72.5667 140.411 70.5015 139.461 69.6959C139.119 69.4061 138.763 69.3224 138.506 69.4715C138.2 69.6491 138.212 69.7739 138.42 70.4699C138.693 71.3778 139.105 72.75 138.262 75.034C138.193 75.2203 138.121 75.4893 138.045 75.7738C137.719 76.9946 137.224 78.8374 135.801 78.5578C135.169 78.4327 134.702 77.9592 134.487 77.2247C134.175 76.1606 134.473 74.8347 135.195 74.0721C135.711 73.5275 136.173 73.5081 136.47 73.5872C136.707 73.6507 136.943 73.5693 137.118 73.3643C137.31 73.1403 137.371 72.8329 137.277 72.5617C136.963 71.6489 136.043 71.3321 134.617 71.642C131.306 72.3636 131.028 81.1437 131.026 81.2323C131.025 81.2464 131.024 81.2605 131.022 81.2742L130.592 83.8708C130.58 83.9438 130.542 84.0092 130.486 84.0537L115.628 95.9036C115.559 95.9595 115.468 95.9777 115.384 95.9508C115.3 95.9249 115.233 95.8587 115.202 95.772L105.666 68.6388C102.526 63.9523 98.678 63.6244 98.1165 63.602C97.5373 63.9724 93.1341 66.9501 91.9726 72.5084C91.034 77.0006 92.403 81.9926 96.042 87.3455C96.0548 87.3645 96.0654 87.3846 96.0735 87.406L103.728 107.338V107.338Z" fill="black"/>
<path d="M139.541 83.1391C139.516 83.1391 139.49 83.1357 139.465 83.1277C139.318 83.0836 139.233 82.922 139.275 82.7668C140.479 78.3179 137.524 76.9715 137.397 76.9164C137.257 76.8548 137.189 76.6844 137.247 76.5353C137.305 76.3862 137.465 76.3139 137.607 76.3756C137.642 76.3908 141.151 77.9616 139.807 82.9273C139.772 83.0555 139.661 83.1391 139.541 83.1391Z" fill="black"/>
<path d="M110.954 99.4318C110.868 99.4318 110.784 99.3903 110.73 99.3116C110.64 99.1816 110.667 98.9986 110.791 98.9035L115.298 95.4345C115.422 95.3394 115.595 95.3675 115.685 95.4987C115.775 95.6288 115.748 95.8117 115.624 95.9068L111.117 99.3759C111.068 99.4135 111.01 99.4318 110.954 99.4318Z" fill="black"/>
<path d="M95.8173 87.5159C100.134 75.1225 98.0435 63.3086 98.0435 63.3086L87.8536 60.4525L82.8883 64.0241C78.8843 66.3295 74.0454 66.3295 70.0414 64.0241L64.4921 60.4525L54.8862 63.3086C54.8862 63.3086 52.796 73.1752 57.1124 87.5159C57.1124 87.5159 62.4579 101.996 61.0082 107.708C59.5586 113.42 54.8863 123.027 54.8863 123.027C54.8863 123.027 63.862 129.518 76.4649 128.739C89.0678 129.518 98.0435 123.027 98.0435 123.027C98.0435 123.027 93.3713 113.42 91.9216 107.708C90.4719 101.996 95.8174 87.5159 95.8174 87.5159H95.8173Z" fill="#F9EA31"/>
<path d="M78.543 129.095C77.8558 129.095 77.1586 129.075 76.4485 129.031C63.9315 129.806 54.8201 123.334 54.7297 123.269C54.6148 123.185 54.5763 123.025 54.64 122.894C54.6865 122.798 59.3153 113.249 60.7407 107.632C62.1504 102.078 56.9076 87.766 56.8545 87.6222C52.5592 73.3533 54.595 63.3442 54.616 63.2446C54.6382 63.14 54.7131 63.0563 54.8111 63.0274L64.4169 60.1714C64.4906 60.1482 64.57 60.1604 64.6357 60.203L70.1851 63.7744C74.1131 66.0355 78.8165 66.0355 82.7557 63.7675L87.6976 60.211C87.7641 60.1634 87.8465 60.1475 87.9243 60.1703L98.1142 63.0262C98.2174 63.0551 98.2956 63.1441 98.3152 63.2548C98.3363 63.3739 100.37 75.2907 96.0768 87.6168C96.0761 87.6188 96.0755 87.6203 96.0748 87.6222C96.0217 87.766 90.7789 102.078 92.1886 107.632C93.6142 113.25 98.2428 122.798 98.2893 122.894C98.353 123.025 98.3145 123.185 98.1996 123.269C98.1142 123.33 90.0003 129.095 78.543 129.095ZM76.4485 128.448C87.8166 129.148 96.2847 123.86 97.684 122.925C96.959 121.411 92.9685 112.963 91.6541 107.784C90.1997 102.053 95.3253 88.0444 95.5585 87.4127C99.5092 76.0671 98.0349 65.0741 97.8004 63.5428L87.9048 60.769L83.044 64.2654C78.9155 66.6449 74.014 66.6445 69.9089 64.2803L64.4509 60.7682L55.1243 63.5413C54.8813 64.9037 53.4386 74.3457 57.376 87.4275C57.5896 88.0049 62.7317 102.045 61.2754 107.784C59.961 112.963 55.9706 121.411 55.2457 122.925C56.6448 123.859 65.1214 129.147 76.4486 128.448H76.4485Z" fill="black"/>
<path d="M76.421 122.262C76.421 122.262 47.2023 106.74 32.6098 108.789C18.0173 110.838 22.5667 131.053 40.9692 138.036C51.1425 141.896 89.6942 148.677 107.283 149.006L108.512 135.504L76.421 122.262Z" fill="#68AFE8"/>
<path d="M107.283 149.298H107.278C89.8931 148.973 51.1396 142.206 40.8757 138.311C28.7966 133.727 23.026 123.869 23.729 116.921C24.1972 112.292 27.4209 109.223 32.5735 108.5C38.6704 107.643 47.9272 109.657 60.0851 114.484C68.9527 118.005 76.1945 121.816 76.5337 121.995L108.613 135.233C108.728 135.28 108.8 135.403 108.788 135.532L107.558 149.034C107.545 149.184 107.425 149.298 107.283 149.298ZM35.4329 108.899C34.4326 108.899 33.5032 108.958 32.6463 109.078C27.7678 109.763 24.718 112.645 24.2791 116.983C23.5986 123.71 29.2496 133.278 41.0628 137.761C51.2441 141.625 89.5665 148.324 107.032 148.708L108.217 135.696L76.3204 122.534C76.3124 122.531 76.3044 122.528 76.2968 122.523C76.2239 122.485 68.8968 118.606 59.8854 115.029C49.708 110.988 41.3444 108.899 35.4329 108.899Z" fill="black"/>
<path d="M44.4175 135.504C44.4175 135.504 38.9676 133.947 36.221 131.09C33.4745 128.234 31.6748 124.599 30.1155 125.638C28.5563 126.676 29.1711 128.804 29.1711 128.804C29.1711 128.804 26.2509 129.565 26.0665 131.61C26.0665 131.61 24.0377 133.849 24.9599 135.504C24.9599 135.504 23.2078 137.646 24.3144 139.788C24.3144 139.788 23.7611 141.736 25.6054 143.099C27.4498 144.462 32.7061 148.259 35.2882 148.162C37.8702 148.065 45.5067 148.463 45.4796 148.164C45.4523 147.865 44.4176 135.504 44.4176 135.504H44.4175Z" fill="#D797CA"/>
<path d="M43.9996 148.569C43.2137 148.569 42.045 148.548 40.2911 148.506C38.3673 148.46 36.3787 148.414 35.2978 148.454C33.4748 148.52 30.0675 146.754 25.4465 143.338C23.737 142.075 23.931 140.309 24.0216 139.829C23.0911 137.891 24.2395 136.021 24.6311 135.472C23.9094 133.839 25.4545 131.889 25.8018 131.482C26.0352 129.689 28.091 128.849 28.8386 128.601C28.6719 127.713 28.739 126.209 29.9677 125.391C31.2467 124.541 32.515 126.143 34.1216 128.173C34.8002 129.031 35.5693 130.003 36.4149 130.882C39.077 133.651 44.4358 135.207 44.4896 135.223C44.6015 135.255 44.6825 135.357 44.6928 135.479C44.703 135.602 45.7279 147.842 45.7547 148.137C45.7623 148.219 45.73 148.317 45.6762 148.378C45.5625 148.508 45.3287 148.569 43.9995 148.569L43.9996 148.569ZM36.3478 147.855C37.4515 147.855 38.8949 147.888 40.3036 147.922C42.1978 147.967 44.5082 148.022 45.1835 147.953C45.0468 146.338 44.2862 137.256 44.1585 135.731C43.159 135.425 38.5379 133.91 36.0267 131.298C35.1619 130.399 34.3837 129.416 33.6971 128.548C32.264 126.737 31.1329 125.306 30.2629 125.885C28.8981 126.794 29.4299 128.7 29.4355 128.719C29.4577 128.796 29.449 128.879 29.4115 128.949C29.3741 129.018 29.311 129.069 29.2374 129.088C29.21 129.095 26.5051 129.824 26.3415 131.638C26.3356 131.703 26.3091 131.764 26.2663 131.811C26.2474 131.832 24.3933 133.912 25.198 135.357C25.258 135.464 25.2463 135.6 25.1692 135.695C25.153 135.715 23.5572 137.714 24.5568 139.649C24.5923 139.717 24.6002 139.798 24.579 139.873C24.5596 139.943 24.1136 141.64 25.7638 142.86C31.4763 147.082 34.0955 147.909 35.2779 147.87C35.5749 147.859 35.938 147.855 36.3478 147.855Z" fill="black"/>
<path d="M30.7694 131.123C30.6902 131.123 30.6112 131.087 30.5567 131.018L28.9584 128.991C28.8606 128.868 28.8764 128.683 28.9939 128.58C29.1113 128.477 29.2858 128.493 29.3834 128.618L30.9817 130.644C31.0795 130.768 31.0637 130.952 30.9462 131.055C30.8945 131.101 30.8317 131.123 30.7694 131.123Z" fill="black"/>
<path d="M28.3103 134.044C28.244 134.044 28.1777 134.019 28.1248 133.969L25.8808 131.827C25.7674 131.718 25.7587 131.534 25.8611 131.414C25.9638 131.294 26.1387 131.285 26.2518 131.393L28.4957 133.535C28.6091 133.643 28.6178 133.828 28.5154 133.948C28.4608 134.012 28.3858 134.044 28.3103 134.044Z" fill="black"/>
<path d="M26.6502 137.159C26.5917 137.159 26.5326 137.14 26.4825 137.099L24.7918 135.737C24.6704 135.639 24.647 135.455 24.7397 135.327C24.8323 135.199 25.0061 135.174 25.1275 135.272L26.8182 136.634C26.9396 136.733 26.963 136.916 26.8703 137.044C26.8159 137.119 26.7334 137.159 26.6502 137.159Z" fill="black"/>
<path d="M26.6507 140.47C26.6363 140.47 26.6219 140.469 26.6071 140.467L24.2709 140.077C24.1202 140.052 24.017 139.902 24.0409 139.743C24.0649 139.584 24.2048 139.477 24.3574 139.5L26.6936 139.889C26.8443 139.915 26.9475 140.064 26.9236 140.224C26.9021 140.368 26.7845 140.47 26.6507 140.47Z" fill="black"/>
<path d="M37.8394 145.468C37.7591 145.468 37.6795 145.431 37.6247 145.361C36.4596 143.852 34.5829 145.343 34.5038 145.408C34.3822 145.506 34.2088 145.481 34.1158 145.354C34.0229 145.226 34.0452 145.043 34.1661 144.945C34.984 144.278 36.849 143.432 38.0538 144.992C38.1503 145.117 38.1325 145.3 38.014 145.402C37.9627 145.447 37.9008 145.468 37.8394 145.468Z" fill="black"/>
<path d="M108.512 135.504C108.512 135.504 113.962 133.947 116.709 131.09C119.455 128.234 121.255 124.599 122.814 125.638C124.374 126.676 123.759 128.804 123.759 128.804C123.759 128.804 126.679 129.565 126.863 131.61C126.863 131.61 128.892 133.849 127.97 135.504C127.97 135.504 129.722 137.646 128.615 139.788C128.615 139.788 129.169 141.736 127.324 143.099C125.48 144.462 120.224 148.259 117.642 148.162C115.06 148.065 107.423 148.463 107.45 148.164C107.477 147.865 108.512 135.504 108.512 135.504H108.512Z" fill="#D797CA"/>
<path d="M108.93 148.569C107.6 148.569 107.367 148.508 107.253 148.378C107.2 148.317 107.167 148.219 107.175 148.136C107.202 147.842 108.227 135.602 108.237 135.479C108.247 135.357 108.328 135.255 108.44 135.223C108.494 135.207 113.853 133.651 116.515 130.882C117.36 130.003 118.129 129.031 118.808 128.173C120.414 126.143 121.684 124.539 122.962 125.39C124.191 126.209 124.258 127.713 124.091 128.601C124.839 128.849 126.894 129.689 127.128 131.481C127.475 131.889 129.02 133.839 128.299 135.472C128.69 136.02 129.838 137.891 128.908 139.829C128.999 140.309 129.193 142.075 127.483 143.338C122.862 146.754 119.458 148.516 117.632 148.454C116.551 148.413 114.562 148.46 112.639 148.506C110.885 148.547 109.716 148.569 108.93 148.569L108.93 148.569ZM107.746 147.953C108.421 148.022 110.732 147.967 112.626 147.922C114.558 147.876 116.555 147.829 117.652 147.87C118.844 147.913 121.454 147.082 127.166 142.86C128.827 141.632 128.356 139.89 128.351 139.873C128.329 139.798 128.337 139.717 128.373 139.649C129.376 137.707 127.777 135.715 127.761 135.695C127.683 135.601 127.671 135.464 127.732 135.357C128.538 133.908 126.682 131.833 126.664 131.812C126.62 131.764 126.594 131.703 126.588 131.637C126.424 129.824 123.72 129.095 123.692 129.088C123.619 129.069 123.556 129.018 123.518 128.948C123.481 128.879 123.472 128.796 123.494 128.72C123.516 128.641 124.025 126.79 122.667 125.885C121.798 125.305 120.666 126.736 119.233 128.548C118.546 129.415 117.768 130.399 116.903 131.298C114.392 133.91 109.771 135.425 108.771 135.731C108.643 137.256 107.883 146.338 107.746 147.953L107.746 147.953Z" fill="black"/>
<path d="M122.161 131.123C122.098 131.123 122.035 131.101 121.984 131.055C121.866 130.952 121.85 130.768 121.948 130.644L123.546 128.618C123.644 128.493 123.818 128.476 123.936 128.58C124.053 128.683 124.069 128.868 123.971 128.991L122.373 131.018C122.319 131.087 122.24 131.123 122.161 131.123Z" fill="black"/>
<path d="M124.62 134.044C124.544 134.044 124.469 134.012 124.414 133.948C124.312 133.828 124.321 133.643 124.434 133.535L126.678 131.393C126.791 131.285 126.966 131.294 127.069 131.414C127.171 131.534 127.162 131.718 127.049 131.827L124.805 133.969C124.752 134.019 124.686 134.044 124.62 134.044Z" fill="black"/>
<path d="M126.28 137.159C126.196 137.159 126.114 137.119 126.059 137.044C125.967 136.916 125.99 136.733 126.112 136.634L127.802 135.272C127.923 135.175 128.097 135.199 128.19 135.327C128.283 135.455 128.259 135.639 128.138 135.737L126.447 137.099C126.397 137.14 126.338 137.159 126.28 137.159Z" fill="black"/>
<path d="M126.279 140.47C126.145 140.47 126.028 140.368 126.006 140.224C125.982 140.064 126.085 139.915 126.236 139.889L128.572 139.5C128.724 139.477 128.865 139.584 128.889 139.743C128.913 139.902 128.81 140.052 128.659 140.077L126.323 140.467C126.308 140.469 126.293 140.47 126.279 140.47Z" fill="black"/>
<path d="M115.09 145.468C115.029 145.468 114.967 145.447 114.916 145.402C114.797 145.301 114.779 145.117 114.876 144.992C116.08 143.431 117.946 144.279 118.764 144.945C118.884 145.043 118.907 145.226 118.814 145.354C118.721 145.481 118.547 145.506 118.426 145.408C118.346 145.343 116.469 143.851 115.305 145.361C115.25 145.431 115.171 145.468 115.09 145.468Z" fill="black"/>
<path d="M76.5088 122.262C76.5088 122.262 105.727 106.74 120.32 108.789C134.912 110.838 130.363 131.053 111.961 138.036C101.787 141.896 63.2356 148.677 45.647 149.006L44.4175 135.504L76.5088 122.262Z" fill="#68AFE8"/>
<path d="M45.6469 149.298C45.5046 149.298 45.3852 149.184 45.3715 149.034L44.1419 135.532C44.13 135.403 44.2014 135.28 44.3166 135.233L76.396 121.995C76.7352 121.816 83.977 118.005 92.8446 114.484C105.002 109.657 114.258 107.641 120.356 108.5C125.509 109.223 128.733 112.292 129.201 116.921C129.904 123.869 124.133 133.727 112.054 138.311C101.79 142.206 63.0367 148.973 45.6518 149.298H45.6469ZM44.7127 135.696L45.8978 148.708C63.3634 148.323 101.686 141.625 111.867 137.761C123.68 133.278 129.331 123.71 128.651 116.983C128.212 112.644 125.162 109.763 120.283 109.078C114.361 108.248 104.944 110.305 93.0443 115.029C84.0328 118.606 76.7057 122.485 76.6328 122.523C76.6252 122.528 76.6173 122.531 76.6092 122.535L44.7126 135.696L44.7127 135.696Z" fill="black"/>
<path d="M77.513 109.919C70.6542 109.919 65.5339 107.868 65.4574 107.837C65.3149 107.778 65.2443 107.609 65.2996 107.459C65.3549 107.308 65.5147 107.234 65.6577 107.292C65.7706 107.338 77.1017 111.869 88.5819 107.291C88.7242 107.233 88.8845 107.31 88.9385 107.461C88.9926 107.612 88.9203 107.781 88.7775 107.837C84.8635 109.398 80.9676 109.919 77.5131 109.919L77.513 109.919Z" fill="black"/>
</svg>
