<svg width="129" height="119" viewBox="0 0 129 119" fill="none" xmlns="http://www.w3.org/2000/svg">
<path d="M62.4723 35.5771C62.4723 35.5771 55.9339 41.7408 60.942 43.4609C65.9501 45.181 65.9501 44.1776 65.9501 44.1776L60.5247 49.4812C60.5247 49.4812 82.127 36.4989 99.3377 41.5975C109.591 44.6349 110.745 45.0377 110.745 45.0377C110.745 45.0377 111.719 37.3689 114.779 37.799C117.84 38.229 119.648 41.0241 119.648 41.0241C119.648 41.0241 117.005 39.1607 115.753 40.2358C114.501 41.3108 113.597 44.6076 115.405 44.8943C117.214 45.181 121.596 41.6692 124.239 43.0309C126.882 44.3926 128.76 47.3311 128.76 47.3311C128.76 47.3311 127.022 45.826 124.17 46.3277C121.318 46.8294 119.857 48.4778 119.857 48.4778C119.857 48.4778 125.63 47.2595 126.604 50.3413C127.578 53.4231 127.161 54.5698 127.161 54.5698C127.161 54.5698 122.431 49.8396 121.526 51.5596C120.622 53.2797 124.517 56.1466 122.709 58.87C120.9 61.5935 120.344 62.0952 120.344 62.0952C120.344 62.0952 119.44 54.0681 117.701 54.6414C115.962 55.2148 118.605 60.5901 116.657 61.2351C116.657 61.2351 116.518 57.0065 111.51 54.3547C106.502 51.7029 77.9604 45.8976 66.2748 58.1293C54.5891 70.3611 35.484 126.742 80.3717 150.823H48.8391C48.8391 150.823 -0.129394 125.977 0.241599 68.2589C0.612592 10.5403 48.1892 -0.794065 64.5 0.315338C91.4147 2.14601 103.001 12.4515 103.001 12.4515C103.001 12.4515 122.013 12.2604 117.376 19.0452C117.376 19.0452 116.959 15.7006 114.316 15.7961C111.673 15.8917 110.838 16.7995 110.838 16.7995C110.838 16.7995 117.701 18.9019 115.29 23.9665C115.29 23.9665 111.626 19.2841 109.725 19.3319C107.824 19.3797 107.453 19.7141 107.453 19.7141C107.453 19.7141 111.487 22.5809 110.421 24.6355C109.354 26.6901 107.777 26.8811 107.87 26.6901C107.963 26.4989 107.082 21.2909 105.181 21.0997L100.313 20.9139L103.836 25.2567C103.836 25.2567 101.239 27.0245 99.5696 25.3044C97.9002 23.5844 98.4103 20.0486 98.4103 20.0486C98.4103 20.0486 75.4311 9.77586 64.5 12.786C53.569 15.7962 46.4741 23.6799 47.3088 35.1472L55.0993 23.1066C55.0993 23.1066 59.5046 19.1408 64.9764 21.5298C70.4483 23.9188 77.1258 25.83 76.8476 30.7992C76.5694 35.7683 69.5208 39.973 69.5208 39.973L68.4079 37.9662L66.3675 39.2085L66.8313 37.0106L64.5 37.2973L63.9562 34.9083L62.4723 35.5772L62.4723 35.5771Z" fill="#5A78FF"/>
<path d="M80.3718 151.07H48.8391C48.8025 151.07 48.7663 151.061 48.7332 151.045C48.6104 150.982 36.3121 144.659 24.2263 131.354C17.1272 123.539 11.4861 114.877 7.45973 105.61C2.42627 94.0256 -0.0828788 81.4584 0.00202337 68.2574C0.139308 46.9011 6.67223 29.879 19.4194 17.6643C35.3455 2.40385 55.8823 -0.517501 64.5158 0.0689823C90.1285 1.81112 102.065 11.3481 103.087 12.204C104.329 12.1976 116.178 12.241 118.08 15.9739C118.559 16.9129 118.388 17.9941 117.572 19.1875C117.515 19.2709 117.415 19.3085 117.319 19.2851C117.223 19.2606 117.151 19.178 117.139 19.077C117.123 18.9497 116.719 15.949 114.324 16.0429C112.718 16.1011 111.807 16.4685 111.361 16.7231C112.387 17.1169 114.839 18.2474 115.723 20.3267C116.213 21.48 116.14 22.7413 115.505 24.0752C115.469 24.1511 115.398 24.2026 115.316 24.2119C115.234 24.2225 115.154 24.1872 115.103 24.1215C114.11 22.8526 111.225 19.5786 109.755 19.5786C109.747 19.5786 109.739 19.5786 109.731 19.5789C108.796 19.6024 108.249 19.6969 107.944 19.7789C108.94 20.5633 111.597 22.8926 110.632 24.752C109.639 26.665 108.121 27.1356 107.776 26.9518C107.655 26.8872 107.601 26.7539 107.637 26.6271C107.647 26.1441 106.781 21.5089 105.157 21.3457L100.842 21.1812L104.02 25.0984C104.063 25.1525 104.083 25.223 104.073 25.2925C104.063 25.3621 104.025 25.424 103.968 25.4629C103.94 25.4814 101.188 27.3208 99.4 25.4791C97.873 23.9058 98.0668 20.9827 98.1498 20.2028C96.059 19.2907 74.8046 10.205 64.5619 13.0246C53.3915 16.1007 47.0632 24.0599 47.5054 34.398L54.8998 22.9697C54.9115 22.9515 54.9255 22.9351 54.9414 22.9207C54.9867 22.8801 59.5243 18.8814 65.0698 21.3026C65.8405 21.639 66.6501 21.9723 67.4332 22.2944C72.3014 24.2975 77.3355 26.3687 77.0866 30.8134C76.8044 35.8575 69.933 40.0125 69.6408 40.1868C69.5854 40.2199 69.5197 40.2281 69.4582 40.2115C69.3966 40.1945 69.3441 40.1527 69.3125 40.0956L68.3204 38.3064L66.4893 39.4212C66.4078 39.4712 66.3045 39.4665 66.2271 39.4088C66.1499 39.3513 66.1129 39.2522 66.1332 39.1563L66.5255 37.2971L64.5284 37.5426C64.405 37.5587 64.2943 37.4762 64.2667 37.3539L63.7884 35.2535L62.6055 35.7867C62.2585 36.1225 58.881 39.4589 59.3342 41.6518C59.4814 42.3639 60.0478 42.8938 61.0178 43.2269C64.2745 44.3455 65.3063 44.2658 65.6092 44.1708L65.7852 43.9987C65.8548 43.9308 65.957 43.9121 66.0447 43.951C66.1327 43.99 66.1898 44.0792 66.1898 44.1779C66.1898 44.2246 66.1756 44.3877 65.9922 44.5238C65.9565 44.5503 65.9162 44.5742 65.8714 44.5952L62.0065 48.3732C64.1598 47.2192 68.3105 45.1516 73.4009 43.3934C80.3233 41.0028 90.4542 38.709 99.4037 41.3603C107.358 43.7167 109.83 44.4849 110.549 44.7147C110.723 43.5645 111.464 39.4137 113.244 38.012C113.728 37.6303 114.256 37.4764 114.812 37.5546C117.943 37.9945 119.771 40.7695 119.848 40.8874C119.911 40.9858 119.898 41.1168 119.817 41.1999C119.735 41.2829 119.608 41.2951 119.513 41.2282C118.819 40.7397 116.818 39.6432 115.906 40.4256C115.051 41.1597 114.425 42.9676 114.688 43.9428C114.8 44.3563 115.046 44.5878 115.442 44.6506C116.088 44.7546 117.209 44.2722 118.394 43.7633C120.388 42.9064 122.649 41.9361 124.346 42.8102C127.016 44.1858 128.882 47.0734 128.96 47.1956C129.026 47.2979 129.008 47.4339 128.92 47.5154C128.831 47.5968 128.698 47.5994 128.606 47.5209C128.59 47.5066 126.909 46.0974 124.21 46.5714C122.515 46.8696 121.32 47.5914 120.654 48.0992C122.345 47.8828 126.029 47.7238 126.832 50.2649C127.82 53.3933 127.403 54.6068 127.385 54.6569C127.356 54.7347 127.292 54.793 127.213 54.8109C127.134 54.8296 127.052 54.8055 126.993 54.7473C126.012 53.7656 123.212 51.2633 122.069 51.4389C121.915 51.463 121.81 51.5389 121.737 51.6779C121.412 52.2962 121.865 53.1682 122.389 54.1775C123.117 55.5807 124.024 57.3271 122.907 59.01C121.102 61.728 120.525 62.2602 120.502 62.2814C120.435 62.3422 120.341 62.3586 120.258 62.3262C120.175 62.293 120.116 62.2152 120.106 62.1242C119.908 60.3647 119.158 55.6432 118.087 54.9316C117.979 54.8596 117.879 54.8432 117.774 54.8769C117.121 55.0924 117.302 56.4438 117.478 57.7506C117.697 59.3853 117.924 61.0753 116.731 61.4705C116.66 61.4946 116.581 61.4821 116.52 61.4373C116.458 61.393 116.421 61.3216 116.418 61.2441C116.366 59.829 115.252 56.6139 111.401 54.5746C108.798 53.1968 100.396 51.1557 91.39 50.9081C83.4426 50.6881 72.6634 51.7949 66.4455 58.3032C62.5623 62.3675 58.4754 70.4911 55.7798 79.5029C53.4363 87.3377 51.0584 99.3882 53.0378 112.305C54.2449 120.181 56.9405 127.29 61.0496 133.432C65.7204 140.415 72.2586 146.193 80.4823 150.604C80.5803 150.657 80.6307 150.772 80.6045 150.882C80.5783 150.992 80.4822 151.07 80.3717 151.07L80.3718 151.07ZM48.896 150.576H79.4079C71.5139 146.188 65.2079 140.519 60.655 133.712C56.5049 127.508 53.7829 120.331 52.5646 112.382C50.5708 99.3715 52.9635 87.2419 55.3218 79.3573C58.0388 70.2743 62.1702 62.074 66.1039 57.9563C72.4427 51.3216 83.3598 50.1958 91.4029 50.4139C100.481 50.6637 108.977 52.7354 111.62 54.1351C115.854 56.3775 116.692 59.6911 116.857 60.8306C117.341 60.3367 117.169 59.0592 117.003 57.818C116.8 56.3087 116.591 54.7483 117.628 54.4065C117.87 54.3264 118.119 54.3644 118.347 54.5165C119.604 55.3515 120.302 59.8837 120.516 61.5303C120.853 61.1152 121.476 60.2891 122.511 58.7306C123.464 57.2952 122.703 55.8287 121.966 54.4104C121.401 53.3223 120.868 52.2946 121.316 51.4422C121.46 51.1679 121.695 50.9982 121.997 50.9506C123.352 50.7364 126.026 53.1429 126.998 54.0712C127.037 53.5152 126.991 52.3631 126.376 50.4178C125.479 47.5787 119.961 48.7078 119.905 48.7198C119.804 48.7411 119.7 48.6928 119.649 48.5998C119.597 48.5068 119.61 48.3904 119.68 48.3113C119.742 48.2416 121.23 46.5945 124.129 46.0843C125.758 45.7978 127.032 46.1377 127.855 46.5063C127.087 45.5423 125.749 44.0848 124.132 43.2518C122.631 42.4782 120.477 43.4031 118.578 44.219C117.275 44.7786 116.15 45.2608 115.369 45.1385C114.784 45.0458 114.389 44.678 114.227 44.0748C113.881 42.7931 114.695 40.8227 115.6 40.046C116.408 39.3515 117.675 39.7142 118.603 40.1472C117.807 39.333 116.479 38.287 114.747 38.0438C114.315 37.9827 113.919 38.1012 113.535 38.4042C111.661 39.8796 110.989 45.0181 110.983 45.0697C110.973 45.143 110.932 45.2081 110.872 45.2471C110.811 45.2864 110.736 45.2955 110.668 45.2716C110.656 45.2676 109.37 44.8266 99.2712 41.8348C90.4397 39.2182 80.411 41.4928 73.5531 43.8616C66.1105 46.4322 60.699 49.6624 60.6452 49.6946C60.54 49.758 60.4055 49.7303 60.3327 49.6297C60.2596 49.5294 60.2712 49.3886 60.3595 49.3024L65.0537 44.7136C64.1648 44.6876 62.7645 44.3474 60.866 43.6953C59.7232 43.3028 59.0501 42.6498 58.8652 41.7543C58.3334 39.1794 62.1477 35.5483 62.3102 35.3951C62.3297 35.3768 62.3519 35.3618 62.3759 35.351L63.8597 34.6821C63.9249 34.6528 63.9994 34.6546 64.063 34.6874C64.1266 34.7201 64.1729 34.7805 64.1891 34.8518L64.6842 37.026L66.8025 36.7655C66.8803 36.7569 66.9563 36.7856 67.0083 36.8447C67.0604 36.9037 67.0814 36.9852 67.0651 37.0632L66.718 38.7082L68.2857 37.7538C68.3411 37.7202 68.4074 37.7111 68.4689 37.7276C68.531 37.7446 68.5839 37.7865 68.6157 37.8439L69.6064 39.6305C70.7607 38.8924 76.3668 35.0919 76.608 30.7851C76.8369 26.6954 71.966 24.6912 67.2553 22.753C66.47 22.43 65.6578 22.0959 64.8827 21.7573C59.8092 19.5418 55.6261 22.9759 55.2796 23.2727L47.5079 35.2841C47.4513 35.3718 47.3478 35.4132 47.2476 35.3861C47.1487 35.3592 47.0771 35.2708 47.0694 35.1656C46.2726 24.2171 52.7655 15.7617 64.4378 12.5474C75.3248 9.5505 97.5639 19.4013 98.5052 19.8222C98.6048 19.8666 98.6628 19.9745 98.6469 20.0849C98.6421 20.1192 98.1752 23.5191 99.7387 25.13C100.976 26.4051 102.823 25.5536 103.47 25.1912L100.129 21.0724C100.068 20.9976 100.056 20.893 100.097 20.8054C100.139 20.7176 100.224 20.662 100.321 20.6673L105.189 20.8532C105.823 20.9165 106.388 21.4162 106.884 22.3395C107.575 23.6278 108.045 25.676 108.101 26.4829C108.475 26.3963 109.457 25.9678 110.209 24.5193C111 22.9948 108.389 20.6807 107.316 19.9175C107.256 19.8742 107.217 19.8045 107.213 19.7284C107.209 19.6524 107.239 19.5786 107.295 19.5284C107.368 19.4627 107.827 19.1327 109.719 19.0852C111.43 19.0534 114.359 22.441 115.229 23.5044C115.653 22.4394 115.672 21.4388 115.284 20.5251C114.266 18.1316 110.804 17.0471 110.769 17.0363C110.689 17.0118 110.628 16.9464 110.606 16.8635C110.584 16.7807 110.606 16.6921 110.664 16.6297C110.7 16.5897 111.597 15.6476 114.307 15.5495C116.406 15.4736 117.206 17.3942 117.483 18.4076C117.93 17.5754 117.985 16.8508 117.656 16.2037C115.825 12.6111 103.13 12.6973 103.003 12.6987C102.947 12.7011 102.888 12.678 102.844 12.6387C102.729 12.5361 90.9932 2.36503 64.484 0.561994C55.9211 -0.0194384 35.5522 2.88006 19.7459 18.0259C7.09913 30.1444 0.617734 47.0457 0.481357 68.2606C0.396966 81.3863 2.89051 93.8813 7.8927 105.398C11.8952 114.613 17.5043 123.228 24.5639 131.003C36.203 143.821 48.0346 150.127 48.8959 150.576L48.896 150.576Z" fill="black"/>
<path d="M63.4399 29.6972C63.4399 29.6972 61.7622 22.7004 55.7706 25.0876C55.7706 25.0876 65.1102 16.9471 63.4399 29.6972Z" fill="#F2E8E0"/>
<path d="M63.4398 29.9442C63.3305 29.9442 63.2341 29.8672 63.2073 29.7566C63.1997 29.7247 62.4138 26.5601 60.1148 25.3292C58.9014 24.6795 57.4689 24.6755 55.8571 25.318C55.7479 25.361 55.6245 25.3172 55.5645 25.2136C55.5048 25.1099 55.5265 24.9769 55.6159 24.899C55.7881 24.7488 59.8629 21.2368 62.2621 22.5914C63.7143 23.4116 64.1905 25.8134 63.6775 29.7302C63.6622 29.8477 63.5679 29.9373 63.4531 29.9437C63.4485 29.944 63.4441 29.9441 63.4398 29.9441L63.4398 29.9442ZM58.1248 24.3439C58.9169 24.3439 59.6565 24.5267 60.3384 24.8923C61.9694 25.7669 62.8796 27.4703 63.323 28.5817C63.5972 25.5315 63.1641 23.6641 62.0317 23.0246C60.597 22.2137 58.3134 23.5263 56.9831 24.4632C57.3746 24.3838 57.7554 24.3439 58.1248 24.3439Z" fill="black"/>
</svg>
