<svg width="101" height="92" viewBox="0 0 101 92" fill="none" xmlns="http://www.w3.org/2000/svg">
<path d="M100.344 38.6871C100.344 17.6738 78.0282 0.639038 50.5001 0.639038C22.9719 0.639038 0.655945 17.6738 0.655945 38.6871C0.655945 55.7382 15.3534 70.1627 35.6027 74.9984C36.7154 75.2641 37.4451 76.3037 37.315 77.4129C36.8876 81.0597 36.2586 85.0916 35.3495 88.3936C34.8207 90.3148 36.9174 91.9044 38.6935 90.9243C44.5811 87.6754 53.9494 82.1723 61.967 75.9652C62.2455 75.7496 62.5721 75.6038 62.9208 75.5355C84.4374 71.3215 100.344 56.4259 100.344 38.6871Z" fill="#CFE8FD"/>
<path d="M37.5531 91.8629C36.9207 91.8629 36.2942 91.6583 35.7598 91.2548C34.8013 90.532 34.4019 89.3723 34.7159 88.2277C35.4918 85.411 36.1465 81.7483 36.6637 77.3403C36.7567 76.5467 36.2335 75.8072 35.4466 75.6192C14.2447 70.5548 -6.10352e-05 55.7137 -6.10352e-05 38.6872C3.22746e-05 17.3551 22.6538 0 50.4996 0C78.3454 0 101 17.3551 101 38.6873C101 56.3759 85.3947 71.786 63.0499 76.1616C62.8024 76.2098 62.5685 76.3146 62.3747 76.4652C54.4787 82.5785 45.3143 88.0048 39.0159 91.4803C38.5525 91.7365 38.0505 91.8629 37.5529 91.8629H37.5531ZM50.4996 1.27769C23.3767 1.27769 1.31104 18.0595 1.31104 38.6872C1.31104 55.1139 15.1546 69.4567 35.759 74.3781C37.1844 74.7183 38.1335 76.0543 37.9662 77.4851C37.4422 81.9555 36.7746 85.6814 35.9826 88.5588C35.7727 89.3208 36.1448 89.9297 36.5622 90.2442C37.0999 90.6518 37.7768 90.6967 38.3708 90.3689C44.6272 86.9159 53.7294 81.5271 61.5588 75.4654C61.9156 75.1892 62.3415 74.9971 62.7922 74.9089C84.5165 70.6548 99.689 55.7595 99.689 38.6874C99.689 18.0597 77.6224 1.27788 50.4996 1.27788V1.27769Z" fill="black"/>
<path d="M66.1603 59.4064C65.7873 59.4064 65.428 59.3365 65.0823 59.1967C63.085 58.3906 61.9643 55.2154 62.0761 50.6901C60.9213 51.1958 59.6948 51.6601 58.3999 52.0718C54.5598 53.2921 51.8644 52.5568 50.0002 51.1676C47.8579 53.7355 45.3579 55.8276 42.5036 57.152C37.7401 59.3647 34.6383 58.2917 32.8766 57.0047C30.3697 55.1713 28.9221 51.8406 28.2854 48.0241C23.0643 48.9458 18.6268 50.9165 15.7392 54.6855C15.5241 54.9684 15.1119 55.0274 14.8225 54.8153C14.5324 54.6049 14.4726 54.2039 14.6894 53.9219C17.8244 49.8283 22.5675 47.7212 28.1053 46.7546C27.7946 44.1317 27.8365 41.3417 28.1557 38.688C23.2051 41.0255 20.5072 41.899 19.2438 40.7793C18.2111 39.8667 18.7676 38.0866 19.2754 36.8272C20.5514 33.6636 23.9673 31.9325 29.1525 31.8218C29.3326 31.8176 29.5144 31.8161 29.6979 31.8161C31.242 27.2675 33.8487 23.1298 37.6443 21.8966C40.9373 20.8268 44.6587 20.9478 48.6354 22.2214C49.7492 19.9051 51.1115 17.8828 52.6889 16.3684C54.2013 14.9168 55.5738 14.4177 56.7816 14.8869C58.9325 15.7253 59.4967 19.3078 59.5906 22.1656C59.6171 22.9825 59.6112 23.8393 59.5727 24.7252C64.6606 23.969 69.3142 24.4564 72.9161 27.1034C73.2149 27.3098 80.6116 32.4889 81.1382 38.8626C81.3635 41.6002 80.2855 44.1316 77.934 46.3867C76.133 48.112 73.2566 48.8931 69.653 49.1377C70.2829 49.9271 70.7805 50.7058 71.127 51.4669C72.0949 53.5873 71.8345 55.5055 70.3758 57.0137C68.836 58.605 67.4226 59.4062 66.1602 59.4062L66.1603 59.4064ZM63.4119 50.0713C63.4025 50.2468 63.3957 50.4215 63.3897 50.5953C63.2753 54.4584 64.157 57.4407 65.5842 58.0163C66.7834 58.5029 68.3335 57.2618 69.4217 56.1371C70.5203 55.0025 70.6858 53.6449 69.9296 51.9862C69.5199 51.0878 68.873 50.1569 68.0288 49.2119C67.0823 49.2368 66.0947 49.231 65.0713 49.2019C64.5378 49.5013 63.9847 49.7909 63.412 50.0712L63.4119 50.0713ZM29.5854 47.8186C30.2256 51.5429 31.6347 54.4992 33.6636 55.9824C35.8043 57.5488 38.5885 57.553 41.9403 55.9991C44.6153 54.7571 46.972 52.7581 49.0033 50.2908C48.4767 49.7509 48.0379 49.1653 47.6761 48.5847C47.5164 48.3301 47.3663 48.0656 47.2229 47.7911C41.1338 47.3061 34.9908 47.0557 29.5854 47.8185V47.8186ZM50.8051 50.1586C52.6829 51.5453 55.0881 51.7807 57.9936 50.8574C59.4993 50.3783 60.8845 49.8367 62.1521 49.2528L62.1675 49.0706C59.4455 48.9068 56.5264 48.6331 53.4912 48.3494C53.0525 48.3078 52.6138 48.267 52.1725 48.2263C51.7355 48.891 51.2805 49.5365 50.8051 50.1588V50.1586ZM48.7967 47.9218C49.1091 48.4226 49.4479 48.8701 49.8107 49.2627C50.0984 48.8801 50.3792 48.4866 50.6523 48.0856C50.0351 48.0299 49.4172 47.975 48.7967 47.9218ZM63.6261 47.8636C64.0068 47.881 64.3824 47.8952 64.7536 47.9069C65.165 47.6689 65.562 47.426 65.9417 47.1806C65.3536 46.6715 64.717 46.1624 64.0383 45.6559C63.8685 46.3829 63.7311 47.1232 63.6261 47.8636ZM68.0047 47.3328C68.2002 47.5241 68.3888 47.7138 68.5715 47.9052C72.3296 47.7546 75.329 47.0916 77.0139 45.4753C79.076 43.4996 80.0235 41.3102 79.8314 38.9685C79.3568 33.1912 72.2136 28.1843 72.1418 28.1344C68.8335 25.7021 64.3814 25.3144 59.4899 26.0855C59.4412 26.7136 59.3772 27.3541 59.2978 28.0046C62.2741 30.2423 64.1536 32.1781 64.2585 32.287C64.5061 32.5441 64.4933 32.9483 64.2295 33.1896C63.9667 33.4316 63.5518 33.4208 63.3034 33.1621C63.2573 33.1147 61.6518 31.4735 59.0921 29.4903C58.5901 32.737 57.723 36.1793 56.4913 39.5167C58.9453 40.7778 61.2413 42.1304 63.2676 43.5213C64.4258 39.9052 66.4009 36.8898 69.1015 35.9755C71.6843 35.0979 73.021 35.5954 73.6884 36.1644C74.4523 36.8165 74.7238 37.8897 74.4515 39.1865C73.936 41.6396 71.6954 44.6584 68.0047 47.3328ZM52.9347 47.0134C53.1617 47.0351 53.3896 47.0559 53.6166 47.0774C56.6092 47.3569 59.5539 47.6331 62.3108 47.7945C62.4474 46.7954 62.6411 45.7972 62.8912 44.8289C60.864 43.4164 58.5296 42.0347 56.0202 40.7437C55.1496 42.9231 54.1202 45.041 52.9347 47.0133V47.0134ZM48.0789 46.5783C49.2038 46.6723 50.3263 46.7721 51.4401 46.8745C52.7443 44.7773 53.865 42.4889 54.8013 40.1306C52.1434 38.8238 49.3165 37.6234 46.47 36.6002C46.3411 40.3352 46.8447 43.874 48.0789 46.5784V46.5783ZM29.5665 38.0135C29.1278 41.0273 29.0876 43.9446 29.4009 46.5509C34.7201 45.803 40.6881 46.0076 46.6184 46.4619C45.4867 43.5911 45.0564 39.9617 45.2357 36.1676C42.6656 35.2917 40.0965 34.5664 37.6323 34.0406C36.1386 34.7651 34.7021 35.4797 33.345 36.1535C31.9734 36.8347 30.7162 37.457 29.5665 38.0135ZM64.3917 44.3173C65.3511 45.0185 66.2361 45.7256 67.0368 46.4344C70.8343 43.7092 72.7829 40.7595 73.1669 38.9303C73.2676 38.4511 73.3564 37.5793 72.8247 37.1259C72.2605 36.6434 71.0604 36.6642 69.5317 37.1816C67.1614 37.9852 65.4074 40.8901 64.3917 44.3173ZM29.2942 33.0972C29.2558 33.098 29.2183 33.0989 29.1807 33.0997C24.5007 33.1996 21.5782 34.6112 20.496 37.2947C19.8669 38.8528 19.8917 39.6281 20.1247 39.8336C20.8946 40.5149 24.412 39.0542 28.3724 37.1625C28.3776 37.13 28.3827 37.0985 28.3887 37.0669C28.6046 35.7684 28.9059 34.4257 29.2942 33.0973V33.0972ZM46.5442 35.2343C49.5257 36.2865 52.4831 37.5327 55.2691 38.9019C56.5358 35.4447 57.4098 31.8818 57.8809 28.581C57.134 28.0378 56.3258 27.4829 55.4688 26.9415C52.8126 27.6377 50.0881 28.5869 47.3935 29.6625C46.9694 31.4983 46.6825 33.3809 46.5442 35.2343ZM30.6377 33.1105C30.3219 34.1662 30.0496 35.2859 29.8269 36.4588C30.8024 35.9821 31.7874 35.493 32.7494 35.0147C33.6558 34.5647 34.5837 34.1038 35.5319 33.6372C33.818 33.3461 32.1732 33.1647 30.6377 33.1106V33.1105ZM39.5128 33.1371C41.4222 33.5963 43.3733 34.162 45.3245 34.815C45.4534 33.2903 45.677 31.7513 45.9894 30.2348C43.7787 31.1549 41.6023 32.1456 39.5128 33.1371ZM31.0483 31.8469C33.0584 31.9393 35.2263 32.2304 37.478 32.6863C40.3305 31.3037 43.323 29.9128 46.3445 28.6759C46.802 26.8408 47.3919 25.0582 48.1011 23.3994C44.8449 22.3646 41.3821 22.0277 38.0592 23.1091C35.1666 24.0483 32.6623 27.2435 31.0483 31.8469ZM49.302 23.8154C48.7122 25.168 48.2069 26.6096 47.7921 28.0962C49.8337 27.2985 51.8822 26.5814 53.8991 25.9973C52.4591 25.1755 50.9118 24.4176 49.302 23.8154ZM57.21 26.5198C57.5028 26.7161 57.7887 26.9133 58.067 27.1088C58.096 26.8451 58.1215 26.5839 58.1455 26.3243C57.8348 26.3859 57.5233 26.4507 57.21 26.5198ZM49.8466 22.6425C51.7363 23.3496 53.6772 24.3104 55.6541 25.5207C56.5264 25.3011 57.3902 25.1089 58.2445 24.9492C58.2966 23.9917 58.3085 23.0734 58.2795 22.2065C58.1694 18.8579 57.409 16.5075 56.2942 16.0733C55.4508 15.7447 54.3703 16.5487 53.6089 17.2787C52.1536 18.6762 50.8905 20.525 49.8466 22.6425Z" fill="black"/>
</svg>
