<svg width="85" height="82" viewBox="0 0 85 82" fill="none" xmlns="http://www.w3.org/2000/svg">
<path d="M77.8042 24.8532C72.8112 22.9552 66.4257 24.6641 61.417 28.7223L62.3716 6.40306H0.751354V49.0557C0.736956 66.3952 14.6082 81.0117 31.5718 80.7335C46.8171 80.4835 59.324 68.7299 61.1587 53.591C67.9374 55.4017 76.7638 51.2235 81.4095 43.7944C86.3125 35.954 84.6982 27.4738 77.8041 24.8531L77.8042 24.8532Z" fill="#E9AC00"/>
<path d="M31.0928 81.5064C23.0673 81.5064 15.4481 78.2747 9.58499 72.3737C3.48611 66.2345 -0.00782797 57.7351 -1.74505e-05 49.0546V6.40341C-1.74505e-05 5.9792 0.336775 5.63497 0.751862 5.63497H62.3716C62.5772 5.63497 62.7729 5.72098 62.9149 5.87211C63.0568 6.02315 63.1313 6.22725 63.1224 6.43738L62.2364 27.1481C67.3515 23.5562 73.4191 22.3667 78.0662 24.1325C81.1293 25.2971 83.3742 27.6424 84.3874 30.7369C85.7158 34.7911 84.8612 39.7016 82.0428 44.2089C77.4123 51.6158 68.8386 55.928 61.792 54.5253C59.5433 69.7182 46.7013 81.2542 31.5832 81.5024C31.4207 81.5054 31.2563 81.5064 31.0928 81.5064ZM1.50374 7.17175V49.0555C1.49687 57.3269 4.82735 65.427 10.6404 71.2791C16.3321 77.008 23.7887 80.0837 31.5597 79.9656C46.2089 79.7254 58.6133 68.3455 60.4126 53.4968C60.4391 53.2767 60.5576 53.0795 60.7366 52.9545C60.9148 52.8294 61.138 52.7904 61.3485 52.8474C67.838 54.5773 76.3716 50.4221 80.776 43.3805C83.3477 39.2673 84.1446 34.836 82.962 31.2241C82.0829 28.5407 80.2091 26.5867 77.5415 25.5731C72.9854 23.8392 66.8365 25.311 61.8839 29.3241C61.6539 29.5102 61.3367 29.5412 61.0753 29.4061C60.8129 29.269 60.6533 28.9889 60.6661 28.6878L61.5863 7.17157H1.50374V7.17175Z" fill="black"/>
<path d="M65.519 46.1708C65.4044 46.1708 65.2889 46.1438 65.1793 46.0878C64.8092 45.8958 64.6614 45.4336 64.8493 45.0543C70.0026 34.6749 76.7163 34.0386 77.0002 34.0166C77.4153 33.9995 77.7755 34.3017 77.8069 34.725C77.8382 35.1462 77.5298 35.5144 77.1177 35.5483C77.057 35.5544 70.9316 36.2017 66.1905 45.7507C66.0573 46.0168 65.793 46.1709 65.5189 46.1709L65.519 46.1708Z" fill="black"/>
<path d="M35.5007 21.8862C37.2724 21.7335 40.1148 21.9569 42.375 24.3328C42.881 24.8647 43.6737 24.192 43.4511 23.4143C42.8591 21.346 41.871 19.0611 40.3129 18.4348C38.4476 17.6849 36.0792 17.7537 34.744 18.8621C33.5932 19.8176 34.1427 22.0034 35.5006 21.8863L35.5007 21.8862Z" fill="black"/>
<path d="M13.2449 21.8668C11.4735 21.711 8.63076 21.9294 6.36656 24.3014C5.85963 24.8325 5.06813 24.1584 5.292 23.381C5.88739 21.3138 6.87932 19.0307 8.43841 18.407C10.3049 17.6604 12.6733 17.7333 14.0066 18.8441C15.1558 19.8016 14.6026 21.9862 13.2449 21.8668Z" fill="black"/>
<path d="M22.6073 55.9952C22.5506 55.9952 22.4937 55.9891 22.437 55.9751C15.7977 54.4033 14.8765 48.8374 14.7521 47.1696C14.5974 45.0885 15.0869 42.7173 16.3224 42.214C17.7889 41.6117 20.2519 43.4147 21.8623 44.8214L21.8721 33.2834C21.8721 32.8592 22.2089 32.516 22.624 32.516H22.6249C23.04 32.516 23.3757 32.8601 23.3757 33.2854L23.365 46.5613C23.365 46.8695 23.1839 47.1486 22.9059 47.2687C22.6269 47.3868 22.3067 47.3267 22.0894 47.1116C19.9631 45.0005 17.5392 43.3736 16.8804 43.6408C16.5681 43.846 15.97 45.5908 16.3488 47.864C16.6787 49.8441 17.9523 53.3359 22.7756 54.4785C23.1809 54.5746 23.4325 54.9868 23.3386 55.4C23.2583 55.7551 22.949 55.9952 22.6073 55.9952Z" fill="black"/>
<path d="M35.5784 62.7154C35.4012 62.7154 35.224 62.6524 35.0811 62.5234C33.2955 60.9166 28.0149 56.9875 25.0752 58.0861C23.8857 58.5303 23.126 59.83 22.8167 61.9501C22.7551 62.3704 22.3654 62.6484 21.9621 62.5974C21.5509 62.5344 21.268 62.1432 21.3287 61.724C21.7261 59.0036 22.8128 57.2936 24.5602 56.6423C28.9391 55.0005 35.786 61.1097 36.0758 61.3708C36.3871 61.652 36.4164 62.1372 36.1423 62.4553C35.9935 62.6274 35.7859 62.7154 35.5784 62.7154Z" fill="black"/>
<path d="M36.9616 36.0618C36.946 36.0618 36.9313 36.0607 36.9156 36.0607C33.1965 36.0327 30.7276 32.5229 30.6248 32.3738C30.3849 32.0276 30.4662 31.5494 30.804 31.3042C31.1437 31.0591 31.6117 31.1412 31.8514 31.4863C31.873 31.5163 33.9914 34.5079 36.9351 34.5239C36.944 34.5249 36.9527 34.5249 36.9606 34.5249C38.9635 34.5249 40.9528 33.1582 42.8755 30.4638C43.1212 30.1206 43.5901 30.0456 43.9269 30.2957C44.2617 30.5459 44.3351 31.0271 44.0914 31.3703C41.8691 34.4829 39.4706 36.0618 36.9616 36.0618Z" fill="black"/>
<path d="M10.8811 36.1378C10.562 36.1378 10.2389 36.1108 9.91588 36.0527C8.17922 35.7385 6.76166 34.5839 5.70244 32.6219C5.50172 32.2507 5.63393 31.7825 5.99707 31.5784C6.36125 31.3723 6.81746 31.5084 7.01809 31.8795C7.84629 33.4133 8.90748 34.3078 10.1723 34.5379C12.8381 35.0222 15.6966 32.5288 15.724 32.5039C16.0402 32.2257 16.514 32.2598 16.7842 32.581C17.0564 32.9002 17.0241 33.3854 16.7118 33.6635C16.5864 33.7746 13.8953 36.1378 10.8811 36.1378Z" fill="black"/>
<path d="M31.5617 12.0381C48.5777 12.0381 62.3718 9.51522 62.3718 6.40311C62.3718 3.29101 48.5777 0.768158 31.5617 0.768158C14.5457 0.768158 0.751556 3.29101 0.751556 6.40311C0.751556 9.51522 14.5457 12.0381 31.5617 12.0381Z" fill="#E9AC00"/>
<path d="M31.5618 12.8066C18.8755 12.8066 9.15527e-05 11.1017 9.15527e-05 6.40329C9.15527e-05 1.70484 18.8755 -2.28882e-05 31.5618 -2.28882e-05C44.2482 -2.28882e-05 63.1236 1.70484 63.1236 6.40329C63.1236 11.1017 44.2482 12.8066 31.5618 12.8066ZM31.5618 1.53676C11.8269 1.53676 1.50385 4.70539 1.50385 6.40329C1.50385 8.10118 11.827 11.2698 31.5618 11.2698C51.2966 11.2698 61.6198 8.10118 61.6198 6.40329C61.6198 4.70539 51.2966 1.53676 31.5618 1.53676Z" fill="black"/>
<path d="M41.32 41.7495C41.32 41.7495 32.2242 53.0193 39.7794 56.093C47.3347 59.1666 41.32 41.7495 41.32 41.7495Z" fill="#CFE8FD"/>
<path d="M41.3719 57.2277C40.8149 57.2277 40.1903 57.0875 39.5012 56.8074C37.7234 56.084 36.6132 54.8864 36.202 53.2476C34.9969 48.4481 40.5046 41.5515 40.7405 41.2603C40.9119 41.0482 41.181 40.9422 41.4512 40.9932C41.7185 41.0412 41.9388 41.2323 42.0288 41.4934C42.7249 43.5095 46.0544 53.7088 43.2114 56.5012C42.719 56.9854 42.1042 57.2276 41.372 57.2276L41.3719 57.2277ZM41.0586 43.3764C39.6166 45.4355 36.899 49.8438 37.6587 52.8673C37.9485 54.0189 38.7326 54.8404 40.0572 55.3786C41.0548 55.7849 41.7665 55.7908 42.1689 55.3936C43.6696 53.9199 42.4097 47.7386 41.0587 43.3763L41.0586 43.3764Z" fill="black"/>
</svg>
