<svg width="65" height="64" viewBox="0 0 65 64" fill="none" xmlns="http://www.w3.org/2000/svg">
<g clip-path="url(#clip0_101_205)">
<g clip-path="url(#clip1_101_205)">
<path d="M9.13749 52.3875C9.13749 52.3875 7.22499 54.3 7.31249 51.775V50.55C7.31249 50.55 5.27499 51.1375 5.33749 48.6875V47.75C5.33749 47.75 4.11249 46.7625 5.33749 46C5.33749 46 3.64999 45.125 4.12499 44.1375C4.12499 44.1375 1.68749 44.825 2.08749 41.8625C2.08749 41.8625 0.637493 41.3375 1.68749 39.6625C1.68749 39.6625 -1.56251 40.35 -0.925007 38.975C-0.287507 37.6 1.68749 38.1 1.68749 38.1C1.68749 38.1 -0.287507 37.575 0.924993 36.0625L1.73749 35.5375C1.73749 35.5375 -0.462507 35.5375 0.699993 34.2625L1.46249 33.675C1.46249 33.675 -0.287507 33.3875 1.06249 32.05C1.06249 32.05 -0.562507 30.725 1.74999 30.5375C1.74999 30.5375 0.937493 29.6125 1.98749 29.0875C1.98749 29.0875 -0.287507 28.5625 1.69999 26.7C1.69999 26.7 0.537493 25.7125 2.09999 25.1875C2.09999 25.1875 -0.287507 23.8625 2.33749 23.2125C2.33749 23.2125 2.09999 22.2875 3.02499 22.05C3.02499 22.05 1.92499 20.25 4.06249 20.1875C4.06249 20.1875 2.89999 18.9125 4.63749 18.5625C4.63749 18.5625 2.94999 17.2375 5.44999 16.8125C5.44999 16.8125 5.09999 14.5375 7.31249 15.0125C7.31249 15.0125 6.67499 13.6125 8.12499 13.5C8.12499 13.5 6.32499 11.9375 8.17499 11.7H9.13749C9.13749 11.7 8.34999 10.475 9.98749 10.375L10.8625 10.1625C10.8625 10.1625 10.275 8.65 12.3125 8.8625C12.3125 8.8625 12.2625 6.85 14.2 8.05C14.2 8.05 13.4375 5.875 15.1 6.25C15.1 6.25 13.65 5.1375 15.1 4.7625C16.55 4.3875 16.7625 5.55 16.7625 5.55C16.7625 5.55 16.65 4.4375 18.0375 4.8625C18.0375 4.8625 18.5375 4.075 19.4125 4.4625C19.4125 4.4625 18.65 3.875 20.05 3.7C20.05 3.7 18.1375 1.4 20.05 1.425C21.9625 1.45 21.825 3.0875 21.825 3.0875C21.825 3.0875 22.225 1.3125 23.075 1.55C23.925 1.7875 23.7625 3 23.7625 3C23.7625 3 24.375 1.8875 25.5125 2.65C25.5125 2.65 25.9125 0.587502 27.3125 0.737502C28.7125 0.875002 28.925 2.2375 28.925 2.2375C28.925 2.2375 29.25 0.375002 30.9375 1.7125C30.9375 1.7125 31.6 1.3375 32.1 1.825C32.1 1.825 32.5 0.675002 33.9 0.762502C35.3 0.850002 35.5 1.825 35.5 1.825C35.5 1.825 36.6125 -0.674998 37.625 0.225002C38.6375 1.125 37.9125 2.1125 37.9125 2.1125C37.9125 2.1125 39.45 -0.212498 40.725 1C40.725 1 41.25 1.6625 40.725 2.8625C40.725 2.8625 42.6375 1 43.575 1.9625C44.5125 2.9125 43.75 4.125 43.75 4.125C43.75 4.125 45.35 2.4125 46.1375 3.3375C46.1375 3.3375 46.6125 4.0625 46.1375 4.7875C46.1375 4.7875 47.7 3.3375 48.725 4.2375C48.725 4.2375 49.125 4.525 48.8375 5.425C48.8375 5.425 49.3625 5.3125 49.5625 5.85C49.5625 5.85 49.9875 3.575 50.7875 5.2125C50.7875 5.2125 51.05 6.025 50.925 6.9625C50.925 6.9625 51.8875 5.6625 52.6125 6.375C52.6125 6.375 53.0375 6.75 52.75 7.7C52.75 7.7 53.675 7.0875 53.7125 8.8125C53.7125 8.8125 54.9625 8.175 55.5125 9.475C55.5125 9.475 56.15 9.3375 56.275 10.5125C56.275 10.5125 57.35 9.4375 57.9 10.3375C58.45 11.2375 57.2375 11.7375 57.2375 11.7375C57.2375 11.7375 58.5625 11.6 58.5125 12.4625C58.5125 12.4625 58.5125 12.9625 57.875 13.1875C57.875 13.1875 59.5625 13.5125 58.9875 14.9375C58.9875 14.9375 60 15.4875 59.75 16.825C59.75 16.825 62.3375 16.275 61.6375 19.15C61.6375 19.15 63.4375 19.2375 62.8875 20.05C62.8875 20.05 62.65 20.475 61.6375 20.3125C61.6375 20.3125 62.9375 20.925 62.0375 22.225C62.0375 22.225 64.95 22.1125 64.6 23.125C64.25 24.1375 61.875 23.525 61.875 23.525C61.875 23.525 63.7625 24.2875 62.8 25.675C62.8 25.675 64.625 25.9125 63.9875 26.9L63.3 27.6625C63.3 27.6625 64.9625 27.45 64.7875 28.0125C64.6125 28.5625 63.3375 28.5125 63.3375 28.5125C63.3375 28.5125 66.15 29.625 65.6375 30.175C65.1125 30.725 63.6875 30 63.6875 30C63.6875 30 64.3 30.875 63.8 31.4875C63.8 31.4875 66.35 31.6625 65.6875 32.8875C65.6875 32.8875 64.9625 33.3625 63.9125 32.8625C63.9125 32.8625 65.425 33.825 64.925 34.4625C64.425 35.1 63.7375 34.35 63.7375 34.35C63.7375 34.35 64.9 35.95 63.475 36.325C63.475 36.325 63.95 36.9625 63.45 37.3125C63.45 37.3125 64.9 37.7375 63.6625 38.3875C63.6625 38.3875 64.1375 39.15 63.6375 39.35C63.6375 39.35 64.8 40.1625 63.525 40.95C63.525 40.95 64.6875 41.9125 62.4875 41.7125C62.4875 41.7125 64.6625 43.0125 62.725 43.425C62.725 43.425 64.4125 44.9625 62.725 45.4375C62.725 45.4375 62.8625 46.575 61.6875 46.2875C61.6875 46.2875 62.0625 47.425 61.1 47.5125C61.1 47.5125 61.3125 48.275 60.025 48.1C60.025 48.1 60.4 49.2125 59.475 49.325C59.475 49.325 60.4875 52.025 57.9625 50.65C57.9625 50.65 59.1 53.4625 57.4125 53.1125C57.4125 53.1125 56.6875 52.85 56.3 51.925C56.3 51.925 56.275 53.2 55.2875 53.15C55.2875 53.15 56.425 55.65 55.025 55.9375C55.025 55.9375 54.4375 56.025 54.125 55.0875C54.125 55.0875 54.45 57.3875 52.85 56.95L52.0625 56.525C52.0625 56.525 52.35 57.925 50.925 57.5125C50.925 57.5125 51.5375 59.7625 50.075 58.9625C50.075 58.9625 49.8625 60.3625 48.325 59.75C48.325 59.75 48.375 61.2875 47.1375 59.35C47.1375 59.35 47.3125 60.8375 46.125 60.625C46.125 60.625 46.4125 61.85 45.0125 61.475C45.0125 61.475 45.0125 63.1375 43.5625 62.0875C43.5625 62.0875 43.325 64.4625 41.4125 62.4375C41.4125 62.4375 41.0125 63.3625 40.0875 62.3C40.0875 62.3 39.6875 63.2625 38.8125 62.0375C38.8125 62.0375 38.2 63.925 37.0375 62.9125C37.0375 62.9125 36.025 64.1375 35.2875 62.5375C35.2875 62.5375 35 63.7 33.8 62.8C33.8 62.8 33.5625 64.2 32.175 63.9125C32.175 63.9125 31.3625 63.675 31.8875 62.5875C31.8875 62.5875 31.4125 63.6 30.875 62.725C30.875 62.725 31.3 64.5 30.1125 63.8375C30.1125 63.8375 29.2375 63.25 29.1875 62.5375C29.1875 62.5375 28.7125 63.7 27.675 62.675L27.175 62.25C27.175 62.25 26.625 63.2875 25.85 62.1625C25.85 62.1625 24.8375 63.4125 24.25 61.475C24.25 61.475 24.1125 62.5875 23.4375 62C23.4375 62 22.1375 63.0375 21.8125 61.475C21.8125 61.475 20.325 62.5875 20.15 60.4875C20.15 60.4875 18.6125 62.4375 17.975 59.725C17.975 59.725 16.1125 61.525 15.9125 59.1375C15.9125 59.1375 14.875 59.425 14.8 58.375C14.8 58.375 14.75 57.6125 14.9375 57.1875C14.9375 57.1875 13.6875 57.85 13.5125 55.7875C13.5125 55.7875 11.8 56.6875 11.475 55.4375C11.475 55.4375 11.3875 54.5375 11.7625 53.95C11.7625 53.95 10.3125 54.9125 10.0125 53.45C9.98749 53.375 8.62499 53.8125 9.13749 52.3875Z" fill="#A58DC4"/>
<path d="M26.1375 10.9375C26.1375 10.9375 26.6125 9.67501 25.7 9.42501C25.4 9.35001 25.075 9.42501 24.825 9.62501C24.625 9.78751 24.4 10.0375 24.15 10.45C23.5375 11.4625 22.7375 12.375 21.7875 13.0875C20.5625 13.9875 19.1875 14.8375 17.9875 15.25C15.4125 16.1375 16.15 17.0625 16.725 17C17.1875 16.95 17.325 16.9125 18.1875 16.4875C18.8875 16.15 19.75 15.8875 22.0125 14.775C24.2125 13.6875 25.0375 13.15 26.1375 10.9375Z" fill="#1E1E1E"/>
<path d="M38.3375 10.65C38.3375 10.65 38.0125 9.475 38.8625 9.325C39.1375 9.275 39.425 9.375 39.6375 9.575C39.8 9.7375 40 9.975 40.1875 10.375C40.675 11.3375 41.3125 12.2125 42.1125 12.9375C43.15 13.85 43.325 14.25 44.6625 14.775C47.2875 15.8125 46.3125 16.6125 45.8 16.5125C45.075 16.375 45.15 16.3125 44.4 15.875C43.7875 15.5125 43.7625 15.625 41.8 14.45C39.875 13.2625 39.175 12.725 38.3375 10.65Z" fill="#1E1E1E"/>
<path d="M20.6375 27.2375C20.6375 27.2375 17.0375 23.175 21.4 19.825C25.7625 16.475 27.0625 22.4375 26.925 23.525C26.725 25.075 25.225 29.75 20.6375 27.2375Z" fill="#1E1E1E"/>
<path d="M39.275 27.85C39.275 27.85 34.4625 25.4875 37.125 20.7125C39.7875 15.9375 43.25 20.95 43.55 22.0125C43.9625 23.5125 44.4 28.4 39.275 27.85Z" fill="#1E1E1E"/>
<path d="M21.55 31.45C21.55 31.45 22.325 28.2875 17.3125 28.2875C12.725 28.2875 10.5 31.4125 13.625 32.95C14.175 33.2125 14.75 33.3375 15.35 33.375C17.025 33.475 21.025 33.475 21.55 31.45Z" fill="#836BAA"/>
<path d="M50.675 31.45C50.675 31.45 51.45 28.2875 46.4375 28.2875C41.85 28.2875 39.625 31.4125 42.75 32.95C43.3 33.2125 43.875 33.3375 44.475 33.375C46.125 33.475 50.15 33.475 50.675 31.45Z" fill="#836BAA"/>
<path d="M20.5625 48.225C20.5625 48.225 14.275 49.475 16.15 43.5C18.0375 37.525 26.75 33.575 33.375 33.825C39.5375 34.0625 48.8 36.7375 49.025 45.9375C49.025 45.9375 48.475 50.275 39.75 46.875C39.75 46.875 31.725 43.1875 20.5625 48.225Z" fill="#1E1E1E"/>
<path d="M22.1 36.825C22.1 36.825 33.3375 40.625 43.5 36.55C43.5 36.55 40.0625 33.925 32.8 33.8125C32.8 33.8125 26.925 33.6 22.1 36.825Z" fill="white"/>
<path d="M22.4125 47.45C22.4125 47.45 25.725 42.0875 31.35 43.9625C31.825 44.125 32.3125 44.125 32.775 43.9375C34.4625 43.2875 38.925 42.2375 42.3375 47.7375C42.3375 47.7375 41.0375 47.35 39.75 46.8875C39.75 46.8875 36.45 45.2125 30.575 45.6375C30.575 45.6375 26.5875 45.7375 22.4125 47.45Z" fill="#D19BA6"/>
</g>
</g>
<defs>
<clipPath id="clip0_101_205">
<rect x="0.5" width="64" height="64" rx="24" fill="white"/>
</clipPath>
<clipPath id="clip1_101_205">
<rect width="66.825" height="64" fill="white" transform="translate(-1)"/>
</clipPath>
</defs>
</svg>
