<svg width="116" height="116" viewBox="0 0 116 116" fill="none" xmlns="http://www.w3.org/2000/svg">
<path d="M5.9229 33.5992C5.9229 33.5992 -1.92219 48.1898 0.446983 68.3539C2.81615 88.518 18.6181 102.384 24.6081 105.623C30.598 108.886 40.4323 117.314 58.1788 115.796C75.9252 114.278 82.5634 116 94.521 104.105C106.479 92.2109 113.765 84.3719 115.888 62.5086C115.888 62.5086 117.587 50.1609 108.624 34.7547C99.6616 19.3484 103.037 22.4297 95.9738 14.6359C88.911 6.84218 65.7557 1.17812 58 0.294527C50.2443 -0.589067 38.2643 -0.385161 23.4458 12.5289C19.2215 16.2445 12.6728 21.818 5.9229 33.5992Z" fill="#EFCE76"/>
<path d="M70.2258 73.6555C70.2258 73.6555 72.4832 68.0367 63.3641 66.632C54.9826 65.3406 50.0655 70.5289 55.3626 74.2219C56.3013 74.8562 57.3071 75.2641 58.3799 75.4906C61.4196 76.1023 68.7283 77.2351 70.2258 73.6555Z" fill="#D1A74A"/>
<path d="M20.8532 64.0039C20.8532 64.0039 22.7753 58.8156 15.3549 57.7055C8.53795 56.6859 4.47013 61.5344 8.76146 64.7969C9.49903 65.3633 10.3484 65.7258 11.1977 65.907C13.6339 66.4281 19.5792 67.3117 20.8532 64.0039Z" fill="#D1A74A"/>
<path d="M24.5857 58.5664C22.3507 58.3172 20.4732 56.7086 19.6909 54.5562C18.8193 52.1547 18.5958 48.5523 22.7753 45.539C29.8158 40.4187 31.5368 50.025 31.2686 51.7695C30.9557 53.7406 29.1453 59.0648 24.5857 58.5664Z" fill="#1E1E1E"/>
<path d="M51.2948 64.3211C49.015 63.3695 47.5175 61.1492 47.2716 58.657C47.0034 55.7117 47.741 51.5883 53.3063 49.3906C62.5372 45.743 61.5761 56.8898 60.7715 58.7476C59.8327 60.8547 56.2119 66.3375 51.2948 64.3211Z" fill="#1E1E1E"/>
<path d="M33.8165 41.3023C33.8165 41.3023 36.1857 39.5125 31.7156 37.5187C27.2231 35.525 21.5237 36.4539 22.4624 38.8555C23.4011 41.257 25.7032 39.807 25.9491 39.807C26.2173 39.807 27.7595 38.8328 30.084 40.532C30.084 40.5547 32.1626 42.9789 33.8165 41.3023Z" fill="#1E1E1E"/>
<path d="M53.284 43.6812C53.284 43.6812 52.0324 40.3508 57.7988 41.257C63.5653 42.1633 68.706 46.8078 66.225 48.5976C63.7441 50.3875 62.4031 47.4422 62.1125 47.2836C61.8667 47.1023 60.8832 45.1539 57.5083 45.3578C57.5306 45.3578 53.8875 46.4226 53.284 43.6812Z" fill="#1E1E1E"/>
<path d="M42.9356 76.5328C42.9356 76.5328 43.2485 74.0859 46.7799 75.8305C49.9537 77.4164 51.3171 81.857 49.2162 82.6953C47.3163 83.4656 45.9753 81.993 46.3106 80.8828C46.4 80.5883 46.6011 79.1609 44.8131 78.8437C44.8354 78.8437 42.8015 78.1867 42.9356 76.5328Z" fill="#1E1E1E"/>
<path d="M21.3225 76.3289C21.3225 76.3289 20.7191 72.9531 22.82 73.5875C25.5915 74.4484 26.1056 77.9375 27.2678 79.3195C28.1618 80.407 29.6593 81.8344 35.2246 82.1742C36.8115 82.2649 42.578 80.7469 44.0755 79.0477C44.9919 78.0281 46.7576 77.575 47.1152 79.2289C47.6963 81.857 38.3984 87.4758 30.6428 85.4367C26.4632 84.3719 22.9541 80.9508 21.3225 76.3289Z" fill="#1E1E1E"/>
</svg>
