<svg width="65" height="64" viewBox="0 0 65 64" fill="none" xmlns="http://www.w3.org/2000/svg">
<g clip-path="url(#clip0_101_189)">
<g clip-path="url(#clip1_101_189)">
<path d="M3.31251 18.5375C3.31251 18.5375 -1.07499 26.5875 0.250006 37.7125C1.57501 48.8375 10.4125 56.4875 13.7625 58.275C17.1125 60.075 22.6125 64.725 32.5375 63.8875C42.4625 63.05 46.175 64 52.8625 57.4375C59.55 50.875 63.625 46.55 64.8125 34.4875C64.8125 34.4875 65.7625 27.675 60.75 19.175C55.7375 10.675 57.625 12.375 53.675 8.07499C49.725 3.77499 36.775 0.649988 32.4375 0.162488C28.1 -0.325012 21.4 -0.212512 13.1125 6.91249C10.75 8.96249 7.08751 12.0375 3.31251 18.5375Z" fill="#EFCE76"/>
<path d="M13.825 36.5375C13.825 36.5375 18.7625 39.15 23.2375 36.675C27.2375 34.4625 36.4125 33.775 40.75 36.475C42.25 37.4125 43.925 37.9875 45.6875 38.125C47.35 38.25 49.3125 38.225 51.05 37.7C51.05 37.7 47.5375 48.6375 32.2375 49.5125C32.2375 49.5125 18.6125 50.325 13.825 36.5375Z" fill="white"/>
<path d="M47.1 25.375C47.4375 25.3375 47.7625 25.1625 47.9125 24.8875C48.0625 24.5875 47.9375 24.0375 47.2125 23.4375C45.75 22.25 42.3625 23.225 41.1375 24.45C39.4875 26.125 40.4125 26.775 42.0375 26.025C45.2625 24.5375 46.1875 25.4625 47.1 25.375Z" fill="#1E1E1E"/>
<path d="M17.8125 25.375C17.475 25.3375 17.15 25.1625 17 24.8875C16.85 24.5875 16.975 24.0375 17.7 23.4375C19.1625 22.25 22.55 23.225 23.775 24.45C25.425 26.125 24.5 26.775 22.875 26.025C19.6375 24.5375 18.725 25.4625 17.8125 25.375Z" fill="#1E1E1E"/>
<path d="M16.3875 41.675C16.3875 41.675 21.7375 42.6375 24.125 42.75C24.125 42.75 18.6125 43.2875 17.6 43.2375C17.6125 43.2125 16.775 42.225 16.3875 41.675Z" fill="#1E1E1E"/>
<path d="M47.75 42.9C47.75 42.9 41.2875 43.2625 40.275 43.2125C40.275 43.2125 45.075 44.15 46.575 44.0625C46.5625 44.0625 47.525 43.1375 47.75 42.9Z" fill="#1E1E1E"/>
<path d="M54.875 32.175C54.875 32.175 55.5875 28.9 50.4125 29.0375C45.675 29.15 43.4625 32.45 46.725 33.925C47.3 34.175 47.9 34.3 48.5125 34.3125C50.25 34.375 54.4 34.275 54.875 32.175Z" fill="#D1A74A"/>
<path d="M20.3125 32.125C20.3125 32.125 20.9625 29.0125 16.1625 29.15C11.775 29.275 9.75003 32.425 12.775 33.8125C13.3 34.05 13.8625 34.1625 14.425 34.175C16.0375 34.2375 19.8625 34.1375 20.3125 32.125Z" fill="#D1A74A"/>
<path d="M40.775 18.7C40.775 18.7 39.7125 17.425 42.425 16.9375C45.1375 16.45 48.125 17.725 47.2875 18.8875C46.45 20.05 45.4 18.9625 45.2625 18.925C45.125 18.8875 44.4 18.1625 42.9125 18.775C42.9125 18.7875 41.4625 19.8125 40.775 18.7Z" fill="#1E1E1E"/>
<path d="M22.0125 18.05C22.0125 18.05 22.75 16.5625 20.0125 16.725C17.275 16.8875 14.65 18.7875 15.725 19.7375C16.8 20.6875 17.575 19.3875 17.7 19.325C17.825 19.2625 18.375 18.3875 19.9375 18.6375C19.9375 18.6375 21.6 19.3 22.0125 18.05Z" fill="#1E1E1E"/>
</g>
</g>
<defs>
<clipPath id="clip0_101_189">
<rect x="0.5" width="64" height="64" rx="24" fill="white"/>
</clipPath>
<clipPath id="clip1_101_189">
<rect width="64.875" height="64" fill="white"/>
</clipPath>
</defs>
</svg>
