<svg width="116" height="116" viewBox="0 0 116 116" fill="none" xmlns="http://www.w3.org/2000/svg">
<path d="M26.2734 8.56406C29.6189 5.93593 35.5739 2.10703 42.5995 1.56328C42.5995 1.56328 59.3716 0.996872 63.0517 0.113278C66.7541 -0.770316 83.2363 3.57968 89.5035 11.1016C89.5035 11.1016 101.436 18.8953 105.138 23.5172C108.841 28.1164 115.086 41.6875 115.643 51.5203C115.643 51.5203 119.345 75.7852 102.841 92.5508C86.3365 109.316 75.8539 115.66 67.044 115.955C58.2342 116.249 47.1494 115.66 34.0796 108.455C21.0098 101.251 16.4599 102.406 10.4826 90.8516C4.50526 79.2969 -3.16711 61.6477 1.38278 46.0375C5.93268 30.4273 9.05516 28.1617 14.1626 19.1898C14.1626 19.1898 16.6383 15.0664 20.7421 12.4383C22.6602 11.2375 24.5114 9.96875 26.2734 8.56406Z" fill="#EFCE76"/>
<path d="M35.5962 51.2484C34.0573 51.475 32.5183 50.75 31.5593 49.3453C30.6448 47.9633 30.065 45.8562 32.0723 43.3414C35.7077 38.8101 38.6295 44.5422 38.7633 45.7203C38.964 47.057 38.7633 50.7953 35.5962 51.2484Z" fill="#1E1E1E"/>
<path d="M73.6458 42.3445C73.6458 42.3445 70.6348 41.7555 72.5306 39.218C72.5306 39.218 76.1883 32.693 81.162 32.1945C83.6823 31.9453 86.7156 35.8875 89.4143 37.5188C89.4143 37.5188 93.0497 39.8523 90.0165 40.8719C90.0165 40.8719 89.4589 41.1664 88.2768 40.5094C86.3364 39.4219 83.8384 35.2984 81.6081 35.6156C80.9167 35.7063 80.203 35.8422 79.4669 36.0234C78.5525 36.2727 77.7273 36.6805 76.9467 37.2469C76.2107 37.8133 75.1178 42.2312 73.6458 42.3445Z" fill="#1E1E1E"/>
<path d="M40.8598 42.0727C40.8598 42.0727 43.6254 40.6906 41.1274 38.7648C41.1274 38.7648 35.9307 33.4406 31.0017 34.2789C28.5037 34.6867 26.5856 39.2859 24.3999 41.5969C24.3999 41.5969 21.5004 44.7914 24.6675 44.9953C24.6675 44.9953 25.2697 45.1313 26.251 44.1797C27.8569 42.6164 29.2174 37.9945 31.4254 37.6547C32.0945 37.5641 32.8529 37.4961 33.5889 37.4961C34.5256 37.4961 35.4401 37.6773 36.3322 37.9945C37.202 38.357 39.4101 42.3219 40.8598 42.0727Z" fill="#1E1E1E"/>
<path d="M37.0458 57.4336C37.0458 57.4336 38.1833 52.6984 30.7786 52.6984C23.976 52.6984 20.6974 57.3883 25.3142 59.6766C26.1172 60.0617 26.987 60.2656 27.8568 60.3109C30.3325 60.4469 36.2652 60.4469 37.0458 57.4336Z" fill="#D1A74A"/>
<path d="M93.3175 57.4109C93.3175 57.4109 94.455 52.6758 87.0057 52.6984C80.1808 52.7211 76.9022 57.4336 81.5636 59.6992C82.3889 60.0844 83.2364 60.2656 84.1285 60.3109C86.5819 60.4469 92.5369 60.4242 93.3175 57.4109Z" fill="#D1A74A"/>
<path d="M86.2919 47.125C86.8941 47.057 87.4963 46.7398 87.7417 46.2187C88.0316 45.675 87.7863 44.6555 86.4927 43.568C83.8609 41.393 77.772 43.1828 75.564 45.4258C72.6199 48.4617 74.2481 49.6625 77.1698 48.3031C82.991 45.607 84.6638 47.3062 86.2919 47.125Z" fill="#1E1E1E"/>
<path d="M88.7006 66.9039C89.0351 66.632 90.4403 67.1984 90.7079 67.8328C90.9755 68.4898 91.3547 69.3734 87.63 72.0695C81.7865 76.3062 70.2111 82.9445 54.2195 82.1289C54.2195 82.1289 36.5552 81.8117 26.3626 70.2344C26.3626 70.2344 26.251 70.0758 26.1395 69.8039C25.6489 68.6031 27.3662 67.4023 28.3699 68.2406C30.1095 69.6906 31.4477 70.3476 35.6854 72.9758C35.6854 72.9758 46.6141 79.682 60.9105 78.6625C60.9105 78.6625 74.4041 78.3226 88.7006 66.9039Z" fill="#1E1E1E"/>
<path d="M86.0911 65.9297C86.0911 65.9297 86.4033 63.4602 89.9495 65.2273C93.1166 66.7906 94.4548 71.2313 92.4029 72.0922C90.5071 72.8852 89.1689 71.3898 89.5258 70.2797C89.615 69.9852 89.8157 68.5578 88.0315 68.2406C87.9868 68.218 85.9572 67.5836 86.0911 65.9297Z" fill="#1E1E1E"/>
<path d="M30.4442 66.7906C30.4442 66.7906 30.132 64.3211 26.5857 66.0883C23.4186 67.6516 22.0804 72.0922 24.1324 72.9531C26.0281 73.7461 27.3663 72.2508 27.0095 71.1406C26.9203 70.8461 26.7196 69.4188 28.5038 69.1016C28.5484 69.1016 30.5557 68.4445 30.4442 66.7906Z" fill="#1E1E1E"/>
</svg>
