<svg width="116" height="116" viewBox="0 0 116 116" fill="none" xmlns="http://www.w3.org/2000/svg">
<g clip-path="url(#clip0_101_2405)">
<path d="M9.22113 27.9254C9.22113 27.9254 -1.56324 37.323 0.181287 57.5657C1.92582 77.8083 5.14301 83.5092 8.04301 89.2324C10.943 94.9556 19.0993 104.709 34.8454 111.012C50.5914 117.314 76.5102 119.029 89.3563 108.161C102.202 97.2938 107.731 90.9694 110.336 86.9609C112.941 82.9525 116.748 67.4754 115.864 49.1479C114.981 30.8204 100.413 19.0623 98.1016 17.0581C95.768 15.0316 89.5602 9.77606 86.7282 8.08361C76.3743 1.75917 63.7321 -0.111438 54.6922 -9.20864e-05C49.4133 0.0667154 42.775 1.1579 35.8196 4.16424C28.4789 7.32646 22.1579 12.337 17.2414 18.5724C15.225 21.1556 12.461 24.496 9.22113 27.9254Z" fill="#EFCE76"/>
<path d="M34.0751 58.9464C34.0751 58.9464 35.2532 54.2254 27.6407 54.2254C20.6852 54.2254 17.3094 58.9019 22.0446 61.1511C22.8829 61.5297 23.7438 61.7301 24.6501 61.7746C27.1876 61.9528 33.2594 61.9528 34.0751 58.9464Z" fill="#D1A74A"/>
<path d="M91.7579 58.9241C91.7579 58.9241 92.9134 54.2031 85.2782 54.2476C78.2774 54.2699 74.9243 58.9687 79.7048 61.1956C80.5431 61.5742 81.4267 61.7746 82.3329 61.8191C84.8931 61.9528 90.9876 61.9305 91.7579 58.9241Z" fill="#D1A74A"/>
<path d="M54.0578 40.8862C54.0578 40.8862 55.6438 44.2711 52.6531 43.5585C50.682 43.0908 47.8727 38.5479 47.8727 38.5479C47.8727 38.5479 44.1797 34.0941 35.9781 33.6709C35.6383 33.6487 35.3438 33.426 35.2758 33.092C35.1852 32.4907 35.6156 31.5776 38.8102 31.5999C43.7039 31.5999 50.75 31.6445 54.0578 40.8862Z" fill="#1E1E1E"/>
<path d="M72.0696 27.1906C72.0696 27.1906 66.768 27.2574 69.3055 24.5851C71.843 21.9128 78.0281 24.4515 80.7016 26.9457C83.375 29.4398 86.2071 34.9848 86.2071 34.9848C86.2071 34.9848 87.1586 37.9244 83.7602 34.8289C80.3617 31.7113 79.3649 27.2797 72.0696 27.1906Z" fill="#1E1E1E"/>
<path d="M34.347 64.8032C34.347 64.8032 32.9196 65.115 32.4438 65.939C32.4438 65.939 34.1204 83.9324 46.1282 85.6249C46.1282 85.6249 36.9524 75.4256 34.347 64.8032Z" fill="#1E1E1E"/>
<path d="M79.8633 71.4839C79.8633 71.4839 50.5234 95.8018 36.0688 64.9591C36.0688 64.9591 35.2758 64.3801 33.8711 65.4935C33.8711 65.4935 37.5414 78.8773 44.3609 83.7765C44.3609 83.7765 36.0234 80.8592 32.9649 65.8053C32.9649 65.8053 31.8774 66.4066 31.9 67.1414C31.9 67.1414 33.9391 91.3926 50.3195 93.5081C50.3195 93.5304 74.3352 97.7838 79.8633 71.4839Z" fill="white"/>
<path d="M50.6594 54.4258C50.886 53.8913 50.8633 52.9337 50.4329 51.5308C49.5266 48.5244 44.4969 43.0908 41.0758 43.7366C39.3766 44.0483 38.6743 44.8278 38.6743 45.429C38.6743 45.9858 39.0141 46.5425 39.5805 46.8988C40.6 47.5669 42.2539 47.9009 44.5649 49.9274C42.0047 49.3261 39.1274 49.3929 37.6321 50.7736C36.3633 51.9316 36.1821 52.9337 36.4993 53.4682C36.7938 53.9359 37.4055 54.2476 38.0399 54.2699C39.7164 54.3367 41.3024 52.5552 47.4196 54.8934C49.3454 55.606 50.7047 55.3833 50.6594 54.4258Z" fill="#1E1E1E"/>
<path d="M71.6164 55.3834C69.3281 55.4724 67.3117 53.9581 66.2922 51.3749C65.2953 48.8585 64.9328 45.1618 68.4219 41.2647C74.675 34.2722 77.5523 44.516 77.4844 46.5202C77.4164 48.8362 76.2836 55.1607 71.6164 55.3834Z" fill="#1E1E1E"/>
<path d="M30.6313 69.1012C30.4274 69.3907 30.1329 69.5911 29.7477 69.6134C29.4758 69.6356 29.204 69.5243 29.068 69.1012C28.8188 68.1659 32.036 65.2486 33.2141 64.6028C34.3469 64.0015 37.3829 63.1108 40.1243 63.712C40.5094 63.8011 40.804 64.1351 40.736 64.536C40.6907 64.7809 40.5321 65.0259 39.9883 65.0927C39.6938 65.1373 39.3993 65.115 39.1047 65.0482C38.6743 64.9368 37.5415 64.7587 35.5251 65.0482C35.593 65.0704 32.9422 65.694 30.6313 69.1012Z" fill="#1E1E1E"/>
</g>
<defs>
<clipPath id="clip0_101_2405">
<rect width="116" height="116" fill="white"/>
</clipPath>
</defs>
</svg>
