<svg width="107" height="95" viewBox="0 0 107 95" fill="none" xmlns="http://www.w3.org/2000/svg">
<path d="M75.6835 36.2214C85.2904 36.2214 93.0783 28.262 93.0783 18.4436C93.0783 8.62515 85.2904 0.665741 75.6835 0.665741C66.0767 0.665741 58.2888 8.62515 58.2888 18.4436C58.2888 28.262 66.0767 36.2214 75.6835 36.2214Z" fill="#F9EA31"/>
<path d="M75.6836 36.8866C65.7329 36.8866 57.6373 28.6127 57.6373 18.4437C57.6373 8.27472 65.7329 0 75.6836 0C85.6344 0 93.7291 8.2739 93.7291 18.4437C93.7291 28.6135 85.6336 36.8866 75.6836 36.8866ZM75.6836 1.33102C66.451 1.33102 58.9397 9.00783 58.9397 18.4437C58.9397 27.8796 66.451 35.5556 75.6836 35.5556C84.9163 35.5556 92.4267 27.8797 92.4267 18.4437C92.4267 9.00775 84.9162 1.33102 75.6836 1.33102Z" fill="black"/>
<path d="M93.2914 26.2086C91.5202 26.2086 89.8271 26.5724 88.2817 27.2291C86.3802 22.26 81.657 18.7283 76.1264 18.7283C73.5043 18.7283 71.0733 19.5269 69.0243 20.8845C67.2357 14.0164 61.1234 8.94968 53.839 8.94968C53.7261 8.94968 53.6132 8.94968 53.5003 8.95848C53.3875 8.94968 53.2746 8.94968 53.1617 8.94968C45.8772 8.94968 39.7649 14.0164 37.9764 20.8845C35.9274 19.5269 33.4963 18.7283 30.8742 18.7283C25.3436 18.7283 20.6204 22.26 18.719 27.2291C17.1735 26.5724 15.4805 26.2086 13.7093 26.2086C6.49426 26.2086 0.651093 32.1805 0.651093 39.5455C0.651093 46.9105 6.49426 52.8912 13.7093 52.8912C15.9233 52.8912 18.0157 52.3234 19.8477 51.3295C22.1572 55.0652 26.2291 57.5499 30.8742 57.5499C33.7914 57.5499 36.483 56.5649 38.6536 54.9145C40.8241 56.5649 43.5156 57.5499 46.4329 57.5499C49.0376 57.5499 51.46 56.769 53.5003 55.4292C55.5407 56.769 57.9631 57.5499 60.5677 57.5499C63.485 57.5499 66.1765 56.5649 68.3471 54.9145C70.5177 56.5649 73.2092 57.5499 76.1264 57.5499C80.7714 57.5499 84.8435 55.0652 87.153 51.3295C88.9849 52.3234 91.0774 52.8912 93.2914 52.8912C100.506 52.8912 106.35 46.9194 106.35 39.5455C106.35 32.1716 100.506 26.2086 93.2914 26.2086Z" fill="#CFE8FD"/>
<path d="M76.1262 58.2153C73.3231 58.2153 70.6438 57.3591 68.3469 55.7335C66.05 57.3591 63.3707 58.2153 60.5676 58.2153C58.0697 58.2153 55.6354 57.5238 53.5005 56.2127C51.3647 57.5239 48.9295 58.2153 46.4326 58.2153C43.6294 58.2153 40.9501 57.3591 38.6532 55.7335C36.3563 57.3591 33.677 58.2153 30.8739 58.2153C26.3504 58.2153 22.1873 55.9744 19.6233 52.1893C17.7826 53.0853 15.751 53.5567 13.7093 53.5567C6.14963 53.5567 -6.10352e-05 47.2716 -6.10352e-05 39.5454C-6.10352e-05 31.8193 6.14963 25.5428 13.7093 25.5428C15.3076 25.5428 16.8702 25.8219 18.3625 26.3738C20.5704 21.3036 25.4134 18.0626 30.8738 18.0626C33.23 18.0626 35.5338 18.6839 37.5898 19.8677C39.7604 13.0046 46.0441 8.28445 53.1612 8.28445C53.274 8.28445 53.3867 8.28535 53.5003 8.29138C53.6131 8.28535 53.7258 8.28445 53.8386 8.28445C60.9557 8.28445 67.2394 13.0046 69.4099 19.8677C71.4652 18.6848 73.7706 18.0626 76.126 18.0626C81.5863 18.0626 86.4295 21.3036 88.6373 26.3738C90.1295 25.8218 91.6922 25.5428 93.2914 25.5428C100.85 25.5428 107 31.8244 107 39.5454C107 47.2664 100.85 53.5567 93.2914 53.5567C91.2496 53.5567 89.2173 53.0853 87.3765 52.1893C84.8126 55.9744 80.6495 58.2153 76.126 58.2153H76.1262ZM68.3469 54.2491C68.4834 54.2491 68.6199 54.2933 68.7353 54.3808C70.8906 56.0186 73.4461 56.8843 76.1262 56.8843C80.3979 56.8843 84.3142 54.6746 86.6027 50.9744C86.7833 50.6807 87.158 50.5784 87.4582 50.7422C89.2473 51.7127 91.2644 52.2257 93.2916 52.2257C100.132 52.2257 105.698 46.5376 105.698 39.5454C105.698 32.5532 100.132 26.8738 93.2916 26.8738C91.6475 26.8738 90.0459 27.2005 88.5316 27.8435C88.3696 27.9128 88.189 27.9119 88.0271 27.8417C87.866 27.7716 87.7388 27.6381 87.6753 27.4717C85.7972 22.5644 81.2636 19.3937 76.1262 19.3937C73.7352 19.3937 71.4019 20.1025 69.3788 21.4422C69.2041 21.5584 68.9837 21.5809 68.7903 21.5055C68.5953 21.4284 68.4487 21.2611 68.3952 21.0558C66.6402 14.3201 60.6549 9.61547 53.8388 9.61547C53.7446 9.61719 53.6455 9.61547 53.5497 9.6224C53.5158 9.62411 53.4844 9.62411 53.4522 9.6224C53.3547 9.61547 53.2589 9.61547 53.1614 9.61547C46.3453 9.61547 40.3601 14.32 38.605 21.0558C38.5516 21.2611 38.4049 21.4284 38.2098 21.5055C38.0165 21.5809 37.796 21.5584 37.6214 21.4422C35.5983 20.1026 33.265 19.3937 30.8739 19.3937C25.7366 19.3937 21.203 22.5644 19.3249 27.4717C19.2614 27.6381 19.1341 27.7716 18.9731 27.8417C18.812 27.9119 18.6323 27.9128 18.4686 27.8435C16.9543 27.2005 15.3535 26.8738 13.7094 26.8738C6.86784 26.8738 1.30235 32.5584 1.30235 39.5454C1.30235 46.5325 6.86784 52.2257 13.7094 52.2257C15.7367 52.2257 17.7529 51.7127 19.542 50.7422C19.843 50.5776 20.216 50.6807 20.3975 50.9744C22.6859 54.6746 26.6023 56.8843 30.8739 56.8843C33.5541 56.8843 36.1096 56.0186 38.2649 54.3808C38.4956 54.2057 38.811 54.2057 39.0416 54.3808C41.1969 56.0186 43.7524 56.8843 46.4326 56.8843C48.8185 56.8843 51.1409 56.1876 53.1486 54.8696C53.3623 54.7292 53.6387 54.7292 53.8524 54.8696C55.8593 56.1876 58.1816 56.8843 60.5676 56.8843C63.2478 56.8843 65.8033 56.0186 67.9586 54.3808C68.0739 54.2933 68.2104 54.2491 68.3469 54.2491Z" fill="black"/>
<path d="M44.3648 46.4207H71.3945L57.8796 64.7592L76.3906 66.7558L43.2717 93.3764L52.3085 71.6363H34.242L44.3648 46.4207Z" fill="#F9EA31"/>
<path d="M43.2718 94.0421C43.1328 94.0421 42.9928 93.9962 42.8759 93.9052C42.6402 93.7206 42.5562 93.3957 42.6724 93.1167L51.3241 72.302H34.2418C34.0248 72.302 33.8221 72.1911 33.7009 72.0074C33.5805 71.8228 33.5567 71.5889 33.639 71.3835L43.7619 46.1677C43.8628 45.9181 44.1002 45.7552 44.3648 45.7552H71.3944C71.6411 45.7552 71.8667 45.8981 71.9769 46.1235C72.0871 46.3497 72.0633 46.6192 71.9141 46.8211L59.0916 64.2215L76.4597 66.0941C76.7225 66.1227 76.943 66.3116 77.0168 66.5715C77.0905 66.8323 77.0015 67.1114 76.7938 67.2795L43.6747 93.9001C43.5568 93.9945 43.4144 94.0422 43.272 94.0422L43.2718 94.0421ZM35.2127 70.971H52.3085C52.5272 70.971 52.7308 71.0828 52.8511 71.2691C52.9724 71.4554 52.9936 71.6911 52.9079 71.8965L44.8624 91.251L74.7282 67.2457L57.8113 65.4216C57.5781 65.3965 57.3763 65.2448 57.2831 65.0247C57.189 64.8045 57.2186 64.5507 57.3603 64.3591L70.0887 47.0861H44.8014L35.2127 70.9709L35.2127 70.971Z" fill="black"/>
<path d="M14.4641 49.7851H31.1926L22.8283 61.1349L34.2847 62.3705L13.7875 78.8459L19.3804 65.391H8.19904L14.4641 49.7851Z" fill="#F9EA31"/>
<path d="M13.7875 79.5117C13.6485 79.5117 13.5085 79.4657 13.3916 79.3748C13.1559 79.1902 13.0719 78.8652 13.1881 78.5862L18.3958 66.0568H8.19914C7.9821 66.0568 7.7794 65.9458 7.6582 65.7621C7.53783 65.5775 7.51403 65.3436 7.59635 65.1382L13.8614 49.5324C13.9623 49.2829 14.1997 49.1199 14.4642 49.1199H31.193C31.4397 49.1199 31.6653 49.2629 31.7755 49.4882C31.8857 49.7144 31.862 49.9839 31.7127 50.1858L24.0411 60.5966L34.3539 61.7084C34.6168 61.737 34.8372 61.926 34.911 62.1859C34.9847 62.4467 34.8957 62.7257 34.688 62.8939L14.1905 79.3697C14.0726 79.4642 13.9302 79.5119 13.7878 79.5119L13.7875 79.5117ZM9.17 64.7257H19.3802C19.5989 64.7257 19.8024 64.8375 19.9228 65.0237C20.0441 65.21 20.0653 65.4457 19.9796 65.6511L15.3781 76.7205L32.6224 62.86L22.7598 61.7967C22.5267 61.7716 22.3248 61.6199 22.2316 61.3998C22.1375 61.1796 22.1671 60.9258 22.3088 60.7342L29.8872 50.4508H14.9009L9.17 64.7256V64.7257Z" fill="black"/>
<path d="M83.4553 49.7851H100.184L91.8195 61.1349L103.276 62.3705L82.7788 78.8459L88.3717 65.391H77.1903L83.4553 49.7851Z" fill="#F9EA31"/>
<path d="M82.7788 79.5117C82.6398 79.5117 82.4998 79.4657 82.3829 79.3748C82.1472 79.1902 82.0632 78.8652 82.1794 78.5862L87.3871 66.0568H77.1904C76.9734 66.0568 76.7707 65.9458 76.6495 65.7621C76.5291 65.5775 76.5053 65.3436 76.5877 65.1382L82.8527 49.5324C82.9536 49.2829 83.191 49.1199 83.4556 49.1199H100.184C100.431 49.1199 100.657 49.2629 100.767 49.4882C100.877 49.7144 100.853 49.9839 100.704 50.1858L93.0324 60.5966L103.344 61.7084C103.607 61.737 103.828 61.926 103.901 62.1859C103.975 62.4467 103.886 62.7257 103.678 62.8939L83.1818 79.3697C83.0639 79.4642 82.9215 79.5119 82.7791 79.5119L82.7788 79.5117ZM78.1613 64.7257H88.3715C88.5902 64.7257 88.7937 64.8375 88.9141 65.0237C89.0354 65.21 89.0566 65.4457 88.9709 65.6511L84.3694 76.7205L101.613 62.86L91.751 61.7967C91.5179 61.7716 91.3161 61.6199 91.2228 61.3998C91.1287 61.1796 91.1584 60.9258 91.3 60.7342L98.8784 50.4508H83.8921L78.1612 64.7256L78.1613 64.7257Z" fill="black"/>
</svg>
