<svg width="60" height="60" viewBox="0 0 60 60" fill="none" xmlns="http://www.w3.org/2000/svg">
<g clip-path="url(#clip0_101_1822)">
<path d="M56.9365 17.3789C56.9365 17.3789 60.9943 24.9258 59.7689 35.3555C58.5435 45.7852 50.3701 52.9571 47.2718 54.6329C44.1735 56.3204 39.0868 60.6797 29.9076 59.8946C20.7285 59.1094 17.2949 60 11.11 53.8477C4.92498 47.6954 1.15619 43.6407 0.0579262 32.3321C0.0579262 32.3321 -0.820686 25.9454 3.81515 17.9766C8.45099 10.0079 6.70533 11.6016 10.3585 7.57035C14.0117 3.5391 25.9886 0.609415 30.0001 0.152384C34.0117 -0.304647 40.2082 -0.199179 47.873 6.48051C50.0579 8.40238 53.4452 11.2852 56.9365 17.3789Z" fill="#EFCE76"/>
<path d="M23.6766 38.0976C23.6766 38.0976 22.5089 35.1914 27.2257 34.4648C31.561 33.7969 34.1043 36.4805 31.3644 38.3906C30.8789 38.7187 30.3587 38.9297 29.8037 39.0469C28.2315 39.3633 24.4511 39.9492 23.6766 38.0976Z" fill="#D1A74A"/>
<path d="M49.2141 33.1054C49.2141 33.1054 48.2199 30.4219 52.0581 29.8476C55.5841 29.3203 57.6881 31.8281 55.4685 33.5156C55.087 33.8086 54.6477 33.9961 54.2084 34.0898C52.9482 34.3594 49.8731 34.8164 49.2141 33.1054Z" fill="#D1A74A"/>
<path d="M47.2833 30.293C48.4394 30.164 49.4105 29.332 49.8151 28.2187C50.266 26.9765 50.3816 25.1133 48.2197 23.5547C44.5781 20.9062 43.6879 25.875 43.8267 26.7773C43.9885 27.7969 44.9249 30.5508 47.2833 30.293Z" fill="#1E1E1E"/>
<path d="M33.4683 33.2695C34.6475 32.7774 35.4221 31.6289 35.5492 30.3399C35.6879 28.8164 35.3064 26.6836 32.4278 25.5469C27.6533 23.6602 28.1504 29.4258 28.5666 30.3867C29.0521 31.4766 30.9249 34.3125 33.4683 33.2695Z" fill="#1E1E1E"/>
<path d="M42.5087 21.3633C42.5087 21.3633 41.2833 20.4375 43.5954 19.4062C45.9191 18.375 48.8671 18.8555 48.3815 20.0976C47.896 21.3398 46.7052 20.5898 46.5781 20.5898C46.4393 20.5898 45.6417 20.0859 44.4393 20.9648C44.4393 20.9766 43.3642 22.2305 42.5087 21.3633Z" fill="#1E1E1E"/>
<path d="M32.4395 22.5938C32.4395 22.5938 33.0869 20.8711 30.1042 21.3398C27.1215 21.8086 24.4626 24.2109 25.7458 25.1367C27.0291 26.0625 27.7227 24.5391 27.873 24.457C28.0002 24.3633 28.5088 23.3555 30.2545 23.4609C30.2429 23.4609 32.1273 24.0117 32.4395 22.5938Z" fill="#1E1E1E"/>
<path d="M37.7921 39.586C37.7921 39.586 37.6303 38.3203 35.8037 39.2227C34.1621 40.043 33.4569 42.3399 34.5436 42.7735C35.5262 43.1719 36.2199 42.4102 36.0465 41.836C36.0002 41.6836 35.8962 40.9453 36.821 40.7813C36.8095 40.7813 37.8615 40.4414 37.7921 39.586Z" fill="#1E1E1E"/>
<path d="M48.9713 39.4804C48.9713 39.4804 49.2834 37.7343 48.1967 38.0625C46.7632 38.5078 46.4973 40.3125 45.8961 41.0273C45.4337 41.5898 44.6591 42.3281 41.7805 42.5039C40.9597 42.5508 37.977 41.7656 37.2025 40.8867C36.7285 40.3593 35.8152 40.125 35.6302 40.9804C35.3296 42.3398 40.1389 45.2461 44.1505 44.1914C46.3123 43.6406 48.1273 41.8711 48.9713 39.4804Z" fill="#1E1E1E"/>
</g>
<defs>
<clipPath id="clip0_101_1822">
<rect width="60" height="60" fill="white" transform="matrix(-1 0 0 1 60.0002 0)"/>
</clipPath>
</defs>
</svg>
