<svg width="65" height="64" viewBox="0 0 65 64" fill="none" xmlns="http://www.w3.org/2000/svg">
<path d="M6.24059 59.4774C5.61828 58.733 4.93496 58.0375 4.16623 57.4396C2.50673 56.1462 0.0540997 53.2543 1.53056 47.9829C3.67814 40.3444 1.57937 36.8912 1.66478 33.7064C1.7502 30.5217 0.700814 13.5485 2.45792 10.803C4.21503 8.05749 6.03315 -0.557233 12.4149 0.0284707C18.7966 0.614174 19.0773 2.89598 21.5543 2.22486C24.0313 1.55374 29.3027 0.797206 31.5235 2.38349C33.7442 3.96977 37.9906 2.60313 39.1254 2.27367C40.2602 1.93201 43.9208 1.46832 46.3857 1.19988C48.8505 0.93143 52.9748 -0.435211 55.6837 2.66414C58.3926 5.76348 62.2729 2.51771 63.2491 6.87388C64.2252 11.2423 62.4559 13.4264 62.1753 16.2329C61.8824 19.0516 63.4565 23.4444 62.6756 34.4996C61.8946 45.5547 64.4327 43.0045 63.127 48.41C61.8092 53.8278 64.8109 59.1845 57.4164 61.1857C50.0097 63.1868 50.266 63.7603 48.0696 60.8562C45.8732 57.9521 40.0772 62.833 38.9302 63.3577C37.7832 63.8823 29.8884 64.9195 28.2899 62.2351C26.6914 59.5506 14.5991 61.3809 12.8786 62.0764C11.4143 62.6865 7.9855 61.5761 6.24059 59.4774Z" fill="#CC6952"/>
<path d="M22.14 26.5071C22.14 26.5071 23.2138 25.4578 22.4084 24.7744C22.14 24.5548 21.7739 24.4694 21.4323 24.567C21.1638 24.6402 20.7978 24.7744 20.3585 25.0795C19.2603 25.8116 18.0279 26.3729 16.7344 26.6292C15.075 26.9708 12.0366 27.4833 9.97445 27.0928C6.98492 26.5315 7.27778 28.0568 7.87568 28.2521C8.36377 28.3985 8.5224 28.4351 9.58398 28.4229C10.4625 28.4107 13.33 28.4961 16.1487 28.4351C18.8942 28.3619 19.968 28.2154 22.14 26.5071Z" fill="#1E1E1E"/>
<path d="M28.8389 24.811C28.8389 24.811 27.4357 24.2497 27.9238 23.298C28.0824 22.9807 28.3997 22.7855 28.7413 22.7367C29.022 22.7001 29.4124 22.6879 29.9249 22.7855C31.2306 23.0539 32.5606 23.0783 33.8662 22.8221C35.5257 22.4926 40.1259 20.6013 41.8953 19.4421C44.4333 17.7826 44.7628 19.2957 44.2869 19.7227C43.8964 20.0522 43.7622 20.1498 42.7738 20.5403C41.9563 20.8697 37.7221 23.2492 35.1109 24.2741C32.5362 25.2869 31.4868 25.5676 28.8389 24.811Z" fill="#1E1E1E"/>
<path d="M17.3568 43.1021C17.3568 43.1021 17.4178 44.3833 16.4294 44.3345C15.075 44.2857 15.4655 41.5402 16.4294 40.3078C17.3934 39.0754 23.4457 36.6593 30.6816 34.5484C30.6816 34.5484 39.2963 31.9981 41.4195 35.9028C41.4195 35.9028 44.1527 41.0155 40.7483 43.2973C40.7483 43.2973 39.4061 43.4071 40.2114 41.9795C41.0168 40.5396 41.1388 37.062 38.3933 35.9028C35.66 34.7436 31.7553 35.5855 27.9849 36.8668C24.3608 38.0992 19.7484 39.6245 17.6985 41.2717C17.552 41.3816 17.4544 41.5646 17.4056 41.7354C17.3446 42.0405 17.3812 42.3455 17.3568 43.1021Z" fill="#1E1E1E"/>
<path d="M17.0151 36.3421C17.0151 36.3421 17.5886 33.9626 13.8303 33.9626C10.3771 33.9626 8.71764 36.3177 11.0727 37.4525C11.4875 37.6477 11.9268 37.7575 12.3661 37.7819C13.6107 37.8551 16.6124 37.8551 17.0151 36.3421Z" fill="#AF4635"/>
<path d="M48.1063 31.0708C48.1063 31.0708 48.7286 28.5083 44.6531 28.5083C40.9192 28.5083 39.1133 31.0586 41.6513 32.2788C42.0906 32.4862 42.5665 32.6082 43.0546 32.6326C44.4334 32.7058 47.6792 32.7058 48.1063 31.0708Z" fill="#AF4635"/>
<path d="M18.6624 27.3979C19.0895 27.3735 19.5166 27.5687 19.7484 27.9592C20.0169 28.3863 19.846 28.9476 19.3701 30.1434C17.5032 34.829 13.6351 33.4746 10.792 30.4485C7.94892 27.4223 10.2673 27.4223 12.4515 27.5565C14.2452 27.6542 17.552 27.4711 18.6624 27.3979Z" fill="#1E1E1E"/>
<path d="M32.7559 24.1277C32.2678 24.2863 31.8773 24.7134 31.7919 25.2869C31.6943 25.9092 31.9261 26.7634 33.244 27.703C35.8674 29.5699 41.1632 29.8139 43.0301 24.1033C44.4944 19.6495 41.9685 19.8204 39.5769 20.9796C37.6246 21.9435 34.0371 23.7006 32.7559 24.1277Z" fill="#1E1E1E"/>
</svg>
