<svg width="65" height="64" viewBox="0 0 65 64" fill="none" xmlns="http://www.w3.org/2000/svg">
<g clip-path="url(#clip0_101_221)">
<g clip-path="url(#clip1_101_221)">
<path d="M27.5125 63.6625C22.4875 63.3125 16.075 61.975 12.4875 58.425C10.9625 56.9125 8.3125 54.2 5.2 52.425C5.2 52.425 -2.3 49.0625 0.724999 30.6625C3.75 12.2625 11.1 11.7125 21.15 9.2875C23.0375 8.8375 31.6 5.3375 28.025 0.012503C28.025 0.012503 41.0875 -0.387497 47.6375 6.0375C54.1875 12.4625 55.575 14.675 57.7 16.925C63.7875 23.3625 67.525 34.9375 64.45 42.4875C61.3625 50.0375 61.8 52.4 50.7 59.05C42.05 64.2375 39.175 64.4375 27.5125 63.6625Z" fill="#8DA9D1"/>
<path d="M23.125 22.05C23.125 22.05 23.8625 20.925 23.025 20.475C22.75 20.3375 22.425 20.3375 22.1375 20.475C21.925 20.5875 21.625 20.7875 21.2875 21.1125C20.4625 21.9625 19.5125 22.675 18.425 23.15C17.0375 23.75 15.5375 24.275 14.2625 24.4125C11.575 24.7125 12.0875 25.775 12.65 25.825C13.1 25.8625 13.25 25.8625 14.175 25.6625C14.925 25.4875 15.8125 25.4375 18.2625 24.8375C20.6625 24.275 21.575 23.9375 23.125 22.05Z" fill="#1E1E1E"/>
<path d="M39.4875 21.5125C39.4875 21.5125 38.9 20.45 39.675 20.1C39.925 19.9875 40.2375 20.025 40.4625 20.1625C40.65 20.275 40.9125 20.475 41.175 20.8C41.85 21.625 42.675 22.325 43.625 22.825C44.825 23.4625 45.1 23.825 46.5 24.025C49.275 24.4375 48.5125 25.425 48 25.45C47.2625 25.475 47.325 25.4125 46.5 25.15C45.825 24.9375 45.825 25.05 43.6625 24.3625C41.5625 23.7 40.775 23.325 39.4875 21.5125Z" fill="#1E1E1E"/>
<path d="M24.0625 39.35C24.0625 39.35 23.425 41.0875 24.625 40.95C26.2 40.7625 26.8 38.95 27.5625 38.3C28.1375 37.8 29.0875 37.1875 32.125 37.5375C32.9875 37.6375 35.9625 38.9875 36.6125 40.0375C37.0125 40.6625 37.9125 41.0625 38.275 40.2125C38.825 38.8875 34.3375 35 29.95 35.375C27.575 35.55 25.375 37.0375 24.0625 39.35Z" fill="#1E1E1E"/>
<path d="M22.5875 27.5875C22.5875 27.5875 23.9625 28.875 20.975 29.7875C17.9875 30.7 14.45 29.6875 15.2125 28.25C15.9875 26.8125 17.325 27.9 17.4875 27.9125C17.65 27.9375 18.5625 28.65 20.15 27.7625C20.1625 27.7875 21.675 26.425 22.5875 27.5875Z" fill="#1E1E1E"/>
<path d="M39.4375 27.6375C39.4375 27.6375 38.1375 28.8 40.8875 29.725C43.6375 30.6375 46.95 29.775 46.2625 28.425C45.575 27.075 44.3 28.05 44.15 28.0625C44 28.075 43.125 28.725 41.675 27.8625C41.6875 27.875 40.325 26.5625 39.4375 27.6375Z" fill="#1E1E1E"/>
<path d="M49.275 34.85C49.275 34.85 50.0625 32.2625 45.9 32.025C42.075 31.8125 40.0875 34.3125 42.6125 35.725C43.05 35.9625 43.5375 36.1125 44.025 36.1625C45.4125 36.3125 48.75 36.5 49.275 34.85Z" fill="#59769B"/>
<path d="M19.6125 34.9C19.6125 34.9 20.425 32.325 16.525 32.0375C12.9625 31.75 11.05 34.2125 13.3625 35.6625C13.775 35.9125 14.2125 36.0625 14.6625 36.125C15.975 36.3 19.075 36.5375 19.6125 34.9Z" fill="#59769B"/>
</g>
</g>
<defs>
<clipPath id="clip0_101_221">
<rect x="0.5" width="64" height="64" rx="24" fill="white"/>
</clipPath>
<clipPath id="clip1_101_221">
<rect width="65.5375" height="64" fill="white"/>
</clipPath>
</defs>
</svg>
