<svg width="56" height="56" viewBox="0 0 56 56" fill="none" xmlns="http://www.w3.org/2000/svg">
<path d="M27.9592 31.3075C31.682 31.3075 34.7 24.4992 34.7 16.1007C34.7 7.7023 31.682 0.894012 27.9592 0.894012C24.2364 0.894012 21.2184 7.7023 21.2184 16.1007C21.2184 24.4992 24.2364 31.3075 27.9592 31.3075Z" fill="#CFE8FD"/>
<path d="M27.9591 32.124C23.7297 32.124 20.4164 25.0855 20.4164 16.1011C20.4164 7.11677 23.7297 0.0772247 27.9591 0.0772247C32.1885 0.0772247 35.5022 7.1157 35.5022 16.1011C35.5022 25.0866 32.1889 32.124 27.9591 32.124ZM27.9591 1.7106C25.0913 1.7106 22.0209 7.49321 22.0209 16.1011C22.0209 24.709 25.0914 30.4906 27.9591 30.4906C30.8268 30.4906 33.8978 24.709 33.8978 16.1011C33.8978 7.49321 30.8269 1.7106 27.9591 1.7106Z" fill="black"/>
<path d="M27.9592 55.0817C31.682 55.0817 34.7 48.2734 34.7 39.8749C34.7 31.4765 31.682 24.6682 27.9592 24.6682C24.2364 24.6682 21.2184 31.4765 21.2184 39.8749C21.2184 48.2734 24.2364 55.0817 27.9592 55.0817Z" fill="#CFE8FD"/>
<path d="M27.9591 55.8987C23.7297 55.8987 20.4164 48.8602 20.4164 39.8748C20.4164 30.8894 23.7297 23.852 27.9591 23.852C32.1885 23.852 35.5022 30.8904 35.5022 39.8748C35.5022 48.8591 32.1889 55.8987 27.9591 55.8987ZM27.9591 25.4853C25.0913 25.4853 22.0209 31.2669 22.0209 39.8748C22.0209 48.4827 25.0914 54.2653 27.9591 54.2653C30.8268 54.2653 33.8978 48.4827 33.8978 39.8748C33.8978 31.2669 30.8269 25.4853 27.9591 25.4853Z" fill="black"/>
<path d="M39.6359 34.8502C47.8856 34.8502 54.5734 31.7779 54.5734 27.988C54.5734 24.1981 47.8856 21.1257 39.6359 21.1257C31.3862 21.1257 24.6985 24.1981 24.6985 27.988C24.6985 31.7779 31.3862 34.8502 39.6359 34.8502Z" fill="#CFE8FD"/>
<path d="M39.636 35.6671C30.8101 35.6671 23.8963 32.294 23.8963 27.9875C23.8963 23.6809 30.8101 20.3089 39.636 20.3089C48.4618 20.3089 55.3756 23.682 55.3756 27.9875C55.3756 32.293 48.4618 35.6671 39.636 35.6671ZM39.636 21.9422C31.1804 21.9422 25.5008 25.0685 25.5008 27.9875C25.5008 30.9064 31.1804 34.0338 39.636 34.0338C48.0916 34.0338 53.7712 30.9075 53.7712 27.9875C53.7712 25.0674 48.0916 21.9422 39.636 21.9422Z" fill="black"/>
<path d="M16.2828 34.8502C24.5325 34.8502 31.2202 31.7779 31.2202 27.988C31.2202 24.1981 24.5325 21.1257 16.2828 21.1257C8.03305 21.1257 1.34534 24.1981 1.34534 27.988C1.34534 31.7779 8.03305 34.8502 16.2828 34.8502Z" fill="#CFE8FD"/>
<path d="M16.2827 35.6671C7.45686 35.6671 0.54303 32.294 0.54303 27.9875C0.54303 23.6809 7.45686 20.3089 16.2827 20.3089C25.1086 20.3089 32.0224 23.682 32.0224 27.9875C32.0224 32.293 25.1086 35.6671 16.2827 35.6671ZM16.2827 21.9422C7.82714 21.9422 2.14752 25.0685 2.14752 27.9875C2.14752 30.9064 7.82714 34.0338 16.2827 34.0338C24.7383 34.0338 30.4179 30.9075 30.4179 27.9875C30.4179 25.0674 24.7383 21.9422 16.2827 21.9422Z" fill="black"/>
<path d="M41.0893 24.3272C46.8959 18.3618 49.4213 11.4023 46.73 8.78263C44.0387 6.16297 37.1498 8.87522 31.3432 14.8406C25.5367 20.806 23.0113 27.7655 25.7026 30.3852C28.3939 33.0048 35.2828 30.2926 41.0893 24.3272Z" fill="#CFE8FD"/>
<path d="M28.5326 32.1857C27.1225 32.1857 25.9338 31.7763 25.0862 30.9129C23.5769 29.3763 23.4134 26.7317 24.6266 23.4661C25.761 20.4121 27.9823 17.105 30.8824 14.1531C33.7821 11.2013 37.031 8.93946 40.0305 7.78469C43.2383 6.54906 45.8361 6.71491 47.3454 8.25252C48.8547 9.78905 49.0181 12.4337 47.8055 15.6993C46.6717 18.7522 44.4498 22.0593 41.5497 25.0122C37.078 29.5646 32.0971 32.1857 28.5326 32.1857ZM43.8826 8.60125C42.9441 8.60125 41.8296 8.83836 40.5981 9.31163C37.8065 10.3867 34.7591 12.5155 32.0167 15.3079C29.2742 18.0993 27.1825 21.2022 26.1271 24.0434C25.1645 26.6348 25.199 28.718 26.2206 29.758C28.2491 31.8241 34.4358 29.9441 40.4153 23.8574C43.1578 21.065 45.2495 17.962 46.3049 15.1208C47.267 12.5304 47.233 10.4472 46.211 9.40729C45.6835 8.87033 44.8832 8.60125 43.8826 8.60125Z" fill="black"/>
<path d="M24.5759 41.138C30.3825 35.1726 32.9079 28.2131 30.2165 25.5934C27.5252 22.9738 20.6363 25.686 14.8298 31.6514C9.02324 37.6168 6.49784 44.5763 9.18916 47.196C11.8805 49.8156 18.7694 47.1034 24.5759 41.138Z" fill="#CFE8FD"/>
<path d="M12.0194 48.9963C10.6093 48.9963 9.4205 48.5869 8.57292 47.7235C5.58236 44.6791 8.12842 37.3174 14.369 30.9638C17.2687 28.0119 20.5177 25.7501 23.5171 24.5953C26.7249 23.3608 29.3227 23.5266 30.832 25.0631C32.3413 26.5997 32.5048 29.2443 31.2921 32.5099C30.1583 35.5628 27.9365 38.87 25.0364 41.8229C20.5647 46.3752 15.5838 48.9963 12.0194 48.9963ZM27.3693 25.4119C26.4308 25.4119 25.3163 25.649 24.0849 26.1223C21.2933 27.1974 18.2459 29.3261 15.5034 32.1185C9.52503 38.2053 7.67989 44.5046 9.70733 46.5686C11.7369 48.6326 17.9226 46.7547 23.9021 40.668C26.6445 37.8756 28.7362 34.7727 29.7917 31.9314C30.7538 29.3411 30.7198 27.2579 29.6977 26.2179C29.1702 25.681 28.37 25.4119 27.3693 25.4119Z" fill="black"/>
<path d="M46.7294 47.1932C49.4207 44.5735 46.8953 37.614 41.0887 31.6486C35.2822 25.6832 28.3933 22.971 25.702 25.5906C23.0107 28.2103 25.5361 35.1698 31.3426 41.1352C37.1492 47.1006 44.038 49.8128 46.7294 47.1932Z" fill="#CFE8FD"/>
<path d="M43.8915 49.0102C42.7514 49.0102 41.4509 48.738 40.0303 48.1914C37.0309 47.0366 33.7819 44.7748 30.8823 41.823C24.6417 35.4693 22.0956 28.1076 25.0862 25.0632C28.0767 22.0199 35.3085 24.6102 41.5497 30.9638C44.4498 33.9168 46.6717 37.2239 47.8055 40.2768C49.0181 43.5424 48.8548 46.187 47.3454 47.7236C46.5045 48.5796 45.3251 49.0102 43.8915 49.0102ZM28.5638 25.412C27.5528 25.412 26.7469 25.6821 26.2204 26.218C24.193 28.282 26.0381 34.5813 32.0166 40.6681C34.759 43.4605 37.8064 45.5894 40.598 46.6643C43.1436 47.6426 45.1892 47.6108 46.2108 46.5687C47.2329 45.5287 47.2669 43.4456 46.3048 40.8552C45.2494 38.0139 43.1576 34.911 40.4152 32.1186C35.9885 27.6121 31.4462 25.412 28.5638 25.412Z" fill="black"/>
<path d="M30.2162 30.3826C32.9075 27.7629 30.3821 20.8034 24.5755 14.838C18.769 8.87263 11.8801 6.16039 9.18879 8.78005C6.49748 11.3997 9.02288 18.3593 14.8294 24.3246C20.636 30.29 27.5249 33.0023 30.2162 30.3826Z" fill="#CFE8FD"/>
<path d="M27.3784 32.1994C26.2383 32.1994 24.9378 31.9271 23.5173 31.3806C20.5178 30.2258 17.2689 27.9639 14.3692 25.0121C8.1286 18.6584 5.58254 11.2968 8.57311 8.25236C11.5641 5.21007 18.7954 7.79827 25.0366 14.153C27.9368 17.1049 30.1586 20.412 31.2924 23.466C32.5051 26.7315 32.3417 29.3762 30.8323 30.9127C29.9915 31.7687 28.8121 32.1994 27.3784 32.1994ZM12.0508 8.6011C11.0397 8.6011 10.2338 8.87124 9.70739 9.40713C7.67994 11.4712 9.52509 17.7705 15.5035 23.8572C18.2459 26.6496 21.2933 28.7785 24.0849 29.8535C26.6299 30.8318 28.6757 30.7989 29.6978 29.7578C30.7198 28.7179 30.7538 26.6347 29.7918 24.0433C28.7363 21.202 26.6446 18.0991 23.9021 15.3078C19.4754 10.8013 14.9332 8.6011 12.0508 8.6011Z" fill="black"/>
<path d="M26.9764 38.3945C32.0793 38.3945 36.216 34.1833 36.216 28.9885C36.216 23.7937 32.0793 19.5825 26.9764 19.5825C21.8735 19.5825 17.7368 23.7937 17.7368 28.9885C17.7368 34.1833 21.8735 38.3945 26.9764 38.3945Z" fill="#D797CA"/>
<path d="M26.9762 39.2112C21.4391 39.2112 16.9345 34.626 16.9345 28.9891C16.9345 23.3522 21.4391 18.7659 26.9762 18.7659C32.5133 18.7659 37.0179 23.3522 37.0179 28.9891C37.0179 34.626 32.5133 39.2112 26.9762 39.2112ZM26.9762 20.3992C22.3239 20.3992 18.539 24.2528 18.539 28.9891C18.539 33.7254 22.3239 37.578 26.9762 37.578C31.6286 37.578 35.4134 33.7254 35.4134 28.9891C35.4134 24.2528 31.6286 20.3992 26.9762 20.3992Z" fill="black"/>
</svg>
