<svg width="116" height="116" viewBox="0 0 116 116" fill="none" xmlns="http://www.w3.org/2000/svg">
<g clip-path="url(#clip0_101_157)">
<path d="M103.426 24.7264C114.346 37.8261 118.56 55.1882 114.46 71.6576C114.392 71.9477 114.301 72.2601 114.233 72.5725C106.892 100.2 84.8479 108.591 83.1033 109.685C81.3588 110.756 55.0549 122.338 36.794 111.18C18.533 100.022 11.2377 96.5849 8.33771 89.1535C5.43771 81.7222 -6.18495 69.7161 4.25958 35.6837C14.7041 1.65141 49.64 0.334755 54.8057 0.0892763C58.5666 -0.0892539 76.8729 -1.22738 94.658 14.2378C94.658 14.2378 98.6455 19.0135 103.426 24.7264Z" fill="#EFCE76"/>
<path d="M56.6633 67.4844C56.6633 67.4844 58.1133 61.6376 48.7109 61.6376C40.0789 61.6376 35.9102 67.4398 41.7781 70.2517C42.7977 70.7426 43.8852 70.9658 44.9953 71.055C48.1445 71.1889 55.6664 71.1889 56.6633 67.4844Z" fill="#D1A74A"/>
<path d="M104.105 62.3963C104.105 62.3963 104.966 58.4463 99.3703 58.4463C94.25 58.4463 91.7578 62.3517 95.2469 64.2486C95.8359 64.561 96.5156 64.7395 97.1727 64.7618C99.0531 64.8957 103.539 64.8957 104.105 62.3963Z" fill="#D1A74A"/>
<path d="M59.6312 60.5887C57.4109 61.7045 54.6922 61.4144 52.6758 59.9415C49.6398 57.7545 45.3125 52.9788 47.6461 44.6995C51.0898 32.4702 60.4922 43.7176 61.5797 46.2393C62.8484 49.1628 65.2047 57.8215 59.6312 60.5887Z" fill="#1E1E1E"/>
<path d="M93.6383 57.6653C91.9617 58.4017 90.0133 58.1339 88.5406 57.0404C86.3883 55.4336 83.4656 52.0639 85.2555 46.284C87.9742 37.5806 94.6578 45.6591 95.4281 47.4444C96.2891 49.5421 97.8523 55.7684 93.6383 57.6653Z" fill="#1E1E1E"/>
<path d="M95.6094 72.8627C95.6094 72.8627 76.8727 79.2897 58.5437 74.2463C58.5437 74.2463 54.1031 73.5991 57.1391 77.616C60.175 81.6776 70.4156 93.3936 81.5625 88.9973C92.7094 84.601 95.768 76.5672 95.768 76.5672C95.768 76.5672 98.2828 72.9296 95.6094 72.8627Z" fill="#1E1E1E"/>
<path d="M60.4016 74.7149C60.4016 74.7149 62.9391 80.1824 66.1336 80.4279C69.3508 80.6733 86.5242 80.6733 91.0781 78.107C93.3891 76.8126 93.8422 73.3982 93.8422 73.3982C93.8422 73.3982 74.0633 77.7945 60.4016 74.7149Z" fill="white"/>
<path d="M56.7539 31.6222C56.7539 31.6222 58.5438 27.6722 50.75 29.1228C42.9563 30.5733 36.182 36.8888 39.6031 39.2543C42.0727 40.9281 43.9758 36.7549 44.3156 36.5094C44.6555 36.264 46.4906 32.8049 51.1125 32.9388C51.1125 32.9165 55.5758 33.229 56.7539 31.6222Z" fill="#1E1E1E"/>
<path d="M80.7695 34.2778C80.7695 34.2778 78.4586 32.0462 83.6242 30.6403C88.7672 29.2343 94.7938 31.0866 93.4117 33.4744C92.007 35.8623 89.7867 33.9654 89.4922 33.9207C89.1977 33.8761 87.6797 32.6264 84.9156 34.0546C84.9383 34.077 82.3102 36.2863 80.7695 34.2778Z" fill="#1E1E1E"/>
<path d="M66.1789 86.4086C66.1789 86.4086 75.7398 82.8827 86.2977 86.4086C86.3203 86.4086 78.2094 94.4871 66.1789 86.4086Z" fill="#D19BA6"/>
</g>
<defs>
<clipPath id="clip0_101_157">
<rect width="116" height="116" fill="white"/>
</clipPath>
</defs>
</svg>
