<svg width="136" height="129" viewBox="0 0 136 129" fill="none" xmlns="http://www.w3.org/2000/svg">
<g clip-path="url(#clip0_101_275)">
<path d="M126.672 128.268H0.376595C0.376595 128.268 -1.81017 106.924 16.8283 98.1637C27.3682 93.2102 41.1535 109.659 48.0859 102.774C55.0184 95.888 63.2238 50.212 101.639 61.0963C140.054 71.9804 142.212 112.369 126.672 128.268Z" fill="#CFE8FD"/>
<path d="M126.671 128.6H0.375803C0.219068 128.6 0.0872911 128.472 0.0701071 128.304C0.0480701 128.089 -1.9261 106.616 16.7047 97.86C22.0647 95.3399 28.3143 98.263 33.8279 100.841C39.3354 103.416 44.5371 105.848 47.8769 102.53C49.4123 101.005 51.0311 97.4829 53.0804 93.0246C60.0818 77.7924 71.8005 52.2976 101.716 60.7753C110.952 63.3921 118.582 67.8275 124.393 73.9583C129.491 79.3362 133.1 86.0303 134.832 93.3166C137.927 106.336 134.732 120.478 126.883 128.508C126.826 128.567 126.75 128.6 126.671 128.6H126.671ZM0.659065 127.936H126.548C134.176 120.051 137.266 106.225 134.237 93.4811C132.533 86.3128 128.98 79.7258 123.963 74.4326C118.229 68.3834 110.692 64.0042 101.56 61.4172C72.1294 53.0778 60.5495 78.2684 53.6315 93.3192C51.5538 97.8392 49.9127 101.409 48.2933 103.018C44.6594 106.628 39.2791 104.113 33.5832 101.45C27.9205 98.8016 22.0657 96.0643 16.9502 98.4682C-0.0852918 106.475 0.49411 125.344 0.659065 127.936Z" fill="black"/>
<path d="M107.363 119.449L108.798 128.268H53.2411L55.4962 118.785L107.363 119.449Z" fill="black"/>
<path d="M108.798 128.6H53.2414C53.1463 128.6 53.0566 128.552 52.9983 128.471C52.9401 128.39 52.9198 128.285 52.9434 128.185L55.1985 118.703C55.2339 118.555 55.3661 118.445 55.5 118.454L107.367 119.117C107.515 119.119 107.64 119.234 107.666 119.391L109.101 128.21C109.117 128.307 109.092 128.406 109.034 128.481C108.975 128.556 108.889 128.6 108.798 128.6ZM53.6378 127.936H108.432L107.104 119.777L55.7343 119.12L53.6378 127.936Z" fill="black"/>
<path d="M92.1918 54.9413C92.1918 54.9413 101.759 54.3532 106.542 62.1676L113.17 82.4741L103.057 86.7167L109.412 119.449H52.4203L58.5706 96.8903H49.9603L57.3405 62.1676C57.3405 62.1676 63.4908 53.4652 69.436 54.9413C75.3813 56.4174 92.1918 54.9413 92.1918 54.9413Z" fill="#96E693"/>
<path d="M109.413 119.781H52.4205C52.3236 119.781 52.2323 119.732 52.1742 119.648C52.1162 119.564 52.0981 119.455 52.1254 119.355L58.1597 97.2221H49.9603C49.8667 97.2221 49.7782 97.1759 49.7199 97.0972C49.6615 97.0182 49.6396 96.9145 49.6606 96.816L57.0409 62.0933C57.0507 62.0475 57.0695 62.0039 57.0962 61.9664C57.3521 61.604 63.4332 53.1095 69.5051 54.6183C75.3362 56.0662 91.9995 54.6256 92.1669 54.611C92.1695 54.6105 92.1719 54.6105 92.1745 54.6101C92.2722 54.6058 101.974 54.1021 106.799 61.985C106.813 62.0075 106.824 62.0321 106.833 62.0575L113.46 82.364C113.515 82.5329 113.436 82.7186 113.282 82.7834L103.412 86.9242L109.713 119.381C109.732 119.479 109.71 119.581 109.651 119.658C109.593 119.736 109.505 119.781 109.413 119.781L109.413 119.781ZM52.8315 119.117H109.034L102.756 86.7846C102.726 86.6261 102.806 86.4662 102.946 86.4075L112.781 82.2814L106.265 62.3166C101.656 54.8325 92.4237 55.2606 92.2123 55.2722C91.4612 55.3383 75.2784 56.7331 69.3672 55.2644C63.9243 53.912 58.1607 61.581 57.6251 62.3136L50.3464 96.5586H58.5707C58.6676 96.5586 58.7589 96.6078 58.817 96.6916C58.875 96.7755 58.893 96.8834 58.8658 96.9841L52.8315 119.117H52.8315Z" fill="black"/>
<path d="M87.2024 35.17C87.2024 35.17 93.4617 26.2872 93.4893 18.4506C93.5204 9.60399 86.519 10.4886 86.519 10.4886C86.519 10.4886 80.9666 3.55887 75.6109 1.64209C70.2551 -0.274687 60.0048 2.52674 56.8613 12.7003C54.9849 18.7732 60.6198 26.1641 66.8966 26.8916C72.5475 27.5466 87.2024 35.17 87.2024 35.17Z" fill="black"/>
<path d="M87.2028 35.5017C87.1578 35.5017 87.1124 35.4909 87.0695 35.4688C86.9234 35.3928 72.3979 27.8629 66.8643 27.2218C63.3892 26.8188 59.9499 24.418 57.8888 20.9562C56.2321 18.174 55.7639 15.2047 56.5703 12.5952C59.6928 2.48822 69.8209 -0.780839 75.7084 1.32714C80.7443 3.12972 85.8389 9.15727 86.6485 10.1439C87.2992 10.0977 89.7096 10.067 91.5739 11.8635C93.0596 13.295 93.8078 15.5114 93.7974 18.4518C93.7699 26.3092 87.706 35.0045 87.4479 35.3708C87.3881 35.4555 87.2966 35.5017 87.2029 35.5017L87.2028 35.5017ZM71.6888 1.28827C64.8785 1.28827 58.8218 7.40654 57.1537 12.8052C56.4073 15.2203 56.8522 17.9879 58.4061 20.5978C60.3693 23.8945 63.6354 26.18 66.93 26.5618C72.2477 27.1782 85.1506 33.744 87.1064 34.7518C88.0487 33.3479 93.1579 25.4132 93.1823 18.4492C93.1919 15.7101 92.5146 13.6626 91.1689 12.3628C89.2497 10.5089 86.5816 10.8147 86.555 10.8182C86.4527 10.829 86.3534 10.7884 86.2869 10.7054C86.2319 10.6367 80.7269 3.82257 75.5146 1.9569C74.2292 1.49685 72.9459 1.28822 71.6888 1.28822V1.28827Z" fill="black"/>
<path d="M87.8562 38.7067V53.4238L92.1911 54.9408C92.1911 54.9408 84.272 62.0751 78.7656 65.5838C74.0768 68.5715 68.0967 65.4177 67.3983 59.5914C67.1507 57.5269 67.0722 56.0194 67.0722 56.0194C68 54.8436 68.5095 53.3499 68.5095 51.8059V43.3609L87.8561 38.7067L87.8562 38.7067Z" fill="#E3C3A5"/>
<path d="M74.9098 67.0564C73.7304 67.0564 72.5488 66.7695 71.4525 66.192C69.0645 64.9337 67.435 62.4823 67.0937 59.634C66.8474 57.5813 66.7662 56.0535 66.7654 56.0383C66.761 55.9533 66.7872 55.8694 66.8383 55.8047C67.718 54.6902 68.2022 53.2699 68.2022 51.806V43.3612C68.2022 43.2057 68.3021 43.0713 68.4429 43.0372L87.7896 38.3828C87.8797 38.3617 87.9762 38.3846 88.0489 38.448C88.1216 38.5111 88.164 38.6062 88.164 38.7068V53.1831L92.2862 54.6254C92.3927 54.663 92.472 54.7598 92.4932 54.8781C92.5144 54.9969 92.4744 55.1183 92.3885 55.1956C92.309 55.2673 84.387 62.3877 78.9223 65.8693C77.6839 66.6585 76.2982 67.0564 74.9098 67.0564ZM67.387 56.1308C67.4118 56.5377 67.5013 57.863 67.7036 59.5489C68.0185 62.1752 69.5208 64.4357 71.7224 65.5959C73.9229 66.7549 76.4977 66.6439 78.6096 65.2983C83.3023 62.3083 89.8387 56.5986 91.5635 55.0703L87.7616 53.7399C87.6349 53.6954 87.549 53.568 87.549 53.4242V39.1206L68.8173 43.6273V51.806C68.8173 53.3823 68.3104 54.9127 67.3871 56.1309L67.387 56.1308Z" fill="black"/>
<path d="M68.511 49.4977V54.0656C68.511 54.0656 76.951 57.9066 82.714 49.4977C82.714 49.4977 75.6744 54.2205 68.511 49.4977Z" fill="black"/>
<path d="M73.0578 55.252C70.3885 55.252 68.4317 54.3902 68.3907 54.3717C68.2768 54.3198 68.2028 54.1993 68.2028 54.0658V49.4978C68.2028 49.3777 68.2628 49.2671 68.3599 49.2084C68.4565 49.1497 68.5754 49.1522 68.6706 49.2149C75.5922 53.7772 82.482 49.2624 82.5509 49.2162C82.6766 49.1315 82.8392 49.1562 82.9393 49.2728C83.0394 49.3898 83.0482 49.5669 82.9605 49.6952C79.8844 54.1833 76.0295 55.252 73.0579 55.252H73.0578ZM68.8178 53.8395C70.029 54.3263 76.5226 56.5388 81.5751 50.4802C79.2365 51.5739 74.0751 53.2521 68.8178 50.0763V53.8395Z" fill="black"/>
<path d="M63.0358 42.9412C62.5623 42.6663 62.0559 42.4544 61.5198 42.3149C58.5665 41.5458 55.4857 43.1612 53.4064 46.1845C52.4091 44.1314 50.8315 42.6302 48.8496 42.114C45.5598 41.2574 42.113 43.3606 40.0676 47.0719C39.1911 46.0982 38.1179 45.3991 36.8891 45.0791C32.5789 43.9567 27.9963 47.9117 26.6536 53.9127C26.4648 54.7564 26.3527 55.5949 26.307 56.4173C26.2401 56.3978 26.174 56.3768 26.1062 56.3592C21.796 55.2368 17.4585 58.0964 16.4181 62.7463C15.7426 65.7652 16.6242 68.7952 18.5043 70.8575C15.0836 71.0906 12.0551 73.6882 11.2087 77.471C10.8954 78.8713 10.9189 80.2735 11.2195 81.5811C10.399 82.5968 9.78521 83.833 9.47189 85.2333C8.62552 89.0161 10.2221 92.8181 13.1677 94.709C10.6225 95.6189 8.55668 97.8815 7.88126 100.9C6.84086 105.55 9.49155 110.23 13.8018 111.352C13.8695 111.37 13.9373 111.383 14.005 111.399C13.698 112.153 13.4432 112.955 13.2544 113.798C11.9117 119.799 14.3173 125.574 18.6276 126.697C19.8563 127.017 21.107 126.923 22.2987 126.487C22.5496 130.797 24.7275 134.365 28.0173 135.221C29.9992 135.737 32.0379 135.178 33.7935 133.842C34.3654 137.555 36.4239 140.509 39.3773 141.278C39.9133 141.418 40.4535 141.478 40.9912 141.467C43.0222 146.944 47.7718 150.102 51.8165 148.561C54.1394 147.675 55.7393 145.425 56.377 142.603C58.3968 143.156 60.2411 142.886 61.4623 141.655C63.4242 139.677 63.2029 135.802 61.1954 132.061C63.3314 132.051 65.2088 131.238 66.3703 129.6C68.4541 126.664 67.5667 122.02 64.4922 118.387C65.7974 117.811 66.8502 116.873 67.4876 115.589C68.7419 113.061 68.0816 109.832 66.056 107.087C67.8445 106.599 69.2985 105.531 70.0987 103.918C71.1527 101.795 70.8527 99.1763 69.529 96.7649C71.7266 95.2705 73.1008 93.0879 73.0608 90.6796C73.0305 88.851 72.1885 87.1843 70.8029 85.8706C73.7665 84.4243 75.7195 81.8756 75.6719 79.0094C75.6478 77.553 75.1079 76.1995 74.1899 75.0447C78.4619 73.3251 81.2152 69.6296 80.6027 65.9906C80.2613 63.9622 78.9347 62.3144 77.0381 61.2544C80.4065 58.9131 82.242 55.5737 81.3325 52.848C80.7664 51.1514 79.239 50.0041 77.208 49.5016C77.8339 46.6763 77.3615 43.8869 75.6688 41.9559C72.7213 38.5937 67.1595 39.0661 63.0358 42.9412Z" fill="#D797CA"/>
<path d="M49.6928 149.282C46.1654 149.283 42.5558 146.372 40.7854 141.799C40.2861 141.793 39.7892 141.726 39.3055 141.601C36.4572 140.859 34.2934 138.12 33.5773 134.397C31.7841 135.619 29.7998 136.025 27.9456 135.544C24.6999 134.698 22.4044 131.339 22.0224 126.928C20.8566 127.284 19.6922 127.315 18.5559 127.02C14.0876 125.855 11.5755 119.89 12.9558 113.721C13.1142 113.013 13.3236 112.313 13.5794 111.634C9.20022 110.402 6.51631 105.589 7.5826 100.822C8.21365 98.0022 10.0261 95.7296 12.4866 94.629C9.68434 92.5162 8.35939 88.7932 9.17343 85.1557C9.47833 83.7928 10.0537 82.5617 10.8845 81.4939C10.5967 80.135 10.6052 78.7562 10.9101 77.3933C11.7238 73.7558 14.4774 71.0945 17.8644 70.5934C16.1401 68.4034 15.4884 65.4889 16.1194 62.6686C17.1857 57.9024 21.6093 54.9409 26.0276 55.9987C26.0867 55.2696 26.1964 54.5434 26.355 53.835C27.0203 50.8614 28.4805 48.2796 30.4667 46.5656C32.476 44.8313 34.7831 44.1911 36.9615 44.7565C38.0975 45.0524 39.1205 45.6533 40.0078 46.544C42.213 42.8058 45.6761 40.9475 48.9222 41.7916C50.7769 42.2745 52.3695 43.6132 53.4486 45.5838C55.661 42.6227 58.7445 41.2508 61.5922 41.9924C62.0755 42.1186 62.5458 42.3034 62.9934 42.5436C67.2505 38.6638 72.8824 38.2944 75.8925 41.7281C77.5341 43.6006 78.1399 46.3302 77.5742 49.2572C79.6346 49.8425 81.0663 51.0697 81.622 52.7358C82.5269 55.4476 80.9646 58.7391 77.629 61.2281C79.4288 62.375 80.5854 64.0289 80.9055 65.9317C81.5147 69.5515 78.974 73.3079 74.6934 75.189C75.5143 76.3523 75.9573 77.6624 75.9798 79.0037C76.0262 81.7976 74.3027 84.3703 71.3451 85.9604C72.6422 87.3284 73.3399 88.9491 73.3687 90.6735C73.4075 93.0216 72.1621 95.2661 69.9408 96.8721C71.2383 99.3948 71.3975 102.005 70.3701 104.075C69.6155 105.596 68.3094 106.694 66.5764 107.274C68.536 110.144 68.9819 113.281 67.7588 115.745C67.172 116.928 66.2238 117.875 65.0014 118.506C68.015 122.287 68.6875 126.88 66.6148 129.802C65.5253 131.338 63.7966 132.24 61.7101 132.375C63.626 136.232 63.6244 139.93 61.6726 141.898C60.4738 143.106 58.6808 143.495 56.5995 143.001C55.8651 145.885 54.1719 148.015 51.9192 148.873C51.1932 149.15 50.4447 149.282 49.6927 149.282L49.6928 149.282ZM40.9916 141.135C41.1171 141.135 41.2304 141.218 41.2771 141.344C43.2597 146.691 47.8453 149.723 51.7142 148.248C53.85 147.434 55.4406 145.348 56.0786 142.525C56.098 142.439 56.1485 142.365 56.2188 142.319C56.2891 142.273 56.3737 142.26 56.4528 142.282C58.4511 142.828 60.1551 142.519 61.2527 141.413C63.0405 139.61 62.9106 135.919 60.9298 132.227C60.8747 132.125 60.8745 131.998 60.9292 131.896C60.9836 131.793 61.0847 131.73 61.1945 131.729C63.3158 131.719 65.0672 130.892 66.1264 129.399C68.0782 126.648 67.313 122.212 64.2656 118.611C64.1977 118.531 64.1705 118.42 64.1925 118.314C64.2147 118.209 64.2831 118.121 64.3762 118.08C65.6547 117.516 66.6369 116.6 67.2167 115.432C68.3761 113.096 67.8524 110.054 65.8157 107.293C65.7506 107.205 65.7316 107.088 65.765 106.98C65.7985 106.874 65.8797 106.793 65.981 106.765C67.7637 106.279 69.0938 105.241 69.8279 103.762C70.7891 101.825 70.5837 99.3369 69.2648 96.9339C69.1801 96.7797 69.2245 96.5801 69.3655 96.4842C71.5551 94.9957 72.7901 92.8817 72.7537 90.6856C72.7259 89.0079 71.9811 87.4291 70.6001 86.1202C70.5216 86.046 70.4836 85.9336 70.499 85.8222C70.5144 85.7107 70.5811 85.6153 70.6764 85.5686C73.6562 84.1142 75.4087 81.6645 75.3647 79.0158C75.3427 77.6906 74.8558 76.392 73.9567 75.2608C73.8912 75.1783 73.8672 75.0669 73.8924 74.9619C73.9174 74.8569 73.9885 74.7718 74.0826 74.7338C78.3173 73.0292 80.8741 69.4587 80.3005 66.0501C79.9892 64.2004 78.7803 62.6018 76.8968 61.549C76.7995 61.4946 76.7365 61.3883 76.7313 61.27C76.7261 61.1521 76.7797 61.0398 76.8718 60.9754C80.1958 58.6653 81.8723 55.4441 81.0435 52.9603C80.5347 51.4355 79.1483 50.3219 77.1397 49.8252C77.0597 49.8053 76.9904 49.7518 76.9472 49.6766C76.9039 49.6014 76.8903 49.5107 76.9093 49.4243C77.5356 46.5984 77.002 43.9591 75.4456 42.1842C72.6256 38.967 67.2635 39.4093 63.2383 43.1912C63.1418 43.2819 63.0027 43.2983 62.8908 43.233C62.4337 42.9683 61.9484 42.7678 61.4481 42.6378C58.7175 41.9277 55.7315 43.3614 53.6538 46.3825C53.5908 46.474 53.4883 46.5203 53.3829 46.5155C53.2774 46.5065 53.1835 46.44 53.1343 46.3384C52.1419 44.2953 50.5947 42.9095 48.7779 42.437C45.6986 41.6344 42.383 43.5204 40.3322 47.2413C40.2833 47.3303 40.1988 47.3894 40.1039 47.4015C40.0094 47.4119 39.9141 47.3773 39.8472 47.303C38.9796 46.3393 37.9601 45.6996 36.8172 45.4019C34.8285 44.8836 32.7084 45.4806 30.8509 47.0835C28.9707 48.7064 27.5862 51.1595 26.9528 53.9906C26.774 54.7902 26.6601 55.613 26.6143 56.4372C26.6089 56.5365 26.562 56.6281 26.487 56.6864C26.4119 56.7448 26.3166 56.7625 26.2273 56.7378L26.1588 56.7171C26.1176 56.705 26.0761 56.6925 26.0341 56.6812C21.8959 55.6048 17.7163 58.3594 16.7173 62.8241C16.0875 65.6397 16.8376 68.5554 18.7239 70.6244C18.8084 70.7173 18.8348 70.8542 18.792 70.9756C18.7489 71.097 18.6442 71.18 18.5241 71.1882C15.1269 71.4202 12.3074 73.976 11.508 77.5488C11.2139 78.8633 11.2175 80.1929 11.5184 81.5013C11.5424 81.6063 11.5176 81.7177 11.4518 81.7993C10.6307 82.8153 10.0654 83.9972 9.77125 85.3112C8.97183 88.8839 10.4001 92.5461 13.3253 94.4238C13.4288 94.4903 13.4868 94.6156 13.4738 94.7448C13.4608 94.8739 13.3791 94.9828 13.2648 95.0238C10.7112 95.937 8.81049 98.1629 8.18042 100.978C7.18163 105.443 9.73579 109.952 13.8742 111.029C13.9176 111.041 13.9609 111.05 14.0041 111.06L14.0694 111.075C14.1599 111.095 14.2368 111.159 14.279 111.248C14.3213 111.336 14.3241 111.441 14.2871 111.533C13.9791 112.289 13.7325 113.078 13.5537 113.876C12.253 119.69 14.5617 125.296 18.7001 126.374C19.8439 126.672 21.0209 126.604 22.2004 126.173C22.2913 126.139 22.3906 126.154 22.4705 126.212C22.55 126.269 22.6001 126.363 22.6061 126.467C22.8575 130.787 25.0101 134.097 28.09 134.899C29.9071 135.373 31.8698 134.9 33.6166 133.57C33.7033 133.505 33.8152 133.492 33.9125 133.535C34.0102 133.579 34.0801 133.674 34.0973 133.787C34.6686 137.498 36.7195 140.244 39.4499 140.955C39.9508 141.086 40.4673 141.145 40.9854 141.135H40.9916L40.9916 141.135Z" fill="black"/>
<path d="M57.4134 135.286C57.3576 135.286 57.3013 135.259 57.2579 135.208C57.1794 135.117 57.1964 134.964 57.2813 134.879C57.3354 134.825 57.4098 134.797 57.6086 134.72C60.5586 133.589 61.8788 131.427 61.5322 128.295C61.5186 128.171 61.6005 128.059 61.7154 128.044C61.8291 128.024 61.9344 128.117 61.9483 128.241C62.3209 131.611 60.9082 133.934 57.749 135.146C57.6477 135.185 57.5752 135.211 57.542 135.23C57.504 135.268 57.4589 135.286 57.4135 135.286L57.4134 135.286Z" fill="black"/>
<path d="M39.8992 132.722C39.8788 132.722 39.858 132.718 39.8376 132.712C35.481 131.261 35.0189 127.521 35.0147 127.483C35.001 127.36 35.083 127.247 35.1974 127.232C35.311 127.22 35.4165 127.306 35.4305 127.429C35.4467 127.571 35.8742 130.92 39.9609 132.28C40.0714 132.316 40.1334 132.443 40.0992 132.562C40.0716 132.659 39.9887 132.722 39.8992 132.722Z" fill="black"/>
<path d="M29.5882 112.479C29.5415 112.479 29.4945 112.462 29.4557 112.427C29.4082 112.386 24.7327 108.139 27.4348 100.815C27.4777 100.698 27.6002 100.643 27.7069 100.688C27.8142 100.734 27.8667 100.866 27.824 100.981C25.2338 108.003 29.6759 112.038 29.7211 112.078C29.8106 112.157 29.8236 112.3 29.7504 112.396C29.7089 112.451 29.6488 112.479 29.5882 112.479Z" fill="black"/>
<path d="M26.8315 106.338C26.8237 106.338 26.8157 106.338 26.8077 106.337C23.4324 105.924 21.8829 103.972 21.1774 102.406C20.4154 100.715 20.452 99.1431 20.4541 99.077C20.4575 98.9543 20.5506 98.858 20.6631 98.858C20.6653 98.858 20.6675 98.858 20.6697 98.8584C20.7852 98.8619 20.8761 98.966 20.8725 99.0908C20.8659 99.3379 20.776 105.145 26.8549 105.888C26.9698 105.902 27.0523 106.014 27.0393 106.138C27.0272 106.253 26.9366 106.338 26.8315 106.338Z" fill="black"/>
<path d="M14.0056 111.625C13.986 111.625 13.9658 111.622 13.946 111.616C13.835 111.58 13.772 111.455 13.8048 111.335C13.8429 111.197 14.761 107.943 16.9626 106.92C17.0693 106.87 17.1919 106.923 17.2379 107.038C17.2836 107.152 17.2345 107.285 17.1284 107.334C15.108 108.274 14.2151 111.432 14.2063 111.464C14.1792 111.562 14.0959 111.625 14.0056 111.625V111.625Z" fill="black"/>
<path d="M18.3707 109.558C18.3429 109.558 18.3147 109.552 18.2877 109.539C18.2658 109.529 16.1231 108.485 17.2208 105.387C17.2618 105.271 17.3827 105.211 17.4912 105.257C17.5992 105.302 17.6532 105.432 17.612 105.549C16.6608 108.232 18.3813 109.09 18.455 109.125C18.5603 109.175 18.6086 109.308 18.5623 109.422C18.5279 109.507 18.4512 109.558 18.3707 109.558Z" fill="black"/>
<path d="M53.024 116.909C52.9137 116.909 52.8216 116.817 52.8152 116.696C52.8088 116.572 52.8971 116.465 53.0124 116.458C53.1622 116.449 56.6757 116.179 56.4769 111.865C56.4713 111.74 56.5602 111.634 56.6757 111.628C56.7866 111.605 56.8895 111.717 56.8953 111.842C57.115 116.611 53.0767 116.907 53.0358 116.909C53.0318 116.909 53.0279 116.909 53.024 116.909Z" fill="black"/>
<path d="M74.8019 64.5889C74.7616 64.5889 74.721 64.5764 74.6852 64.5505C74.5893 64.4809 74.5639 64.3405 74.6283 64.2368C76.2612 61.62 76.0005 59.0464 73.8538 56.5873C73.7094 56.4218 73.6552 56.3601 73.6299 56.2853C73.5901 56.1683 73.6459 56.0383 73.7545 55.9955C73.8556 55.9544 73.9667 56.005 74.0137 56.1065C74.0372 56.1406 74.0888 56.1976 74.1587 56.2776C76.4576 58.9108 76.7325 61.6736 74.9759 64.4891C74.9354 64.5539 74.8692 64.5889 74.8019 64.5889Z" fill="black"/>
<path d="M54.8177 50.3906C54.724 50.3906 54.6387 50.3224 54.6147 50.2196C54.0922 47.9708 53.0373 46.1199 53.0267 46.1017C52.9659 45.9955 52.9961 45.8564 53.0944 45.7908C53.1925 45.7238 53.3216 45.7579 53.3827 45.8633C53.4274 45.9411 54.4828 47.7933 55.0212 50.1099C55.0492 50.2308 54.9811 50.3536 54.8688 50.3838C54.8517 50.3885 54.8346 50.3906 54.8177 50.3906Z" fill="black"/>
<path d="M51.7765 52.5937C51.7363 52.5937 51.6957 52.5811 51.6598 52.5552C51.5639 52.4857 51.5385 52.3453 51.6029 52.2416C51.6226 52.2101 53.6158 49.1086 58.1057 49.9626C58.2194 49.9842 58.2955 50.1013 58.2755 50.2244C58.2555 50.3466 58.1487 50.4278 58.0328 50.4075C53.8073 49.6023 51.9683 52.4649 51.9504 52.4939C51.91 52.5587 51.8438 52.5937 51.7765 52.5937Z" fill="black"/>
<path d="M34.1118 72.1583C34.1052 72.1583 34.0986 72.1579 34.0918 72.1575C33.9767 72.1454 33.8922 72.0352 33.9033 71.9108C34.2648 67.8154 36.0655 65.4949 37.5123 64.2694C39.0827 62.939 40.5508 62.5856 40.6125 62.5714C40.725 62.5446 40.8365 62.6219 40.8613 62.7442C40.8857 62.866 40.8141 62.9865 40.7012 63.0129C40.4679 63.0677 34.9834 64.4435 34.3201 71.954C34.3099 72.0706 34.2186 72.1583 34.1119 72.1583H34.1118Z" fill="black"/>
<path d="M27.1452 70.3443C27.1152 70.3443 27.0847 70.3374 27.0557 70.3228C26.9512 70.2692 26.9065 70.1344 26.9562 70.0217C26.9816 69.9633 29.5903 64.2071 35.68 66.6882C35.7884 66.7323 35.843 66.8623 35.8022 66.9794C35.7611 67.096 35.64 67.1547 35.5323 67.1107C33.1239 66.1301 31.0131 66.3539 29.2592 67.7764C27.948 68.8398 27.3406 70.2014 27.3346 70.2152C27.2989 70.2969 27.2237 70.3443 27.1452 70.3443H27.1452Z" fill="black"/>
<path d="M72.2805 77.875C72.245 77.875 72.209 77.8651 72.176 77.8448C72.0759 77.7826 72.0414 77.6444 72.0993 77.5364C74.1003 73.7947 71.0877 71.8254 70.9586 71.7433C70.8591 71.6803 70.8254 71.542 70.8839 71.4345C70.9428 71.3269 71.0709 71.2915 71.1702 71.3533C71.2054 71.3757 74.6737 73.6267 72.4621 77.7618C72.4233 77.8344 72.353 77.875 72.2805 77.875Z" fill="black"/>
<path d="M112.016 79.4293C112.016 79.4293 121.165 100.983 113.511 109.276C105.858 117.568 80.3 121.771 80.3 121.771L62.8206 122.168C62.8206 122.168 61.2292 121.329 62.2543 119.56L59.4867 117.348C59.4867 117.348 58.4326 114.362 60.6142 114.805L62.6643 115.026L61.2293 113.588C61.2293 113.588 59.9019 110.879 63.0744 111.598L64.9194 112.151C64.9194 112.151 63.9456 109.552 65.842 109.994L70.8786 112.206C70.8786 112.206 69.2246 110.437 69.7371 109.607C70.2496 108.778 70.9729 108.819 72.4022 109.773L75.9917 111.266L90.5453 105.147L101.143 100.282L96.822 85.8037L112.016 79.4293H112.016Z" fill="#E3C3A5"/>
<path d="M62.8212 122.5C62.7744 122.5 62.7283 122.488 62.6861 122.466C62.6538 122.449 61.8949 122.04 61.667 121.181C61.5393 120.7 61.6021 120.187 61.8536 119.651L59.3045 117.614C59.2572 117.577 59.221 117.525 59.2002 117.466C59.1365 117.286 58.5963 115.681 59.2292 114.864C59.5303 114.475 60.0152 114.345 60.6718 114.478L61.7862 114.598L61.0208 113.831C60.9954 113.806 60.9744 113.776 60.9582 113.743C60.8937 113.612 60.344 112.436 60.8741 111.677C61.2467 111.144 61.9878 111.013 63.1383 111.273L64.4581 111.668C64.3426 111.149 64.2729 110.425 64.6201 109.981C64.8875 109.637 65.321 109.532 65.9078 109.67C65.9252 109.674 65.9422 109.68 65.9586 109.687L69.8504 111.396C69.4506 110.764 69.1337 109.987 69.482 109.423C70.2419 108.193 71.3995 108.717 72.5403 109.474L75.9918 110.91L90.4344 104.837L100.764 100.094L96.53 85.9049C96.4801 85.7378 96.5596 85.5581 96.7112 85.4942L111.905 79.1197C112.056 79.0571 112.228 79.1314 112.296 79.2908C112.319 79.3452 114.612 84.7849 115.934 91.1701C117.725 99.8145 116.983 105.985 113.73 109.509C110.517 112.991 103.917 116.168 94.1146 118.953C86.837 121.022 80.4111 122.089 80.3473 122.099L62.8277 122.5H62.8214L62.8212 122.5ZM59.7455 117.141L62.438 119.293C62.567 119.396 62.6008 119.588 62.5159 119.735C62.2473 120.199 62.1602 120.622 62.2571 120.994C62.3772 121.454 62.7524 121.739 62.8985 121.835L80.2943 121.439C80.5089 121.401 105.8 117.161 113.294 109.041C115.422 106.736 117.503 101.789 115.334 91.3148C114.197 85.8255 112.338 81.0471 111.854 79.8527L97.2042 85.9991L101.436 100.179C101.485 100.343 101.41 100.519 101.264 100.586L90.6666 105.452L76.1041 111.575C76.0324 111.605 75.9534 111.605 75.8817 111.575L72.2923 110.083C72.2745 110.075 72.2575 110.066 72.2412 110.055C70.6636 109.002 70.2898 109.312 69.9938 109.791C69.7407 110.2 70.5016 111.334 71.0959 111.97C71.1997 112.082 71.2166 112.257 71.1357 112.389C71.0546 112.52 70.899 112.573 70.7633 112.513L65.7524 110.312C65.5176 110.261 65.2221 110.239 65.0908 110.408C64.8407 110.728 65.0601 111.636 65.2055 112.026C65.2491 112.143 65.2273 112.277 65.1494 112.372C65.0711 112.466 64.9504 112.504 64.8379 112.47L62.9928 111.917C62.1563 111.729 61.5714 111.784 61.3658 112.076C61.1287 112.414 61.356 113.107 61.4801 113.386L62.8743 114.782C62.9712 114.879 62.9996 115.032 62.9454 115.162C62.8909 115.292 62.767 115.371 62.6345 115.355L60.5844 115.134C60.1369 115.045 59.8494 115.098 59.7015 115.289C59.3839 115.698 59.6096 116.708 59.7455 117.141V117.141Z" fill="black"/>
<path d="M93.4182 26.436C91.3205 25.8004 88.7738 26.7672 86.8656 28.695L86.4617 23.3554C86.4617 23.3554 83.1547 22.0118 80.255 18.1208C75.3598 24.3327 61.5953 23.6467 61.5953 23.6467L62.8053 39.6438C63.3697 47.105 69.5047 52.8912 76.4104 52.1563C82.6165 51.4959 87.3282 45.9851 87.5782 39.4048C90.4009 39.9381 93.8614 37.8202 95.5107 34.4552C97.2515 30.9039 96.3146 27.3136 93.4182 26.436Z" fill="#E3C3A5"/>
<path d="M75.2201 52.5514C72.3064 52.5514 69.4875 51.44 67.1732 49.3562C64.4853 46.9355 62.7815 43.4055 62.4991 39.6704L61.2891 23.6732C61.2818 23.5781 61.3129 23.4844 61.3743 23.4161C61.4358 23.3475 61.5209 23.3081 61.6098 23.3151C61.7447 23.3198 75.2806 23.9207 80.021 17.906C80.0805 17.8309 80.1665 17.7894 80.2594 17.789C80.3511 17.7903 80.4374 17.8356 80.4949 17.9129C83.3025 21.6801 86.5381 23.0317 86.5706 23.045C86.6815 23.0899 86.7588 23.2005 86.7684 23.3284L87.1227 28.0104C89.0938 26.2631 91.5408 25.5202 93.5016 26.1167C94.7885 26.5063 95.7807 27.4338 96.2956 28.7283C96.9703 30.4251 96.7835 32.5688 95.783 34.6099C94.1387 37.9644 90.7909 40.129 87.8674 39.7839C87.4505 46.4024 82.5952 51.8312 76.441 52.4861C76.033 52.5297 75.6256 52.5513 75.2201 52.5513V52.5514ZM61.9301 23.9894L63.112 39.6168C63.3811 43.1753 65.0051 46.5394 67.5671 48.8465C70.0761 51.1061 73.208 52.1627 76.3805 51.8262C82.3441 51.1912 87.026 45.8457 87.2711 39.3914C87.2747 39.2955 87.3165 39.2065 87.3854 39.1464C87.4544 39.0864 87.5447 39.0613 87.6314 39.0782C90.3324 39.5857 93.6758 37.4894 95.2391 34.2999C96.1524 32.4368 96.3314 30.5016 95.7304 28.9902C95.2838 27.8676 94.4557 27.0948 93.3354 26.7553C91.4191 26.176 88.9626 27.0313 87.0761 28.9371C86.9898 29.0235 86.8655 29.0502 86.7552 29.004C86.645 28.9582 86.5689 28.8485 86.5593 28.7215L86.1707 23.5855C85.447 23.2512 82.7483 21.8568 80.2458 18.6313C78.1174 21.1069 74.3812 22.7579 69.1317 23.5414C65.8368 24.0334 62.9103 24.014 61.9301 23.9894Z" fill="black"/>
<path d="M89.0872 36.0549C89.0485 36.0549 89.0093 36.0471 88.9712 36.0302C88.8139 35.9611 88.7384 35.7676 88.8027 35.5979C90.5617 30.9448 93.2778 30.4277 93.3925 30.4083C93.5617 30.3768 93.7178 30.5025 93.7446 30.6835C93.7713 30.864 93.6577 31.0333 93.491 31.0631C93.4652 31.0679 90.9901 31.569 89.3721 35.8484C89.3234 35.9771 89.2085 36.0549 89.0872 36.0549Z" fill="black"/>
<path d="M76.0776 26.6933C76.7947 26.5634 77.9608 26.5564 78.9602 27.4967C79.1839 27.7073 79.485 27.3891 79.3686 27.0625C79.0593 26.194 78.5814 25.2467 77.9257 25.0337C77.1407 24.7787 76.1775 24.8942 75.6697 25.4196C75.232 25.8724 75.5279 26.7929 76.0775 26.6934L76.0776 26.6933Z" fill="black"/>
<path d="M67.0044 27.4921C66.2772 27.4893 65.1256 27.6864 64.2807 28.7891C64.0915 29.036 63.7467 28.7746 63.8124 28.4321C63.9871 27.521 64.3164 26.5027 64.9314 26.1778C65.6677 25.7889 66.6355 25.7343 67.2155 26.1639C67.7155 26.5342 67.5618 27.4944 67.0045 27.4922L67.0044 27.4921Z" fill="black"/>
<path d="M71.9177 41.8379C71.9029 41.8379 71.8879 41.8366 71.8728 41.8344C69.1156 41.399 68.5566 39.0383 68.4509 38.3256C68.319 37.4349 68.4405 36.3965 68.928 36.1347C69.5072 35.8228 70.5694 36.5088 71.2722 37.0561L70.8966 32.0911C70.8828 31.9088 71.0089 31.7486 71.1781 31.7339C71.3477 31.7161 71.4956 31.8548 71.5097 32.0375L71.9417 37.7502C71.9517 37.8828 71.887 38.0094 71.7775 38.0712C71.6686 38.1325 71.5351 38.1178 71.4396 38.0331C70.503 37.2003 69.458 36.5886 69.2021 36.7286C69.0818 36.8279 68.8954 37.6003 69.1244 38.5653C69.3238 39.405 69.9577 40.8616 71.9617 41.1778C72.1299 41.2046 72.2462 41.3731 72.2215 41.554C72.1991 41.719 72.0678 41.8378 71.9176 41.8378L71.9177 41.8379Z" fill="black"/>
<path d="M73.7683 46.5356C73.6338 46.5356 73.5103 46.4397 73.4724 46.2933C73.4266 46.1166 73.5223 45.9334 73.6859 45.8842C76.1421 45.1438 76.7194 42.3391 76.8479 40.7828C75.5419 42.5486 74.1776 43.1845 73.2072 43.397C71.9742 43.6678 71.0951 43.3378 71.0582 43.3231C70.8983 43.2618 70.8148 43.0717 70.8718 42.8994C70.9291 42.727 71.1045 42.6367 71.2638 42.6981C71.3894 42.7451 74.363 43.8021 76.927 39.5266C76.999 39.4065 77.134 39.3486 77.2633 39.3858C77.3918 39.4221 77.4841 39.5434 77.4921 39.6864C77.4954 39.743 77.7656 45.3433 73.8513 46.5235C73.8237 46.5317 73.7958 46.5356 73.7683 46.5356Z" fill="black"/>
<path d="M76.9336 32.7487C75.5115 32.7487 74.4791 31.4412 74.4341 31.3829C74.3252 31.2429 74.3421 31.0339 74.4719 30.9164C74.602 30.798 74.7958 30.8166 74.9052 30.9565C74.9146 30.9686 75.8755 32.1824 77.0772 32.0792C77.8974 32.0114 78.6672 31.3509 79.3653 30.1168C79.4538 29.9604 79.6428 29.9116 79.7879 30.0062C79.9329 30.1017 79.9787 30.306 79.8902 30.4623C79.082 31.8913 78.1498 32.658 77.1196 32.7414C77.057 32.7461 76.9949 32.7487 76.9336 32.7487Z" fill="black"/>
<path d="M66.3189 33.7268C66.2512 33.7268 66.1829 33.7233 66.1144 33.7164C65.3961 33.6443 64.7805 33.1994 64.2842 32.3933C64.1901 32.2408 64.2285 32.0348 64.37 31.9333C64.511 31.8313 64.7022 31.8732 64.7963 32.0261C65.1847 32.6568 65.6473 33.0032 66.1713 33.0559C67.2796 33.1613 68.3545 31.9911 68.3651 31.979C68.4836 31.8486 68.6786 31.8451 68.7999 31.973C68.9217 32.1004 68.9243 32.3108 68.8059 32.4421C68.7563 32.497 67.6315 33.7267 66.3188 33.7267L66.3189 33.7268Z" fill="black"/>
<path d="M16.2031 64.3625V56.7857C16.2031 56.7857 17.2278 54.058 18.9362 53.7631C18.9362 53.7631 19.7562 51.5594 22.2847 52.0346C22.2847 52.0346 23.0127 49.3928 25.4964 49.8315C25.4964 49.8315 26.3102 48.4627 28.6368 49.1593C30.9633 49.8559 35.0634 53.3945 35.0634 53.3945C35.0634 53.3945 34.7217 55.8273 32.6717 55.385C32.6717 55.385 34.3117 57.9169 32.6717 58.5309C31.0316 59.1448 29.4384 57.9653 29.4384 57.9653C29.4384 57.9653 31.1252 61.209 29.4384 61.7988C27.7515 62.3885 25.6333 62.0199 25.6333 62.0199C25.6333 62.0199 27.7515 63.5351 25.2914 64.3625C22.8314 65.1899 17.9112 61.725 17.9112 61.725L16.2031 64.3625Z" fill="#E3C3A5"/>
<path d="M24.4383 64.8198C22.1284 64.8203 18.9201 62.7931 17.9954 62.1749L16.4554 64.5529C16.3785 64.6712 16.2382 64.7226 16.111 64.6794C15.9829 64.6358 15.8958 64.5075 15.8958 64.3628V56.7858C15.8958 56.743 15.9034 56.7007 15.9182 56.6614C15.9615 56.546 16.9683 53.9154 18.7283 53.4696C18.9908 52.9439 19.9503 51.3992 22.0865 51.6679C22.3634 50.9742 23.2809 49.2136 25.3678 49.477C25.7002 49.0869 26.6966 48.2351 28.7194 48.8399C31.0792 49.5461 35.0863 52.9893 35.2559 53.1352C35.3415 53.2095 35.3842 53.327 35.3678 53.4441C35.3604 53.4964 35.1776 54.7361 34.3177 55.3862C34.0036 55.6237 33.6444 55.7516 33.245 55.7689C33.5269 56.3426 33.8545 57.2311 33.6386 57.9494C33.5121 58.3702 33.2128 58.6794 32.7728 58.8444C31.7544 59.2258 30.7677 58.9831 30.1011 58.6997C30.3818 59.4487 30.6592 60.5058 30.3802 61.2751C30.2324 61.682 29.9397 61.9722 29.5335 62.1144C28.4837 62.4811 27.2937 62.4949 26.496 62.4461C26.6858 62.723 26.8276 63.0612 26.7795 63.4245C26.7075 63.9696 26.2378 64.3921 25.3833 64.6793C25.0942 64.7766 24.7757 64.8197 24.4384 64.8197L24.4383 64.8198ZM17.9117 61.3935C17.9694 61.3935 18.0279 61.4108 18.0795 61.4475C18.1275 61.4812 22.9056 64.8177 25.2003 64.0462C25.7913 63.8471 26.1361 63.5935 26.1707 63.3313C26.2189 62.9659 25.7152 62.4765 25.4636 62.2963C25.343 62.2099 25.2946 62.0445 25.3472 61.8994C25.3997 61.7534 25.539 61.6657 25.6824 61.6925C25.7032 61.6959 27.7501 62.041 29.3439 61.4829C29.5785 61.4013 29.7257 61.2583 29.8074 61.0333C30.1021 60.2212 29.4476 58.6605 29.1705 58.1279C29.1009 57.9935 29.1261 57.8251 29.2312 57.721C29.3365 57.6177 29.4946 57.6056 29.6124 57.6916C29.6268 57.7024 31.1017 58.7672 32.5714 58.2173C32.829 58.121 32.9868 57.9668 33.0535 57.7456C33.2539 57.0804 32.6641 55.953 32.4198 55.5746C32.3482 55.4636 32.3461 55.3168 32.4148 55.2031C32.4837 55.09 32.6098 55.0329 32.7324 55.0597C33.2194 55.1642 33.6329 55.0925 33.9618 54.8455C34.4385 54.4865 34.6461 53.8416 34.7221 53.5267C33.9684 52.8926 30.5485 50.0758 28.5549 49.4792C26.499 48.8624 25.7833 49.9669 25.7538 50.0136C25.6866 50.1216 25.5655 50.1773 25.4472 50.1592C23.2567 49.7691 22.6063 52.0326 22.5797 52.1293C22.5354 52.2909 22.3869 52.3894 22.2321 52.3617C19.9927 51.9384 19.2519 53.8083 19.2215 53.8883C19.1808 53.995 19.0909 54.0727 18.9851 54.0909C17.5971 54.3302 16.6653 56.4753 16.511 56.8537V63.3089L17.6595 61.5353C17.7192 61.4433 17.8147 61.3936 17.9118 61.3936L17.9117 61.3935Z" fill="black"/>
<path d="M32.671 55.7165C32.6147 55.7165 32.5581 55.7001 32.507 55.6651L27.5868 52.3148C27.4433 52.2172 27.4002 52.0124 27.491 51.8574C27.5816 51.7023 27.7718 51.6557 27.9152 51.7541L32.8354 55.1044C32.979 55.202 33.022 55.4068 32.9313 55.5618C32.8728 55.6616 32.7729 55.7165 32.671 55.7165Z" fill="black"/>
<path d="M29.7999 58.5201C29.74 58.5201 29.6798 58.5015 29.6267 58.4622L23.5458 53.9836C23.4054 53.8804 23.3694 53.6739 23.4651 53.5227C23.561 53.3711 23.7528 53.3318 23.8925 53.4359L29.9735 57.9145C30.1138 58.0177 30.1499 58.2242 30.0541 58.3754C29.9945 58.4696 29.898 58.5201 29.7999 58.5201Z" fill="black"/>
<path d="M25.633 62.3517C25.5679 62.3517 25.5022 62.3296 25.4464 62.2834L20.7995 58.4519C20.6645 58.3409 20.6387 58.1327 20.742 57.9871C20.845 57.8411 21.0377 57.8126 21.1731 57.9249L25.82 61.7564C25.9549 61.8674 25.9807 62.0756 25.8774 62.2212C25.817 62.3067 25.7255 62.3517 25.633 62.3517Z" fill="black"/>
<path d="M96.8235 86.1352C96.7113 86.1352 96.6032 86.0687 96.549 85.9533L91.9175 76.1029C91.9031 76.0723 91.8931 76.0395 91.888 76.0053C91.847 75.7272 90.906 69.1635 93.2176 66.5031C93.3341 66.3696 93.5287 66.3627 93.6523 66.488C93.7762 66.6133 93.7826 66.8232 93.6665 66.9566C91.6574 69.2689 92.4056 75.2403 92.4884 75.8507L97.0975 85.6536C97.1744 85.8169 97.1137 86.0164 96.9624 86.0994C96.9177 86.1236 96.8702 86.1352 96.8234 86.1352L96.8235 86.1352Z" fill="black"/>
<path d="M60.7074 89.9753C57.0359 87.7753 53.0064 92.2331 55.154 96.1268C55.1837 96.1807 55.2142 96.2348 55.2454 96.2892C58.3666 101.725 85.731 107.126 96.0879 101.615C106.445 96.1037 112.386 79.2592 112.181 76.559C112.181 76.559 113.171 74.3563 112.117 72.5107C112.557 70.873 111.976 68.3424 109.516 68.6902C105.826 67.0027 110.028 71.7946 107.5 75.7755C107.808 78.4294 101.949 90.446 95.0629 93.5423C88.1763 96.6386 72.2937 97.3721 66.7025 93.7435C64.1024 92.0561 62.1587 90.8448 60.7075 89.9753H60.7074Z" fill="#D797CA"/>
<path d="M83.4343 104.26C80.1966 104.26 76.6386 103.972 72.9078 103.385C65.2745 102.185 56.7717 99.5792 54.9829 96.4635L54.8884 96.2955C53.8394 94.3935 54.0876 92.1344 55.5211 90.5409C56.9603 88.9418 59.0546 88.6053 60.8559 89.6851C62.4929 90.6661 64.513 91.9356 66.8601 93.4592C72.3114 96.9965 88.0067 96.3542 94.9435 93.2358C101.775 90.1642 107.479 78.2788 107.194 75.8162C107.185 75.7358 107.203 75.6546 107.245 75.5877C108.425 73.7298 108.051 71.6961 107.777 70.2111C107.598 69.2405 107.469 68.5389 107.875 68.1821C108.187 67.9091 108.678 67.9567 109.559 68.3497C110.778 68.2055 111.485 68.7342 111.864 69.2106C112.583 70.1134 112.674 71.465 112.446 72.4615C113.369 74.2261 112.664 76.1959 112.491 76.6222C112.571 79.6511 106.574 96.4038 96.2228 101.912C93.3083 103.463 88.8149 104.26 83.4343 104.26ZM58.6983 89.7214C57.5628 89.7214 56.5829 90.3136 55.9625 91.003C55.0252 92.0449 54.3201 93.9671 55.4174 95.9567L55.5059 96.1144C58.5081 101.343 85.7004 106.771 95.951 101.317C106.186 95.8704 112.078 79.2753 111.874 76.5859C111.869 76.5271 111.88 76.4675 111.903 76.4144C111.912 76.3941 112.804 74.3483 111.854 72.6844C111.809 72.6045 111.796 72.5077 111.821 72.4179C112.038 71.6097 111.998 70.3968 111.398 69.643C110.978 69.1151 110.357 68.9048 109.555 69.0184C109.5 69.0274 109.445 69.0179 109.395 68.995C108.438 68.557 108.27 68.6914 108.264 68.6966C108.144 68.8016 108.286 69.5717 108.38 70.0819C108.654 71.5678 109.065 73.8019 107.815 75.8624C107.991 79.0999 101.965 90.7978 95.1802 93.8484C88.1245 97.0198 72.1227 97.6492 66.543 94.0276C64.2021 92.5084 62.188 91.2423 60.5572 90.2648C59.9147 89.88 59.2857 89.7214 58.6983 89.7214Z" fill="black"/>
<path d="M95.1927 13.4206C95.0868 13.4206 94.9839 13.3615 94.9267 13.2556C94.909 13.2232 93.1332 9.98741 90.2866 9.35893C88.7506 9.0207 87.1632 9.49631 85.57 10.7749C85.4334 10.8846 85.2409 10.8539 85.1397 10.7067C85.0382 10.5598 85.0666 10.352 85.2028 10.2427C86.944 8.84579 88.6967 8.33047 90.4139 8.70971C93.5318 9.40083 95.3813 12.7788 95.4584 12.9222C95.5436 13.0807 95.4938 13.2838 95.347 13.3758C95.2984 13.406 95.2453 13.4207 95.1927 13.4207L95.1927 13.4206Z" fill="black"/>
<path d="M89.0889 53.8548C89.0889 53.8548 90.6488 52.3171 93.9289 52.7183C97.209 53.1194 100.079 56.5106 99.3958 58.6485C98.7124 60.7865 96.7802 59.2383 96.8238 58.6485C96.8674 58.0588 95.4323 60.4916 94.8173 59.1646C94.2023 57.8376 93.7922 56.8055 93.7922 56.8055C93.7922 56.8055 91.4242 60.0456 89.0889 53.8548Z" fill="#D797CA"/>
<path d="M98.242 60.074C98.1164 60.074 98.0067 60.0572 97.9234 60.0386C97.3891 59.9181 96.8688 59.5086 96.6388 59.0878C96.6382 59.0887 96.6376 59.0891 96.6372 59.0896C96.2478 59.471 95.7156 59.9971 95.1713 59.8839C94.9879 59.8472 94.73 59.718 94.5425 59.3129C94.1699 58.5095 93.8698 57.8071 93.6912 57.3782C93.3394 57.6935 92.7394 58.0792 91.9857 57.9639C90.8039 57.7838 89.7336 56.4429 88.8043 53.9795C88.7558 53.8512 88.7866 53.7035 88.8818 53.6097C88.9499 53.5428 90.5825 51.9761 93.9637 52.3886C96.3127 52.6758 98.2705 54.354 99.1686 55.8896C99.7668 56.9121 99.9507 57.9306 99.6867 58.7565C99.334 59.8602 98.6887 60.074 98.2421 60.074H98.242ZM96.7853 58.2196C96.8348 58.2196 96.885 58.2326 96.9379 58.2606C97.0025 58.2948 97.1505 58.4036 97.1304 58.6749C97.1485 58.8178 97.5983 59.3444 98.1535 59.4066C98.5885 59.4567 98.906 59.1639 99.1052 58.5405C99.3072 57.9081 99.1451 57.0926 98.6483 56.2434C97.8285 54.8421 96.0407 53.3104 93.8943 53.0477C91.3766 52.738 89.9293 53.6127 89.4634 53.9622C90.4761 56.541 91.4342 57.2071 92.0673 57.3064C92.9145 57.4416 93.5454 56.6071 93.5516 56.5988C93.619 56.5081 93.7263 56.4602 93.8335 56.477C93.9406 56.4926 94.0324 56.5673 94.0751 56.6749C94.0791 56.6848 94.4891 57.7146 95.0925 59.0165C95.1524 59.1457 95.2171 59.2182 95.2843 59.2316C95.5242 59.2831 95.9801 58.8373 96.2237 58.5984C96.4466 58.3803 96.6103 58.2196 96.7853 58.2196Z" fill="black"/>
<path d="M56.6614 30.1857C36.5176 29.9 36.7323 29.6683 36.9972 51.3997C37.2621 29.6683 37.4768 29.9 17.333 30.1857C37.4768 30.4715 37.2621 30.7031 36.9972 8.97179C36.7323 30.7031 36.5176 30.4715 56.6614 30.1857Z" fill="#F9EA31"/>
<path d="M36.9977 51.7316C36.8295 51.7316 36.6924 51.5856 36.6902 51.4041L36.6818 50.7147C36.6339 46.8271 36.5949 43.6578 36.6908 41.0725C36.5354 36.8769 36.0215 34.3028 34.6013 32.7706C33.1811 31.2389 30.7952 30.6843 26.9061 30.5167C24.5097 30.6203 21.5723 30.5784 17.9691 30.5266L17.3294 30.5176C17.161 30.515 17.0259 30.3673 17.0259 30.1858C17.0259 30.0044 17.161 29.8567 17.3294 29.8541L17.9678 29.845C21.5716 29.7932 24.5101 29.7517 26.9067 29.8545C30.7956 29.6869 33.1813 29.1327 34.6015 27.6006C36.0215 26.0684 36.5356 23.4948 36.6908 19.2991C36.5949 16.7139 36.6339 13.5445 36.6818 9.65691L36.6902 8.96753C36.6924 8.78608 36.8295 8.64009 36.9977 8.64009C37.1659 8.64009 37.303 8.78608 37.3053 8.96753L37.3137 9.65652C37.3615 13.5441 37.4006 16.7135 37.3047 19.2992C37.4598 23.4948 37.9739 26.0684 39.394 27.6006C40.814 29.1328 43.2004 29.687 47.0892 29.8546C49.4866 29.7522 52.4239 29.7937 56.0274 29.8451L56.6658 29.8541C56.8342 29.8567 56.9693 30.0044 56.9693 30.1859C56.9693 30.3673 56.8342 30.515 56.6658 30.5176L56.0261 30.5267C52.4231 30.5785 49.4849 30.6204 47.0885 30.5167C43.1994 30.6843 40.8141 31.2386 39.3939 32.7707C37.9737 34.3028 37.4598 36.8761 37.3046 41.0726C37.4005 43.6583 37.3615 46.8275 37.3136 50.7152L37.3052 51.4042C37.303 51.5857 37.1658 51.7317 36.9977 51.7317L36.9977 51.7316ZM30.4257 30.1858C32.5158 30.5361 33.9913 31.1742 35.0363 32.3016C36.0812 33.429 36.6728 35.0208 36.9977 37.2761C37.3226 35.0212 37.9141 33.429 38.9591 32.3016C40.004 31.1746 41.4801 30.5361 43.5698 30.1858C41.4797 29.8351 40.004 29.1971 38.9591 28.0697C37.9141 26.9423 37.3227 25.3505 36.9977 23.0956C36.6728 25.3505 36.0814 26.9423 35.0363 28.0697C33.9913 29.1971 32.5156 29.8351 30.4257 30.1858Z" fill="black"/>
<path d="M33.6782 13.1366C28.7383 13.9291 28.1428 14.5714 27.4083 19.9007C26.6737 14.5714 26.0783 13.9291 21.1383 13.1366C26.0783 12.3442 26.6737 11.7019 27.4083 6.37256C28.1428 11.7019 28.7383 12.3442 33.6782 13.1366Z" fill="#F9EA31"/>
<path d="M27.4083 20.2321C27.2559 20.2321 27.1266 20.1116 27.1042 19.9492C26.3915 14.7791 25.886 14.2335 21.0931 13.4646C20.9424 13.4404 20.8309 13.3004 20.8309 13.1363C20.8309 12.9722 20.9424 12.8322 21.0931 12.8081C25.886 12.0396 26.3915 11.4941 27.1042 6.32347C27.1266 6.16104 27.2559 6.04056 27.4083 6.04056C27.5607 6.04056 27.69 6.16109 27.7124 6.32347C28.4251 11.4941 28.9306 12.0396 33.7235 12.8081C33.8742 12.8322 33.9857 12.9718 33.9857 13.1363C33.9857 13.3009 33.8742 13.4404 33.7235 13.4646C28.9306 14.2335 28.4251 14.7791 27.7124 19.9492C27.69 20.1116 27.5607 20.2321 27.4083 20.2321ZM22.9724 13.1363C25.9336 13.7834 26.8085 14.7276 27.4083 17.922C28.0081 14.7277 28.883 13.7834 31.8442 13.1363C28.883 12.4896 28.0081 11.5454 27.4083 8.35058C26.8085 11.5454 25.9336 12.4896 22.9724 13.1363Z" fill="black"/>
</g>
<defs>
<clipPath id="clip0_101_275">
<rect width="136" height="148.564" fill="white" transform="translate(0 0.717773)"/>
</clipPath>
</defs>
</svg>
