<svg width="150" height="88" viewBox="0 0 150 88" fill="none" xmlns="http://www.w3.org/2000/svg">
<g clip-path="url(#clip0_101_570)">
<path d="M124.189 62.9972C124.334 62.4582 124.415 61.899 124.425 61.3249C124.48 58.1615 122.366 55.3678 119.204 53.8873C120.832 52.4435 121.841 50.5253 121.878 48.4024C121.939 44.8786 119.308 41.8151 115.535 40.513C116.22 39.418 116.617 38.1806 116.64 36.8644C116.72 32.2476 112.182 28.4173 106.504 28.3092C105.706 28.294 104.929 28.3556 104.18 28.4814C104.183 28.4093 104.188 28.3377 104.189 28.2651C104.269 23.6482 100.767 19.8377 96.3679 19.7539C93.5116 19.6995 90.9805 21.2303 89.5335 23.5736C88.5877 20.145 85.6031 17.6102 82.024 17.542C80.6992 17.5168 79.4451 17.8344 78.3357 18.4139C77.247 17.7925 76.0047 17.4274 74.6799 17.4021C71.1008 17.334 68.0305 19.7534 66.9668 23.1438C65.6018 20.747 63.1253 19.1208 60.269 19.0664C55.8696 18.9826 52.2384 22.6573 52.1586 27.2742C52.1573 27.3467 52.1595 27.4185 52.16 27.4907C51.4166 27.3365 50.6421 27.2453 49.8439 27.2301C44.1661 27.122 39.4986 30.777 39.4188 35.3939C39.396 36.7101 39.7497 37.9618 40.397 39.0821C36.5815 40.2397 33.8465 43.201 33.7856 46.7249C33.7489 48.8478 34.6904 50.8031 36.2683 52.308C33.0566 53.6671 30.8476 56.3784 30.7929 59.5419C30.7829 60.116 30.8447 60.6779 30.9709 61.2221C26.4894 64.4341 24.6766 69.9238 26.9317 73.7128C28.2268 75.8888 30.5915 77.0441 33.2631 77.1013C33.202 79.2703 33.8409 81.0888 35.2094 82.0724C37.408 83.6526 40.8399 82.616 43.7671 79.7917C44.2359 81.961 45.3706 83.6992 47.0907 84.5371C50.1766 86.0404 54.1552 84.1656 56.7552 80.2793C57.5534 81.4856 58.623 82.3592 59.9133 82.7382C62.4527 83.484 65.2102 82.1365 67.2395 79.5021C68.062 81.2183 69.3348 82.4726 70.9549 82.9484C73.0885 83.5751 75.3754 82.7217 77.2556 80.8711C79.0707 82.7921 81.3265 83.7319 83.4804 83.1869C85.1159 82.7731 86.4312 81.5681 87.3125 79.8844C89.2493 82.5942 91.9585 84.0459 94.522 83.3972C95.8246 83.0676 96.9237 82.2353 97.763 81.0602C100.227 85.043 104.138 87.068 107.274 85.6831C109.022 84.9112 110.216 83.2174 110.759 81.0674C113.587 84.0013 116.981 85.1679 119.233 83.6724C120.634 82.7415 121.336 80.9486 121.35 78.7786C124.021 78.8232 126.424 77.7587 127.794 75.6334C130.178 71.9329 128.557 66.3777 124.189 62.9972L124.189 62.9972Z" fill="#D797CA"/>
<path d="M105.185 86.4369C102.571 86.4372 99.762 84.6684 97.7388 81.6018C96.8708 82.6798 95.7899 83.4046 94.5902 83.708C92.0921 84.3398 89.4101 83.1272 87.3455 80.4535C86.3965 82.0586 85.0913 83.1073 83.5486 83.4978C81.4491 84.0279 79.1652 83.2328 77.2448 81.3113C75.259 83.1589 72.9484 83.8664 70.8695 83.2563C69.3414 82.8074 68.0733 81.7098 67.1801 80.0694C65.0248 82.6626 62.3028 83.772 59.8279 83.046C58.6394 82.6969 57.5842 81.9314 56.7542 80.8211C54.0083 84.6764 50.0286 86.322 46.9589 84.8271C45.3452 84.0411 44.1629 82.4729 43.5924 80.3799C40.542 83.1349 37.2208 83.9086 35.0336 82.336C33.6901 81.3703 32.9562 79.6288 32.9503 77.4097C30.2032 77.2672 27.9255 75.9922 26.6697 73.8819C24.3666 70.0123 26.106 64.4267 30.6245 61.0815C30.5226 60.572 30.4753 60.0531 30.4846 59.5353C30.5371 56.4848 32.5301 53.7114 35.7197 52.2033C34.2357 50.636 33.4426 48.7051 33.4772 46.7185C33.5373 43.2417 36.0595 40.2044 39.9388 38.8925C39.3678 37.7813 39.0893 36.6039 39.1105 35.3875C39.1507 33.0535 40.2998 30.8855 42.3462 29.283C44.3694 27.6986 47.0293 26.8505 49.8462 26.9094C50.5164 26.9223 51.1903 26.9883 51.8544 27.1064C52.0181 22.3957 55.7647 18.6615 60.2713 18.7456C62.9402 18.7966 65.371 20.1628 66.8885 22.4338C68.1826 19.1426 71.2322 17.008 74.6822 17.0815C75.9528 17.1056 77.2136 17.4415 78.3386 18.054C79.4843 17.4849 80.7596 17.2014 82.0263 17.2214C85.4679 17.2868 88.4504 19.5284 89.6297 22.8668C91.2249 20.6553 93.6993 19.392 96.3701 19.4331C100.879 19.519 104.491 23.3957 104.492 28.1088C105.161 28.0161 105.837 27.9763 106.506 27.9883C109.32 28.0419 111.952 28.9857 113.919 30.6459C115.909 32.3252 116.982 34.5355 116.942 36.8698C116.921 38.0859 116.602 39.2515 115.992 40.3407C119.824 41.7998 122.239 44.9309 122.179 48.4077C122.145 50.3946 121.286 52.2938 119.749 53.8034C122.884 55.432 124.78 58.2793 124.727 61.3301C124.718 61.847 124.653 62.3639 124.534 62.8699C128.934 66.3848 130.479 72.0328 128.043 75.8122C126.716 77.8735 124.395 79.0609 121.645 79.099C121.562 81.3163 120.769 83.0287 119.393 83.9425C117.153 85.4304 113.861 84.5312 110.907 81.6616C110.265 83.7315 109.029 85.2536 107.389 85.9778C106.687 86.2877 105.944 86.4369 105.185 86.4369ZM97.7597 80.7396H97.7701C97.8695 80.7431 97.9614 80.7976 98.0156 80.8853C100.458 84.8332 104.217 86.6837 107.152 85.3873C108.747 84.6834 109.922 83.1198 110.461 80.9846C110.489 80.8741 110.571 80.7876 110.676 80.7577C110.781 80.7278 110.893 80.7586 110.971 80.8389C113.761 83.7343 117.015 84.7634 119.066 83.4013C120.326 82.5645 121.027 80.9222 121.041 78.7761C121.042 78.6905 121.075 78.609 121.133 78.5492C121.191 78.4894 121.275 78.4624 121.351 78.458C124.031 78.5029 126.279 77.4073 127.538 75.4533C129.82 71.9123 128.268 66.5539 124.005 63.2542C123.903 63.175 123.858 63.0378 123.893 62.9097C124.032 62.389 124.108 61.8537 124.117 61.3183C124.167 58.3939 122.236 55.6583 119.076 54.1792C118.98 54.134 118.913 54.0408 118.899 53.9314C118.884 53.8224 118.923 53.713 119.004 53.6421C120.624 52.2052 121.536 50.3421 121.569 48.396C121.626 45.0971 119.219 42.122 115.436 40.8165C115.346 40.7851 115.275 40.7118 115.244 40.6177C115.212 40.5236 115.224 40.4195 115.276 40.3363C115.956 39.2521 116.311 38.0817 116.332 36.858C116.369 34.7263 115.376 32.6973 113.537 31.1449C111.675 29.5732 109.174 28.6796 106.495 28.6285C105.738 28.6127 104.976 28.6707 104.225 28.7971C104.133 28.8121 104.042 28.7836 103.974 28.7197C103.905 28.6558 103.868 28.5626 103.872 28.4664L103.876 28.3958C103.878 28.3503 103.88 28.3049 103.881 28.2592C103.957 23.8258 100.583 20.154 96.3591 20.0734C93.7053 20.0265 91.2379 21.3962 89.7866 23.7472C89.7218 23.8524 89.605 23.9087 89.4857 23.89C89.3675 23.8715 89.2706 23.7824 89.2373 23.6622C88.2981 20.2569 85.396 17.9259 82.0153 17.8617C80.769 17.8391 79.5786 18.1203 78.4686 18.6999C78.3789 18.7462 78.2742 18.7441 78.1867 18.6946C77.0972 18.0727 75.9143 17.7456 74.6711 17.7218C71.2941 17.6523 68.3098 19.8761 67.2535 23.2435C67.2161 23.3626 67.1158 23.4479 66.9971 23.4616C66.8789 23.4731 66.7627 23.4153 66.7015 23.3074C65.3323 20.9028 62.9241 19.4369 60.2603 19.3859C56.0364 19.3111 52.5373 22.8462 52.4605 27.2794C52.4599 27.3254 52.4605 27.3717 52.461 27.418L52.4619 27.4875C52.4627 27.5837 52.4222 27.6755 52.3515 27.7367C52.2808 27.7983 52.1889 27.822 52.0976 27.8044C51.3528 27.6499 50.5918 27.564 49.8352 27.5497C47.1669 27.5036 44.6266 28.2964 42.7115 29.7963C40.8196 31.2774 39.7577 33.2675 39.7208 35.3992C39.6996 36.6232 40.0139 37.8062 40.6548 38.9155C40.7039 39.0005 40.7126 39.1049 40.6782 39.1979C40.6436 39.2908 40.5698 39.3615 40.4785 39.389C36.6533 40.5494 34.1445 43.4311 34.0876 46.7302C34.0538 48.6763 34.9 50.5726 36.4703 52.0704C36.548 52.1443 36.5838 52.2551 36.5653 52.3638C36.5469 52.4723 36.4765 52.5629 36.3793 52.6042C33.1701 53.9622 31.1452 56.6225 31.0949 59.5469C31.0857 60.0829 31.1424 60.6208 31.2642 61.1456C31.2944 61.2749 31.2449 61.4107 31.1399 61.4857C26.7658 64.6207 25.0295 69.9166 27.1874 73.5423C28.3781 75.543 30.5935 76.7233 33.266 76.7805C33.3476 76.7822 33.4249 76.818 33.4808 76.8799C33.537 76.9417 33.5672 77.0247 33.5649 77.11C33.5046 79.2552 34.1488 80.9234 35.3786 81.8076C37.3826 83.2471 40.6688 82.3423 43.5575 79.5554C43.6374 79.478 43.7511 79.4516 43.8548 79.4853C43.9587 79.5193 44.0375 79.6088 44.0615 79.7202C44.5272 81.8747 45.6475 83.4819 47.2162 84.2459C50.1071 85.6549 53.9256 83.9469 56.5025 80.0945C56.5598 80.0092 56.6528 79.9585 56.7523 79.9585H56.7531C56.8529 79.9588 56.9462 80.0101 57.0029 80.096C57.7846 81.2775 58.8182 82.084 59.9924 82.4291C62.3411 83.1201 64.9591 81.9489 66.9988 79.3C67.0642 79.2152 67.1687 79.1716 67.2687 79.183C67.3718 79.1944 67.4623 79.2604 67.5089 79.3574C68.3289 81.0678 69.5478 82.2027 71.034 82.6392C72.9799 83.2109 75.1701 82.4812 77.0439 80.6368C77.164 80.5187 77.3526 80.5219 77.4694 80.645C79.278 82.5595 81.442 83.373 83.4058 82.8749C84.9066 82.495 86.1637 81.4073 87.0421 79.7294C87.0918 79.6341 87.1846 79.572 87.2879 79.5641C87.3924 79.5597 87.4916 79.6045 87.5536 79.6916C89.5006 82.4155 92.0764 83.6841 94.4474 83.0851C95.6328 82.7852 96.6936 82.0185 97.5158 80.8675C97.5736 80.7866 97.6641 80.7394 97.7599 80.7394L97.7597 80.7396Z" fill="black"/>
<path d="M45.1249 80.1599C43.1866 80.1599 41.5562 79.0707 40.2602 76.9024C40.2149 76.827 40.1644 76.742 40.1437 76.7144C40.0655 76.6423 40.0495 76.5186 40.1104 76.4266C40.1755 76.3278 40.3051 76.3025 40.3995 76.3717C40.4596 76.4154 40.5013 76.4849 40.6122 76.6708C42.2635 79.4328 44.4884 80.3235 47.2274 79.3141C47.3344 79.2751 47.4539 79.334 47.4922 79.4478C47.5302 79.5612 47.4733 79.6859 47.3649 79.7258C46.5782 80.0154 45.8311 80.1599 45.1249 80.1599Z" fill="black"/>
<path d="M39.5909 55.1413C39.5574 55.1413 39.523 55.1328 39.4914 55.1146C37.5646 54.0078 36.1797 52.4933 36.1216 52.4294C36.0426 52.342 36.0459 52.2042 36.1289 52.121C36.2121 52.0383 36.3434 52.0421 36.4228 52.1286C36.4365 52.1438 37.823 53.6593 39.6909 54.732C39.7914 54.7897 39.8286 54.9222 39.7736 55.0278C39.7356 55.1002 39.6643 55.1413 39.5909 55.1413Z" fill="black"/>
<path d="M38.7969 58.4205C38.7913 58.4205 38.7854 58.4202 38.7798 58.4196C38.6656 58.4099 38.5803 58.3049 38.5895 58.1847C38.7792 55.7182 39.7567 54.2219 40.5432 53.4007C41.4014 52.5045 42.2119 52.1995 42.2459 52.1869C42.3526 52.1479 42.4722 52.2066 42.5105 52.3203C42.5485 52.4338 42.4918 52.5581 42.3839 52.5983C42.2599 52.6446 39.3452 53.7804 39.0035 58.22C38.9949 58.334 38.9038 58.4205 38.7968 58.4205H38.7969Z" fill="black"/>
<path d="M54.7534 43.6985C54.7221 43.6985 54.69 43.6909 54.6601 43.675C54.5576 43.6208 54.5165 43.4894 54.5682 43.3821C54.5959 43.325 57.3997 37.6801 64.5614 38.8953C64.6745 38.9144 64.7516 39.0264 64.7332 39.1454C64.7147 39.2642 64.6105 39.3463 64.4949 39.3257C57.6343 38.1636 54.9652 43.5243 54.9392 43.5785C54.9026 43.6548 54.8294 43.6985 54.7534 43.6985Z" fill="black"/>
<path d="M59.6718 39.6121C59.567 39.6121 59.4768 39.5289 59.4653 39.4172C58.7823 32.6765 64.558 31.4489 64.6167 31.4372C64.7281 31.4155 64.8377 31.4923 64.8592 31.6107C64.8807 31.7289 64.8067 31.8432 64.6941 31.8658C64.4709 31.9103 59.2365 33.0356 59.8788 39.3708C59.8908 39.4907 59.8081 39.598 59.6942 39.6109C59.6866 39.6115 59.6791 39.6121 59.6718 39.6121L59.6718 39.6121Z" fill="black"/>
<path d="M56.6567 29.8734C56.5922 29.8734 56.5285 29.8421 56.488 29.7828C55.2084 27.9229 52.1817 27.6799 52.1513 27.6775C52.0367 27.669 51.9504 27.5649 51.9585 27.4447C51.9666 27.3242 52.0658 27.2354 52.1803 27.2424C52.3125 27.2521 55.4328 27.5039 56.8249 29.5277C56.8922 29.6254 56.871 29.7617 56.7779 29.832C56.7413 29.8599 56.6986 29.8734 56.6567 29.8734L56.6567 29.8734Z" fill="black"/>
<path d="M54.959 31.6845C54.9458 31.6845 54.9327 31.6833 54.9193 31.6804C54.8067 31.6578 54.733 31.5435 54.7548 31.425C54.7592 31.401 55.2342 29.0063 58.2528 29.471C58.3662 29.4886 58.4447 29.5994 58.4279 29.7188C58.4112 29.8375 58.3072 29.9193 58.1919 29.9026C55.5613 29.4951 55.1777 31.4253 55.1626 31.5077C55.1436 31.6121 55.0565 31.6845 54.959 31.6845Z" fill="black"/>
<path d="M58.2968 80.6555C55.2944 80.6555 54.4364 77.5989 54.4269 77.5631C54.3959 77.4473 54.4602 77.3271 54.5705 77.2945C54.6798 77.2617 54.7957 77.3291 54.827 77.4449C54.8678 77.5953 55.8671 81.1102 59.6976 80.0049C59.8088 79.973 59.9225 80.0413 59.9529 80.1574C59.9834 80.2735 59.9183 80.3934 59.8077 80.4253C59.2523 80.5857 58.75 80.6555 58.2968 80.6555L58.2968 80.6555Z" fill="black"/>
<path d="M110.103 81.3978C109.339 81.3981 108.533 81.224 107.685 80.8748C107.579 80.8308 107.526 80.7044 107.568 80.5922C107.61 80.4799 107.731 80.4254 107.837 80.469C110.538 81.5805 112.793 80.7769 114.539 78.079C114.657 77.8978 114.7 77.8298 114.762 77.7885C114.859 77.7231 114.987 77.753 115.049 77.8544C115.107 77.9485 115.087 78.0717 115.006 78.1409C114.984 78.1676 114.931 78.2505 114.883 78.3241C113.559 80.3705 111.957 81.3978 110.103 81.3978L110.103 81.3978Z" fill="black"/>
<path d="M116.312 56.6005C116.235 56.6005 116.162 56.5565 116.126 56.48C116.074 56.3724 116.116 56.2413 116.218 56.1874C118.125 55.185 119.56 53.725 119.574 53.7103C119.656 53.6262 119.788 53.6276 119.868 53.7138C119.948 53.8 119.947 53.9381 119.865 54.0222C119.804 54.0838 118.368 55.545 116.404 56.5773C116.374 56.5931 116.343 56.6005 116.312 56.6005Z" fill="black"/>
<path d="M116.989 59.909C116.879 59.909 116.787 59.8175 116.782 59.7005C116.593 55.2372 113.629 53.9666 113.599 53.9543C113.492 53.9106 113.439 53.7839 113.481 53.6719C113.523 53.5593 113.645 53.5048 113.75 53.5485C113.783 53.5617 116.997 54.9378 117.197 59.6811C117.202 59.8013 117.113 59.9034 116.999 59.9086C116.996 59.9089 116.993 59.9089 116.989 59.9089L116.989 59.909Z" fill="black"/>
<path d="M101.553 44.5897C101.475 44.5897 101.399 44.5428 101.365 44.4631C101.265 44.2376 98.8497 38.9499 91.962 39.8491C91.8503 39.8655 91.7444 39.7793 91.7301 39.6597C91.7159 39.5401 91.7969 39.4313 91.9106 39.4163C95.6676 38.9261 98.1375 40.2703 99.5495 41.4844C101.082 42.8022 101.716 44.2206 101.742 44.2804C101.79 44.3898 101.744 44.5191 101.64 44.5695C101.612 44.5833 101.582 44.5897 101.553 44.5897Z" fill="black"/>
<path d="M96.7757 40.3163C96.7659 40.3163 96.7558 40.3154 96.7461 40.3139C96.6324 40.2969 96.5533 40.1864 96.5698 40.0674C96.9318 37.4135 96.2764 35.3147 94.6214 33.8295C93.3844 32.7192 92.0308 32.3868 92.0171 32.3835C91.9054 32.3568 91.8353 32.2402 91.8607 32.1226C91.8861 32.005 91.9973 31.9308 92.1093 31.9584C92.1672 31.9722 97.8971 33.4187 96.981 40.1289C96.9662 40.2377 96.8774 40.3163 96.7757 40.3163Z" fill="black"/>
<path d="M100.129 30.7012C100.085 30.7012 100.04 30.6862 100.002 30.6551C99.9115 30.581 99.8953 30.444 99.9657 30.349C101.427 28.3798 104.554 28.2469 104.686 28.2423C104.795 28.225 104.897 28.3326 104.901 28.4528C104.905 28.573 104.815 28.6738 104.7 28.6779C104.67 28.6791 101.635 28.8099 100.294 30.617C100.253 30.6721 100.191 30.7011 100.129 30.7011V30.7012Z" fill="black"/>
<path d="M101.762 32.5741C101.661 32.5741 101.573 32.4973 101.557 32.39C101.544 32.3056 101.212 30.3674 98.5851 30.67C98.4675 30.6826 98.3683 30.5967 98.3558 30.4774C98.3432 30.3575 98.4253 30.2499 98.5393 30.2367C101.571 29.8808 101.964 32.298 101.968 32.3226C101.985 32.4417 101.907 32.5531 101.794 32.5715C101.783 32.5733 101.773 32.5741 101.762 32.5741Z" fill="black"/>
<path d="M96.8911 81.3885C96.3949 81.3885 95.8412 81.3015 95.2238 81.098C95.1143 81.0616 95.0534 80.9394 95.0877 80.8244C95.1221 80.7092 95.2394 80.6465 95.3484 80.6816C99.1487 81.9355 100.259 78.4579 100.304 78.3092C100.339 78.1946 100.456 78.1307 100.566 78.1682C100.675 78.2049 100.735 78.3277 100.7 78.4423C100.69 78.4769 99.7616 81.3885 96.8911 81.3885Z" fill="black"/>
<path d="M39.2676 38.5271L45.3706 71.6506C45.3706 71.6506 52.0457 69.6492 54.0483 70.3497C56.0508 71.0502 51.0921 74.5527 53.4761 77.6549C55.8601 80.7571 60.4373 79.6563 61.9631 78.0552C63.4888 76.454 58.5301 71.9508 60.342 70.3497C62.1538 68.7486 69.9732 68.5484 69.9732 68.5484L68.7336 54.5385C68.7336 54.5385 67.78 52.1368 66.0635 54.0381C64.3471 55.9395 62.1538 60.843 58.6255 56.9402C55.0972 53.0374 55.6694 44.031 60.7234 45.8323C65.7775 47.6336 66.445 47.4334 66.445 46.1325C66.445 44.8315 62.3445 33.6236 62.3445 33.6236L54.978 35.8752C54.978 35.8752 52.8563 35.65 54.3582 32.1976C55.8601 28.7451 55.2879 25.5929 50.7107 26.2684C46.1334 26.9439 41.8423 29.5707 44.2739 32.798C46.7056 36.0253 48.4936 37.9767 46.9201 38.7272C45.3467 39.4778 39.2676 38.5271 39.2676 38.5271Z" fill="#CFE8FD"/>
<path d="M57.6818 79.8519C57.5592 79.8519 57.4371 79.8487 57.3156 79.8417C56.1553 79.7769 54.5185 79.3691 53.3085 77.7947C51.8686 75.921 52.9289 73.9283 53.7027 72.4733C54.0698 71.7834 54.4165 71.1317 54.2986 70.813C54.2841 70.7734 54.2394 70.6527 53.9799 70.5621C52.0631 69.8907 45.4953 71.8459 45.4291 71.8655C45.3719 71.8831 45.3093 71.874 45.2579 71.8409C45.2067 71.808 45.171 71.7538 45.1595 71.6919L39.0566 38.5685C39.0435 38.4967 39.0642 38.4228 39.1122 38.37C39.1603 38.317 39.2296 38.2932 39.2988 38.3029C39.3592 38.3125 45.3338 39.2346 46.831 38.5207C47.09 38.3973 47.2375 38.241 47.2822 38.0434C47.449 37.3081 46.3463 35.8686 44.9505 34.046C44.6812 33.6945 44.3979 33.3245 44.1054 32.936C43.3581 31.9445 43.1662 30.9521 43.5349 29.9867C44.342 27.8723 47.7054 26.4829 50.6804 26.0437C52.6545 25.7526 54.027 26.129 54.7612 27.1613C55.5588 28.2827 55.4828 30.152 54.5531 32.2896C54.0119 33.5332 53.8924 34.499 54.2069 35.0824C54.4377 35.5098 54.8383 35.6192 54.9629 35.6435L62.2839 33.406C62.3917 33.3723 62.504 33.4321 62.5442 33.5414C62.7121 34.0005 66.6591 44.8038 66.6591 46.131C66.6591 46.482 66.6166 46.9167 66.2861 47.1654C65.6813 47.6204 64.3126 47.3483 60.654 46.044C59.2342 45.5382 58.1005 45.8989 57.375 47.0877C56.0315 49.2891 56.3589 54.1052 58.7805 56.7836C59.6683 57.7658 60.4969 58.2181 61.3197 58.1786C62.7372 58.1035 63.8893 56.54 64.906 55.1606C65.2569 54.6845 65.5882 54.2351 65.907 53.8818C66.4685 53.2602 67.025 52.997 67.562 53.1008C68.454 53.2729 68.9122 54.4025 68.9312 54.4506C68.9396 54.4714 68.9449 54.4937 68.9468 54.5162L70.1864 68.5263C70.1917 68.5884 70.1724 68.65 70.133 68.6966C70.0934 68.7432 70.0372 68.7708 69.978 68.7723C69.9006 68.7743 62.2134 68.9883 60.4796 70.5205C59.6842 71.2232 60.5061 72.7466 61.3012 74.2195C62.122 75.7408 62.971 77.314 62.1142 78.2128C61.1713 79.2026 59.3903 79.852 57.6817 79.852L57.6818 79.8519ZM52.8789 69.9763C53.3722 69.9763 53.7977 70.0235 54.1157 70.1346C54.4149 70.2392 54.611 70.4128 54.6987 70.6503C54.8895 71.1663 54.5311 71.84 54.0774 72.6928C53.3234 74.1106 52.3847 75.875 53.6427 77.5121C54.7532 78.9571 56.2655 79.3321 57.3385 79.3922C59.2355 79.496 61.0251 78.7191 61.811 77.8944C62.4368 77.2377 61.6696 75.816 60.9279 74.4413C60.0467 72.8083 59.1354 71.1196 60.2032 70.1762C61.8956 68.6807 68.4033 68.3761 69.7382 68.3292L68.5229 54.595C68.452 54.4341 68.0801 53.6574 67.4834 53.5434C67.1004 53.4721 66.6735 53.6879 66.2189 54.1913C65.9147 54.5284 65.5898 54.9691 65.2456 55.4361C64.1725 56.8923 62.9561 58.5426 61.3413 58.6282C60.3926 58.6787 59.4486 58.1767 58.4694 57.0937C56.1464 54.524 55.4253 49.4477 57.0136 46.8446C57.8453 45.481 59.1868 45.0453 60.7921 45.6176C63.5676 46.6068 65.5218 47.1861 66.0362 46.7991C66.1722 46.6971 66.2301 46.4972 66.2301 46.131C66.2301 45.1189 63.3975 37.1395 62.2144 33.8961L55.0376 36.0897C55.011 36.0979 54.9828 36.1008 54.956 36.0976C54.9261 36.0944 54.2207 36.012 53.8379 35.3122C53.4421 34.5877 53.5513 33.508 54.1626 32.1025C55.0256 30.1191 55.1183 28.4164 54.4174 27.4307C53.7927 26.5524 52.521 26.2269 50.7403 26.4899C47.3124 26.9957 44.5768 28.4683 43.9334 30.154C43.6261 30.9591 43.797 31.8011 44.4418 32.6569C44.7338 33.0442 45.0165 33.413 45.285 33.7639C46.8687 35.8317 47.915 37.1979 47.6999 38.1478C47.6233 38.4849 47.3909 38.7482 47.0087 38.9306C45.5828 39.6105 40.798 38.9763 39.5352 38.7931L45.5367 71.3665C46.5355 71.0771 50.4956 69.9762 52.8789 69.9762L52.8789 69.9763Z" fill="black"/>
<path d="M40.7901 45.7304L42.5065 53.7361C42.5065 53.7361 48.9243 52.7726 50.9268 55.2744C52.9294 57.7762 50.7074 60.0406 48.991 60.4409C47.2745 60.8412 44.0323 61.2756 44.0323 61.2756C44.0323 61.2756 42.6019 67.3458 39.8365 67.0456C39.8365 67.0456 36.3082 70.1478 33.2567 70.1478C30.2052 70.1478 30.9681 65.8447 30.9681 65.8447C30.9681 65.8447 25.8187 71.0484 22.0997 71.3486C18.3807 71.6488 9.51234 70.1478 9.51234 70.1478L2.21739 72.7997L0.214844 56.7382L6.93764 55.6938C6.93764 55.6938 22.7897 44.4295 25.6631 42.9284C28.5365 41.4274 40.7901 45.7304 40.7901 45.7304Z" fill="#F2E8E0"/>
<path d="M2.21726 73.0244C2.17787 73.0244 2.13876 73.0129 2.10441 72.9907C2.04966 72.9552 2.01276 72.8957 2.00442 72.8285L0.00181492 56.7671C-0.0132851 56.6452 0.0674649 56.5332 0.183415 56.515L6.85761 55.4783C7.93486 54.7134 22.7581 44.1939 25.5672 42.7263C28.4863 41.2024 40.3543 45.34 40.8581 45.5168C40.9293 45.5417 40.9827 45.6038 40.9992 45.6807L42.6726 53.4859C43.7968 53.342 49.2127 52.7829 51.091 55.1292C52.0841 56.3702 52.0207 57.4734 51.7925 58.1803C51.3712 59.4849 50.0877 60.4155 49.0376 60.6606C47.5373 61.0103 44.8526 61.3894 44.2033 61.4791C43.9614 62.4234 42.5913 67.2808 40.0365 67.2814C39.9929 67.2814 39.9496 67.2799 39.9054 67.2773C39.3819 67.7235 36.1512 70.3726 33.2566 70.3726C32.449 70.3726 31.8151 70.0894 31.3725 69.5306C30.6568 68.6271 30.6297 67.2295 30.6861 66.4262C29.3597 67.6854 25.2814 71.3172 22.1161 71.5729C18.5242 71.8605 10.3445 70.5151 9.53152 70.3788L2.28742 73.0121C2.26477 73.0203 2.24096 73.0244 2.21726 73.0244ZM0.454665 56.9281L2.39577 72.4961L9.44211 69.9346C9.47562 69.9223 9.51222 69.919 9.54632 69.9252C9.63486 69.9401 18.436 71.4186 22.0832 71.1237C25.6823 70.8331 30.7683 65.7336 30.8191 65.6823C30.8865 65.6146 30.9873 65.5996 31.0697 65.6463C31.1519 65.6926 31.196 65.7893 31.179 65.8855C31.1751 65.9075 30.8007 68.1052 31.7034 69.2436C32.0604 69.6939 32.5831 69.9223 33.2567 69.9223C36.196 69.9223 39.6641 66.9031 39.6987 66.8726C39.7431 66.8336 39.8004 66.8146 39.8585 66.8213C42.4053 67.0978 43.81 61.28 43.8237 61.2214C43.8452 61.1311 43.917 61.0636 44.005 61.0519C44.0371 61.0475 47.2571 60.6142 48.9443 60.2208C49.8774 60.0032 51.0155 59.1826 51.386 58.0357C51.6626 57.1791 51.4469 56.274 50.7624 55.4188C48.8582 53.0403 42.6 53.9491 42.5369 53.9585C42.424 53.977 42.3218 53.8996 42.2972 53.7853L40.6073 45.9041C39.3604 45.4749 28.3755 41.7621 25.7584 43.1297C22.9306 44.6067 7.21642 55.7674 7.05802 55.88C7.03122 55.899 7.00077 55.9113 6.96892 55.9163L0.454815 56.9281H0.454665Z" fill="black"/>
<path d="M42.5063 53.9596C42.4963 53.9596 42.4862 53.959 42.4759 53.9573L33.4167 52.6063C33.363 52.5984 33.3141 52.5694 33.2801 52.5254C33.2502 52.4864 30.2327 48.6203 26.9107 47.7487C26.7956 47.7185 26.7257 47.5962 26.7545 47.4757C26.7833 47.3549 26.9009 47.2813 27.0146 47.3118C30.2676 48.1653 33.1211 51.6215 33.5595 52.173L42.5363 53.5116C42.6536 53.5289 42.7352 53.643 42.7184 53.7661C42.7033 53.8784 42.6114 53.9596 42.5063 53.9596Z" fill="black"/>
<path d="M30.9663 66.0697C30.9286 66.0697 30.8901 66.0591 30.8554 66.0371C30.754 65.9726 30.7216 65.8342 30.7831 65.7278L32.6901 62.4255C32.7247 62.3654 32.7842 62.3258 32.8504 62.3182L44.0074 61.0514C44.1231 61.0399 44.2312 61.1276 44.2441 61.251C44.2566 61.3747 44.1714 61.4859 44.0538 61.4993L33.0021 62.7541L31.1502 65.9612C31.1097 66.031 31.039 66.0697 30.9663 66.0697Z" fill="black"/>
<path d="M39.8386 67.2685C39.7201 67.2685 39.624 67.1677 39.624 67.0434V63.0404C39.624 62.9161 39.7201 62.8152 39.8386 62.8152C39.957 62.8152 40.0531 62.9161 40.0531 63.0404V67.0434C40.0531 67.1677 39.957 67.2685 39.8386 67.2685Z" fill="black"/>
<path d="M80.7664 39.4415L111.165 41.2271C111.165 41.2271 107.738 51.213 107.633 53.736C107.541 55.949 116.338 47.082 119.577 49.1611C122.817 51.2402 122.37 56.1457 121.054 57.9407C119.739 59.7356 114.842 55.1587 113.564 57.2513C112.285 59.344 113.108 67.5066 113.108 67.5066L99.7101 68.0304C99.7101 68.0304 97.3173 67.349 98.8916 65.3167C100.466 63.2845 104.815 60.3674 100.671 57.2012C96.5263 54.035 88.0903 55.7963 90.4466 60.8222C92.8029 65.8482 92.7002 66.5687 91.471 66.7371C90.2418 66.9055 79.1206 64.0896 79.1206 64.0896L80.2945 56.1327C80.2945 56.1327 79.807 53.954 76.7393 55.9638C73.6715 57.9736 70.6189 57.7864 70.6646 52.9359C70.7103 48.0855 72.6368 43.2801 76.0011 45.3926C79.3653 47.5052 81.4407 49.1131 81.9461 47.3786C82.4516 45.6442 80.7663 39.4414 80.7663 39.4414L80.7664 39.4415Z" fill="#F9EA31"/>
<path d="M99.7098 68.2554C99.6908 68.2554 99.6718 68.2528 99.6536 68.2475C99.6059 68.234 98.4791 67.9036 98.2012 66.9974C98.0338 66.4524 98.2101 65.8391 98.725 65.1745C99.0175 64.7969 99.3994 64.394 99.8036 63.9672C100.976 62.7308 102.303 61.3295 102.191 59.8445C102.126 58.9849 101.587 58.1796 100.544 57.383C97.7003 55.2103 93.1074 55.4929 91.2004 57.1755C90.1712 58.084 89.977 59.3107 90.6388 60.7226C92.3447 64.3609 92.7791 65.7497 92.4276 66.4384C92.2354 66.8142 91.8303 66.9148 91.4984 66.9602C90.2538 67.1335 79.5256 64.4237 79.07 64.3084C78.9616 64.2809 78.8912 64.1706 78.9082 64.0548L80.0749 56.147C80.0363 56.0221 79.8813 55.6181 79.4466 55.4331C78.8546 55.1815 77.9575 55.4304 76.8526 56.1546C74.9535 57.3988 73.1979 57.7207 72.034 57.0353C70.9632 56.4047 70.4301 55.0247 70.4497 52.9334C70.4796 49.7806 71.3571 46.1009 73.2502 44.9875C74.1154 44.4791 75.0775 44.5503 76.1109 45.1991C76.5157 45.4533 76.9018 45.7002 77.2689 45.935C79.1717 47.1517 80.6742 48.1139 81.3483 47.8438C81.5291 47.7717 81.6576 47.5978 81.7408 47.3123C82.2219 45.6608 80.5764 39.5642 80.5596 39.5029C80.5406 39.4329 80.5552 39.3572 80.5985 39.3003C80.6418 39.2437 80.7069 39.2106 80.7781 39.2162L111.177 41.0019C111.245 41.006 111.307 41.0433 111.344 41.1025C111.381 41.1617 111.39 41.2362 111.367 41.303C111.333 41.4027 107.95 51.2854 107.847 53.7454C107.843 53.834 107.86 53.8595 107.861 53.8598C108.116 54.0413 109.773 52.9418 110.981 52.1385C113.809 50.2575 117.682 47.6817 119.689 48.9687C121.333 50.0235 121.93 51.6741 122.142 52.8726C122.473 54.7481 122.096 56.8883 121.224 58.0774C120.486 59.085 118.889 58.406 117.345 57.7484C115.851 57.1125 114.305 56.4538 113.744 57.3723C112.521 59.3753 113.314 67.4016 113.322 67.4825C113.328 67.5446 113.309 67.6065 113.27 67.6537C113.231 67.7009 113.176 67.729 113.116 67.7311L99.7179 68.255C99.7151 68.2553 99.7126 68.2553 99.7098 68.2553L99.7098 68.2554ZM95.4918 55.3952C97.396 55.3952 99.3854 55.9405 100.797 57.0188C101.947 57.8975 102.543 58.8101 102.619 59.8087C102.747 61.5 101.345 62.9794 100.108 64.2846C99.7115 64.7033 99.3371 65.0985 99.058 65.4585C98.6409 65.9968 98.4901 66.4676 98.6094 66.8582C98.7943 67.4645 99.5763 67.7509 99.7372 67.804L112.872 67.2903C112.744 65.8954 112.189 59.084 113.383 57.1297C114.136 55.8963 115.849 56.6254 117.507 57.3314C118.902 57.9256 120.345 58.5387 120.884 57.8031C121.562 56.8784 122.066 54.9162 121.72 52.9548C121.524 51.846 120.974 50.3212 119.465 49.3529C117.688 48.2121 113.944 50.7018 111.211 52.5189C109.143 53.8936 108.128 54.5406 107.645 54.2486C107.535 54.1815 107.405 54.0364 107.419 53.7256C107.515 51.408 110.296 43.114 110.866 41.4347L81.0531 39.6836C81.3892 40.9709 82.6092 45.8717 82.1511 47.4443C82.0284 47.8656 81.8097 48.1417 81.501 48.2649C80.6296 48.6123 79.2048 47.6996 77.0458 46.3194C76.6798 46.0854 76.2946 45.8392 75.8909 45.5856C74.9988 45.0256 74.1811 44.957 73.4601 45.3804C71.9506 46.2684 70.9133 49.3054 70.879 52.9382C70.8614 54.8254 71.3332 56.1062 72.2443 56.6428C73.2665 57.2444 74.8631 56.9272 76.6254 55.7729C77.8744 54.9547 78.881 54.7014 79.6161 55.0195C80.3271 55.327 80.4964 56.0506 80.5034 56.0811C80.5095 56.1095 80.5106 56.1385 80.5064 56.1673L79.3627 63.9192C82.5808 64.7307 90.501 66.6495 91.443 66.5135C91.7894 66.4663 91.9708 66.3801 92.0495 66.2256C92.3485 65.6401 91.5481 63.6817 90.254 60.9214C89.5058 59.3257 89.7438 57.873 90.9245 56.831C92.0124 55.8706 93.7148 55.3953 95.4919 55.3953L95.4918 55.3952Z" fill="black"/>
<path d="M109.21 45.6983L107.494 53.704C107.494 53.704 101.076 52.7405 99.0736 55.2423C97.0711 57.7441 99.293 60.0085 101.009 60.4088C102.726 60.8091 105.968 61.2435 105.968 61.2435C105.968 61.2435 107.399 67.3137 110.164 67.0135C110.164 67.0135 113.692 70.1157 116.744 70.1157C119.795 70.1157 119.032 65.8126 119.032 65.8126C119.032 65.8126 124.182 71.0163 127.901 71.3165C131.62 71.6167 140.488 70.1157 140.488 70.1157L147.783 72.7676L149.786 56.7062L143.063 55.6617C143.063 55.6617 127.211 44.3974 124.337 42.8964C121.464 41.3953 109.21 45.6984 109.21 45.6984V45.6983Z" fill="#F2E8E0"/>
<path d="M147.782 73.0245C147.759 73.0245 147.735 73.0204 147.712 73.0122L140.468 70.3789C139.655 70.5152 131.478 71.8618 127.884 71.573C124.718 71.3173 120.64 67.6855 119.314 66.4263C119.37 67.2296 119.343 68.6272 118.627 69.5307C118.185 70.0895 117.551 70.3727 116.743 70.3727C113.848 70.3727 110.618 67.7236 110.094 67.2774C107.466 67.4389 106.042 62.4397 105.796 61.4792C105.147 61.3895 102.462 61.0104 100.962 60.6607C99.9121 60.4156 98.6286 59.485 98.2073 58.1804C97.9791 57.4735 97.9157 56.3703 98.9088 55.1293C100.787 52.783 106.204 53.3421 107.327 53.486L109.001 45.6808C109.017 45.604 109.07 45.5418 109.142 45.5169C109.646 45.3398 121.514 41.2031 124.432 42.7264C127.241 44.1941 142.065 54.7133 143.142 55.4784L149.816 56.5151C149.932 56.5333 150.013 56.6452 149.998 56.7672L147.995 72.8286C147.987 72.8958 147.95 72.9553 147.895 72.9908C147.861 73.0131 147.822 73.0245 147.783 73.0245H147.782ZM140.487 69.9224C140.511 69.9224 140.535 69.9265 140.558 69.9347L147.604 72.4962L149.545 56.9282L143.031 55.9164C142.999 55.9114 142.969 55.8991 142.942 55.8801C142.783 55.7675 127.069 44.6068 124.241 43.1298C121.622 41.7613 110.639 45.4749 109.393 45.9042L107.703 53.7854C107.678 53.8997 107.576 53.9777 107.463 53.9586C107.4 53.9495 101.14 53.0422 99.2374 55.4189C98.553 56.2741 98.3373 57.1792 98.6139 58.0358C98.9843 59.1827 100.122 60.0033 101.056 60.2209C102.743 60.6143 105.962 61.0476 105.995 61.052C106.083 61.0638 106.154 61.1312 106.176 61.2215C106.19 61.2798 107.594 67.0964 110.141 66.8214C110.198 66.8147 110.257 66.8337 110.301 66.8727C110.336 66.9032 113.806 69.9224 116.743 69.9224C117.417 69.9224 117.939 69.694 118.296 69.2437C119.199 68.1053 118.825 65.9076 118.821 65.8856C118.804 65.7895 118.848 65.6927 118.93 65.6464C119.012 65.5998 119.113 65.6147 119.181 65.6824C119.232 65.7337 124.317 70.8332 127.917 71.1238C131.57 71.4196 140.365 69.9402 140.453 69.9253C140.465 69.9232 140.476 69.9223 140.488 69.9223L140.487 69.9224Z" fill="black"/>
<path d="M107.495 53.9612C107.389 53.9612 107.298 53.88 107.282 53.7677C107.266 53.6445 107.347 53.5305 107.465 53.5132L116.441 52.1745C116.88 51.6231 119.733 48.1668 122.986 47.3134C123.1 47.2829 123.218 47.3565 123.246 47.4773C123.275 47.5978 123.205 47.72 123.09 47.7502C119.768 48.6218 116.75 52.488 116.72 52.527C116.686 52.571 116.638 52.5999 116.584 52.6078L107.525 53.9588C107.515 53.9606 107.505 53.9612 107.495 53.9612Z" fill="black"/>
<path d="M119.031 66.07C118.959 66.07 118.888 66.0313 118.847 65.9615L116.995 62.7544L105.943 61.4996C105.826 61.4861 105.741 61.375 105.753 61.2513C105.766 61.1276 105.874 61.0385 105.99 61.0517L117.147 62.3185C117.213 62.3261 117.273 62.3657 117.307 62.4258L119.214 65.7281C119.276 65.8345 119.243 65.9729 119.142 66.0374C119.107 66.0594 119.069 66.07 119.031 66.07Z" fill="black"/>
<path d="M110.166 67.2698C110.047 67.2698 109.951 67.1689 109.951 67.0446V63.0416C109.951 62.9173 110.047 62.8164 110.166 62.8164C110.284 62.8164 110.38 62.9173 110.38 63.0416V67.0446C110.38 67.1689 110.284 67.2698 110.166 67.2698Z" fill="black"/>
<path d="M119.686 16.3874C105.632 16.1934 105.781 16.0362 105.966 30.7855C106.151 16.0362 106.301 16.1934 92.2461 16.3874C106.301 16.5813 106.151 16.7385 105.966 1.98921C105.781 16.7386 105.632 16.5813 119.686 16.3874Z" fill="#F9EA31"/>
<path d="M105.966 31.0104C105.849 31.0104 105.753 30.9113 105.751 30.7881L105.746 30.3196C105.712 27.6813 105.685 25.5306 105.752 23.7759C105.644 20.9283 105.285 19.1816 104.294 18.1417C103.303 17.1021 101.638 16.7256 98.9244 16.6119C97.2527 16.6819 95.2032 16.6538 92.6886 16.6186L92.243 16.6125C92.1256 16.6107 92.0312 16.5104 92.0312 16.3873C92.0312 16.2642 92.1257 16.1639 92.243 16.1622L92.6886 16.156C95.2021 16.1208 97.2527 16.093 98.925 16.1625C101.639 16.0487 103.303 15.6726 104.294 14.6327C105.285 13.5928 105.644 11.846 105.752 8.99843C105.685 7.24378 105.712 5.09303 105.746 2.45443L105.751 1.98608C105.753 1.86278 105.849 1.76383 105.966 1.76383C106.083 1.76383 106.179 1.86278 106.181 1.98608L106.186 2.45353C106.22 5.09213 106.247 7.24343 106.18 8.99843C106.288 11.8463 106.647 13.5928 107.638 14.6327C108.629 15.6726 110.294 16.0487 113.008 16.1625C114.68 16.0927 116.729 16.1208 119.243 16.156L119.689 16.1622C119.806 16.1639 119.901 16.2642 119.901 16.3873C119.901 16.5104 119.806 16.6107 119.689 16.6125L119.243 16.6186C116.729 16.6541 114.68 16.6822 113.007 16.6119C110.293 16.7256 108.629 17.1018 107.638 18.1417C106.647 19.1816 106.288 20.928 106.18 23.7759C106.247 25.5306 106.22 27.6819 106.186 30.3205L106.18 30.7881C106.179 30.9113 106.083 31.0104 105.966 31.0104ZM101.38 16.3873C102.839 16.6251 103.868 17.0581 104.598 17.8233C105.327 18.5885 105.739 19.6689 105.966 21.1993C106.193 19.6689 106.605 18.5885 107.335 17.8233C108.064 17.0581 109.093 16.6251 110.552 16.3873C109.093 16.1493 108.064 15.7162 107.335 14.9511C106.605 14.1859 106.193 13.1055 105.966 11.5751C105.739 13.1055 105.327 14.1859 104.598 14.9511C103.868 15.7163 102.839 16.1493 101.38 16.3873Z" fill="black"/>
<path d="M103.652 4.78398C100.205 5.32183 99.7895 5.75778 99.277 9.37483C98.7645 5.75778 98.3491 5.32178 94.9023 4.78398C98.3491 4.24613 98.7645 3.81018 99.277 0.193127C99.7895 3.81018 100.205 4.24618 103.652 4.78398Z" fill="#F9EA31"/>
<path d="M99.2767 9.63189C99.1702 9.63189 99.08 9.55009 99.0644 9.43984C98.5674 5.93049 98.2145 5.56024 94.8704 5.03869C94.7654 5.02229 94.6874 4.92759 94.6874 4.81589C94.6874 4.70419 94.7654 4.60949 94.8704 4.59309C98.2145 4.07124 98.5674 3.70109 99.0644 0.191943C99.08 0.0815432 99.1703 -0.000106812 99.2767 -0.000106812C99.3831 -0.000106812 99.4734 0.0815432 99.489 0.191943C99.9863 3.70114 100.339 4.07124 103.683 4.59309C103.788 4.60949 103.866 4.70449 103.866 4.81589C103.866 4.92729 103.788 5.02229 103.683 5.03869C100.339 5.56024 99.9863 5.93054 99.489 9.43984C99.4733 9.55009 99.3831 9.63189 99.2767 9.63189ZM96.1815 4.81589C98.2478 5.25479 98.8585 5.89564 99.2767 8.06399C99.6952 5.89564 100.306 5.25479 102.372 4.81589C100.306 4.37669 99.6952 3.73599 99.2767 1.56794C98.8585 3.73599 98.2477 4.37674 96.1815 4.81589Z" fill="black"/>
<path d="M26.9623 82.5885C23.5155 83.1264 23.1001 83.5623 22.5876 87.1794C22.0751 83.5623 21.6596 83.1263 18.2129 82.5885C21.6596 82.0507 22.0751 81.6147 22.5876 77.9977C23.1001 81.6147 23.5155 82.0507 26.9623 82.5885Z" fill="#F9EA31"/>
<path d="M22.5873 87.4086C22.4811 87.4086 22.3906 87.3268 22.375 87.2166C21.8777 83.7072 21.5248 83.337 18.181 82.8154C18.076 82.799 17.998 82.7043 17.998 82.5926C17.998 82.4809 18.076 82.3862 18.181 82.3698C21.5248 81.8483 21.8777 81.478 22.375 77.9687C22.3906 77.8584 22.4809 77.7766 22.5873 77.7766C22.6937 77.7766 22.784 77.8584 22.7996 77.9687C23.2966 81.478 23.6494 81.8483 26.9935 82.3698C27.0986 82.3862 27.1765 82.4809 27.1765 82.5926C27.1765 82.7043 27.0986 82.799 26.9935 82.8154C23.6494 83.337 23.2966 83.7073 22.7996 87.2166C22.7839 87.3268 22.6937 87.4086 22.5873 87.4086ZM19.4924 82.5926C21.5583 83.0318 22.1688 83.6724 22.5873 85.8407C23.0055 83.6724 23.6159 83.0318 25.6822 82.5926C23.6159 82.1534 23.0055 81.5129 22.5873 79.3445C22.1688 81.5129 21.5583 82.1535 19.4924 82.5926Z" fill="black"/>
</g>
<defs>
<clipPath id="clip0_101_570">
<rect width="150" height="87.4089" fill="white"/>
</clipPath>
</defs>
</svg>
