<svg width="136" height="65" viewBox="0 0 136 65" fill="none" xmlns="http://www.w3.org/2000/svg">
<path d="M19.7126 0.431276L77.7966 3.84296C77.7966 3.84296 71.2478 22.9233 71.0472 27.744C70.8712 31.9725 87.6792 15.0301 93.8696 19.0027C100.06 22.9753 99.205 32.3483 96.6916 35.778C94.1783 39.2076 84.8215 30.4624 82.3789 34.4608C79.9364 38.4593 81.5093 54.0558 81.5093 54.0558L55.9087 55.0565C55.9087 55.0565 51.3367 53.7547 54.3449 49.8715C57.353 45.9885 65.6634 40.4147 57.7444 34.365C49.8254 28.3153 33.7066 31.6807 38.2088 41.2838C42.7111 50.887 42.5148 52.2636 40.1662 52.5854C37.8174 52.9072 16.568 47.5269 16.568 47.5269L18.8109 32.3235C18.8109 32.3235 17.8795 28.1606 12.0179 32.0008C6.15632 35.8409 0.323654 35.4831 0.410878 26.2153C0.498198 16.9474 4.17929 7.76576 10.6074 11.8022C17.0356 15.8386 21.001 18.9109 21.9668 15.5968C22.9326 12.2828 19.7125 0.431084 19.7125 0.431084L19.7126 0.431276Z" fill="#F9EA31"/>
<path d="M55.9087 55.487C55.8724 55.487 55.8361 55.4819 55.8014 55.4719C55.7102 55.4461 53.5573 54.8148 53.0262 53.0833C52.7064 52.0419 53.0433 50.87 54.027 49.6001C54.5859 48.8787 55.3156 48.1089 56.088 47.2933C58.3273 44.931 60.8645 42.2534 60.6494 39.4161C60.525 37.7736 59.4959 36.2348 57.5032 34.7129C52.0691 30.5613 43.2934 31.1014 39.6496 34.3163C37.6831 36.0523 37.3122 38.3961 38.5767 41.0939C41.8361 48.0457 42.6661 50.6993 41.9946 52.0151C41.6273 52.7332 40.8533 52.9254 40.2191 53.0122C37.841 53.3432 17.3425 48.1656 16.4718 47.9454C16.2647 47.8927 16.1302 47.6821 16.1628 47.4608L18.3919 32.3511C18.3183 32.1125 18.022 31.3405 17.1914 30.9871C16.0603 30.5064 14.3463 30.982 12.2351 32.3656C8.60637 34.743 5.25191 35.3581 3.02812 34.0484C0.982028 32.8435 -0.0364843 30.2067 0.000965777 26.2109C0.0580963 20.1868 1.73476 13.1559 5.35184 11.0284C7.005 10.0571 8.84339 10.1932 10.8179 11.4328C11.5914 11.9186 12.3291 12.3902 13.0305 12.8388C16.6663 15.1636 19.537 17.0021 20.8251 16.4861C21.1705 16.3484 21.416 16.0161 21.5751 15.4705C22.4943 12.315 19.3502 0.666036 19.3181 0.549005C19.2818 0.415159 19.3096 0.270613 19.3924 0.161893C19.4751 0.053746 19.5995 -0.00949722 19.7356 0.00110727L77.8197 3.41318C77.9489 3.42101 78.0674 3.49218 78.1384 3.6053C78.21 3.71841 78.2265 3.86076 78.1827 3.98849C78.1171 4.17899 71.6528 23.0621 71.4568 27.7624C71.4498 27.9316 71.4824 27.9803 71.483 27.9809C71.9698 28.3277 75.1363 26.227 77.4445 24.6921C82.8493 21.098 90.2488 16.1763 94.0837 18.6354C97.2246 20.6509 98.3658 23.8048 98.7704 26.0948C99.403 29.6782 98.6818 33.7675 97.0169 36.0396C95.6055 37.9649 92.5554 36.6675 89.6056 35.411C86.7503 34.196 83.7957 32.9373 82.7243 34.6923C80.3868 38.5195 81.9018 53.8555 81.9172 54.0101C81.929 54.1288 81.8937 54.247 81.819 54.3372C81.7448 54.4274 81.6381 54.4812 81.5249 54.4851L55.9243 55.4861C55.9189 55.4867 55.9142 55.4867 55.9088 55.4867L55.9087 55.487ZM47.8494 30.9147C51.4878 30.9147 55.289 31.9566 57.9858 34.017C60.1835 35.6958 61.3221 37.4396 61.4667 39.3476C61.7118 42.5793 59.0331 45.4059 56.6699 47.8999C55.912 48.6998 55.1967 49.4549 54.6634 50.1429C53.8664 51.1713 53.5782 52.071 53.8062 52.8172C54.1595 53.9757 55.6536 54.5229 55.9612 54.6244L81.0579 53.6429C80.8129 50.9776 79.7533 37.963 82.0337 34.2288C83.4728 31.8721 86.7467 33.2653 89.9142 34.6142C92.58 35.7496 95.3371 36.921 96.3668 35.5155C97.6613 33.7486 98.6258 29.9994 97.9639 26.2518C97.5903 24.1332 96.5392 21.2197 93.6557 19.3695C90.2596 17.1898 83.1067 21.9469 77.8834 25.4188C73.9333 28.0455 71.9934 29.2818 71.0705 28.7239C70.8596 28.5956 70.613 28.3183 70.6381 27.7245C70.8223 23.2963 76.1363 7.4488 77.2258 4.24013L20.2611 0.89418C20.9033 3.35394 23.2344 12.7179 22.359 15.7227C22.1246 16.5277 21.7066 17.0553 21.1168 17.2906C19.4519 17.9544 16.7295 16.2106 12.6043 13.5733C11.9049 13.1263 11.1688 12.6558 10.3975 12.1712C8.69302 11.1013 7.13063 10.9703 5.7529 11.7792C2.86877 13.476 0.886772 19.2788 0.821138 26.22C0.78751 29.8259 1.68909 32.2733 3.42985 33.2984C5.38298 34.4479 8.43373 33.8419 11.8009 31.6364C14.1875 30.073 16.1108 29.589 17.5153 30.1968C18.8738 30.7844 19.1973 32.1669 19.2107 32.2252C19.2224 32.2796 19.2245 32.335 19.2165 32.3899L17.0311 47.2016C23.18 48.7522 38.3133 52.4185 40.1133 52.1586C40.7751 52.0684 41.1217 51.9037 41.2721 51.6085C41.8433 50.4899 40.314 46.7478 37.8413 41.4737C36.4118 38.4247 36.8666 35.649 39.1225 33.6581C41.2011 31.823 44.454 30.9149 47.8496 30.9149L47.8494 30.9147Z" fill="black"/>
<path d="M74.0615 12.4473L70.7818 27.7439C70.7818 27.7439 58.5193 25.903 54.693 30.6831C50.8667 35.4633 55.1122 39.79 58.3919 40.5548C61.6715 41.3197 67.8664 42.1497 67.8664 42.1497C67.8664 42.1497 70.5995 53.7482 75.8834 53.1746C75.8834 53.1746 82.625 59.102 88.4556 59.102C94.2861 59.102 92.8285 50.8801 92.8285 50.8801C92.8285 50.8801 102.668 60.8229 109.773 61.3965C116.879 61.9701 133.824 59.102 133.824 59.102L147.763 64.169L151.589 33.4802L138.744 31.4846C138.744 31.4846 108.455 9.96164 102.965 7.09355C97.4747 4.22547 74.0615 12.4474 74.0615 12.4474V12.4473Z" fill="#F2E8E0"/>
<path d="M147.763 64.599C147.718 64.599 147.672 64.5912 147.629 64.5755L133.788 59.544C132.235 59.8045 116.611 62.3774 109.742 61.8256C103.694 61.3371 95.9018 54.3977 93.3673 51.9917C93.4752 53.5266 93.4234 56.197 92.0558 57.9234C91.2102 58.9911 89.9991 59.5322 88.4558 59.5322C82.9246 59.5322 76.7522 54.4705 75.7514 53.6179C70.7304 53.9266 68.0096 44.3744 67.5394 42.5392C66.2988 42.3679 61.1695 41.6435 58.303 40.9752C56.2964 40.5069 53.8441 38.7289 53.0391 36.2361C52.603 34.8855 52.4819 32.7776 54.3795 30.4063C57.9688 25.9232 68.3176 26.9914 70.4646 27.2665L73.6621 12.3529C73.6936 12.2061 73.7956 12.0874 73.9317 12.0397C74.8947 11.7013 97.5717 3.79722 103.148 6.70791C108.515 9.51218 136.839 29.6114 138.897 31.0734L151.65 33.0542C151.871 33.0889 152.025 33.3028 151.997 33.5359L148.17 64.2248C148.154 64.3531 148.084 64.4668 147.979 64.5346C147.914 64.5772 147.839 64.599 147.764 64.599H147.763ZM133.825 58.6717C133.87 58.6717 133.915 58.6796 133.959 58.6952L147.422 63.5895L151.131 33.8435L138.684 31.9103C138.624 31.9007 138.565 31.8773 138.514 31.8409C138.212 31.6257 108.186 10.3008 102.783 7.4787C97.7782 4.86378 76.7934 11.9595 74.411 12.7797L71.1821 27.8385C71.1351 28.057 70.9408 28.2059 70.7241 28.1695C70.604 28.1521 58.6431 26.4184 55.0074 30.9597C53.6996 32.5938 53.2874 34.3231 53.8159 35.9599C54.5238 38.1513 56.6984 39.7192 58.4813 40.1349C61.705 40.8867 67.857 41.7146 67.9184 41.723C68.0865 41.7454 68.2237 41.8742 68.2648 42.0468C68.291 42.1583 70.9744 53.2721 75.8416 52.7467C75.9505 52.7338 76.0621 52.7702 76.1469 52.8447C76.2131 52.903 82.8439 58.6717 88.4558 58.6717C89.7428 58.6717 90.7415 58.2353 91.4238 57.3749C93.1485 55.1998 92.4332 51.0007 92.4257 50.9586C92.3932 50.7749 92.4775 50.5901 92.6345 50.5015C92.7919 50.4125 92.9846 50.441 93.1133 50.5704C93.2105 50.6684 102.928 60.4121 109.805 60.9673C116.786 61.5325 133.591 58.7058 133.76 58.6773C133.781 58.6734 133.803 58.6716 133.825 58.6716L133.825 58.6717Z" fill="black"/>
<path d="M70.7814 28.1738C70.5807 28.1738 70.4051 28.0187 70.3762 27.8041C70.3442 27.5688 70.5001 27.3509 70.7243 27.3178L87.8759 24.76C88.7139 23.7064 94.1661 17.1024 100.382 15.4717C100.599 15.4135 100.824 15.5541 100.879 15.7849C100.934 16.0152 100.8 16.2487 100.58 16.3064C94.233 17.9718 88.4668 25.359 88.4097 25.4335C88.3445 25.5175 88.2512 25.5729 88.1487 25.588L70.8396 28.1693C70.8198 28.1727 70.8006 28.1738 70.7814 28.1738Z" fill="black"/>
<path d="M92.8292 51.3103C92.6904 51.3103 92.5554 51.2364 92.4779 51.103L88.9388 44.9752L67.8221 42.5777C67.5974 42.5519 67.4346 42.3396 67.4586 42.1032C67.4831 41.8669 67.6897 41.6965 67.9108 41.7218L89.2287 44.1423C89.3551 44.1568 89.4688 44.2324 89.535 44.3473L93.1793 50.6571C93.2967 50.8604 93.2348 51.1249 93.041 51.2481C92.9748 51.2902 92.9013 51.3103 92.8292 51.3103Z" fill="black"/>
<path d="M75.8835 53.605C75.6572 53.605 75.4736 53.4123 75.4736 53.1748V45.5261C75.4736 45.2886 75.6572 45.0959 75.8835 45.0959C76.1098 45.0959 76.2935 45.2886 76.2935 45.5261V53.1748C76.2935 53.4123 76.1098 53.605 75.8835 53.605Z" fill="black"/>
</svg>
