<svg width="16" height="16" viewBox="0 0 16 16" fill="none" xmlns="http://www.w3.org/2000/svg">
<path fill-rule="evenodd" clip-rule="evenodd" d="M10.063 2.70076C8.70104 2.43308 7.29904 2.43308 5.93706 2.70076C4.71019 2.94188 3.83337 4.00387 3.83337 5.22997V12.8449C3.83337 13.3408 4.38597 13.6697 4.83903 13.4075L6.96367 12.1779C7.60401 11.8073 8.39607 11.8073 9.03641 12.1779L11.1611 13.4075C11.6141 13.6697 12.1667 13.3408 12.1667 12.8449V5.22997C12.1667 4.00387 11.2899 2.94188 10.063 2.70076ZM5.74421 1.71953C7.23354 1.42682 8.76654 1.42682 10.2559 1.71953C11.944 2.0513 13.1667 3.51809 13.1667 5.22997V12.8449C13.1667 14.1309 11.7626 14.911 10.6601 14.273L8.53551 13.0434C8.20503 12.8521 7.79506 12.8521 7.46458 13.0434L5.33993 14.273C4.23748 14.911 2.83337 14.1309 2.83337 12.8449V5.22997C2.83337 3.51809 4.05612 2.0513 5.74421 1.71953Z" fill="#181616"/>
</svg>
