<svg width="40" height="40" viewBox="0 0 40 40" fill="none" xmlns="http://www.w3.org/2000/svg">
<path d="M29.989 10.8372L27.1301 27.9788C27.0731 28.3235 26.7735 28.5744 26.4243 28.5698C26.3324 28.567 26.2414 28.5477 26.1569 28.5128L21.1051 26.4494L18.4043 29.7435C18.271 29.908 18.0706 30.0027 17.8584 29.9999C17.7784 29.9999 17.6985 29.9852 17.6231 29.9549C17.3401 29.8547 17.1507 29.5854 17.1526 29.2849V25.3905L26.7984 13.5717L14.8569 23.8943L10.4476 22.0873C10.1921 21.9871 10.0175 21.7472 10.001 21.4733C9.98717 21.2049 10.1232 20.9512 10.3539 20.8143L28.9396 10.1011C29.0481 10.0358 29.1712 10.0009 29.2971 10C29.4359 10 29.5719 10.0404 29.6877 10.1176C29.9202 10.2785 30.0379 10.5597 29.9891 10.8373L29.989 10.8372Z" fill="#E5E5E5"/>
</svg>
