<svg width="24" height="24" viewBox="0 0 24 24" fill="none" xmlns="http://www.w3.org/2000/svg">
<circle cx="12" cy="12" r="12" fill="#5620CC"/>
<path d="M7.10202 15.3509L6.63888 15.5393L6.63889 15.5393L7.10202 15.3509ZM6.87069 11.5981L7.35334 11.7287L6.87069 11.5981ZM17.1292 11.5981L16.6466 11.7287L17.1292 11.5981ZM16.8979 15.3509L17.361 15.5393L17.361 15.5393L16.8979 15.3509ZM13.3576 17.8945L13.2803 17.4005L13.2803 17.4005L13.3576 17.8945ZM10.6423 17.8945L10.7196 17.4005L10.7196 17.4005L10.6423 17.8945ZM9.77076 9.06809L9.67111 8.57812L9.67111 8.57812L9.77076 9.06809ZM14.2292 9.06809L14.3288 8.57812L14.3288 8.57812L14.2292 9.06809ZM10.1432 17.8165L10.0659 18.3105L10.0659 18.3105L10.1432 17.8165ZM7.16395 15.5031L7.62709 15.3147L7.62709 15.3147L7.16395 15.5031ZM13.8568 17.8165L13.934 18.3105L13.934 18.3105L13.8568 17.8165ZM16.836 15.5031L16.3728 15.3147L16.3728 15.3147L16.836 15.5031ZM14.4132 9.10553L14.3136 9.5955L14.3136 9.5955L14.4132 9.10553ZM9.58668 9.10552L9.68633 9.59549L9.58668 9.10552ZM8.59594 8.95373C8.59594 9.22987 8.8198 9.45373 9.09594 9.45373C9.37208 9.45373 9.59594 9.22987 9.59594 8.95373H8.59594ZM9.09594 8.75181L8.59594 8.75181V8.75181H9.09594ZM14.9039 8.75181L14.4039 8.75181V8.75181H14.9039ZM14.4039 8.95373C14.4039 9.22987 14.6278 9.45373 14.9039 9.45373C15.1801 9.45373 15.4039 9.22987 15.4039 8.95373H14.4039ZM11.2344 6.09417L11.1131 5.60912L11.1131 5.60912L11.2344 6.09417ZM12.7654 6.09417L12.8868 5.60912L12.8868 5.60912L12.7654 6.09417ZM9.68633 9.59549L9.8704 9.55806L9.67111 8.57812L9.48704 8.61556L9.68633 9.59549ZM14.1295 9.55806L14.3136 9.5955L14.5129 8.61556L14.3288 8.57812L14.1295 9.55806ZM13.7795 17.3225L13.2803 17.4005L13.4349 18.3885L13.934 18.3105L13.7795 17.3225ZM10.7196 17.4005L10.2204 17.3225L10.0659 18.3105L10.565 18.3885L10.7196 17.4005ZM16.4347 15.1624L16.3728 15.3147L17.2991 15.6915L17.361 15.5393L16.4347 15.1624ZM7.62709 15.3147L7.56516 15.1624L6.63889 15.5393L6.70081 15.6915L7.62709 15.3147ZM7.56516 15.1624C7.11957 14.0672 7.04568 12.8658 7.35334 11.7287L6.38804 11.4675C6.02306 12.8165 6.11109 14.242 6.63888 15.5393L7.56516 15.1624ZM16.6466 11.7287C16.9542 12.8658 16.8803 14.0672 16.4347 15.1624L17.361 15.5393C17.8888 14.242 17.9769 12.8165 17.6119 11.4675L16.6466 11.7287ZM13.2803 17.4005C12.4324 17.5332 11.5675 17.5332 10.7196 17.4005L10.565 18.3885C11.5154 18.5372 12.4845 18.5372 13.4349 18.3885L13.2803 17.4005ZM9.8704 9.55806C11.2745 9.2725 12.7254 9.2725 14.1295 9.55806L14.3288 8.57812C12.7932 8.26582 11.2067 8.26582 9.67111 8.57812L9.8704 9.55806ZM10.2204 17.3225C9.03748 17.1375 8.05573 16.3683 7.62709 15.3147L6.70081 15.6915C7.26713 17.0835 8.55084 18.0735 10.0659 18.3105L10.2204 17.3225ZM13.934 18.3105C15.4491 18.0735 16.7328 17.0835 17.2991 15.6915L16.3728 15.3147C15.9442 16.3683 14.9624 17.1375 13.7795 17.3225L13.934 18.3105ZM14.3136 9.5955C15.4607 9.8288 16.3578 10.6614 16.6466 11.7287L17.6119 11.4675C17.2198 10.0184 16.0136 8.92077 14.5129 8.61556L14.3136 9.5955ZM9.48704 8.61555C7.9863 8.92077 6.78008 10.0184 6.38804 11.4675L7.35334 11.7287C7.64208 10.6614 8.53918 9.8288 9.68633 9.59549L9.48704 8.61555ZM9.59594 8.95373V8.75181H8.59594V8.95373H9.59594ZM14.4039 8.75181V8.95373H15.4039V8.75181H14.4039ZM11.3558 6.57923C11.7781 6.47359 12.2218 6.47359 12.6441 6.57923L12.8868 5.60912C12.3052 5.46363 11.6947 5.46363 11.1131 5.60912L11.3558 6.57923ZM15.4039 8.75181C15.4039 7.25988 14.3566 5.97679 12.8868 5.60912L12.6441 6.57923C13.6932 6.84166 14.4039 7.74339 14.4039 8.75181L15.4039 8.75181ZM9.59594 8.75181C9.59594 7.74339 10.3066 6.84166 11.3558 6.57923L11.1131 5.60912C9.64327 5.97679 8.59594 7.25988 8.59594 8.75181L9.59594 8.75181Z" fill="white"/>
<path d="M12 13L12 14.3333" stroke="white" stroke-linecap="round"/>
</svg>
