<svg width="68" height="68" viewBox="0 0 68 68" fill="none" xmlns="http://www.w3.org/2000/svg">
<g clip-path="url(#clip0_101_5841)">
<g clip-path="url(#clip1_101_5841)">
<rect width="68" height="68" rx="6" fill="#F4F2F7"/>
</g>
<g style="mix-blend-mode:color-burn" clip-path="url(#clip2_101_5841)">
<path d="M84.3464 93.9729H-5.73199C-5.73199 93.9729 -7.29167 78.7496 6.00191 72.5018C13.5193 68.9688 23.3515 80.701 28.296 75.7898C33.2405 70.8787 39.0929 38.301 66.4918 46.064C93.8908 53.827 95.4304 82.6337 84.3464 93.9729Z" fill="#CFE8FD"/>
<path d="M84.3465 94.2096H-5.73196C-5.84375 94.2096 -5.93774 94.1188 -5.95 93.9989C-5.96571 93.8452 -7.37376 78.53 5.91442 72.2851C9.73736 70.4877 14.1948 72.5725 18.1272 74.4109C22.0554 76.248 25.7655 77.9823 28.1475 75.6158C29.2426 74.528 30.3972 72.0161 31.8588 68.8363C36.8525 57.9722 45.2107 39.7884 66.5476 45.835C73.1351 47.7014 78.5767 50.8649 82.7214 55.2376C86.3573 59.0733 88.932 63.8477 90.1673 69.0446C92.3744 78.3304 90.0959 88.4173 84.4975 94.1446C84.4568 94.1865 84.4027 94.2096 84.3465 94.2096H84.3465ZM-5.52993 93.7364H84.2587C89.6992 88.1122 91.9027 78.2515 89.7423 69.1619C88.527 64.0492 85.9932 59.3511 82.4148 55.5758C78.3251 51.2613 72.9491 48.1379 66.4362 46.2928C45.4452 40.3448 37.186 58.3116 32.2519 69.0464C30.77 72.2702 29.5995 74.8166 28.4445 75.9639C25.8527 78.5387 22.0153 76.7446 17.9527 74.8453C13.9139 72.9567 9.73807 71.0043 6.08947 72.7188C-6.06083 78.4293 -5.64758 91.8878 -5.52993 93.7364Z" fill="black"/>
<path d="M59.7538 41.6737C59.7538 41.6737 66.5773 41.2542 69.9891 46.8278L74.7162 61.3111L67.5034 64.3371L72.0362 87.6829H31.3874L35.774 71.5932H29.6328L34.8967 46.8278C34.8967 46.8278 39.2832 40.6209 43.5236 41.6737C47.764 42.7265 59.7538 41.6737 59.7538 41.6737Z" fill="#96E693"/>
<path d="M72.0362 87.9197H31.3874C31.3183 87.9197 31.2532 87.8846 31.2118 87.8248C31.1704 87.765 31.1575 87.6877 31.177 87.6162L35.4808 71.83H29.6328C29.566 71.83 29.5028 71.7971 29.4613 71.741C29.4196 71.6846 29.404 71.6106 29.419 71.5404L34.6829 46.775C34.6899 46.7423 34.7033 46.7112 34.7223 46.6844C34.9048 46.4259 39.2421 40.3674 43.5728 41.4435C47.7317 42.4762 59.6166 41.4487 59.736 41.4383C59.7378 41.438 59.7395 41.438 59.7414 41.4377C59.8111 41.4346 66.7309 41.0754 70.1722 46.6977C70.1821 46.7137 70.19 46.7313 70.196 46.7494L74.9231 61.2327C74.9624 61.3532 74.906 61.4857 74.7958 61.5319L67.7562 64.4852L72.2508 87.6348C72.2644 87.7044 72.2481 87.7771 72.2064 87.8323C72.1649 87.8877 72.1023 87.9197 72.0362 87.9197L72.0362 87.9197ZM31.6806 87.4464H71.7661L67.2888 64.3856C67.2668 64.2726 67.3239 64.1586 67.4238 64.1167L74.4388 61.1738L69.7912 46.9342C66.504 41.5963 59.9192 41.9016 59.7684 41.9099C59.2326 41.9571 47.6905 42.9519 43.4744 41.9044C39.5924 40.9397 35.4815 46.4096 35.0996 46.9321L29.9081 71.3568H35.774C35.8431 71.3568 35.9082 71.3919 35.9496 71.4517C35.9911 71.5115 36.0039 71.5885 35.9845 71.6603L31.6806 87.4464H31.6806Z" fill="black"/>
<path d="M56.1959 27.5725C56.1959 27.5725 60.6602 21.237 60.6799 15.6476C60.7021 9.33794 55.7085 9.9689 55.7085 9.9689C55.7085 9.9689 51.7483 5.02634 47.9284 3.65923C44.1085 2.29211 36.7976 4.29019 34.5555 11.5463C33.2172 15.8778 37.2362 21.1492 41.713 21.6681C45.7435 22.1352 56.1959 27.5725 56.1959 27.5725Z" fill="black"/>
<path d="M56.1957 27.809C56.1636 27.809 56.1312 27.8013 56.1007 27.7856C55.9964 27.7314 45.6363 22.3608 41.6896 21.9035C39.211 21.6161 36.758 19.9037 35.288 17.4347C34.1063 15.4503 33.7724 13.3325 34.3475 11.4713C36.5746 4.26264 43.7983 1.93103 47.9975 3.43451C51.5893 4.72018 55.2229 9.01924 55.8004 9.72293C56.2644 9.68997 57.9837 9.66807 59.3133 10.9494C60.373 11.9704 60.9066 13.5512 60.8992 15.6484C60.8796 21.2526 56.5546 27.4544 56.3705 27.7157C56.3278 27.7761 56.2626 27.809 56.1958 27.809L56.1957 27.809ZM45.1306 3.40679C40.2732 3.40679 35.9534 7.77055 34.7636 11.6211C34.2313 13.3436 34.5486 15.3175 35.6569 17.179C37.0571 19.5304 39.3866 21.1604 41.7364 21.4328C45.5292 21.8724 54.732 26.5554 56.1269 27.2741C56.799 26.2728 60.4431 20.6136 60.4605 15.6466C60.4674 13.6929 59.9843 12.2326 59.0244 11.3056C57.6556 9.98324 55.7527 10.2014 55.7337 10.2038C55.6607 10.2115 55.5899 10.1826 55.5425 10.1234C55.5032 10.0744 51.5769 5.21434 47.8593 3.88368C46.9425 3.55556 46.0272 3.40675 45.1306 3.40675V3.40679Z" fill="black"/>
<path d="M56.6621 30.0952V40.592L59.7538 41.6739C59.7538 41.6739 54.1057 46.7624 50.1783 49.2649C46.8341 51.3958 42.5689 49.1464 42.0707 44.9909C41.8942 43.5184 41.8382 42.4432 41.8382 42.4432C42.4999 41.6046 42.8633 40.5393 42.8633 39.438V33.4148L56.662 30.0953L56.6621 30.0952Z" fill="#E3C3A5"/>
<path d="M47.4281 50.315C46.5869 50.315 45.7441 50.1104 44.9622 49.6985C43.259 48.801 42.0968 47.0526 41.8534 45.0211C41.6777 43.557 41.6197 42.4673 41.6192 42.4565C41.616 42.3959 41.6348 42.3361 41.6712 42.2899C42.2986 41.495 42.644 40.482 42.644 39.4379V33.4147C42.644 33.3038 42.7152 33.208 42.8156 33.1836L56.6144 29.864C56.6787 29.8489 56.7475 29.8652 56.7993 29.9105C56.8512 29.9555 56.8815 30.0233 56.8815 30.0951V40.4201L59.8215 41.4488C59.8975 41.4756 59.954 41.5446 59.9692 41.629C59.9843 41.7137 59.9557 41.8003 59.8945 41.8555C59.8378 41.9066 54.1876 46.9851 50.2899 49.4683C49.4066 50.0312 48.4184 50.315 47.4281 50.315ZM42.0626 42.5225C42.0802 42.8127 42.1441 43.7579 42.2883 44.9604C42.5129 46.8336 43.5844 48.4458 45.1547 49.2733C46.7241 50.0999 48.5606 50.0208 50.0669 49.0611C53.4139 46.9285 58.0759 42.8561 59.3061 41.7661L56.5944 40.8172C56.5041 40.7855 56.4428 40.6946 56.4428 40.592V30.3902L43.0827 33.6045V39.4379C43.0827 40.5621 42.7211 41.6537 42.0626 42.5225L42.0626 42.5225Z" fill="black"/>
<path d="M42.8633 37.7914V41.0494C42.8633 41.0494 48.883 43.7889 52.9934 37.7914C52.9934 37.7914 47.9725 41.1599 42.8633 37.7914Z" fill="black"/>
<path d="M46.1068 41.8955C44.203 41.8955 42.8073 41.2808 42.7781 41.2676C42.6968 41.2306 42.644 41.1447 42.644 41.0495V37.7914C42.644 37.7057 42.6868 37.6269 42.7561 37.585C42.8249 37.5431 42.9097 37.5449 42.9777 37.5896C47.9144 40.8436 52.8285 37.6235 52.8776 37.5905C52.9673 37.5301 53.0832 37.5477 53.1546 37.6309C53.226 37.7144 53.2323 37.8407 53.1698 37.9322C50.9758 41.1333 48.2263 41.8955 46.1069 41.8955H46.1068ZM43.0826 40.888C43.9465 41.2352 48.578 42.8133 52.1816 38.492C50.5137 39.2721 46.8323 40.4691 43.0826 38.204V40.888Z" fill="black"/>
<path d="M38.9593 33.115C38.6215 32.9189 38.2603 32.7679 37.878 32.6683C35.7716 32.1198 33.5742 33.2719 32.0912 35.4283C31.3799 33.964 30.2547 32.8932 28.8412 32.5251C26.4947 31.9141 24.0364 33.4142 22.5775 36.0612C21.9524 35.3667 21.1869 34.8681 20.3105 34.6399C17.2363 33.8393 13.9679 36.6601 13.0102 40.9403C12.8755 41.542 12.7956 42.1401 12.763 42.7266C12.7152 42.7128 12.6681 42.6978 12.6198 42.6852C9.54556 41.8847 6.45188 43.9242 5.70983 47.2407C5.22806 49.3939 5.85683 51.555 7.19784 53.0259C4.75805 53.1921 2.59799 55.0449 1.99433 57.7429C1.77086 58.7416 1.78764 59.7417 2.00207 60.6744C1.41684 61.3988 0.979046 62.2805 0.755574 63.2792C0.151912 65.9773 1.29068 68.689 3.39154 70.0376C1.57621 70.6866 0.102817 72.3004 -0.378919 74.4535C-1.12097 77.77 0.769595 81.1075 3.84381 81.908C3.89213 81.9206 3.94045 81.9304 3.98877 81.9416C3.76978 82.4796 3.58803 83.0512 3.45338 83.6529C2.49571 87.9331 4.2115 92.0518 7.28572 92.8523C8.16213 93.0805 9.05414 93.0135 9.9041 92.7032C10.083 95.7767 11.6364 98.3214 13.9828 98.9325C15.3964 99.3006 16.8505 98.9014 18.1026 97.9484C18.5105 100.597 19.9787 102.704 22.0852 103.252C22.4675 103.352 22.8527 103.395 23.2363 103.387C24.6848 107.294 28.0724 109.546 30.9572 108.446C32.614 107.815 33.7551 106.21 34.21 104.197C35.6506 104.591 36.966 104.399 37.837 103.521C39.2363 102.11 39.0785 99.3467 37.6466 96.6784C39.1701 96.6713 40.5091 96.0911 41.3375 94.9235C42.8238 92.8288 42.1908 89.5168 39.998 86.9259C40.9289 86.5151 41.6798 85.8456 42.1344 84.9297C43.029 83.1272 42.5581 80.824 41.1133 78.8658C42.389 78.5183 43.426 77.7561 43.9968 76.6061C44.7485 75.0916 44.5345 73.2239 43.5905 71.504C45.1578 70.4382 46.1379 68.8814 46.1094 67.1637C46.0878 65.8595 45.4873 64.6708 44.499 63.7338C46.6128 62.7022 48.0057 60.8844 47.9718 58.8402C47.9545 57.8014 47.5695 56.8361 46.9147 56.0124C49.9617 54.7859 51.9254 52.1502 51.4886 49.5547C51.2451 48.1079 50.2989 46.9327 48.9462 46.1766C51.3486 44.5068 52.6578 42.125 52.0091 40.1809C51.6053 38.9708 50.5159 38.1526 49.0674 37.7942C49.5138 35.779 49.1768 33.7895 47.9695 32.4123C45.8673 30.0142 41.9004 30.3512 38.9593 33.115Z" fill="#D797CA"/>
<path d="M29.4423 108.961C26.9265 108.962 24.3519 106.885 23.0892 103.624C22.7331 103.62 22.3787 103.572 22.0337 103.483C20.0022 102.953 18.4589 101 17.9481 98.3443C16.6692 99.2162 15.2539 99.5061 13.9314 99.1629C11.6165 98.5596 9.97925 96.1633 9.70679 93.0171C8.87531 93.2713 8.04482 93.2932 7.23436 93.0827C4.04739 92.2524 2.25566 87.9977 3.24018 83.5976C3.35313 83.0926 3.5025 82.5932 3.68497 82.1089C0.561549 81.2302 -1.35271 77.7975 -0.592193 74.398C-0.142105 72.3865 1.15059 70.7656 2.90548 69.9806C0.906842 68.4738 -0.0381566 65.8183 0.542441 63.2239C0.759909 62.2519 1.1703 61.3739 1.76287 60.6123C1.55755 59.643 1.56366 58.6596 1.78113 57.6876C2.36144 55.0931 4.3254 53.195 6.74114 52.8376C5.51128 51.2756 5.0465 49.1969 5.49656 47.1854C6.25707 43.7859 9.41218 41.6737 12.5635 42.4282C12.6056 41.9081 12.6838 41.3902 12.7969 40.885C13.2714 38.7641 14.313 36.9226 15.7296 35.7001C17.1626 34.4632 18.8082 34.0066 20.3619 34.4099C21.1721 34.6209 21.9018 35.0494 22.5346 35.6847C24.1075 33.0185 26.5774 31.6931 28.8927 32.2951C30.2155 32.6396 31.3514 33.5944 32.121 34.9999C33.699 32.8879 35.8983 31.9095 37.9294 32.4384C38.2741 32.5284 38.6095 32.6602 38.9288 32.8315C41.9651 30.0643 45.9819 29.8009 48.1288 32.2499C49.2997 33.5854 49.7318 35.5323 49.3283 37.6199C50.7979 38.0373 51.819 38.9126 52.2154 40.1009C52.8608 42.0351 51.7464 44.3828 49.3674 46.158C50.651 46.9759 51.476 48.1556 51.7043 49.5127C52.1388 52.0945 50.3267 54.7737 47.2736 56.1154C47.8591 56.9451 48.1751 57.8795 48.1911 58.8361C48.2242 60.8288 46.9949 62.6638 44.8854 63.7979C45.8106 64.7736 46.3082 65.9296 46.3288 67.1595C46.3565 68.8342 45.4682 70.4351 43.8839 71.5805C44.8093 73.3798 44.9228 75.2416 44.1901 76.7179C43.6519 77.8024 42.7203 78.5862 41.4843 78.9994C42.8819 81.0466 43.1999 83.2843 42.3276 85.0416C41.9091 85.8849 41.2328 86.5608 40.3609 87.0109C42.5104 89.7073 42.99 92.9835 41.5117 95.0675C40.7346 96.1627 39.5016 96.8063 38.0134 96.9024C39.3799 99.653 39.3788 102.291 37.9867 103.694C37.1317 104.556 35.8528 104.833 34.3684 104.481C33.8446 106.538 32.6369 108.057 31.0302 108.67C30.5125 108.867 29.9786 108.961 29.4423 108.961L29.4423 108.961ZM23.2363 103.15C23.3258 103.15 23.4066 103.209 23.4399 103.299C24.854 107.113 28.1246 109.276 30.884 108.223C32.4073 107.643 33.5418 106.155 33.9969 104.142C34.0107 104.08 34.0467 104.028 34.0968 103.995C34.147 103.962 34.2074 103.953 34.2638 103.968C35.689 104.358 36.9044 104.138 37.6872 103.349C38.9623 102.063 38.8697 99.43 37.4569 96.797C37.4176 96.724 37.4175 96.6338 37.4565 96.5607C37.4953 96.4874 37.5674 96.4421 37.6457 96.4418C39.1587 96.4347 40.4078 95.8444 41.1633 94.7797C42.5554 92.8178 42.0097 89.6537 39.8361 87.0854C39.7877 87.0284 39.7683 86.9493 39.784 86.8738C39.7998 86.7986 39.8486 86.7361 39.915 86.7068C40.8269 86.3044 41.5275 85.6513 41.941 84.8182C42.7679 83.1521 42.3943 80.9822 40.9417 79.0132C40.8953 78.9504 40.8817 78.8666 40.9056 78.7902C40.9294 78.714 40.9874 78.6561 41.0596 78.6364C42.3311 78.2901 43.2798 77.5494 43.8034 76.4946C44.4889 75.1134 44.3424 73.3385 43.4017 71.6246C43.3413 71.5146 43.373 71.3723 43.4735 71.3039C45.0353 70.2422 45.9161 68.7344 45.8901 67.1681C45.8703 65.9715 45.3391 64.8454 44.3541 63.9119C44.2981 63.8589 44.271 63.7788 44.282 63.6993C44.293 63.6199 44.3406 63.5518 44.4085 63.5185C46.5338 62.4812 47.7838 60.734 47.7524 58.8448C47.7367 57.8996 47.3894 56.9734 46.7481 56.1666C46.7014 56.1077 46.6843 56.0283 46.7023 55.9534C46.7201 55.8785 46.7708 55.8178 46.838 55.7907C49.8583 54.575 51.6819 52.0283 51.2728 49.5972C51.0508 48.2779 50.1886 47.1377 48.8452 46.3869C48.7758 46.3481 48.7308 46.2723 48.7271 46.1878C48.7234 46.1037 48.7617 46.0236 48.8273 45.9777C51.1981 44.3301 52.3939 42.0326 51.8027 40.2611C51.4398 39.1736 50.451 38.3793 49.0184 38.025C48.9613 38.0108 48.9119 37.9726 48.8811 37.919C48.8502 37.8654 48.8405 37.8007 48.8541 37.7391C49.3007 35.7236 48.9202 33.8411 47.8101 32.5752C45.7988 30.2805 41.9744 30.596 39.1034 33.2934C39.0346 33.3581 38.9354 33.3698 38.8555 33.3233C38.5295 33.1344 38.1834 32.9915 37.8266 32.8987C35.879 32.3922 33.7493 33.4148 32.2674 35.5695C32.2225 35.6348 32.1493 35.6678 32.0742 35.6644C31.999 35.658 31.932 35.6105 31.8969 35.5381C31.1891 34.0809 30.0856 33.0925 28.7897 32.7555C26.5935 32.183 24.2287 33.5282 22.7659 36.1821C22.7311 36.2455 22.6709 36.2877 22.6032 36.2964C22.5358 36.3037 22.4678 36.2791 22.4201 36.2261C21.8012 35.5388 21.0741 35.0825 20.2589 34.8702C18.8406 34.5005 17.3284 34.9263 16.0036 36.0696C14.6625 37.227 13.6751 38.9767 13.2233 40.9959C13.0958 41.5662 13.0146 42.1531 12.9819 42.7409C12.978 42.8118 12.9446 42.8771 12.8911 42.9187C12.8375 42.9603 12.7696 42.9729 12.7059 42.9553L12.657 42.9406C12.6276 42.9319 12.598 42.923 12.5681 42.915C9.61654 42.1472 6.6355 44.1119 5.92298 47.2963C5.47377 49.3044 6.00881 51.384 7.35416 52.8598C7.41442 52.926 7.43328 53.0237 7.40273 53.1103C7.37203 53.1968 7.29733 53.256 7.21168 53.2619C4.78866 53.4273 2.77773 55.2502 2.20755 57.7985C1.99778 58.736 2.00036 59.6843 2.21497 60.6175C2.2321 60.6924 2.2144 60.7719 2.16743 60.8301C1.58185 61.5547 1.1786 62.3977 0.968829 63.3349C0.398651 65.8831 1.41733 68.4951 3.50367 69.8343C3.57749 69.8818 3.61889 69.9711 3.60963 70.0632C3.60034 70.1554 3.5421 70.233 3.46054 70.2623C1.63925 70.9136 0.283577 72.5012 -0.165805 74.509C-0.878183 77.6934 0.943539 80.9095 3.8952 81.6779C3.92617 81.6862 3.95704 81.693 3.98788 81.6998L4.03443 81.7103C4.09896 81.7251 4.15381 81.7703 4.18394 81.8338C4.21407 81.897 4.21608 81.9715 4.18966 82.0368C3.97004 82.5766 3.79415 83.1392 3.6666 83.7085C2.73888 87.8551 4.38555 91.8538 7.33721 92.6225C8.15297 92.8351 8.99247 92.7867 9.83376 92.4792C9.89857 92.4549 9.96943 92.4657 10.0264 92.5066C10.0831 92.5476 10.1188 92.6148 10.1231 92.6884C10.3024 95.7696 11.8377 98.1305 14.0344 98.7026C15.3304 99.0406 16.7303 98.7035 17.9762 97.7549C18.038 97.7084 18.1178 97.6995 18.1872 97.7299C18.2569 97.7614 18.3067 97.8292 18.319 97.9096C18.7265 100.556 20.1893 102.515 22.1367 103.022C22.4939 103.116 22.8623 103.157 23.2319 103.15H23.2363L23.2363 103.15Z" fill="black"/>
<path d="M47.3504 48.5548C47.3217 48.5548 47.2927 48.5459 47.2671 48.5274C47.1988 48.4778 47.1806 48.3777 47.2266 48.3037C48.3912 46.4373 48.2053 44.6017 46.6741 42.8478C46.5712 42.7298 46.5325 42.6858 46.5145 42.6325C46.4861 42.549 46.5259 42.4562 46.6033 42.4257C46.6754 42.3964 46.7547 42.4325 46.7882 42.5049C46.8049 42.5292 46.8418 42.5699 46.8916 42.6269C48.5313 44.505 48.7273 46.4756 47.4745 48.4837C47.4456 48.5299 47.3983 48.5548 47.3504 48.5548Z" fill="black"/>
<path d="M33.0975 38.4282C33.0307 38.4282 32.9699 38.3795 32.9528 38.3062C32.5801 36.7023 31.8277 35.3821 31.8201 35.3692C31.7767 35.2934 31.7983 35.1942 31.8684 35.1474C31.9384 35.0996 32.0305 35.1239 32.074 35.1991C32.1059 35.2546 32.8587 36.5757 33.2426 38.2279C33.2626 38.3142 33.2141 38.4017 33.134 38.4233C33.1218 38.4267 33.1095 38.4282 33.0975 38.4282Z" fill="black"/>
<path d="M30.928 39.9995C30.8992 39.9995 30.8703 39.9905 30.8447 39.9721C30.7763 39.9225 30.7582 39.8224 30.8042 39.7484C30.8181 39.7259 32.2398 37.5138 35.4422 38.1229C35.5232 38.1383 35.5775 38.2218 35.5632 38.3096C35.549 38.3968 35.4728 38.4547 35.3902 38.4402C32.3764 37.866 31.0647 39.9077 31.052 39.9283C31.0231 39.9745 30.9759 39.9995 30.928 39.9995Z" fill="black"/>
<path d="M18.3287 53.9535C18.324 53.9535 18.3193 53.9532 18.3145 53.9529C18.2323 53.9443 18.1721 53.8657 18.18 53.7769C18.4378 50.8559 19.7221 49.2009 20.7541 48.3268C21.8741 47.3779 22.9212 47.1259 22.9652 47.1157C23.0454 47.0966 23.125 47.1518 23.1427 47.239C23.1601 47.3258 23.109 47.4118 23.0285 47.4306C22.8621 47.4697 18.9503 48.451 18.4773 53.8077C18.47 53.8909 18.4049 53.9535 18.3288 53.9535H18.3287Z" fill="black"/>
<path d="M13.3601 52.6598C13.3387 52.6598 13.317 52.6548 13.2963 52.6444C13.2218 52.6062 13.1899 52.5101 13.2254 52.4296C13.2435 52.388 15.104 48.2824 19.4475 50.0521C19.5247 50.0835 19.5637 50.1763 19.5346 50.2598C19.5053 50.3429 19.4189 50.3848 19.3421 50.3534C17.6243 49.654 16.1189 49.8137 14.8679 50.8282C13.9327 51.5867 13.4995 52.5578 13.4952 52.5677C13.4698 52.6259 13.4161 52.6598 13.3602 52.6598H13.3601Z" fill="black"/>
<path d="M45.5517 58.031C45.5265 58.031 45.5008 58.0239 45.4772 58.0094C45.4058 57.965 45.3813 57.8664 45.4225 57.7894C46.8497 55.1207 44.701 53.7161 44.6089 53.6576C44.5379 53.6126 44.514 53.514 44.5556 53.4373C44.5976 53.3606 44.689 53.3353 44.7598 53.3794C44.785 53.3954 47.2587 55.0009 45.6813 57.9502C45.6536 58.002 45.6035 58.031 45.5517 58.031Z" fill="black"/>
<path d="M73.8939 59.1395C73.8939 59.1395 80.4194 74.5125 74.9606 80.4269C69.5018 86.3412 51.2732 89.3393 51.2732 89.3393L38.8062 89.6225C38.8062 89.6225 37.6712 89.0238 38.4023 87.7618L36.4283 86.1844C36.4283 86.1844 35.6765 84.0549 37.2325 84.3704L38.6947 84.5281L37.6712 83.5028C37.6712 83.5028 36.7245 81.5705 38.9872 82.0831L40.3032 82.4775C40.3032 82.4775 39.6086 80.624 40.9611 80.9395L44.5534 82.5169C44.5534 82.5169 43.3737 81.255 43.7393 80.6634C44.1048 80.0719 44.6207 80.1014 45.6401 80.7818L48.2003 81.8465L58.5805 77.4823L66.1387 74.012L63.0572 63.6859L73.8939 59.1395H73.8939Z" fill="#E3C3A5"/>
<path d="M38.8062 89.8592C38.7727 89.8592 38.7399 89.8508 38.7098 89.8352C38.6868 89.8231 38.1455 89.5314 37.9829 88.9189C37.8919 88.5754 37.9367 88.2094 38.116 87.8276L36.2979 86.3747C36.2642 86.3479 36.2383 86.3112 36.2235 86.2687C36.1781 86.1402 35.7928 84.9957 36.2442 84.4134C36.4589 84.1358 36.8048 84.0428 37.2731 84.138L38.0679 84.2233L37.522 83.6764C37.5039 83.6582 37.4889 83.637 37.4774 83.6136C37.4314 83.5199 37.0393 82.6816 37.4174 82.1403C37.6831 81.7601 38.2117 81.6665 39.0323 81.8516L39.9736 82.1335C39.8912 81.7635 39.8415 81.2472 40.0892 80.9301C40.2799 80.6852 40.5891 80.6103 41.0076 80.7083C41.02 80.7114 41.0322 80.7154 41.0439 80.7206L43.8196 81.9394C43.5345 81.4887 43.3084 80.9345 43.5569 80.5324C44.0989 79.6552 44.9245 80.0286 45.7381 80.569L48.1999 81.5928L58.5009 77.2617L65.8686 73.8789L62.8485 63.7585C62.8129 63.6392 62.8696 63.5111 62.9777 63.4655L73.8144 58.919C73.9222 58.8743 74.0448 58.9273 74.0935 59.041C74.1097 59.0798 75.7453 62.9596 76.6884 67.5138C77.9652 73.6793 77.4362 78.0803 75.116 80.594C72.8243 83.0769 68.1173 85.3432 61.1257 87.3298C55.9351 88.8049 51.3519 89.5659 51.3064 89.5733L38.8108 89.8592H38.8063L38.8062 89.8592ZM36.6124 86.0373L38.5328 87.5719C38.6248 87.6452 38.6489 87.7826 38.5884 87.8874C38.3968 88.218 38.3347 88.5202 38.4038 88.7852C38.4895 89.1136 38.7571 89.3163 38.8613 89.3847L51.2686 89.1028C51.4217 89.0757 69.4598 86.0512 74.8052 80.26C76.3228 78.6158 77.8073 75.0875 76.2603 67.617C75.4495 63.7018 74.1229 60.2937 73.7783 59.4418L63.3293 63.8256L66.3475 73.9396C66.3822 74.056 66.329 74.1817 66.2247 74.2298L58.6665 77.7001L48.28 82.0673C48.2289 82.0889 48.1725 82.0888 48.1214 82.0676L45.5613 81.0028C45.5485 80.9973 45.5364 80.9908 45.5248 80.9831C44.3996 80.232 44.133 80.4532 43.9219 80.7948C43.7414 81.0869 44.2841 81.895 44.7079 82.3492C44.782 82.4286 44.794 82.5534 44.7364 82.6477C44.6785 82.7414 44.5676 82.7793 44.4707 82.7361L40.8968 81.1667C40.7293 81.1297 40.5186 81.1143 40.4249 81.2348C40.2466 81.4628 40.403 82.111 40.5067 82.3892C40.5378 82.4727 40.5223 82.5682 40.4667 82.6354C40.4109 82.7025 40.3248 82.7296 40.2445 82.7056L38.9285 82.3113C38.3319 82.1769 37.9147 82.2161 37.7681 82.4246C37.599 82.6659 37.7611 83.1597 37.8496 83.3588L38.844 84.3548C38.9131 84.4241 38.9334 84.5329 38.8947 84.6256C38.8559 84.718 38.7675 84.7747 38.673 84.7636L37.2108 84.6059C36.8916 84.5421 36.6866 84.5803 36.581 84.7165C36.3546 85.0079 36.5155 85.7282 36.6124 86.0373V86.0373Z" fill="black"/>
<path d="M60.6297 21.343C59.1336 20.8896 57.3172 21.5792 55.9562 22.9541L55.6681 19.1457C55.6681 19.1457 53.3094 18.1874 51.2413 15.4122C47.7499 19.8428 37.9326 19.3535 37.9326 19.3535L38.7956 30.7632C39.1981 36.0848 43.5738 40.2117 48.4992 39.6876C52.9256 39.2166 56.2861 35.2861 56.4644 30.5927C58.4777 30.9731 60.9458 29.4626 62.1222 27.0625C63.3638 24.5296 62.6956 21.9689 60.6297 21.343Z" fill="#E3C3A5"/>
<path d="M47.6501 39.9696C45.5719 39.9696 43.5614 39.1769 41.9107 37.6906C39.9936 35.9641 38.7784 33.4464 38.5769 30.7824L37.7139 19.3726C37.7088 19.3048 37.7309 19.2379 37.7748 19.1893C37.8186 19.1403 37.8793 19.1122 37.9427 19.1172C38.0389 19.1206 47.6932 19.5491 51.0742 15.2593C51.1166 15.2057 51.178 15.1761 51.2443 15.1758C51.3097 15.1767 51.3712 15.2091 51.4122 15.2642C53.4147 17.951 55.7225 18.915 55.7456 18.9246C55.8247 18.9566 55.8798 19.0355 55.8867 19.1267L56.1394 22.4661C57.5452 21.2198 59.2905 20.6899 60.6891 21.1154C61.6069 21.3933 62.3146 22.0548 62.6819 22.9781C63.1631 24.1883 63.0298 25.7173 62.3162 27.173C61.1435 29.5656 58.7557 31.1095 56.6705 30.8633C56.3732 35.5839 52.9102 39.4559 48.5208 39.923C48.2298 39.9541 47.9392 39.9695 47.6501 39.9695V39.9696ZM38.1711 19.5981L39.0141 30.7442C39.206 33.2822 40.3644 35.6816 42.1917 37.3271C43.9811 38.9387 46.215 39.6923 48.4777 39.4523C52.7311 38.9994 56.0705 35.1868 56.2452 30.5834C56.2478 30.515 56.2776 30.4515 56.3267 30.4087C56.376 30.3659 56.4404 30.348 56.5022 30.36C58.4287 30.722 60.8133 29.2268 61.9283 26.9519C62.5797 25.6231 62.7074 24.2429 62.2787 23.1649C61.9602 22.3642 61.3696 21.813 60.5705 21.5709C59.2037 21.1577 57.4517 21.7677 56.1062 23.127C56.0446 23.1886 55.9559 23.2077 55.8773 23.1748C55.7987 23.1421 55.7444 23.0639 55.7376 22.9733L55.4604 19.3101C54.9442 19.0716 53.0194 18.0771 51.2345 15.7766C49.7165 17.5423 47.0517 18.7198 43.3076 19.2786C40.9575 19.6295 38.8703 19.6157 38.1711 19.5981Z" fill="black"/>
<path d="M57.5403 28.2036C57.5127 28.2036 57.4847 28.1981 57.4576 28.1861C57.3453 28.1368 57.2915 27.9988 57.3373 27.8777C58.5919 24.5589 60.5291 24.1902 60.611 24.1763C60.7316 24.1538 60.843 24.2435 60.8621 24.3726C60.8811 24.5013 60.8002 24.6221 60.6812 24.6434C60.6628 24.6467 58.8975 25.0041 57.7435 28.0564C57.7088 28.1482 57.6268 28.2036 57.5403 28.2036Z" fill="black"/>
<path d="M48.2611 21.5266C48.7726 21.4339 49.6042 21.4289 50.3171 22.0996C50.4766 22.2498 50.6913 22.0228 50.6084 21.7899C50.3878 21.1705 50.0469 20.4948 49.5792 20.3429C49.0193 20.161 48.3323 20.2434 47.9702 20.6181C47.658 20.9411 47.869 21.5976 48.2611 21.5266L48.2611 21.5266Z" fill="black"/>
<path d="M41.7901 22.0963C41.2715 22.0943 40.4501 22.2348 39.8475 23.0213C39.7126 23.1974 39.4666 23.011 39.5135 22.7666C39.6381 22.1168 39.8729 21.3905 40.3116 21.1588C40.8367 20.8814 41.527 20.8425 41.9407 21.1489C42.2973 21.4131 42.1877 22.0979 41.7902 22.0963L41.7901 22.0963Z" fill="black"/>
<path d="M45.2944 32.3284C45.2839 32.3284 45.2731 32.3274 45.2624 32.3259C43.2959 32.0153 42.8972 30.3316 42.8218 29.8233C42.7277 29.188 42.8144 28.4473 43.1621 28.2606C43.5752 28.0382 44.3328 28.5274 44.834 28.9178L44.5662 25.3766C44.5563 25.2466 44.6463 25.1323 44.7669 25.1218C44.8879 25.1092 44.9934 25.2081 45.0034 25.3384L45.3115 29.4129C45.3187 29.5075 45.2726 29.5978 45.1945 29.6418C45.1168 29.6856 45.0215 29.6751 44.9534 29.6147C44.2854 29.0207 43.5401 28.5844 43.3576 28.6842C43.2718 28.7551 43.1388 29.3059 43.3022 29.9942C43.4444 30.5932 43.8965 31.632 45.3258 31.8576C45.4458 31.8767 45.5287 31.9968 45.5111 32.1259C45.4951 32.2436 45.4015 32.3283 45.2944 32.3283L45.2944 32.3284Z" fill="black"/>
<path d="M46.6138 35.6789C46.5179 35.6789 46.4298 35.6105 46.4028 35.506C46.3701 35.38 46.4384 35.2494 46.555 35.2143C48.3069 34.6862 48.7186 32.6858 48.8103 31.5758C47.8788 32.8352 46.9057 33.2887 46.2136 33.4403C45.3342 33.6335 44.7072 33.3981 44.6809 33.3876C44.5668 33.3439 44.5073 33.2083 44.548 33.0854C44.5888 32.9625 44.7139 32.8981 44.8276 32.9418C44.9171 32.9754 47.038 33.7293 48.8667 30.6798C48.9181 30.5942 49.0143 30.5529 49.1066 30.5794C49.1982 30.6053 49.2641 30.6918 49.2698 30.7938C49.2721 30.8342 49.4648 34.8285 46.673 35.6702C46.6533 35.6761 46.6334 35.6789 46.6138 35.6789Z" fill="black"/>
<path d="M48.8722 25.8455C47.8579 25.8455 47.1216 24.9129 47.0894 24.8714C47.0118 24.7716 47.0239 24.6224 47.1164 24.5386C47.2093 24.4542 47.3475 24.4674 47.4254 24.5673C47.4322 24.5759 48.1176 25.4416 48.9746 25.368C49.5596 25.3196 50.1086 24.8486 50.6066 23.9683C50.6697 23.8568 50.8045 23.822 50.908 23.8895C51.0114 23.9576 51.0441 24.1033 50.981 24.2148C50.4045 25.234 49.7397 25.7808 49.0049 25.8403C48.9602 25.8437 48.9159 25.8455 48.8722 25.8455Z" fill="black"/>
<path d="M41.3007 26.5431C41.2524 26.5431 41.2037 26.5406 41.1549 26.5357C40.6426 26.4842 40.2035 26.1669 39.8495 25.592C39.7824 25.4833 39.8098 25.3363 39.9107 25.2639C40.0112 25.1912 40.1476 25.2211 40.2147 25.3301C40.4917 25.7799 40.8217 26.027 41.1954 26.0646C41.9859 26.1398 42.7526 25.3052 42.7601 25.2965C42.8447 25.2035 42.9837 25.201 43.0703 25.2922C43.1571 25.3831 43.159 25.5331 43.0746 25.6268C43.0391 25.6659 42.2369 26.543 41.3007 26.543L41.3007 26.5431Z" fill="black"/>
<path d="M5.55579 48.3936V42.9896C5.55579 42.9896 6.2866 41.0441 7.50512 40.8337C7.50512 40.8337 8.08999 39.2619 9.89335 39.6009C9.89335 39.6009 10.4126 37.7167 12.1841 38.0296C12.1841 38.0296 12.7645 37.0533 14.4239 37.5501C16.0833 38.047 19.0076 40.5708 19.0076 40.5708C19.0076 40.5708 18.7639 42.306 17.3017 41.9905C17.3017 41.9905 18.4715 43.7964 17.3017 44.2342C16.132 44.6721 14.9956 43.8308 14.9956 43.8308C14.9956 43.8308 16.1988 46.1444 14.9956 46.565C13.7925 46.9857 12.2817 46.7228 12.2817 46.7228C12.2817 46.7228 13.7925 47.8035 12.0379 48.3936C10.2833 48.9837 6.77402 46.5124 6.77402 46.5124L5.55579 48.3936Z" fill="#E3C3A5"/>
<path d="M11.4292 48.7197C9.78165 48.72 7.49342 47.2741 6.83385 46.8333L5.73549 48.5293C5.68067 48.6137 5.58057 48.6504 5.48987 48.6196C5.39849 48.5884 5.33636 48.4969 5.33636 48.3937V42.9895C5.33636 42.959 5.3418 42.9288 5.35237 42.9008C5.3832 42.8185 6.1013 40.9423 7.35659 40.6243C7.54379 40.2494 8.22819 39.1476 9.75177 39.3393C9.94925 38.8445 10.6037 37.5887 12.0921 37.7766C12.3292 37.4984 13.0399 36.8909 14.4826 37.3222C16.1657 37.826 19.0237 40.2817 19.1446 40.3858C19.2057 40.4388 19.2362 40.5226 19.2245 40.6061C19.2192 40.6434 19.0888 41.5276 18.4755 41.9913C18.2515 42.1607 17.9953 42.2519 17.7105 42.2642C17.9115 42.6734 18.1451 43.3071 17.9912 43.8195C17.9009 44.1196 17.6875 44.3401 17.3736 44.4578C16.6472 44.7299 15.9435 44.5567 15.4681 44.3546C15.6683 44.8888 15.8662 45.6428 15.6671 46.1915C15.5617 46.4817 15.353 46.6887 15.0633 46.7901C14.3145 47.0516 13.4657 47.0615 12.8968 47.0267C13.0322 47.2242 13.1333 47.4654 13.099 47.7245C13.0476 48.1133 12.7126 48.4146 12.1032 48.6195C11.897 48.6888 11.6698 48.7196 11.4292 48.7196L11.4292 48.7197ZM6.77419 46.2759C6.8153 46.2759 6.85702 46.2883 6.89385 46.3144C6.92812 46.3385 10.336 48.7181 11.9727 48.1679C12.3942 48.0259 12.6401 47.8451 12.6648 47.658C12.6992 47.3974 12.3399 47.0483 12.1604 46.9198C12.0744 46.8582 12.0399 46.7402 12.0774 46.6367C12.1149 46.5326 12.2142 46.47 12.3165 46.4891C12.3313 46.4916 13.7912 46.7378 14.928 46.3397C15.0954 46.2815 15.2003 46.1795 15.2586 46.019C15.4688 45.4398 15.002 44.3266 14.8044 43.9468C14.7547 43.8509 14.7727 43.7308 14.8476 43.6565C14.9227 43.5829 15.0355 43.5743 15.1195 43.6356C15.1298 43.6433 16.1817 44.4028 17.23 44.0106C17.4137 43.9419 17.5263 43.8319 17.5738 43.6741C17.7167 43.1997 17.2961 42.3956 17.1219 42.1257C17.0708 42.0465 17.0693 41.9418 17.1183 41.8607C17.1674 41.78 17.2574 41.7393 17.3448 41.7584C17.6922 41.833 17.987 41.7818 18.2216 41.6056C18.5616 41.3496 18.7097 40.8896 18.764 40.665C18.2263 40.2128 15.7872 38.2037 14.3653 37.7782C12.8989 37.3383 12.3884 38.1261 12.3675 38.1593C12.3195 38.2364 12.2331 38.2761 12.1487 38.2632C10.5864 37.985 10.1225 39.5994 10.1035 39.6684C10.072 39.7836 9.96603 39.8538 9.85565 39.8341C8.25839 39.5322 7.73007 40.8659 7.70834 40.9229C7.67935 40.999 7.61524 41.0545 7.53972 41.0674C6.54976 41.2381 5.88521 42.7681 5.77512 43.0379V47.642L6.5943 46.377C6.63686 46.3114 6.70496 46.276 6.77422 46.276L6.77419 46.2759Z" fill="black"/>
<path d="M17.3016 42.2271C17.2615 42.2271 17.2211 42.2154 17.1847 42.1904L13.6754 39.8009C13.573 39.7312 13.5423 39.5852 13.607 39.4746C13.6717 39.364 13.8074 39.3307 13.9096 39.401L17.4189 41.7905C17.5213 41.8601 17.552 42.0062 17.4873 42.1167C17.4456 42.1879 17.3743 42.2271 17.3016 42.2271Z" fill="black"/>
<path d="M15.2538 44.2265C15.2111 44.2265 15.1681 44.2132 15.1303 44.1852L10.7932 40.9909C10.6931 40.9173 10.6674 40.77 10.7356 40.6622C10.804 40.554 10.9408 40.526 11.0405 40.6003L15.3776 43.7945C15.4777 43.8682 15.5034 44.0154 15.4352 44.1233C15.3926 44.1905 15.3238 44.2265 15.2538 44.2265Z" fill="black"/>
<path d="M12.2815 46.9592C12.2351 46.9592 12.1882 46.9435 12.1484 46.9106L8.83407 44.1778C8.73782 44.0986 8.71942 43.9502 8.7931 43.8463C8.86649 43.7422 9.00399 43.7218 9.10053 43.802L12.4149 46.5347C12.5111 46.6139 12.5295 46.7624 12.4558 46.8662C12.4127 46.9272 12.3475 46.9592 12.2815 46.9592Z" fill="black"/>
<path d="M63.0573 63.9226C62.9773 63.9226 62.9002 63.8752 62.8615 63.7929L59.5582 56.7673C59.5479 56.7454 59.5408 56.722 59.5372 56.6977C59.5079 56.4993 58.8368 51.8178 60.4855 49.9203C60.5686 49.8251 60.7074 49.8202 60.7955 49.9095C60.8839 49.9989 60.8884 50.1486 60.8056 50.2438C59.3727 51.893 59.9063 56.152 59.9654 56.5873L63.2528 63.5791C63.3076 63.6956 63.2643 63.8379 63.1564 63.8971C63.1245 63.9143 63.0907 63.9227 63.0573 63.9227L63.0573 63.9226Z" fill="black"/>
<path d="M37.2974 66.6614C34.6787 65.0923 31.8048 68.2717 33.3365 71.0489C33.3577 71.0873 33.3794 71.1259 33.4017 71.1647C35.6278 75.042 55.1451 78.8938 62.532 74.9631C69.9189 71.0324 74.1564 59.0183 74.0102 57.0924C74.0102 57.0924 74.7162 55.5214 73.9645 54.205C74.2782 53.037 73.864 51.232 72.1093 51.4801C69.4774 50.2765 72.4749 53.6943 70.6715 56.5336C70.8909 58.4265 66.7127 66.9971 61.8009 69.2055C56.8892 71.4139 45.5611 71.9371 41.5733 69.3491C39.7188 68.1455 38.3325 67.2816 37.2975 66.6614H37.2974Z" fill="#D797CA"/>
<path d="M53.5077 76.8503C51.1985 76.8503 48.6608 76.6445 45.9998 76.2261C40.5555 75.3699 34.491 73.5115 33.2151 71.2893L33.1478 71.1694C32.3995 69.8129 32.5766 68.2016 33.599 67.0651C34.6255 65.9245 36.1192 65.6845 37.4039 66.4547C38.5716 67.1544 40.0123 68.0599 41.6864 69.1465C45.5745 71.6694 56.7689 71.2113 61.7165 68.9872C66.589 66.7964 70.6573 58.3193 70.4539 56.5629C70.4472 56.5056 70.4603 56.4477 70.4906 56.3999C71.3321 55.0748 71.0649 53.6243 70.8697 52.5651C70.7422 51.8729 70.6501 51.3725 70.9399 51.118C71.1624 50.9233 71.5121 50.9572 72.1405 51.2376C73.0101 51.1347 73.5147 51.5117 73.785 51.8516C74.2975 52.4955 74.3626 53.4595 74.2 54.1703C74.8581 55.4288 74.3554 56.8337 74.232 57.1378C74.2891 59.2981 70.0117 71.2467 62.6289 75.1755C60.5502 76.2815 57.3453 76.8503 53.5077 76.8503ZM35.8651 66.4806C35.0552 66.4806 34.3563 66.903 33.9139 67.3947C33.2453 68.1378 32.7424 69.5088 33.525 70.9278L33.5882 71.0403C35.7295 74.7697 55.124 78.6409 62.435 74.7509C69.7351 70.8662 73.9372 59.0301 73.7915 57.1119C73.7884 57.07 73.7958 57.0275 73.8127 56.9896C73.8191 56.9751 74.4555 55.516 73.7777 54.3292C73.7453 54.2722 73.7366 54.2032 73.7539 54.1391C73.9086 53.5627 73.8804 52.6976 73.4524 52.16C73.1527 51.7835 72.7099 51.6334 72.1379 51.7145C72.0983 51.7209 72.0596 51.7141 72.0238 51.6978C71.3411 51.3854 71.2214 51.4812 71.2169 51.4849C71.1318 51.5598 71.233 52.1091 71.3 52.473C71.4953 53.5328 71.7887 55.1263 70.8969 56.5958C71.0227 58.905 66.7245 67.2483 61.8853 69.4241C56.8529 71.6861 45.4398 72.135 41.4602 69.5519C39.7906 68.4684 38.3541 67.5654 37.1909 66.8682C36.7327 66.5937 36.2841 66.4806 35.8651 66.4806Z" fill="black"/>
<path d="M61.8942 12.0601C61.8187 12.0601 61.7453 12.0179 61.7045 11.9424C61.6919 11.9193 60.4253 9.61141 58.395 9.16315C57.2995 8.92192 56.1673 9.26113 55.031 10.1731C54.9336 10.2513 54.7962 10.2294 54.7241 10.1244C54.6517 10.0196 54.672 9.87147 54.769 9.79352C56.0109 8.79716 57.261 8.42962 58.4858 8.7001C60.7096 9.19303 62.0287 11.6023 62.0837 11.7046C62.1445 11.8177 62.109 11.9625 62.0043 12.0281C61.9696 12.0497 61.9317 12.0601 61.8942 12.0601L61.8942 12.0601Z" fill="black"/>
<path d="M57.5404 40.8993C57.5404 40.8993 58.653 39.8025 60.9924 40.0886C63.3319 40.3747 65.379 42.7934 64.8916 44.3183C64.4042 45.8431 63.0261 44.7389 63.0572 44.3183C63.0883 43.8977 62.0647 45.6328 61.6261 44.6864C61.1874 43.7399 60.895 43.0038 60.895 43.0038C60.895 43.0038 59.206 45.3147 57.5404 40.8993Z" fill="#D797CA"/>
<path d="M64.0686 45.335C63.979 45.335 63.9008 45.323 63.8414 45.3097C63.4603 45.2238 63.0892 44.9317 62.9251 44.6316C62.9247 44.6322 62.9242 44.6325 62.924 44.6329C62.6462 44.9049 62.2667 45.2801 61.8784 45.1994C61.7476 45.1733 61.5637 45.0811 61.4299 44.7922C61.1642 44.2191 60.9502 43.7182 60.8228 43.4122C60.5719 43.6371 60.144 43.9123 59.6064 43.83C58.7635 43.7015 58.0001 42.7452 57.3373 40.9882C57.3027 40.8967 57.3247 40.7913 57.3925 40.7244C57.4411 40.6767 58.6055 39.5593 61.0172 39.8535C62.6925 40.0584 64.0889 41.2553 64.7294 42.3505C65.1561 43.0798 65.2873 43.8063 65.099 44.3953C64.8474 45.1825 64.3872 45.335 64.0686 45.335H64.0686ZM63.0296 44.0124C63.0649 44.0124 63.1007 44.0216 63.1384 44.0416C63.1846 44.066 63.2901 44.1436 63.2758 44.3371C63.2886 44.4391 63.6095 44.8146 64.0054 44.859C64.3157 44.8947 64.5422 44.6858 64.6843 44.2413C64.8283 43.7902 64.7127 43.2086 64.3584 42.6029C63.7737 41.6034 62.4985 40.5109 60.9677 40.3236C59.1719 40.1027 58.1397 40.7266 57.8074 40.9758C58.5296 42.8151 59.2131 43.2902 59.6646 43.361C60.2689 43.4575 60.7188 42.8622 60.7232 42.8564C60.7713 42.7917 60.8479 42.7575 60.9243 42.7695C61.0007 42.7806 61.0662 42.8339 61.0966 42.9106C61.0995 42.9177 61.3919 43.6522 61.8223 44.5808C61.865 44.6729 61.9111 44.7246 61.9591 44.7342C62.1301 44.7709 62.4553 44.4529 62.6291 44.2826C62.788 44.127 62.9048 44.0124 63.0296 44.0124Z" fill="black"/>
<path d="M34.413 24.0176C20.0457 23.8138 20.1989 23.6486 20.3878 39.1481C20.5768 23.6486 20.7299 23.8138 6.36261 24.0176C20.7299 24.2214 20.5768 24.3866 20.3878 8.88708C20.1989 24.3866 20.0457 24.2214 34.413 24.0176Z" fill="#F9EA31"/>
<path d="M20.3879 39.3849C20.2679 39.3849 20.1701 39.2807 20.1685 39.1513L20.1625 38.6596C20.1284 35.8868 20.1005 33.6264 20.169 31.7825C20.0582 28.79 19.6916 26.9541 18.6786 25.8613C17.6657 24.7688 15.964 24.3732 13.1902 24.2537C11.4809 24.3276 9.38591 24.2977 6.81596 24.2608L6.35973 24.2543C6.23964 24.2525 6.14325 24.1471 6.14325 24.0177C6.14325 23.8883 6.23964 23.7829 6.35973 23.7811L6.81508 23.7746C9.38545 23.7376 11.4812 23.7081 13.1906 23.7814C15.9643 23.6619 17.6658 23.2666 18.6788 22.1738C19.6916 21.081 20.0583 19.2454 20.169 16.2529C20.1006 14.409 20.1284 12.1485 20.1625 9.37575L20.1685 8.88405C20.1701 8.75464 20.2679 8.65051 20.3879 8.65051C20.5078 8.65051 20.6056 8.75464 20.6072 8.88405L20.6132 9.37546C20.6473 12.1483 20.6752 14.4087 20.6068 16.253C20.7174 19.2454 21.0841 21.081 22.097 22.1738C23.1098 23.2666 24.8119 23.6619 27.5854 23.7814C29.2954 23.7084 31.3904 23.738 33.9605 23.7747L34.4158 23.7811C34.5359 23.783 34.6323 23.8883 34.6323 24.0177C34.6323 24.1471 34.5359 24.2525 34.4158 24.2543L33.9596 24.2608C31.3898 24.2978 29.2942 24.3277 27.585 24.2537C24.8111 24.3732 23.1099 24.7685 22.0969 25.8613C21.084 26.9541 20.7174 28.7894 20.6068 31.7825C20.6751 33.6267 20.6473 35.8872 20.6132 38.66L20.6072 39.1514C20.6056 39.2808 20.5078 39.3849 20.3878 39.3849L20.3879 39.3849ZM15.7005 24.0177C17.1912 24.2675 18.2436 24.7226 18.9889 25.5267C19.7342 26.3308 20.1561 27.4661 20.3879 29.0747C20.6196 27.4665 21.0414 26.3309 21.7868 25.5267C22.532 24.7229 23.5848 24.2675 25.0753 24.0177C23.5845 23.7675 22.532 23.3125 21.7868 22.5084C21.0414 21.7043 20.6196 20.569 20.3879 18.9607C20.1561 20.5689 19.7343 21.7043 18.9889 22.5084C18.2436 23.3125 17.1911 23.7676 15.7005 24.0177Z" fill="black"/>
<path d="M18.0198 11.8575C14.4965 12.4227 14.0718 12.8808 13.5479 16.6818C13.024 12.8808 12.5993 12.4227 9.07593 11.8575C12.5993 11.2923 13.024 10.8341 13.5479 7.03308C14.0718 10.8341 14.4965 11.2923 18.0198 11.8575Z" fill="#F9EA31"/>
<path d="M13.5479 16.9183C13.4392 16.9183 13.347 16.8323 13.331 16.7165C12.8227 13.029 12.4621 12.6399 9.04369 12.0915C8.93617 12.0742 8.85663 11.9744 8.85663 11.8573C8.85663 11.7403 8.93617 11.6404 9.04369 11.6232C12.4621 11.0751 12.8227 10.686 13.331 6.99817C13.347 6.88232 13.4392 6.79639 13.5479 6.79639C13.6566 6.79639 13.7488 6.88236 13.7648 6.99817C14.2731 10.686 14.6337 11.0751 18.0521 11.6232C18.1596 11.6404 18.2391 11.74 18.2391 11.8573C18.2391 11.9747 18.1596 12.0742 18.0521 12.0915C14.6337 12.6399 14.2731 13.029 13.7648 16.7165C13.7488 16.8324 13.6566 16.9183 13.5479 16.9183ZM10.3841 11.8573C12.4961 12.3188 13.1201 12.9923 13.5479 15.2706C13.9757 12.9923 14.5997 12.3188 16.7117 11.8573C14.5997 11.3961 13.9757 10.7226 13.5479 8.44398C13.1201 10.7226 12.4961 11.3961 10.3841 11.8573Z" fill="black"/>
</g>
</g>
<defs>
<clipPath id="clip0_101_5841">
<rect width="68" height="68" rx="6" fill="white"/>
</clipPath>
<clipPath id="clip1_101_5841">
<rect width="68" height="68" fill="white"/>
</clipPath>
<clipPath id="clip2_101_5841">
<rect width="97" height="105.961" fill="white" transform="translate(-6 3)"/>
</clipPath>
</defs>
</svg>
