<svg width="68" height="68" viewBox="0 0 68 68" fill="none" xmlns="http://www.w3.org/2000/svg">
<g clip-path="url(#clip0_101_4751)">
<g clip-path="url(#clip1_101_4751)">
<rect width="68" height="68" rx="6" fill="#F4F2F7"/>
</g>
<g style="mix-blend-mode:color-burn" clip-path="url(#clip2_101_4751)">
<path d="M79.2075 27.8245C71.1774 18.7901 56.0338 21.3398 52.9665 29.8178C50.1389 37.6359 54.0319 40.1129 60.3374 41.2281C66.643 42.341 62.7744 45.8345 58.8171 49.5018C50.2965 57.3951 65.7019 61.9944 65.7019 61.9944C59.3143 55.9981 64.8851 51.427 71.5436 51.427C81.3405 51.427 89.1708 39.0305 79.2075 27.8245V27.8245ZM81.2317 40.1551C80.0731 41.1694 77.6961 40.1551 75.9227 37.8895C74.1471 35.6215 73.6499 32.9615 74.8085 31.9472C75.9671 30.933 78.3442 31.9472 80.1175 34.2128C81.8931 36.4808 82.3903 39.1409 81.2317 40.1551Z" fill="#CFE8FD"/>
<path d="M65.702 62.1704C65.687 62.1704 65.6717 62.1684 65.6568 62.1638C65.3096 62.0602 57.1445 59.5736 56.1746 55.0305C55.7826 53.194 56.6348 51.2894 58.7074 49.3692L58.8598 49.2279C61.3208 46.9482 63.8655 44.5908 63.4628 43.0927C63.2505 42.3024 62.1897 41.7333 60.31 41.4017C56.0618 40.6504 53.6698 39.3956 52.5539 37.3332C51.5521 35.482 51.6362 33.0031 52.811 29.7549C54.1306 26.1073 57.754 23.3388 62.5032 22.349C67.4252 21.3232 74.4293 22.1913 79.3288 27.7038C83.7829 32.7133 85.1318 38.5367 83.0297 43.6803C81.0931 48.4193 76.4773 51.603 71.5437 51.603C67.5277 51.603 64.1251 53.2685 63.2689 55.6532C62.5976 57.5232 63.4772 59.6704 65.8125 61.8627C65.8705 61.9171 65.8853 62.0067 65.8481 62.0787C65.8183 62.1362 65.7617 62.1704 65.702 62.1704L65.702 62.1704ZM66.2114 22.327C64.9209 22.327 63.6894 22.4607 62.5676 22.6946C57.9315 23.661 54.4003 26.3472 53.1219 29.8808C51.9851 33.024 51.8938 35.4046 52.8428 37.1583C53.9045 39.1205 56.2244 40.3221 60.3648 41.0545C62.4108 41.4154 63.5289 42.0507 63.783 42.9962C64.2432 44.7089 61.7348 47.0327 59.0791 49.493L58.9267 49.6343C56.9531 51.4625 56.1363 53.252 56.4993 54.9528C57.2647 58.5396 63.0267 60.8753 65.049 61.5913C62.4952 58.942 62.4837 56.8485 62.9577 55.5283C63.8617 53.0099 67.3923 51.2509 71.5436 51.2509C76.3463 51.2509 80.8393 48.1524 82.7239 43.5407C84.7709 38.5319 83.4449 32.8477 79.0861 27.945C75.3949 23.7921 70.4819 22.327 66.2114 22.327H66.2114ZM80.1094 40.7172C78.8184 40.7172 77.1309 39.7093 75.7945 38.0018C74.9186 36.8829 74.3175 35.6332 74.102 34.4824C73.8793 33.2938 74.0926 32.3453 74.7024 31.8116C75.93 30.7376 78.4166 31.7639 80.2457 34.1005C81.1216 35.2193 81.7226 36.4691 81.9382 37.6199C82.1609 38.8085 81.9476 39.757 81.3378 40.291C81.0072 40.5803 80.5852 40.7172 80.1094 40.7172ZM75.9531 31.7245C75.5486 31.7245 75.1927 31.8396 74.9146 32.0831C74.4033 32.5304 74.2307 33.3583 74.4285 34.4139C74.6335 35.5082 75.2097 36.7028 76.0509 37.7772C77.7628 39.9645 80.039 40.971 81.1256 40.0195C81.6368 39.5719 81.8094 38.744 81.6116 37.6884C81.4066 36.5941 80.8305 35.3995 79.9893 34.3251C78.7155 32.6977 77.1292 31.7245 75.9531 31.7245Z" fill="black"/>
<path d="M70.2459 56.9721C72.2188 56.4733 73.589 55.1596 73.3065 54.0379C73.0239 52.9162 71.1955 52.4112 69.2226 52.91C67.2497 53.4089 65.8795 54.7226 66.162 55.8443C66.4446 56.966 68.273 57.4709 70.2459 56.9721Z" fill="#CFE8FD"/>
<path d="M68.7499 57.3412C68.2913 57.3412 67.8571 57.2841 67.4687 57.1697C66.6472 56.9276 66.1222 56.4567 65.9901 55.8436C65.7222 54.5984 67.1567 53.227 69.256 52.7213C70.2392 52.4842 71.2136 52.4815 71.9995 52.713C72.821 52.9551 73.3461 53.4261 73.4781 54.0392C73.61 54.6525 73.3296 55.3174 72.6884 55.9119C72.0747 56.4807 71.1953 56.9244 70.2121 57.1615C69.7148 57.2814 69.2195 57.3412 68.7499 57.3412ZM70.7187 52.8932C70.2742 52.8932 69.804 52.9506 69.33 53.0647C67.4766 53.5111 66.0958 54.7479 66.3148 55.7654C66.4184 56.2464 66.8599 56.6247 67.5581 56.8304C68.2919 57.0466 69.2081 57.0418 70.1382 56.818C71.0684 56.594 71.8962 56.1781 72.4689 55.6471C73.0139 55.1418 73.257 54.5986 73.1534 54.1175C73.0499 53.6363 72.6084 53.258 71.9102 53.0523C71.5503 52.9462 71.1465 52.8932 70.7187 52.8932Z" fill="black"/>
<path d="M58.9405 63.0343H69.0525C69.0525 63.0343 69.6629 65.0722 67.3324 66.8917C65.0019 68.7113 66.1117 71.6249 67.8318 72.8669C68.1758 73.1158 68.5532 73.5454 68.9282 74.1042H59.0648C59.4399 73.5455 59.8172 73.1158 60.1612 72.8669C61.8813 71.6249 62.9911 68.7113 60.6606 66.8917C58.3301 65.0722 58.9405 63.0343 58.9405 63.0343Z" fill="#F2E8E0"/>
<path d="M68.9282 74.2802H59.0648C59.0025 74.2802 58.9455 74.2436 58.9168 74.1849C58.8883 74.1264 58.893 74.056 58.9291 74.0021C59.3194 73.4207 59.713 72.9777 60.0672 72.7216C61.0955 71.9792 61.7999 70.6943 61.8203 69.5241C61.8373 68.5508 61.402 67.6896 60.5617 67.0334C58.163 65.1607 58.7553 63.0692 58.7818 62.9812C58.8037 62.908 58.8679 62.8583 58.9405 62.8583H69.0525C69.1251 62.8583 69.1893 62.908 69.2111 62.9812C69.2376 63.0692 69.8299 65.1607 67.4312 67.0334C66.5909 67.6896 66.1556 68.5508 66.1727 69.5241C66.193 70.6943 66.8975 71.9792 67.9256 72.7216C68.2799 72.9777 68.6735 73.4207 69.0639 74.0021C69.0999 74.056 69.1046 74.1264 69.0761 74.1849C69.0475 74.2436 68.9905 74.2802 68.9282 74.2802ZM59.3953 73.9281H68.5976C68.2968 73.5177 68.0029 73.204 67.7378 73.0123C66.6075 72.1961 65.8624 70.8294 65.8398 69.5305C65.8207 68.4382 66.3027 67.4769 67.2336 66.75C69.1208 65.2765 68.9994 63.6617 68.9204 63.2105H59.0712C58.9868 63.6637 58.8554 65.2634 60.7594 66.75C61.6903 67.4769 62.1723 68.4382 62.1532 69.5305C62.1306 70.8294 61.3855 72.1961 60.2551 73.0123C59.9901 73.204 59.6962 73.5177 59.3953 73.9281Z" fill="black"/>
<path d="M67.3324 67.0679H60.6606C60.5687 67.0679 60.4941 66.989 60.4941 66.8918C60.4941 66.7946 60.5687 66.7157 60.6606 66.7157H67.3324C67.4243 66.7157 67.4989 66.7946 67.4989 66.8918C67.4989 66.989 67.4243 67.0679 67.3324 67.0679Z" fill="black"/>
<path d="M24.2537 6.68256C27.5185 6.68256 30.1652 3.88291 30.1652 0.429355C30.1652 -3.0242 27.5185 -5.82385 24.2537 -5.82385C20.9889 -5.82385 18.3422 -3.0242 18.3422 0.429355C18.3422 3.88291 20.9889 6.68256 24.2537 6.68256Z" fill="#68AFE8"/>
<path d="M24.2537 6.85857C20.9023 6.85857 18.1757 3.97449 18.1757 0.429408C18.1757 -3.11568 20.9023 -6 24.2537 -6C27.6052 -6 30.3317 -3.11582 30.3317 0.429408C30.3317 3.97463 27.6051 6.85857 24.2537 6.85857ZM24.2537 -5.64784C21.0859 -5.64784 18.5086 -2.92163 18.5086 0.429408C18.5086 3.78044 21.0859 6.50641 24.2537 6.50641C27.4216 6.50641 29.9988 3.7803 29.9988 0.429408C29.9988 -2.92149 27.4215 -5.64784 24.2537 -5.64784Z" fill="black"/>
<path d="M24.2537 9.8401C26.6035 9.8401 28.5085 7.82505 28.5085 5.33936C28.5085 2.85367 26.6035 0.838623 24.2537 0.838623C21.9038 0.838623 19.9989 2.85367 19.9989 5.33936C19.9989 7.82505 21.9038 9.8401 24.2537 9.8401Z" fill="#F9EA31"/>
<path d="M24.2538 10.0162C21.8158 10.0162 19.8325 7.91806 19.8325 5.3394C19.8325 2.76073 21.8158 0.662598 24.2538 0.662598C26.6917 0.662598 28.675 2.76073 28.675 5.3394C28.675 7.91806 26.6916 10.0162 24.2538 10.0162ZM24.2538 1.01475C21.9994 1.01475 20.1654 2.95468 20.1654 5.3394C20.1654 7.72412 21.9994 9.66404 24.2538 9.66404C26.5081 9.66404 28.342 7.72412 28.342 5.3394C28.342 2.95468 26.508 1.01475 24.2538 1.01475Z" fill="black"/>
<path d="M24.2537 26.4716C30.2136 26.4716 35.045 21.1901 35.045 14.675C35.045 8.15993 30.2136 2.87842 24.2537 2.87842C18.2938 2.87842 13.4623 8.15993 13.4623 14.675C13.4623 21.1901 18.2938 26.4716 24.2537 26.4716Z" fill="#68AFE8"/>
<path d="M24.2538 26.6476C18.2116 26.6476 13.2959 21.2768 13.2959 14.6749C13.2959 8.07311 18.2116 2.70227 24.2538 2.70227C30.2959 2.70227 35.2115 8.07311 35.2115 14.6749C35.2115 21.2768 30.2959 26.6476 24.2538 26.6476ZM24.2538 3.05446C18.3952 3.05446 13.6288 8.26733 13.6288 14.6749C13.6288 21.0825 18.3952 26.2954 24.2538 26.2954C30.1123 26.2954 34.8786 21.0825 34.8786 14.6749C34.8786 8.26733 30.1123 3.05446 24.2538 3.05446Z" fill="black"/>
<path d="M34.3173 19.9422C35.3315 18.215 35.1844 16.2435 33.9887 15.5388C32.793 14.834 31.0015 15.6629 29.9872 17.3901C28.9729 19.1173 29.12 21.0888 30.3157 21.7935C31.5114 22.4983 33.303 21.6694 34.3173 19.9422Z" fill="#D797CA"/>
<path d="M31.2613 22.2177C30.8312 22.2177 30.4248 22.0976 30.0778 21.8442C28.8803 20.9695 28.8365 18.8324 29.9801 17.0801C30.5284 16.24 31.2655 15.6095 32.056 15.305C32.8666 14.9922 33.6373 15.0578 34.2263 15.488C34.8155 15.9183 35.1461 16.6577 35.1572 17.5698C35.1682 18.4596 34.8722 19.4123 34.3239 20.2521C33.5116 21.4969 32.3154 22.2177 31.2613 22.2177L31.2613 22.2177ZM33.0366 15.463C32.7616 15.463 32.4697 15.5203 32.1699 15.6359C31.4438 15.9156 30.7635 16.4995 30.2541 17.28C29.2147 18.8726 29.2205 20.79 30.267 21.5544C31.3135 22.3193 33.0104 21.645 34.05 20.0522C34.5594 19.2718 34.8344 18.3918 34.8244 17.5744C34.8147 16.7795 34.5351 16.1414 34.0371 15.7778C33.7506 15.5685 33.4093 15.463 33.0366 15.463Z" fill="black"/>
<path d="M32.1521 23.082C32.9958 23.082 33.6798 22.3585 33.6798 21.466C33.6798 20.5735 32.9958 19.85 32.1521 19.85C31.3084 19.85 30.6245 20.5735 30.6245 21.466C30.6245 22.3585 31.3084 23.082 32.1521 23.082Z" fill="#F2E8E0"/>
<path d="M32.1521 23.2581C31.2179 23.2581 30.458 22.4543 30.458 21.4661C30.458 20.4779 31.2179 19.6738 32.1521 19.6738C33.0863 19.6738 33.8463 20.4779 33.8463 21.4661C33.8463 22.4543 33.0863 23.2581 32.1521 23.2581ZM32.1521 20.026C31.4015 20.026 30.7909 20.6721 30.7909 21.4661C30.7909 22.2601 31.4015 22.906 32.1521 22.906C32.9027 22.906 33.5134 22.2601 33.5134 21.4661C33.5134 20.6721 32.9027 20.026 32.1521 20.026Z" fill="black"/>
<path d="M19.0644 21.2651V29.0768L17.2465 30.4422C17.2465 30.4422 21.0251 36.8298 24.3489 37.015C28.5026 36.5722 31.6134 30.5595 31.6134 30.5595C30.4852 29.9726 29.8133 29.5857 29.5371 28.218V23.7355L19.0644 21.2651Z" fill="#D797CA"/>
<path d="M24.3489 37.1911C24.3459 37.1911 24.343 37.1911 24.3401 37.1909C22.9155 37.1116 21.2625 35.9626 19.4267 33.776C18.073 32.1635 17.1149 30.5517 17.1054 30.5354C17.0585 30.4566 17.0782 30.3525 17.1501 30.2986L18.8978 28.9857V21.265C18.8978 21.2116 18.9208 21.1612 18.9601 21.1277C18.9995 21.094 19.0513 21.0818 19.1005 21.0931L29.5733 23.5635C29.6495 23.5817 29.7036 23.6529 29.7036 23.7355V28.1991C29.9615 29.4516 30.5625 29.8166 31.6868 30.4015C31.7276 30.4226 31.7584 30.4607 31.772 30.5063C31.7858 30.5521 31.7812 30.6019 31.7593 30.6441C31.7515 30.6592 30.9578 32.1823 29.6637 33.7375C28.4608 35.1831 26.565 36.9556 24.3656 37.1902C24.36 37.1909 24.3544 37.1911 24.3489 37.1911ZM17.4726 30.4882C18.0473 31.4172 21.4175 36.6606 24.3449 36.8385C27.9841 36.44 30.8537 31.5821 31.3808 30.6342C30.2877 30.0581 29.6488 29.6137 29.3743 28.2546C29.3718 28.2426 29.3707 28.2303 29.3707 28.2179V23.8767L19.2308 21.4847V29.0768C19.2308 29.1338 19.2047 29.1873 19.1607 29.2203L17.4726 30.4882Z" fill="black"/>
<path d="M14.1038 14.6762C15.2096 14.2423 16.6231 14.6351 17.7313 15.5661V12.7225C17.7313 12.7225 22.9687 12.7748 24.3559 9.84009C26.7305 12.364 31.1592 11.7185 31.1592 11.7185V20.2378C31.1592 24.2112 28.0854 27.558 24.3296 27.4909C20.9542 27.4305 18.1873 24.7346 17.7838 21.265C16.2827 21.6786 14.3292 20.7194 13.302 19.016C12.2179 17.2183 12.5769 15.2754 14.1038 14.6762H14.1038Z" fill="#D797CA"/>
<path d="M24.4413 27.6678C24.4031 27.6678 24.3651 27.6676 24.3268 27.6669C20.9798 27.607 18.1385 24.9612 17.6435 21.4792C16.0812 21.7967 14.1859 20.8088 13.1617 19.1107C12.5386 18.0776 12.3503 16.952 12.6451 16.0233C12.8701 15.3143 13.3676 14.7774 14.046 14.5112C15.0962 14.0987 16.4192 14.3702 17.5649 15.2155V12.7226C17.5649 12.6756 17.5826 12.6306 17.6142 12.5974C17.6457 12.5644 17.6981 12.5509 17.7329 12.5465C17.7856 12.5421 22.8829 12.5627 24.2071 9.76145C24.231 9.71054 24.2767 9.67523 24.3296 9.66629C24.3825 9.65664 24.4362 9.67568 24.474 9.7158C26.7636 12.1494 31.0932 11.5502 31.1365 11.5441C31.1841 11.5374 31.2325 11.5523 31.2686 11.5858C31.3049 11.6193 31.3257 11.6676 31.3257 11.7186V20.2378C31.3257 22.2268 30.5506 24.1738 29.1991 25.5793C27.9016 26.9291 26.2159 27.6678 24.4413 27.6678ZM17.7839 21.0889C17.8169 21.0889 17.8495 21.0992 17.8774 21.1194C17.917 21.1479 17.9432 21.1932 17.9491 21.2435C18.3448 24.6468 21.0891 27.2567 24.3324 27.3147C26.0512 27.3472 27.7043 26.6402 28.9657 25.3283C30.254 23.9884 30.9928 22.133 30.9928 20.2378V11.9162C30.1253 12.009 26.5694 12.2408 24.3977 10.1267C23.7588 11.269 22.4384 12.1056 20.5601 12.5536C19.3679 12.8381 18.3001 12.8886 17.8977 12.8971V15.5661C17.8977 15.6337 17.8612 15.6951 17.8037 15.7247C17.7462 15.7536 17.6777 15.7459 17.6278 15.7039C16.532 14.7836 15.1715 14.4449 14.1617 14.8413C13.571 15.0731 13.1557 15.5205 12.9607 16.1354C12.6981 16.9628 12.8737 17.9783 13.4424 18.9213C14.416 20.5359 16.3041 21.4901 17.7419 21.0946C17.7556 21.0907 17.7699 21.0889 17.7839 21.0889Z" fill="black"/>
<path d="M16.8198 19.5637C16.7591 19.5637 16.7005 19.5284 16.6712 19.4672C15.616 17.2627 14.2681 17.1285 14.2545 17.1274C14.1628 17.1199 14.0942 17.0352 14.1014 16.9383C14.1084 16.8413 14.1891 16.7707 14.2801 16.7762C14.3429 16.7814 15.8293 16.9286 16.9682 19.3081C17.0098 19.3948 16.977 19.5009 16.895 19.5447C16.8708 19.5576 16.8452 19.5638 16.8199 19.5638L16.8198 19.5637Z" fill="black"/>
<path d="M21.7581 14.6357C21.3653 14.6631 20.7503 14.8131 20.3323 15.4305C20.2388 15.5688 20.0435 15.4441 20.067 15.26C20.1297 14.7707 20.2721 14.2184 20.5929 14.022C20.9769 13.7868 21.4977 13.7195 21.8258 13.924C22.1087 14.1002 22.0591 14.6147 21.7581 14.6357Z" fill="black"/>
<path d="M28.5839 14.5761C28.9773 14.5629 29.6032 14.649 30.0759 15.2205C30.1818 15.3485 30.3647 15.2043 30.3243 15.0235C30.217 14.5429 30.0245 14.0079 29.6871 13.8454C29.2832 13.6509 28.7588 13.6375 28.451 13.8748C28.1856 14.0793 28.2823 14.5862 28.5839 14.5761Z" fill="black"/>
<path d="M24.8439 21.3563C24.768 21.3563 24.6995 21.3013 24.6818 21.2199C24.6612 21.125 24.717 21.0305 24.8066 21.0087C25.8747 20.7478 26.1573 19.9481 26.2307 19.4943C26.315 18.9734 26.183 18.5733 26.1105 18.5247C25.9724 18.464 25.4228 18.845 24.96 19.3206C24.9118 19.3699 24.8407 19.3836 24.7792 19.3563C24.7175 19.3288 24.6776 19.2651 24.6776 19.1942V16.1519C24.6776 16.0547 24.7521 15.9758 24.844 15.9758C24.9359 15.9758 25.0105 16.0547 25.0105 16.1519V18.796C25.3671 18.4738 25.9126 18.0618 26.2376 18.1994C26.511 18.3149 26.619 18.8583 26.5844 19.335C26.5566 19.7174 26.3517 20.9929 24.8814 21.3517C24.8688 21.3549 24.8562 21.3563 24.8439 21.3563Z" fill="black"/>
<path d="M23.1419 24.1376C22.6579 24.1376 22.2413 24.0101 21.898 23.7561C21.101 23.1664 20.9357 22.0681 20.8734 21.6547C20.8653 21.6016 20.86 21.5614 20.8545 21.5381C20.8218 21.461 20.8455 21.3679 20.9141 21.3196C20.9904 21.2659 21.0938 21.2872 21.1449 21.3684C21.1744 21.4152 21.1819 21.4652 21.2021 21.5993C21.2583 21.9725 21.4076 22.9635 22.0889 23.4677C22.5052 23.7754 23.064 23.8606 23.7491 23.7192C23.8395 23.6995 23.9266 23.7632 23.9443 23.8584C23.9618 23.954 23.9028 24.0464 23.8126 24.0649C23.5766 24.1135 23.3529 24.1376 23.142 24.1376L23.1419 24.1376Z" fill="black"/>
<path d="M15.2921 23.082C16.1358 23.082 16.8198 22.3585 16.8198 21.466C16.8198 20.5735 16.1358 19.85 15.2921 19.85C14.4484 19.85 13.7644 20.5735 13.7644 21.466C13.7644 22.3585 14.4484 23.082 15.2921 23.082Z" fill="#F2E8E0"/>
<path d="M15.2921 23.2581C14.3579 23.2581 13.5979 22.4543 13.5979 21.4661C13.5979 20.4779 14.3579 19.6738 15.2921 19.6738C16.2263 19.6738 16.9862 20.4779 16.9862 21.4661C16.9862 22.4543 16.2263 23.2581 15.2921 23.2581ZM15.2921 20.026C14.5415 20.026 13.9308 20.6721 13.9308 21.4661C13.9308 22.2601 14.5415 22.906 15.2921 22.906C16.0427 22.906 16.6533 22.2601 16.6533 21.4661C16.6533 20.6721 16.0427 20.026 15.2921 20.026Z" fill="black"/>
<path d="M18.9703 24.4988C18.9703 24.4988 21.2557 29.19 24.0301 29.9726C26.8045 30.7552 29.5371 24.9306 29.5371 24.9306C29.5371 24.9306 24.0461 30.5684 18.9702 24.4988L18.9703 24.4988Z" fill="black"/>
<path d="M24.5554 30.2216C24.3672 30.2216 24.1776 30.1963 23.9872 30.1427C21.174 29.3492 18.917 24.7739 18.8224 24.5795C18.7839 24.5004 18.807 24.4036 18.8763 24.3534C18.9457 24.3035 19.0394 24.3156 19.0949 24.3821C20.5608 26.1349 22.202 27.0603 23.9728 27.1325C26.9948 27.2501 29.3972 24.8285 29.4213 24.8042C29.4794 24.7443 29.5702 24.7382 29.6353 24.7884C29.7007 24.839 29.7222 24.9319 29.6862 25.0087C29.5797 25.2357 27.2079 30.2216 24.5554 30.2216L24.5554 30.2216ZM19.781 25.6044C20.6468 27.0295 22.2664 29.2928 24.0731 29.8024C26.0712 30.3646 28.1076 27.2031 28.9658 25.6603C28.0154 26.4089 26.1696 27.5709 23.9628 27.4844C22.4679 27.4244 21.0658 26.7929 19.781 25.6044Z" fill="black"/>
<path d="M21.1754 17.9051H21.1602C20.7164 17.9001 20.3065 17.6818 19.9418 17.256C19.88 17.1838 19.8852 17.0726 19.9533 17.0073C20.0215 16.9424 20.1267 16.9474 20.1884 17.0194C20.4884 17.3696 20.8164 17.5491 21.1636 17.553H21.1753C21.7865 17.553 22.2677 17.0222 22.2726 17.0167C22.3358 16.9463 22.4411 16.9431 22.5079 17.0098C22.5747 17.0766 22.5777 17.188 22.5145 17.2588C22.4908 17.2852 21.9282 17.9052 21.1753 17.9052L21.1754 17.9051Z" fill="black"/>
<path d="M28.3501 17.9052C27.5973 17.9052 27.0347 17.2852 27.011 17.2588C26.9479 17.1882 26.9508 17.077 27.0175 17.0101C27.0841 16.9433 27.1895 16.9466 27.2526 17.0165C27.2575 17.022 27.7429 17.553 28.3503 17.553H28.3641C28.7105 17.5484 29.0379 17.3689 29.3372 17.0195C29.3988 16.9472 29.5041 16.9422 29.5722 17.0073C29.6404 17.0727 29.6456 17.1838 29.5838 17.256C29.2192 17.6818 28.8092 17.9001 28.3654 17.9051H28.3501L28.3501 17.9052Z" fill="black"/>
<path d="M17.8103 21.6422C17.7252 21.6422 17.6526 21.5736 17.6447 21.4821L17.4648 19.4037C17.4565 19.307 17.5239 19.2212 17.6154 19.2123C17.7068 19.2026 17.788 19.2747 17.7964 19.3716L17.9763 21.45C17.9847 21.5468 17.9173 21.6325 17.8257 21.6415C17.8205 21.6419 17.8154 21.6422 17.8103 21.6422Z" fill="black"/>
<path d="M31.1591 20.026C31.1273 20.026 31.0953 20.0163 31.0669 19.9964C30.9904 19.9427 30.9696 19.8334 31.0206 19.7525C32.0716 18.0808 33.4087 17.7612 33.465 17.7483C33.5543 17.7268 33.6429 17.7884 33.6624 17.8831C33.6819 17.9781 33.6249 18.0718 33.5353 18.0927C33.5227 18.0954 32.2697 18.4018 31.2978 19.9473C31.2657 19.9984 31.2129 20.026 31.1591 20.026Z" fill="black"/>
<path d="M-11.1722 51.0441L-1.48038 62.2158C3.92039 65.2679 8.19291 58.7912 8.19291 58.7912L12.8061 46.7565C19.4724 36.932 11.4666 32.1638 11.4666 32.1638C11.4666 32.1638 8.84024 32.1247 6.73173 35.2943L0.986031 51.6723L-7.95392 44.5289L-8.21285 42.9638C-8.21285 42.9638 -8.36083 37.4835 -10.5063 37.015C-11.6095 36.7741 -12.1209 37.1691 -12.2972 37.6816C-12.4563 38.1439 -12.0645 38.6515 -11.6138 38.5306C-11.4446 38.4851 -11.2387 38.5303 -11.0057 38.7769C-10.3399 39.4812 -10.3953 41.0073 -11.2832 41.1834C-12.171 41.3595 -12.3591 39.7617 -12.5779 39.1682C-13.4287 36.8595 -12.06 36.1552 -12.7998 35.7247C-13.4912 35.3225 -14.8344 36.7812 -14.0853 39.4812L-15.6944 37.8084L-16.6099 35.1378C-16.6099 35.1378 -17.5809 34.6389 -17.7474 36.1943C-17.7474 36.1943 -17.9971 38.1312 -16.7209 39.716L-18.219 38.7769L-18.9404 36.6638C-18.9404 36.6638 -19.3843 35.9888 -19.8282 36.6932V39.2758L-17.8306 41.5062L-19.1254 41.7899L-20.0964 39.8236C-20.0964 39.8236 -20.9565 39.6769 -20.8177 40.6453C-20.8177 40.6453 -20.7068 41.9366 -19.8467 43.0812L-17.47 44.0594C-17.47 44.0594 -14.7788 45.7029 -14.2795 46.4659C-13.7801 47.229 -11.1722 51.0441 -11.1722 51.0441Z" fill="#D797CA"/>
<path d="M1.46368 63.2036C0.43923 63.2036 -0.575384 62.9267 -1.55885 62.3709C-1.57544 62.3617 -1.59038 62.3493 -1.60305 62.3347L-11.2948 51.1631C-11.2991 51.158 -11.3033 51.1528 -11.307 51.1473C-11.3331 51.1092 -13.9217 47.322 -14.4163 46.5661C-14.8065 45.9697 -16.7939 44.6763 -17.5422 44.2185L-19.907 43.2452C-19.9344 43.2337 -19.9586 43.2149 -19.9769 43.1906C-20.858 42.0184 -20.9788 40.7161 -20.9835 40.6613C-21.0331 40.3171 -20.9704 40.0447 -20.7961 39.862C-20.5231 39.5759 -20.0883 39.6463 -20.0698 39.6497C-20.018 39.6584 -19.9732 39.6928 -19.9489 39.7419L-19.036 41.5903L-18.1569 41.3978L-19.949 39.3969C-19.9782 39.3643 -19.9946 39.321 -19.9946 39.2758V36.6932C-19.9946 36.6584 -19.9848 36.6244 -19.9666 36.5956C-19.8012 36.3328 -19.6087 36.1987 -19.3946 36.1964C-19.0601 36.201 -18.8286 36.5254 -18.8037 36.5632C-18.7954 36.5759 -18.7887 36.5896 -18.7837 36.6041L-18.0828 38.6577L-17.3059 39.1447C-18.0966 37.7014 -17.9214 36.2415 -17.9123 36.1705C-17.848 35.5702 -17.657 35.1717 -17.3447 34.9899C-16.9613 34.7664 -16.5544 34.9704 -16.5371 34.9794C-16.4981 34.9993 -16.4681 35.0346 -16.4533 35.0777L-15.5507 37.7107L-14.3828 38.9247C-14.6551 37.3849 -14.2468 36.2356 -13.663 35.7396C-13.3489 35.473 -12.9961 35.4097 -12.7195 35.5704C-12.2826 35.8247 -12.3936 36.1952 -12.5112 36.5875C-12.6609 37.0876 -12.8873 37.8432 -12.4227 39.1043C-12.3755 39.2327 -12.3322 39.3945 -12.2821 39.5821C-12.066 40.393 -11.8306 41.1139 -11.3137 41.0103C-10.9891 40.9458 -10.8441 40.6693 -10.7797 40.4488C-10.6289 39.9333 -10.7766 39.2682 -11.1233 38.9014C-11.2838 38.7317 -11.4356 38.6647 -11.5728 38.7012C-11.835 38.772 -12.1038 38.6822 -12.2921 38.4619C-12.4903 38.2298 -12.5521 37.9077 -12.4535 37.6213C-12.3089 37.2006 -11.8588 36.5401 -10.4726 36.8427C-8.25603 37.3267 -8.05789 42.5767 -8.04673 42.9458L-7.80117 44.4304L0.907846 51.3892L6.57568 35.2332C6.58064 35.219 6.58737 35.2054 6.59562 35.193C8.72919 31.9857 11.3512 31.9845 11.4691 31.9877C11.4968 31.9882 11.5242 31.996 11.5484 32.0104C11.6752 32.0858 14.6645 33.9038 15.4437 37.6293C16.0306 40.4357 15.1926 43.5353 12.9531 46.8422L8.3472 58.8575C8.34254 58.8697 8.3366 58.8811 8.32952 58.8919C8.28507 58.9593 7.22335 60.5526 5.47444 61.7943C4.1527 62.7325 2.79988 63.2037 1.46375 63.2037L1.46368 63.2036ZM-1.37702 62.0744C3.69486 64.9143 7.80992 59.0514 8.04606 58.7057L12.652 46.6904C12.6568 46.6775 12.6632 46.6654 12.6709 46.6539C14.8617 43.4254 15.6851 40.4146 15.1185 37.7054C14.4175 34.3531 11.7723 32.5641 11.423 32.341C11.0848 32.3556 8.76363 32.5602 6.88021 35.3771L1.14214 51.7335C1.12383 51.7858 1.0833 51.8257 1.0328 51.8413C0.982185 51.8573 0.927691 51.8465 0.885725 51.8128L-8.05422 44.6695C-8.08782 44.6426 -8.11057 44.6032 -8.11785 44.5592L-8.37674 42.9939C-8.37814 42.9857 -8.37891 42.9772 -8.37912 42.9687C-8.38063 42.9153 -8.54765 37.6224 -10.5399 37.1875C-11.3982 37.0006 -11.9516 37.1918 -12.1408 37.7419C-12.197 37.9053 -12.1604 38.0906 -12.0451 38.2257C-11.9395 38.3492 -11.797 38.3983 -11.6546 38.36C-11.4765 38.3123 -11.1984 38.324 -10.888 38.6524C-10.4533 39.1121 -10.2741 39.9113 -10.4617 40.5528C-10.5912 40.9956 -10.872 41.281 -11.2524 41.3565C-12.1095 41.5252 -12.4064 40.4139 -12.6027 39.6777C-12.6484 39.5064 -12.6915 39.3445 -12.7329 39.2322C-13.2402 37.8554 -12.9925 37.0282 -12.8285 36.4809C-12.7028 36.0613 -12.696 35.9861 -12.88 35.879C-13.0344 35.7894 -13.2492 35.8398 -13.4546 36.0143C-14.0262 36.4999 -14.3935 37.7449 -13.9255 39.4317C-13.9042 39.5085 -13.9347 39.591 -13.9997 39.6323C-14.0645 39.6731 -14.1475 39.6632 -14.202 39.6068L-15.8111 37.934C-15.8288 37.9154 -15.8424 37.8932 -15.8509 37.8685L-16.7405 35.2735C-16.8328 35.2421 -17.0197 35.2012 -17.1867 35.2998C-17.3944 35.4223 -17.5311 35.7385 -17.582 36.214C-17.5849 36.2365 -17.8044 38.0989 -16.5942 39.6018C-16.5414 39.6674 -16.5412 39.7637 -16.5935 39.8295C-16.646 39.8951 -16.7358 39.9111 -16.8057 39.8675L-18.3039 38.9284C-18.3371 38.9076 -18.3625 38.875 -18.3756 38.8367L-19.0886 36.748C-19.1394 36.6797 -19.2675 36.5353 -19.3923 36.5485C-19.4977 36.5502 -19.5932 36.6503 -19.6617 36.7487V39.2056L-17.7098 41.3852C-17.6683 41.4315 -17.6537 41.498 -17.6717 41.5589C-17.6898 41.6199 -17.7377 41.6658 -17.7969 41.6786L-19.0916 41.9622C-19.1651 41.9785 -19.2386 41.9411 -19.2728 41.8714L-20.2012 39.9918C-20.2955 39.9875 -20.4606 40.0054 -20.5627 40.1134C-20.6566 40.2124 -20.687 40.3825 -20.6531 40.6189C-20.6509 40.6414 -20.5357 41.8566 -19.7439 42.9344L-17.4096 43.8953C-17.4017 43.8985 -17.3941 43.9024 -17.3867 43.907C-17.2755 43.9748 -14.6573 45.5793 -14.1426 46.3658C-13.6611 47.1015 -11.1798 50.7326 -11.043 50.9327L-1.37702 62.0745V62.0744Z" fill="black"/>
<path d="M3.69835 53.9397C3.66433 53.9397 3.62997 53.9287 3.60039 53.906L0.888029 51.8148C0.813794 51.7574 0.797415 51.6472 0.85163 51.5688C0.9056 51.4896 1.00986 51.4727 1.0842 51.53L3.79656 53.6212C3.8708 53.6786 3.88718 53.7888 3.83296 53.8672C3.80045 53.9147 3.74973 53.9397 3.69835 53.9397Z" fill="black"/>
<path d="M60.0735 51.0441L50.3817 62.2158C44.9809 65.2679 40.7084 58.7912 40.7084 58.7912L36.0952 46.7565C29.429 36.932 37.4347 32.1638 37.4347 32.1638C37.4347 32.1638 40.0611 32.1247 42.1696 35.2943L47.9153 51.6723L56.8552 44.5289L57.1142 42.9638C57.1142 42.9638 57.2622 37.4835 59.4077 37.015C60.5108 36.7741 61.0223 37.1691 61.1986 37.6816C61.3576 38.1439 60.9659 38.6515 60.5151 38.5306C60.3459 38.4851 60.1401 38.5303 59.907 38.7769C59.2412 39.4812 59.2967 41.0073 60.1845 41.1834C61.0723 41.3595 61.2605 39.7617 61.4792 39.1682C62.33 36.8595 60.9613 36.1552 61.7011 35.7247C62.3926 35.3225 63.7357 36.7812 62.9866 39.4812L64.5957 37.8084L65.5112 35.1378C65.5112 35.1378 66.4823 34.6389 66.6487 36.1943C66.6487 36.1943 66.8984 38.1312 65.6222 39.716L67.1204 38.7769L67.8417 36.6638C67.8417 36.6638 68.2856 35.9888 68.7295 36.6932V39.2758L66.732 41.5062L68.0267 41.7899L68.9977 39.8236C68.9977 39.8236 69.8578 39.6769 69.7191 40.6453C69.7191 40.6453 69.6081 41.9366 68.748 43.0812L66.3713 44.0594C66.3713 44.0594 63.6802 45.7029 63.1808 46.4659C62.6814 47.229 60.0735 51.0441 60.0735 51.0441Z" fill="#D797CA"/>
<path d="M47.4377 63.2036C46.1015 63.2036 44.7488 62.7327 43.427 61.7942C41.6781 60.5525 40.6164 58.9592 40.5719 58.8918C40.5649 58.8811 40.5589 58.8696 40.5543 58.8574L35.9484 46.8421C33.7088 43.5352 32.8709 40.4357 33.4577 37.6293C34.2369 33.9038 37.2262 32.0858 37.353 32.0104C37.3773 31.9959 37.4046 31.9881 37.4324 31.9877C37.5497 31.9902 40.172 31.9854 42.3058 35.193C42.3141 35.2054 42.3208 35.2189 42.3258 35.2331L47.9936 51.3892L56.7026 44.4303L56.9482 42.9458C56.9594 42.5766 57.1575 37.3266 59.3742 36.8426C60.7604 36.5402 61.2103 37.2005 61.355 37.6212C61.4536 37.9076 61.3918 38.2298 61.1935 38.4618C61.0053 38.6821 60.7367 38.772 60.4743 38.7011C60.3361 38.6647 60.1852 38.7316 60.0248 38.9013C59.6781 39.2681 59.5304 39.9333 59.6811 40.4487C59.7456 40.6693 59.8906 40.9458 60.2152 41.0102C60.7315 41.1141 60.9673 40.393 61.1835 39.5825C61.2336 39.3947 61.2768 39.2326 61.3242 39.1042C61.7888 37.8432 61.5624 37.0875 61.4126 36.5874C61.295 36.1951 61.1841 35.8246 61.621 35.5703C61.8976 35.4096 62.2503 35.4729 62.5645 35.7396C63.1483 36.2355 63.5565 37.3849 63.2843 38.9247L64.4522 37.7107L65.3548 35.0777C65.3695 35.0346 65.3996 34.9992 65.4386 34.9793C65.4557 34.9704 65.8621 34.7663 66.2462 34.9898C66.5584 35.1717 66.7495 35.5701 66.8142 36.1745C66.823 36.2419 66.9981 37.7015 66.2074 39.1446L66.9842 38.6576L67.6851 36.604C67.6901 36.5895 67.6968 36.5758 67.7051 36.5631C67.7299 36.5255 67.9562 36.1963 68.2908 36.1963H68.2961C68.5101 36.1986 68.7026 36.3327 68.8681 36.5955C68.8863 36.6244 68.896 36.6583 68.896 36.6931V39.2757C68.896 39.3209 68.8797 39.3642 68.8504 39.3968L67.0583 41.3977L67.9375 41.5902L68.8503 39.7418C68.8746 39.6927 68.9194 39.6583 68.9713 39.6496C68.9897 39.6464 69.4246 39.576 69.6976 39.8619C69.8718 40.0446 69.9345 40.317 69.8838 40.6715C69.8802 40.716 69.7593 42.0183 68.8784 43.1906C68.8601 43.2149 68.8359 43.2337 68.8085 43.2452L66.4437 44.2184C65.6954 44.6763 63.7079 45.9699 63.3178 46.566C62.8232 47.322 60.2346 51.1092 60.2085 51.1472C60.2048 51.1528 60.2006 51.158 60.1963 51.1631L50.5046 62.3346C50.4919 62.3493 50.4769 62.3617 50.4603 62.3709C49.477 62.9266 48.4622 63.2036 47.4378 63.2036H47.4377ZM40.8553 58.7056C41.0917 59.0514 45.2098 64.9115 50.2784 62.0744L59.9443 50.9326C60.0811 50.7325 62.5624 47.1014 63.0439 46.3657C63.5587 45.5792 66.1769 43.9748 66.2881 43.9069C66.2955 43.9023 66.303 43.8984 66.3109 43.8952L68.6453 42.9343C69.4371 41.8565 69.5522 40.6413 69.5533 40.6291C69.5885 40.3818 69.5577 40.2112 69.4632 40.1121C69.3611 40.005 69.1976 39.9862 69.1025 39.9917L68.1742 41.8713C68.1398 41.9411 68.0662 41.9791 67.993 41.9621L66.6983 41.6785C66.6391 41.6657 66.5912 41.6198 66.5731 41.5589C66.5551 41.4979 66.5696 41.4314 66.6111 41.3851L68.5631 39.2055V36.7486C68.4943 36.65 68.3985 36.5496 68.2928 36.5484H68.2908C68.1536 36.5484 68.0271 36.6995 67.9896 36.7491L67.277 38.8366C67.2639 38.8749 67.2385 38.9075 67.2052 38.9283L65.7071 39.8674C65.6369 39.9108 65.5473 39.8947 65.4949 39.8294C65.4425 39.7636 65.4428 39.6673 65.4955 39.6017C66.7094 38.0945 66.4862 36.2366 66.4838 36.218C66.4324 35.7384 66.2958 35.4222 66.088 35.2998C65.9215 35.2014 65.7345 35.242 65.6418 35.2734L64.7522 37.8684C64.7437 37.8931 64.7301 37.9154 64.7125 37.934L63.1033 39.6068C63.049 39.6632 62.9661 39.673 62.9011 39.6322C62.8361 39.5909 62.8055 39.5084 62.8269 39.4316C63.2948 37.7448 62.9276 36.4998 62.356 36.0142C62.1505 35.8395 61.9359 35.7891 61.7814 35.879C61.5973 35.986 61.6042 36.0612 61.7299 36.4808C61.8939 37.0281 62.1416 37.8553 61.6343 39.2321C61.5928 39.3445 61.5497 39.5066 61.5039 39.6781C61.3077 40.4141 61.01 41.5249 60.1538 41.3564C59.7733 41.281 59.4925 40.9955 59.363 40.5528C59.1754 39.9113 59.3547 39.112 59.7894 38.6523C60.0998 38.324 60.3776 38.3123 60.5561 38.36C60.6986 38.3982 60.841 38.3492 60.9465 38.2256C61.0618 38.0906 61.0984 37.9053 61.0421 37.7418C60.8529 37.1915 60.2996 37.0005 59.4413 37.1874C57.449 37.6223 57.282 42.9152 57.2805 42.9686C57.2803 42.9771 57.2795 42.9856 57.2781 42.9938L57.0192 44.5591C57.012 44.6031 56.9892 44.6426 56.9556 44.6694L48.0156 51.8128C47.9737 51.8465 47.9193 51.8575 47.8686 51.8412C47.8181 51.8256 47.7775 51.7857 47.7592 51.7335L42.0211 35.377C40.1322 32.5518 37.8166 32.3542 37.4787 32.3407C37.1301 32.564 34.4807 34.359 33.7818 37.7096C33.2171 40.4176 34.0408 43.4269 36.2304 46.6538C36.2381 46.6652 36.2445 46.6774 36.2494 46.6902L40.8553 58.7055V58.7056Z" fill="black"/>
<path d="M62.4041 44.1181C62.389 44.1181 62.3736 44.116 62.3583 44.1112C62.2698 44.0847 62.2187 43.9872 62.2439 43.8937C62.9683 41.2118 61.1903 40.4001 61.1142 40.3669C61.0295 40.3298 60.9888 40.227 61.0236 40.1372C61.0584 40.0473 61.155 40.0037 61.2402 40.0409C61.2615 40.0501 63.3725 40.9969 62.564 43.9904C62.5431 44.0677 62.4765 44.1181 62.4041 44.1181Z" fill="black"/>
<path d="M45.203 53.9397C45.1516 53.9397 45.1009 53.9147 45.0684 53.8672C45.0142 53.7888 45.0306 53.6786 45.1048 53.6212L47.8172 51.53C47.8913 51.4727 47.9957 51.4896 48.0497 51.5688C48.1039 51.6472 48.0876 51.7574 48.0133 51.8148L45.301 53.906C45.2714 53.9287 45.237 53.9397 45.203 53.9397Z" fill="black"/>
<path d="M36.0952 46.7565C38.6924 39.2855 37.4347 32.1639 37.4347 32.1639L31.3033 30.4421L28.3157 32.5952C25.9065 33.9849 22.9949 33.9849 20.5856 32.5952L17.2465 30.4421L11.4666 32.1639C11.4666 32.1639 10.2089 38.1116 12.8061 46.7565C12.8061 46.7565 16.0226 55.4854 15.1503 58.9288C14.278 62.3723 11.4667 68.1635 11.4667 68.1635C11.4667 68.1635 16.8674 72.0765 24.4507 71.6069C32.034 72.0765 37.4347 68.1635 37.4347 68.1635C37.4347 68.1635 34.6234 62.3722 33.7511 58.9288C32.8788 55.4854 36.0953 46.7565 36.0953 46.7565H36.0952Z" fill="#F9EA31"/>
<path d="M25.7012 71.8214C25.2877 71.8214 24.8682 71.8091 24.4409 71.7827C16.9093 72.2497 11.4269 68.3483 11.3726 68.3089C11.3034 68.2587 11.2802 68.1619 11.3186 68.083C11.3465 68.0253 14.1317 62.2688 14.9894 58.8831C15.8376 55.5349 12.683 46.9072 12.651 46.8205C10.0665 38.219 11.2915 32.1853 11.3042 32.1252C11.3175 32.0622 11.3626 32.0117 11.4215 31.9943L17.2014 30.2726C17.2457 30.2586 17.2935 30.266 17.3331 30.2917L20.6722 32.4446C23.0357 33.8076 25.8658 33.8076 28.236 32.4404L31.2096 30.2965C31.2496 30.2678 31.2992 30.2582 31.346 30.2719L37.4773 31.9936C37.5394 32.011 37.5865 32.0646 37.5983 32.1314C37.611 32.2031 38.8345 39.3869 36.2514 46.8173C36.251 46.8185 36.2507 46.8194 36.2502 46.8205C36.2183 46.9072 33.0636 55.5349 33.9119 58.8831C34.7696 62.2693 37.5547 68.0253 37.5827 68.083C37.621 68.1619 37.5978 68.2587 37.5287 68.3089C37.4773 68.346 32.5952 71.8214 25.7012 71.8214ZM24.4409 71.431C31.2812 71.8531 36.3765 68.6652 37.2185 68.1021C36.7823 67.1891 34.3811 62.0964 33.5902 58.9743C32.7151 55.5198 35.7992 47.0751 35.9396 46.6942C38.3167 39.8549 37.4296 33.2281 37.2885 32.305L31.3342 30.6328L28.4095 32.7406C25.9253 34.1749 22.976 34.1747 20.506 32.7495L17.2219 30.6324L11.61 32.3041C11.4638 33.1253 10.5957 38.8172 12.9648 46.7032C13.0934 47.0512 16.1874 55.515 15.3111 58.9743C14.5202 62.0964 12.1192 67.1891 11.683 68.1021C12.5249 68.6648 17.6253 71.8524 24.441 71.431H24.4409Z" fill="black"/>
<path d="M24.4243 67.7024C24.4243 67.7024 6.84316 58.3452 -1.93726 59.5804C-10.7177 60.8155 -7.98029 73.0014 3.09266 77.211C9.21402 79.5381 32.4108 83.6256 42.994 83.8239L43.7339 75.6849L24.4243 67.7024Z" fill="#68AFE8"/>
<path d="M42.994 84H42.9911C32.5306 83.8039 9.21222 79.7247 3.03637 77.3769C-4.2317 74.6136 -7.70391 68.6709 -7.2809 64.4823C-6.99922 61.6922 -5.05945 59.8419 -1.95911 59.4058C1.70945 58.8895 7.27931 60.1033 14.5948 63.0135C19.9305 65.1357 24.288 67.4333 24.4921 67.5413L43.7945 75.5211C43.8639 75.5497 43.9068 75.6236 43.8996 75.7017L43.1597 83.8409C43.1515 83.9312 43.0797 84 42.994 84ZM-0.238585 59.6464C-0.84048 59.6464 -1.39971 59.6824 -1.91533 59.7548C-4.85074 60.1677 -6.68583 61.9045 -6.94994 64.5197C-7.35937 68.5749 -3.95916 74.3431 3.14896 77.0453C9.27511 79.3743 32.334 83.4126 42.8431 83.6446L43.5562 75.8006L24.3638 67.8664C24.3589 67.8646 24.3541 67.8623 24.3495 67.8597C24.3057 67.8364 19.8969 65.4984 14.4746 63.3418C8.35087 60.9062 3.31843 59.6464 -0.238585 59.6464Z" fill="black"/>
<path d="M24.4771 67.7025C24.4771 67.7025 42.0582 58.3454 50.8387 59.5805C59.6191 60.8156 56.8817 73.0015 45.8087 77.2111C39.6874 79.5383 16.4906 83.6258 5.90737 83.8241L5.16754 75.685L24.4771 67.7025Z" fill="#68AFE8"/>
<path d="M5.9073 84C5.82169 84 5.74984 83.9312 5.74161 83.8409L5.00175 75.7018C4.99461 75.6236 5.03752 75.5498 5.10685 75.5211L24.4093 67.5413C24.6134 67.4333 28.9708 65.1358 34.3065 63.0136C41.6219 60.1036 47.1911 58.8886 50.8605 59.4059C53.9608 59.842 55.9006 61.6923 56.1823 64.4823C56.6052 68.671 53.133 74.6137 45.865 77.3769C39.6891 79.7247 16.3709 83.804 5.91024 84H5.9073ZM5.34517 75.8006L6.05826 83.6447C16.5675 83.4126 39.6262 79.3744 45.7524 77.0454C52.8605 74.3431 56.2607 68.5749 55.8513 64.5197C55.5872 61.9046 53.7521 60.1678 50.8167 59.7549C47.2534 59.2541 41.5866 60.4941 34.4267 63.3419C29.0044 65.4985 24.5957 67.8365 24.5518 67.8598C24.5472 67.8624 24.5425 67.8646 24.5376 67.8665L5.34513 75.8006L5.34517 75.8006Z" fill="black"/>
<path d="M25.0813 60.2613C20.9543 60.2613 17.8734 59.025 17.8273 59.0062C17.7416 58.9709 17.6991 58.8691 17.7324 58.7783C17.7657 58.6877 17.8618 58.6428 17.9479 58.6779C18.0158 58.7059 24.8338 61.4368 31.7415 58.6774C31.8272 58.6426 31.9236 58.6886 31.9561 58.7799C31.9886 58.8707 31.9452 58.9725 31.8592 59.0067C29.5042 59.9476 27.1599 60.2613 25.0814 60.2613L25.0813 60.2613Z" fill="black"/>
<path d="M10.0001 23.0821C-0.904124 22.9304 -0.787889 22.8074 -0.644528 34.3421C-0.501134 22.8074 -0.3849 22.9304 -11.2892 23.0821C-0.384935 23.2337 -0.501168 23.3567 -0.644528 11.822C-0.787924 23.3567 -0.90416 23.2337 10.0001 23.0821Z" fill="#F9EA31"/>
<path d="M-0.644477 34.5182C-0.735512 34.5182 -0.809746 34.4407 -0.810936 34.3444L-0.815486 33.9788C-0.841387 31.915 -0.862525 30.2326 -0.81062 28.8601C-0.894725 26.6334 -1.17301 25.2674 -1.94172 24.4541C-2.71053 23.6411 -4.00199 23.3467 -6.10728 23.2577C-7.40462 23.3127 -8.99446 23.2905 -10.9451 23.263L-11.2913 23.2582C-11.3825 23.2568 -11.4556 23.1784 -11.4556 23.0821C-11.4556 22.9858 -11.3825 22.9074 -11.2913 22.906L-10.9457 22.9012C-8.99502 22.8737 -7.40431 22.8517 -6.10696 22.9062C-4.00182 22.8173 -2.71042 22.5231 -1.94161 21.7099C-1.17291 20.8969 -0.894725 19.5308 -0.81062 17.3041C-0.862525 15.9316 -0.841387 14.2492 -0.815486 12.1855L-0.810936 11.8198C-0.809746 11.7235 -0.735512 11.646 -0.644477 11.646C-0.553442 11.646 -0.479205 11.7235 -0.478015 11.8198L-0.473465 12.1855C-0.447565 14.2492 -0.426427 15.9316 -0.478332 17.3041C-0.394331 19.5308 -0.116045 20.8969 0.652555 21.7099C1.42136 22.5231 2.71307 22.8173 4.81822 22.9062C6.11598 22.8519 7.70604 22.8737 9.65665 22.9012L10.0022 22.906C10.0934 22.9074 10.1665 22.9858 10.1665 23.0821C10.1665 23.1784 10.0934 23.2568 10.0022 23.2582L9.65599 23.263C7.70568 23.2905 6.11486 23.3125 4.81787 23.2577C2.71248 23.3467 1.42143 23.6411 0.652623 24.4541C-0.116082 25.2674 -0.394365 26.6334 -0.478366 28.8599C-0.42646 30.2326 -0.447601 31.915 -0.473501 33.9788L-0.478051 34.3444C-0.479241 34.4407 -0.553442 34.5182 -0.644477 34.5182ZM-4.20205 23.0821C-3.07064 23.268 -2.27191 23.6067 -1.7062 24.2051C-1.1406 24.8035 -0.820352 25.6484 -0.644477 26.8452C-0.468602 25.6484 -0.148456 24.8035 0.417249 24.2051C0.982849 23.6069 1.78179 23.268 2.91299 23.0821C1.78137 22.8959 0.982954 22.5573 0.417145 21.9589C-0.148456 21.3604 -0.468707 20.5158 -0.644477 19.319C-0.820352 20.5158 -1.1405 21.3604 -1.7062 21.9589C-2.27191 22.5573 -3.07075 22.8959 -4.20205 23.0821Z" fill="black"/>
<path d="M49.9531 32.7303C47.279 33.1509 46.9567 33.4919 46.559 36.3206C46.1614 33.4919 45.8391 33.1509 43.165 32.7303C45.8391 32.3097 46.1614 31.9687 46.559 29.14C46.9567 31.9687 47.279 32.3097 49.9531 32.7303Z" fill="#F9EA31"/>
<path d="M46.559 36.4967C46.4766 36.4967 46.4065 36.4327 46.3944 36.3465C46.0086 33.602 45.7348 33.3125 43.1405 32.9046C43.0589 32.8917 42.9985 32.8177 42.9985 32.7303C42.9985 32.643 43.0589 32.5689 43.1405 32.5561C45.735 32.148 46.0086 31.8584 46.3944 29.1142C46.4066 29.0279 46.4766 28.964 46.559 28.964C46.6415 28.964 46.7115 29.0279 46.7236 29.1142C47.1094 31.8584 47.3831 32.148 49.9775 32.5561C50.0592 32.5689 50.1195 32.6432 50.1195 32.7303C50.1195 32.8174 50.0591 32.8917 49.9775 32.9046C47.3832 33.3124 47.1094 33.602 46.7236 36.3465C46.7115 36.4327 46.6415 36.4967 46.559 36.4967ZM44.1578 32.7303C45.7607 33.0735 46.2343 33.5748 46.559 35.2705C46.8837 33.5748 47.3573 33.0735 48.9603 32.7303C47.3573 32.3869 46.8837 31.8857 46.559 30.1902C46.2343 31.8857 45.7607 32.3869 44.1578 32.7303Z" fill="black"/>
<path d="M49.9531 32.7303C47.279 33.1509 46.9567 33.4919 46.559 36.3206C46.1614 33.4919 45.8391 33.1509 43.165 32.7303C45.8391 32.3097 46.1614 31.9687 46.559 29.14C46.9567 31.9687 47.279 32.3097 49.9531 32.7303Z" fill="#F9EA31"/>
<path d="M46.559 36.4967C46.4766 36.4967 46.4065 36.4327 46.3944 36.3465C46.0086 33.602 45.7348 33.3125 43.1405 32.9046C43.0589 32.8917 42.9985 32.8177 42.9985 32.7303C42.9985 32.643 43.0589 32.5689 43.1405 32.5561C45.735 32.148 46.0086 31.8584 46.3944 29.1142C46.4066 29.0279 46.4766 28.964 46.559 28.964C46.6415 28.964 46.7115 29.0279 46.7236 29.1142C47.1094 31.8584 47.3831 32.148 49.9775 32.5561C50.0592 32.5689 50.1195 32.6432 50.1195 32.7303C50.1195 32.8174 50.0591 32.8917 49.9775 32.9046C47.3832 33.3124 47.1094 33.602 46.7236 36.3465C46.7115 36.4327 46.6415 36.4967 46.559 36.4967ZM44.1578 32.7303C45.7607 33.0735 46.2343 33.5748 46.559 35.2705C46.8837 33.5748 47.3573 33.0735 48.9603 32.7303C47.3573 32.3869 46.8837 31.8857 46.559 30.1902C46.2343 31.8857 45.7607 32.3869 44.1578 32.7303Z" fill="black"/>
</g>
</g>
<defs>
<clipPath id="clip0_101_4751">
<rect width="68" height="68" rx="6" fill="white"/>
</clipPath>
<clipPath id="clip1_101_4751">
<rect width="68" height="68" fill="white"/>
</clipPath>
<clipPath id="clip2_101_4751">
<rect width="105" height="90" fill="white" transform="translate(-21 -6)"/>
</clipPath>
</defs>
</svg>
