<svg width="68" height="68" viewBox="0 0 68 68" fill="none" xmlns="http://www.w3.org/2000/svg">
<g clip-path="url(#clip0_101_6122)">
<g clip-path="url(#clip1_101_6122)">
<rect width="68" height="68" rx="6" fill="#F4F2F7"/>
</g>
<g style="mix-blend-mode:color-burn" clip-path="url(#clip2_101_6122)">
<path d="M1.98756 97.3556H72.424C72.424 97.3556 85.072 89.4191 80.9286 80.3171C76.7853 71.2151 54.7603 85.7006 54.7603 85.7006C54.7603 85.7006 74.9115 59.4574 59.1771 54.0017C43.4427 48.5459 24.6643 79.8731 24.6643 79.8731C24.6643 79.8731 19.9757 54.958 6.13088 57.8951C-7.71397 60.8321 1.98756 97.3556 1.98756 97.3556Z" fill="#F2E8E0"/>
<path d="M72.424 97.6052H1.98754C1.87669 97.6052 1.7796 97.5294 1.75067 97.4205C1.47004 96.3636 -5.05573 71.4218 0.951772 61.461C2.20095 59.3895 3.92669 58.1073 6.08083 57.6504C8.96886 57.0374 11.6854 57.5766 14.154 59.2523C21.056 63.9371 24.141 76.3313 24.778 79.2197C25.9525 77.3436 30.2215 70.7525 35.8424 64.7195C44.629 55.2885 52.7259 51.501 59.2562 53.7653C62.2937 54.8186 64.2337 56.7187 65.0222 59.4136C67.4366 67.6648 58.5387 80.9064 55.7481 84.7795C59.4873 82.4638 71.4884 75.5046 77.8463 77.3778C79.3902 77.8324 80.5021 78.7862 81.1514 80.2122C85.3378 89.409 72.681 97.4875 72.5528 97.5682C72.5141 97.5923 72.4696 97.6053 72.424 97.6053L72.424 97.6052ZM2.17648 97.1057H72.3529C73.2683 96.5086 84.568 88.9062 80.706 80.4222C80.1194 79.1331 79.1114 78.2704 77.71 77.8577C70.4926 75.729 55.0486 85.8081 54.8934 85.9102C54.7927 85.9769 54.6597 85.9587 54.5792 85.8689C54.4984 85.7788 54.4933 85.6426 54.5671 85.5466C54.599 85.505 57.794 81.3246 60.6067 76.0402C63.1879 71.1905 65.9677 64.3937 64.5518 59.5557C63.8113 57.0253 61.9763 55.2362 59.098 54.2381C43.7262 48.9085 25.0602 79.6915 24.8736 80.003C24.8208 80.0908 24.7205 80.1354 24.6205 80.1188C24.5208 80.1003 24.4424 80.0212 24.4232 79.9201C24.3949 79.7698 21.507 64.8427 13.8811 59.6672C11.5258 58.0696 8.93527 57.5554 6.18075 58.1395C4.16431 58.5671 2.54555 59.7726 1.36987 61.7221C-1.06249 65.7552 -1.68842 73.1775 -0.440402 83.186C0.416493 90.0577 1.89262 95.9974 2.17644 97.1057L2.17648 97.1057Z" fill="black"/>
<path d="M37.6008 29.5172C37.6008 29.5172 45.0844 -2.70819 59.1962 2.70024C66.1472 5.36426 58.3992 11.2064 51.9999 15.1877C46.8776 18.3747 43.24 28.832 43.24 28.832C43.24 28.832 39.8659 29.6281 37.6008 29.5172V29.5172Z" fill="#96E693"/>
<path d="M38.0619 29.7776C37.9005 29.7776 37.7425 29.774 37.589 29.7665C37.5162 29.763 37.4486 29.7265 37.4049 29.6674C37.3609 29.6078 37.3453 29.5317 37.3621 29.4596C37.3745 29.4062 38.6272 24.0623 41.0159 18.1652C44.2351 10.2178 47.8715 5.10143 51.8243 2.95872C54.2274 1.65665 56.7367 1.49045 59.2825 2.46638C61.0828 3.15645 62.0525 4.11772 62.1644 5.32353C62.3909 7.76186 59.1077 11.058 52.1277 15.4007C47.1374 18.5056 43.5074 28.8118 43.4713 28.9155C43.4433 28.9961 43.377 29.0563 43.2954 29.0755C43.1655 29.106 40.2922 29.7776 38.0619 29.7776H38.0619ZM37.9121 29.2771C39.8497 29.3028 42.4503 28.7532 43.0554 28.6183C43.2613 28.0498 44.1364 25.7048 45.4819 23.0893C47.5593 19.0504 49.7091 16.32 51.8719 14.9747C58.5815 10.8001 61.8802 7.56898 61.6761 5.37034C61.5831 4.3707 60.7197 3.55087 59.1097 2.93396C56.7013 2.01107 54.3279 2.16713 52.0549 3.39962C43.4547 8.06161 38.5563 26.6872 37.9121 29.2771Z" fill="black"/>
<path d="M39.8082 29.7669C39.783 29.7669 39.7574 29.763 39.732 29.7546C39.6033 29.7116 39.533 29.5708 39.575 29.4398C43.7125 16.5441 56.3504 5.69694 56.4776 5.58863C56.5816 5.50084 56.7362 5.51448 56.8231 5.62048C56.9099 5.72616 56.896 5.88389 56.7919 5.97233C56.6659 6.0793 44.1347 16.8374 40.0414 29.5945C40.0076 29.6999 39.9115 29.7669 39.8082 29.7669Z" fill="black"/>
<path d="M51.4344 11.1647C51.3683 11.1647 51.3047 11.1373 51.2583 11.0886C51.2062 11.0339 51.1814 10.9582 51.1912 10.8827L51.7566 6.46981C51.774 6.33289 51.8954 6.23826 52.0316 6.25419C52.1659 6.27207 52.2606 6.39758 52.243 6.53417L51.7176 10.6355L55.574 10.2495C55.7106 10.2336 55.8289 10.3363 55.8422 10.4736C55.8554 10.6108 55.7569 10.7331 55.6219 10.7464L51.4584 11.1633C51.4504 11.1643 51.4424 11.1646 51.4344 11.1646V11.1647Z" fill="black"/>
<path d="M45.0505 19.2589C45.0369 19.2589 45.023 19.2579 45.0091 19.2553C44.8756 19.2322 44.7856 19.1034 44.8083 18.9675C45.1782 16.7441 45.5473 14.2284 45.5157 13.8655C45.4788 13.7718 45.5002 13.6609 45.5773 13.5888C45.6771 13.4954 45.8322 13.5016 45.9239 13.6034C46.0218 13.7117 46.1558 13.8599 45.2919 19.0507C45.2717 19.1727 45.1679 19.2589 45.0505 19.2589Z" fill="black"/>
<path d="M34.2866 29.5172C34.2866 29.5172 26.803 -2.70822 12.6912 2.70025C5.74026 5.36427 13.4882 11.2064 19.8875 15.1878C25.0098 18.3747 28.6474 28.832 28.6474 28.832C28.6474 28.832 32.0215 29.6282 34.2866 29.5172V29.5172Z" fill="#96E693"/>
<path d="M33.8254 29.7775C31.5951 29.7775 28.7218 29.106 28.5919 29.0754C28.5103 29.0563 28.444 28.9961 28.416 28.9154C28.38 28.8117 24.7481 18.5046 19.7595 15.4006C12.7794 11.058 9.4964 7.76177 9.72273 5.32348C9.83471 4.11767 10.8043 3.15637 12.6047 2.46633C15.1504 1.49105 17.6598 1.65628 20.0631 2.95867C24.0158 5.1017 27.6523 10.2177 30.8714 18.1651C33.2601 24.0622 34.5128 29.4062 34.5253 29.4595C34.542 29.5317 34.5264 29.6078 34.4825 29.6673C34.4387 29.7265 34.3712 29.7629 34.2983 29.7665C34.145 29.774 33.9867 29.7775 33.8254 29.7775ZM28.832 28.6182C29.437 28.7532 32.0361 29.3024 33.9752 29.277C33.3308 26.6868 28.4309 8.06065 19.8321 3.39961C17.5592 2.16744 15.1856 2.01069 12.7775 2.93395C11.1675 3.55086 10.3041 4.37065 10.2113 5.37032C10.007 7.56864 13.3057 10.8001 20.0153 14.9746C22.1781 16.32 24.328 19.0503 26.4055 23.0893C27.751 25.7048 28.6261 28.0498 28.832 28.6182Z" fill="black"/>
<path d="M32.0792 29.7668C31.9759 29.7668 31.8799 29.6999 31.846 29.5945C27.7516 16.8338 15.2215 6.07927 15.0955 5.97226C14.9914 5.88382 14.9775 5.72641 15.0644 5.62041C15.1513 5.51441 15.3059 5.49975 15.4099 5.58856C15.537 5.69684 28.1749 16.5441 32.3124 29.4397C32.3544 29.5708 32.2841 29.7116 32.1554 29.7545C32.1302 29.763 32.1044 29.7668 32.0792 29.7668Z" fill="black"/>
<path d="M20.4529 11.1646C20.4449 11.1646 20.437 11.1643 20.429 11.1633L16.2653 10.7464C16.1303 10.7331 16.0318 10.6108 16.045 10.4736C16.0584 10.3363 16.1795 10.2339 16.3132 10.2495L20.1698 10.6355L19.6441 6.53418C19.6266 6.39759 19.7213 6.27208 19.8556 6.25419C19.9902 6.23761 20.113 6.33289 20.1306 6.46981L20.6962 10.8827C20.7059 10.9582 20.6812 11.0339 20.6291 11.0886C20.5826 11.1373 20.519 11.1646 20.4529 11.1646Z" fill="black"/>
<path d="M26.8369 19.2587C26.7195 19.2587 26.6157 19.1726 26.5954 19.0506C25.7315 13.8598 25.8655 13.7116 25.9634 13.6033C26.0551 13.5015 26.2105 13.4953 26.31 13.5887C26.3872 13.6608 26.4086 13.7717 26.3717 13.8654C26.34 14.2286 26.7091 16.744 27.079 18.9674C27.1017 19.1033 27.0118 19.2321 26.8783 19.2552C26.8644 19.2578 26.8505 19.2587 26.8369 19.2587ZM26.325 13.9408C26.3249 13.9411 26.3246 13.9411 26.3244 13.9415C26.3245 13.9411 26.3247 13.9411 26.325 13.9408Z" fill="black"/>
<path d="M25.8053 27.6752C25.8053 27.6752 36.8702 25.3726 45.7435 28.0085V36.5337H26.9765L25.8053 27.6752Z" fill="#F9EA31"/>
<path d="M45.7435 36.7835H26.9764C26.8535 36.7835 26.7496 36.6912 26.7333 36.5669L25.5622 27.7083C25.545 27.5782 25.6298 27.4566 25.7561 27.4306C25.8673 27.4068 36.9826 25.1458 45.8122 27.7688C45.9169 27.7997 45.9888 27.8976 45.9888 28.0084V36.5338C45.9888 36.6717 45.879 36.7835 45.7435 36.7835ZM27.1909 36.284H45.4982V28.1964C37.5057 25.8895 27.682 27.5743 26.0794 27.8761L27.1909 36.284Z" fill="black"/>
<path d="M53.4742 59.7266C51.3481 56.5631 45.5619 54.5651 45.5619 54.5651H25.2393C25.2393 54.5651 19.4531 56.5631 17.3269 59.7266C15.2007 62.8901 8.8222 78.2081 8.8222 78.2081H19.6623L22.3589 85.7006V97.3556H48.4423V85.7006L51.1389 78.2081H61.979C61.979 78.2081 55.6004 62.8901 53.4742 59.7266Z" fill="#96E693"/>
<path d="M48.4423 97.6052H22.3589C22.2235 97.6052 22.1136 97.4933 22.1136 97.3554V85.7447L19.4908 78.4577H8.8221C8.73985 78.4577 8.66304 78.4157 8.61749 78.3458C8.57213 78.2759 8.56413 78.1875 8.59624 78.1104C8.85708 77.4841 15.0086 62.7332 17.1243 59.5853C19.272 56.3899 24.9211 54.4111 25.1605 54.3285C25.1859 54.3197 25.2124 54.3152 25.2392 54.3152H45.5618C45.5887 54.3152 45.6152 54.3197 45.6406 54.3285C45.88 54.4111 51.5289 56.3899 53.6767 59.5853C55.7923 62.7332 61.9439 77.4841 62.2047 78.1104C62.2368 78.1875 62.2288 78.2759 62.1834 78.3458C62.1379 78.4157 62.0611 78.4577 61.9788 78.4577H51.3101L48.6875 85.7447V97.3554C48.6875 97.4933 48.5776 97.6052 48.4422 97.6052H48.4423ZM22.6043 97.1057H48.1969V85.7004C48.1969 85.6712 48.202 85.6419 48.212 85.6146L50.9085 78.1221C50.9438 78.0236 51.0358 77.9582 51.1388 77.9582H61.6077C60.6453 75.6623 55.1826 62.7104 53.2717 59.8676C51.3046 56.9405 46.0187 54.9932 45.5205 54.8147H25.2807C24.7825 54.9932 19.4964 56.9405 17.5293 59.8676C15.6185 62.7108 10.1558 75.6623 9.19332 77.9582H19.6622C19.7653 77.9582 19.8571 78.0236 19.8926 78.1221L22.5893 85.6146C22.5992 85.6419 22.6043 85.6712 22.6043 85.7004L22.6043 97.1057Z" fill="black"/>
<path d="M50.2735 39.8695C51.8457 37.4669 51.7473 34.6208 50.0537 33.5126C48.3601 32.4044 45.7128 33.4538 44.1406 35.8564C42.5684 38.259 42.6669 41.105 44.3604 42.2132C46.054 43.3214 48.7014 42.2721 50.2735 39.8695Z" fill="#F9EA31"/>
<path d="M45.9013 42.9059C45.254 42.9059 44.6565 42.7261 44.1498 42.37C42.3849 41.1294 42.3204 38.0982 44.0059 35.6128C44.8139 34.4213 45.9004 33.527 47.0653 33.0951C48.2602 32.6519 49.3958 32.7445 50.2639 33.3546C51.1321 33.965 51.6194 35.0138 51.6358 36.3074C51.6518 37.5695 51.2158 38.9206 50.4078 40.1119C49.5997 41.3034 48.5133 42.1977 47.3483 42.6295C46.8508 42.8142 46.3634 42.9059 45.9013 42.9059V42.9059ZM48.5105 33.3192C48.1053 33.3192 47.675 33.4005 47.2332 33.5644C46.1631 33.9611 45.1604 34.7894 44.4097 35.8963C42.8778 38.1551 42.8863 40.8748 44.4287 41.959C45.1624 42.4747 46.1398 42.5463 47.1805 42.1603C48.2506 41.7635 49.2533 40.9353 50.004 39.8283C50.7547 38.7213 51.16 37.4732 51.1452 36.3139C51.1308 35.1864 50.7189 34.2814 49.985 33.7657C49.5627 33.4688 49.0598 33.3192 48.5105 33.3192Z" fill="black"/>
<path d="M47.2068 44.1257C48.4502 44.1257 49.4582 43.0995 49.4582 41.8337C49.4582 40.5678 48.4502 39.5416 47.2068 39.5416C45.9633 39.5416 44.9553 40.5678 44.9553 41.8337C44.9553 43.0995 45.9633 44.1257 47.2068 44.1257Z" fill="#96E693"/>
<path d="M47.2068 44.3754C45.83 44.3754 44.7101 43.2353 44.7101 41.8337C44.7101 40.4321 45.83 39.292 47.2068 39.292C48.5836 39.292 49.7035 40.4321 49.7035 41.8337C49.7035 43.2353 48.5836 44.3754 47.2068 44.3754ZM47.2068 39.7915C46.1006 39.7915 45.2007 40.7076 45.2007 41.8337C45.2007 42.9598 46.1006 43.8759 47.2068 43.8759C48.313 43.8759 49.2129 42.9598 49.2129 41.8337C49.2129 40.7076 48.313 39.7915 47.2068 39.7915Z" fill="black"/>
<path d="M27.9184 41.5487V52.6283L25.2393 54.5649C25.2393 54.5649 30.808 63.6248 35.7066 63.8875C41.8283 63.2594 46.4129 54.7314 46.4129 54.7314C44.7501 53.8989 43.76 53.3501 43.3529 51.4102V45.0525L27.9184 41.5487Z" fill="#F9EA31"/>
<path d="M35.7066 64.1373C35.7023 64.1373 35.698 64.1373 35.6937 64.137C33.5942 64.0245 31.158 62.3949 28.4525 59.2935C26.4575 57.0064 25.0454 54.7203 25.0313 54.6972C24.9623 54.5853 24.9912 54.4377 25.0973 54.3613L27.6731 52.4992V41.5489C27.6731 41.4731 27.7069 41.4016 27.7649 41.3541C27.8231 41.3063 27.8989 41.2887 27.9717 41.305L43.4062 44.8086C43.5185 44.8343 43.5982 44.9355 43.5982 45.0525V51.3835C43.9783 53.16 44.8641 53.6777 46.5212 54.5073C46.5812 54.5372 46.6266 54.5912 46.6467 54.6559C46.667 54.7209 46.6603 54.7915 46.628 54.8513C46.6165 54.8728 45.4468 57.0331 43.5395 59.2389C41.7667 61.2896 38.9727 63.8037 35.7312 64.136C35.7231 64.137 35.7148 64.1373 35.7066 64.1373ZM25.5726 54.6302C26.4196 55.9479 31.3864 63.3848 35.7009 63.6372C41.061 63.0726 45.2928 56.1817 46.0699 54.8374C44.459 54.0198 43.5175 53.3899 43.1129 51.4622C43.1092 51.4453 43.1075 51.4277 43.1075 51.4102V45.2529L28.1637 41.8605V52.6284C28.1637 52.7093 28.1252 52.7851 28.0604 52.8319L25.5726 54.6302L25.5726 54.6302Z" fill="black"/>
<path d="M20.6075 32.2035C22.2373 31.588 24.3204 32.1453 25.9537 33.4657L25.8053 27.6752C25.8053 27.6752 26.8092 29.4571 36.0808 29.5344C42.732 29.5899 45.7435 28.0085 45.7435 28.0085V40.0917C45.7435 45.7275 41.2133 50.4743 35.6781 50.3791C30.7036 50.2936 26.6257 46.4698 26.0311 41.5488C23.8188 42.1354 20.9398 40.7748 19.4259 38.3589C17.8282 35.8092 18.3573 33.0533 20.6075 32.2035Z" fill="#F9EA31"/>
<path d="M35.842 50.6303C35.786 50.6303 35.7301 50.63 35.6738 50.629C30.7411 50.5438 26.5538 46.791 25.8243 41.8523C23.5216 42.3066 20.7283 40.9017 19.2191 38.493C18.3009 37.0277 18.0233 35.4319 18.4576 34.1142C18.789 33.1087 19.5223 32.3471 20.5223 31.9693C22.0412 31.3959 24.0259 31.7865 25.6953 32.9601L25.5602 27.6816C25.5571 27.5671 25.6309 27.4653 25.739 27.4347C25.8478 27.4029 25.9623 27.4516 26.0181 27.5508C26.0243 27.5593 27.2305 29.211 36.0829 29.2848C42.5838 29.3469 45.6015 27.8019 45.6314 27.7863C45.7071 27.746 45.7981 27.7495 45.8713 27.7954C45.9443 27.8406 45.9888 27.9212 45.9888 28.0084V40.0917C45.9888 42.9128 44.8465 45.674 42.855 47.6678C40.9425 49.5822 38.4578 50.6303 35.8421 50.6303L35.842 50.6303ZM26.0312 41.2991C26.0799 41.2991 26.128 41.3138 26.169 41.3424C26.2274 41.3827 26.2659 41.4471 26.2747 41.5183C26.8577 46.3452 30.9021 50.0469 35.6821 50.1295C38.2314 50.1779 40.6519 49.1724 42.5109 47.3117C44.4093 45.4112 45.4981 42.7798 45.4981 40.0917V28.3934C44.5176 28.8031 41.5122 29.8281 36.0787 29.7843C29.413 29.7287 26.9522 28.8038 26.065 28.2305L26.1988 33.4593C26.2014 33.5562 26.1485 33.646 26.0632 33.6892C25.9784 33.7325 25.876 33.7214 25.8011 33.6613C24.1867 32.3563 22.1817 31.8746 20.6928 32.4375C19.8224 32.7663 19.2102 33.4011 18.9227 34.2732C18.5358 35.4469 18.7946 36.8868 19.6328 38.2244C21.0675 40.5144 23.8508 41.8675 25.9693 41.3072C25.9898 41.3017 26.0105 41.2991 26.0311 41.2991L26.0312 41.2991Z" fill="black"/>
<path d="M24.6105 39.136C24.5209 39.136 24.4346 39.0859 24.3915 38.9991C22.8363 35.872 20.8497 35.6821 20.8297 35.6805C20.6948 35.6697 20.5937 35.5497 20.6041 35.4122C20.6143 35.2746 20.7342 35.1764 20.8674 35.1823C20.9597 35.1894 23.1506 35.3982 24.8291 38.7734C24.8904 38.8967 24.842 39.0469 24.7211 39.109C24.6855 39.1272 24.6478 39.136 24.6105 39.136Z" fill="black"/>
<path d="M31.8883 32.1459C31.3094 32.1847 30.403 32.3975 29.787 33.2733C29.6491 33.4693 29.3613 33.2925 29.396 33.0315C29.4884 32.3374 29.6982 31.554 30.171 31.2755C30.7371 30.9419 31.5045 30.8465 31.9882 31.1365C32.4051 31.3864 32.332 32.1161 31.8883 32.1459Z" fill="black"/>
<path d="M41.948 32.0616C42.5278 32.0429 43.4503 32.165 44.147 32.9756C44.3029 33.157 44.5725 32.9525 44.513 32.6962C44.3548 32.0145 44.0711 31.2557 43.5739 31.0252C42.9787 30.7493 42.2058 30.7303 41.7521 31.0668C41.3611 31.3569 41.5035 32.0759 41.948 32.0616Z" fill="black"/>
<path d="M36.436 41.678C36.3242 41.678 36.2233 41.6 36.1971 41.4845C36.1668 41.3499 36.249 41.2159 36.3811 41.185C37.9554 40.8149 38.3718 39.6803 38.48 39.0371C38.6041 38.2983 38.4095 37.7308 38.3027 37.6615C38.0968 37.5779 37.3018 38.1048 36.6071 38.7909C36.5364 38.8608 36.431 38.8804 36.3407 38.8417C36.2498 38.8026 36.1909 38.7122 36.1909 38.6117V34.2964C36.1909 34.1585 36.3008 34.0466 36.4362 34.0466C36.5717 34.0466 36.6816 34.1585 36.6816 34.2964V38.0469C37.2074 37.5896 38.0106 37.0043 38.4901 37.2004C38.8934 37.3646 39.0524 38.1357 39.0012 38.812C38.9601 39.3541 38.6578 41.1626 36.4913 41.6715C36.4728 41.676 36.4543 41.678 36.4361 41.678L36.436 41.678Z" fill="black"/>
<path d="M33.9275 45.6229C33.2144 45.6233 32.6006 45.4425 32.0947 45.0821C30.92 44.2457 30.6763 42.688 30.5844 42.1014C30.5726 42.0259 30.5648 41.969 30.5566 41.9359C30.5084 41.8266 30.5434 41.6946 30.6445 41.6259C30.7568 41.5495 30.9093 41.5804 30.9847 41.6952C31.0281 41.7615 31.0391 41.8324 31.069 42.023C31.1517 42.5521 31.3718 43.9579 32.376 44.6727C32.9891 45.1094 33.8123 45.2301 34.8226 45.0294C34.9547 45.005 35.0842 45.0915 35.1102 45.2268C35.1361 45.3624 35.0492 45.4935 34.9162 45.5198C34.5683 45.5888 34.2385 45.6229 33.9275 45.6229Z" fill="black"/>
<path d="M22.3588 44.1257C23.6023 44.1257 24.6103 43.0995 24.6103 41.8337C24.6103 40.5678 23.6023 39.5416 22.3588 39.5416C21.1154 39.5416 20.1074 40.5678 20.1074 41.8337C20.1074 43.0995 21.1154 44.1257 22.3588 44.1257Z" fill="#96E693"/>
<path d="M22.3589 44.3754C20.9821 44.3754 19.8621 43.2353 19.8621 41.8337C19.8621 40.4321 20.9822 39.292 22.3589 39.292C23.7357 39.292 24.8557 40.4321 24.8557 41.8337C24.8557 43.2353 23.7357 44.3754 22.3589 44.3754ZM22.3589 39.7915C21.2527 39.7915 20.3527 40.7076 20.3527 41.8337C20.3527 42.9598 21.2527 43.8759 22.3589 43.8759C23.4651 43.8759 24.365 42.9598 24.365 41.8337C24.365 40.7076 23.4651 39.7915 22.3589 39.7915Z" fill="black"/>
<path d="M27.7797 46.1353C27.7797 46.1353 31.148 52.789 35.2368 53.899C39.3256 55.009 43.3529 46.7476 43.3529 46.7476C43.3529 46.7476 35.2603 54.7441 27.7797 46.1353Z" fill="black"/>
<path d="M36.0111 54.252C35.7336 54.252 35.4541 54.2163 35.1735 54.1402C31.0273 53.0147 27.7011 46.5254 27.5616 46.2496C27.5049 46.1375 27.5389 46.0002 27.6411 45.929C27.7432 45.8581 27.8815 45.8754 27.9633 45.9697C30.1248 48.4571 32.5448 49.7696 35.1564 49.8707C39.6078 50.0398 43.1468 46.6028 43.182 46.5684C43.2679 46.4835 43.4013 46.4744 43.4976 46.5459C43.5941 46.6175 43.6257 46.7495 43.5727 46.8585C43.4156 47.1804 39.9204 54.2521 36.0111 54.2521L36.0111 54.252ZM28.9745 47.7033C30.2505 49.7247 32.6373 52.9347 35.3 53.6576C38.2442 54.455 41.2463 49.9708 42.5108 47.7826C41.1102 48.8443 38.396 50.4983 35.1377 50.3698C32.9344 50.2846 30.8681 49.3894 28.9744 47.7032L28.9745 47.7033Z" fill="black"/>
<path d="M31.0296 36.7834C31.0221 36.7834 31.0146 36.7834 31.0071 36.7831C30.353 36.7763 29.7488 36.4664 29.2114 35.8628C29.1203 35.7603 29.128 35.6026 29.2283 35.51C29.3289 35.4179 29.484 35.4254 29.5749 35.5272C30.016 36.0228 30.4985 36.2771 31.009 36.2836C31.0157 36.2839 31.0226 36.2839 31.0293 36.2839C31.9245 36.2839 32.6399 35.5308 32.6471 35.523C32.7402 35.4234 32.8956 35.4192 32.9937 35.5142C33.0919 35.6088 33.0962 35.7665 33.0033 35.8667C32.9683 35.9041 32.139 36.7834 31.0296 36.7834L31.0296 36.7834Z" fill="black"/>
<path d="M41.6036 36.7835C40.494 36.7835 39.6649 35.9041 39.6299 35.8667C39.537 35.7666 39.5413 35.6089 39.6395 35.5142C39.7376 35.4196 39.893 35.4239 39.9861 35.523C39.9933 35.5309 40.7087 36.284 41.6039 36.284C41.6106 36.284 41.6173 36.284 41.6242 36.2837C42.1346 36.2772 42.6172 36.0229 43.0583 35.5273C43.149 35.4252 43.304 35.4174 43.4049 35.51C43.5052 35.6027 43.5129 35.7605 43.4218 35.8629C42.8844 36.4664 42.2802 36.7763 41.6261 36.7832C41.6186 36.7835 41.6111 36.7835 41.6036 36.7835L41.6036 36.7835Z" fill="black"/>
<path d="M26.0701 42.0835C25.9448 42.0835 25.8378 41.9863 25.8261 41.8566L25.561 38.909C25.5487 38.7717 25.648 38.6501 25.783 38.6374C25.9183 38.6248 26.0374 38.7259 26.0497 38.8634L26.3149 41.811C26.3272 41.9483 26.2278 42.0699 26.0928 42.0826C26.0852 42.0832 26.0776 42.0835 26.0701 42.0835Z" fill="black"/>
<path d="M45.7433 39.7915C45.6965 39.7915 45.6494 39.7779 45.6077 39.7499C45.4948 39.6735 45.4641 39.5183 45.5392 39.4035C47.0878 37.0322 49.0586 36.5789 49.1418 36.5607C49.2744 36.5305 49.404 36.6176 49.4326 36.7519C49.4614 36.8865 49.3774 37.0195 49.2453 37.0491C49.2268 37.053 47.3799 37.4875 45.9478 39.6799C45.9005 39.7524 45.8227 39.7915 45.7433 39.7915Z" fill="black"/>
<path d="M19.6625 78.4577C19.6512 78.4577 19.6399 78.457 19.6284 78.4554C19.4942 78.4362 19.4006 78.31 19.4193 78.1734L20.8456 67.7672C20.8644 67.6306 20.99 67.5363 21.1224 67.5542C21.2565 67.5734 21.3501 67.6995 21.3314 67.8361L19.9052 78.2424C19.8881 78.3672 19.783 78.4577 19.6625 78.4577Z" fill="black"/>
<path d="M51.1391 78.4577C51.1318 78.4577 51.1246 78.4574 51.1172 78.4567C50.9824 78.4447 50.8828 78.3237 50.8944 78.1865C50.9208 77.8001 50.2993 71.4813 49.8749 67.3279C49.8609 67.191 49.9588 67.0681 50.0936 67.0537C50.2278 67.0388 50.349 67.1392 50.363 67.2765C50.4721 68.3438 51.4273 77.7211 51.3832 78.2297C51.372 78.3598 51.2648 78.4577 51.1391 78.4577L51.1391 78.4577Z" fill="black"/>
<path d="M35.049 29.5172C35.049 29.5172 34.9334 21.3761 31.7714 20.9876C28.6094 20.599 28.5004 22.4306 25.8836 19.5446C23.2667 16.6585 21.4131 14.9936 19.6141 16.714C17.815 18.4345 18.2511 17.2691 14.4349 16.4366C10.6187 15.6041 9.36481 19.9886 11.3274 21.8755C13.2901 23.7626 16.0705 21.5981 16.9427 23.3185C17.815 25.039 19.1779 27.9805 22.0129 26.482C24.8477 24.9835 28.6453 26.7756 28.8182 28.6823C28.8182 28.6823 33.529 29.4998 35.049 29.5172L35.049 29.5172Z" fill="#D797CA"/>
<path d="M35.049 29.7669H35.0463C33.5243 29.7496 28.9701 28.962 28.777 28.9285C28.6674 28.9096 28.5841 28.8179 28.574 28.7054C28.5151 28.056 27.9407 27.3688 27.0375 26.8664C25.8639 26.2144 23.8736 25.78 22.126 26.7039C21.2801 27.1507 20.4813 27.258 19.7516 27.0206C18.2967 26.5484 17.4384 24.847 16.8117 23.6051L16.7248 23.433C16.3951 22.7826 15.7618 22.8041 14.6711 22.8991C13.594 22.9934 12.2536 23.1095 11.1589 22.0571C10.0929 21.0321 9.85031 19.2594 10.5822 17.8422C11.3092 16.4341 12.7684 15.8176 14.4863 16.1922C15.8561 16.4911 16.7047 16.8397 17.2662 17.0702C18.2682 17.4823 18.3974 17.5353 19.4461 16.532C20.0069 15.9958 20.5887 15.7369 21.2268 15.7694C22.5893 15.8185 23.9779 17.0748 26.0639 19.3752C27.6745 21.1514 28.2164 21.0516 29.2931 20.8519C29.9018 20.7394 30.6588 20.5986 31.8008 20.7397C35.1373 21.1495 35.2895 29.1721 35.2943 29.5135C35.2953 29.5808 35.2694 29.6455 35.2228 29.6934C35.1768 29.7405 35.1142 29.7669 35.049 29.7669ZM29.0345 28.4661C29.8502 28.6046 33.2948 29.1792 34.7958 29.2586C34.7722 28.6456 34.6821 27.0489 34.3545 25.4424C33.9837 23.6242 33.2295 21.4184 31.742 21.2354C30.673 21.1043 29.9565 21.237 29.3809 21.3433C28.1431 21.5719 27.4173 21.6041 25.7032 19.7141C24.0814 17.9255 22.5174 16.3158 21.2094 16.2686C20.7095 16.2465 20.2427 16.4556 19.7821 16.8963C18.5515 18.0728 18.233 18.0065 17.0827 17.5336C16.504 17.2959 15.7118 16.9704 14.3835 16.6806C12.8714 16.3499 11.6441 16.8589 11.0164 18.0744C10.3851 19.2975 10.5867 20.8197 11.4959 21.6942C12.4304 22.5927 13.5983 22.4906 14.6293 22.4015C15.6756 22.3104 16.6641 22.2243 17.1609 23.2041L17.2481 23.3768C17.8355 24.541 18.6402 26.1357 19.9008 26.5448C20.51 26.7426 21.1639 26.6495 21.8998 26.2603C23.8187 25.2457 25.9934 25.7166 27.2726 26.4281C28.2522 26.9728 28.8832 27.7068 29.0345 28.4661Z" fill="black"/>
<path d="M31.8532 29.5067C31.788 29.5067 31.7228 29.4804 31.6746 29.428C31.6225 29.3718 26.4166 23.7693 22.0075 21.4025C17.6179 19.0465 13.4898 18.9346 13.4486 18.934C13.3132 18.931 13.2056 18.8172 13.2084 18.6793C13.2109 18.5414 13.3355 18.4429 13.4583 18.4344C13.5007 18.4354 17.7391 18.547 22.2362 20.9609C26.7182 23.3667 31.9792 29.029 32.0319 29.0859C32.1247 29.1864 32.1199 29.3444 32.0214 29.4387C31.9739 29.4843 31.9135 29.5067 31.8532 29.5067V29.5067Z" fill="black"/>
<path d="M19.1778 22.1806C19.0679 22.1806 18.9677 22.1048 18.94 21.9913C18.9071 21.8577 18.9869 21.7221 19.1184 21.6886L21.7705 21.0135L20.4287 18.1677C20.3701 18.0435 20.4217 17.8942 20.5437 17.8347C20.6661 17.7742 20.8125 17.8272 20.8711 17.9518L22.3431 21.0737C22.3749 21.1413 22.3754 21.22 22.3439 21.288C22.3126 21.3556 22.2529 21.4057 22.1815 21.424L19.2375 22.1732C19.2176 22.1784 19.1975 22.1807 19.1778 22.1807L19.1778 22.1806Z" fill="black"/>
<path d="M27.9773 25.7447C27.9653 25.7447 27.9533 25.7438 27.9412 25.7421L24.7435 25.2582C24.6095 25.2377 24.517 25.1109 24.5369 24.9743C24.5567 24.8381 24.6815 24.7473 24.8157 24.7639L27.7083 25.2016L27.5199 22.7871C27.5091 22.6495 27.6099 22.5292 27.7449 22.5181C27.8816 22.5093 27.9982 22.6098 28.0089 22.7474L28.2218 25.4751C28.2277 25.5509 28.1994 25.6257 28.1447 25.6774C28.099 25.721 28.0389 25.7447 27.9773 25.7447L27.9773 25.7447Z" fill="black"/>
<path d="M14.3533 20.5573C14.2797 20.5573 14.2067 20.5235 14.1584 20.4594C14.076 20.3498 14.0963 20.1931 14.2039 20.1091L15.6775 18.9596L14.5625 17.3726C14.4836 17.2605 14.509 17.1044 14.6192 17.024C14.7294 16.945 14.8829 16.97 14.9615 17.0819L16.2146 18.8656C16.2916 18.9752 16.2694 19.1274 16.1643 19.2093L14.5023 20.5059C14.4579 20.5404 14.4054 20.5573 14.3533 20.5573Z" fill="black"/>
<path d="M37.6008 29.5172C37.6008 29.5172 37.7164 21.3761 40.8784 20.9876C44.0404 20.599 44.1494 22.4306 46.7663 19.5446C49.3831 16.6585 51.2367 14.9936 53.0357 16.714C54.8348 18.4345 54.3987 17.2691 58.2149 16.4366C62.0311 15.6041 63.285 19.9886 61.3224 21.8755C59.3597 23.7626 56.5794 21.5981 55.7071 23.3185C54.8348 25.039 53.4719 27.9805 50.6369 26.482C47.8021 24.9835 44.0045 26.7756 43.8316 28.6823C43.8316 28.6823 39.1208 29.4998 37.6008 29.5172L37.6008 29.5172Z" fill="#D797CA"/>
<path d="M37.6008 29.7668C37.5357 29.7668 37.473 29.7405 37.4271 29.6933C37.3804 29.6456 37.3546 29.5808 37.3555 29.5135C37.3603 29.172 37.5125 21.1495 40.8489 20.7397C41.9908 20.5982 42.7481 20.7391 43.3566 20.8519C44.4345 21.0509 44.9752 21.1511 46.5858 19.3752C48.6717 17.0747 50.0603 15.8185 51.4229 15.7694C52.0587 15.7363 52.6428 15.9958 53.2037 16.532C54.2521 17.5352 54.3809 17.4822 55.3836 17.0702C55.945 16.8397 56.7936 16.4911 58.1633 16.1922C59.8811 15.8182 61.3408 16.4344 62.0675 17.8422C62.7993 19.2594 62.5568 21.0321 61.4908 22.0571C60.3959 23.1094 59.0559 22.993 57.9786 22.899C56.8885 22.8037 56.2552 22.7823 55.9251 23.433L55.8383 23.6047C55.2116 24.847 54.3531 26.5484 52.8981 27.0206C52.1685 27.2579 51.37 27.151 50.5238 26.7038C48.776 25.7796 46.7858 26.2138 45.6123 26.8664C44.7091 27.3689 44.1347 28.056 44.0758 28.7054C44.0657 28.8179 43.9824 28.9096 43.8728 28.9285C43.6797 28.962 39.1253 29.7496 37.6035 29.7668H37.6008ZM41.7733 21.1807C41.5122 21.1807 41.2255 21.1963 40.9076 21.2353C39.4189 21.4184 38.6647 23.6278 38.294 25.4485C37.9672 27.0543 37.8775 28.6465 37.854 29.2585C39.3547 29.1795 42.7997 28.6045 43.6154 28.466C43.7666 27.7067 44.3977 26.9727 45.3772 26.428C46.6563 25.7165 48.831 25.2459 50.75 26.2602C51.4861 26.6495 52.1399 26.7425 52.749 26.5448C54.0097 26.1357 54.8143 24.5409 55.4018 23.3764L55.489 23.204C55.9856 22.2246 56.9737 22.3104 58.0204 22.4014C59.0501 22.4902 60.219 22.5927 61.1537 21.6941C62.063 20.8197 62.2647 19.2974 61.6332 18.0744C61.0055 16.8591 59.7786 16.3502 58.2662 16.6806C56.938 16.9703 56.1456 17.2959 55.5671 17.5336C54.4165 18.0057 54.0983 18.0724 52.8677 16.8962C52.4072 16.4556 51.9436 16.2474 51.4404 16.2686C50.1322 16.3157 48.5682 17.9255 46.9464 19.714C45.2326 21.6041 44.507 21.5719 43.2689 21.3433C42.8644 21.2685 42.3902 21.1807 41.7733 21.1807Z" fill="black"/>
<path d="M40.7965 29.5067C40.7361 29.5067 40.6758 29.4842 40.6283 29.4387C40.5298 29.3444 40.5249 29.1864 40.6178 29.0859C40.6705 29.029 45.9314 23.3667 50.4135 20.9609C54.9105 18.547 59.149 18.4354 59.1913 18.4344C59.32 18.4419 59.4387 18.5414 59.4413 18.6793C59.444 18.8172 59.3365 18.931 59.2011 18.934C59.1599 18.9346 55.0318 19.0465 50.6422 21.4025C46.233 23.7693 41.0271 29.3718 40.9751 29.428C40.9268 29.4804 40.8617 29.5067 40.7965 29.5067Z" fill="black"/>
<path d="M53.472 22.1806C53.4523 22.1806 53.4323 22.1783 53.4122 22.1731L50.4683 21.4238C50.3969 21.4056 50.3372 21.3556 50.3059 21.2879C50.2744 21.2199 50.2749 21.1412 50.3066 21.0736L51.7786 17.9517C51.8372 17.8271 51.9837 17.7741 52.106 17.8346C52.2281 17.8941 52.2796 18.0434 52.221 18.1676L50.8793 21.0134L53.5314 21.6885C53.6628 21.7219 53.7427 21.8576 53.7098 21.9912C53.682 22.1047 53.5819 22.1805 53.472 22.1805L53.472 22.1806Z" fill="black"/>
<path d="M44.6726 25.7447C44.6109 25.7447 44.5508 25.721 44.5052 25.6774C44.4505 25.6257 44.4221 25.5513 44.428 25.4752L44.6408 22.7474C44.6513 22.6099 44.7657 22.5088 44.9048 22.5182C45.0398 22.5292 45.1405 22.6496 45.1298 22.7871L44.9415 25.2017L47.834 24.764C47.9685 24.7471 48.0929 24.8381 48.1127 24.9744C48.1327 25.111 48.0402 25.2378 47.9062 25.2583L44.7087 25.7422C44.6967 25.7438 44.6845 25.7448 44.6726 25.7448V25.7447Z" fill="black"/>
<path d="M58.2964 20.5573C58.2444 20.5573 58.1918 20.5404 58.1474 20.506L56.4855 19.2094C56.3804 19.1274 56.3582 18.9752 56.4352 18.8657L57.6882 17.082C57.7666 16.9698 57.9204 16.9437 58.0303 17.0241C58.1405 17.1044 58.166 17.2605 58.0872 17.3727L56.9723 18.9596L58.4457 20.1092C58.5534 20.1931 58.5737 20.3498 58.4912 20.4594C58.443 20.5235 58.37 20.5573 58.2964 20.5573H58.2964Z" fill="black"/>
<path d="M42.791 9.25982C43.9295 9.25982 44.8525 7.17773 44.8525 4.60934C44.8525 2.04095 43.9295 -0.0411377 42.791 -0.0411377C41.6526 -0.0411377 40.7296 2.04095 40.7296 4.60934C40.7296 7.17773 41.6526 9.25982 42.791 9.25982Z" fill="#CFE8FD"/>
<path d="M42.7911 9.50974C41.4975 9.50974 40.4843 7.35725 40.4843 4.60936C40.4843 1.86147 41.4975 -0.291016 42.7911 -0.291016C44.0846 -0.291016 45.0977 1.86147 45.0977 4.60936C45.0977 7.35725 44.0845 9.50974 42.7911 9.50974ZM42.7911 0.208496C41.914 0.208496 40.9749 1.97691 40.9749 4.60936C40.9749 7.24181 41.914 9.01022 42.7911 9.01022C43.6681 9.01022 44.6071 7.24181 44.6071 4.60936C44.6071 1.97691 43.668 0.208496 42.7911 0.208496Z" fill="black"/>
<path d="M42.791 16.5303C43.9295 16.5303 44.8525 14.4482 44.8525 11.8798C44.8525 9.31146 43.9295 7.22937 42.791 7.22937C41.6526 7.22937 40.7296 9.31146 40.7296 11.8798C40.7296 14.4482 41.6526 16.5303 42.791 16.5303Z" fill="#CFE8FD"/>
<path d="M42.7911 16.7802C41.4975 16.7802 40.4843 14.6277 40.4843 11.8798C40.4843 9.13189 41.4975 6.97974 42.7911 6.97974C44.0846 6.97974 45.0977 9.13222 45.0977 11.8798C45.0977 14.6274 44.0845 16.7802 42.7911 16.7802ZM42.7911 7.47925C41.914 7.47925 40.9749 9.24734 40.9749 11.8798C40.9749 14.5122 41.914 16.2807 42.7911 16.2807C43.6681 16.2807 44.6071 14.5122 44.6071 11.8798C44.6071 9.24734 43.668 7.47925 42.7911 7.47925Z" fill="black"/>
<path d="M46.3619 10.3433C48.8848 10.3433 50.93 9.40371 50.93 8.2447C50.93 7.08568 48.8848 6.14612 46.3619 6.14612C43.839 6.14612 41.7938 7.08568 41.7938 8.2447C41.7938 9.40371 43.839 10.3433 46.3619 10.3433Z" fill="#CFE8FD"/>
<path d="M46.3619 10.593C43.6628 10.593 41.5484 9.56149 41.5484 8.24479C41.5484 6.9281 43.6628 5.89624 46.3619 5.89624C49.061 5.89624 51.1753 6.92777 51.1753 8.24479C51.1753 9.56181 49.061 10.593 46.3619 10.593ZM46.3619 6.39572C43.776 6.39572 42.0391 7.3518 42.0391 8.24479C42.0391 9.13778 43.776 10.0935 46.3619 10.0935C48.9477 10.0935 50.6846 9.13746 50.6846 8.24479C50.6846 7.35213 48.9477 6.39572 46.3619 6.39572Z" fill="black"/>
<path d="M39.2202 10.3433C41.7431 10.3433 43.7883 9.40371 43.7883 8.2447C43.7883 7.08568 41.7431 6.14612 39.2202 6.14612C36.6973 6.14612 34.652 7.08568 34.652 8.2447C34.652 9.40371 36.6973 10.3433 39.2202 10.3433Z" fill="#CFE8FD"/>
<path d="M39.2202 10.593C36.521 10.593 34.4066 9.56149 34.4066 8.24479C34.4066 6.9281 36.521 5.89624 39.2202 5.89624C41.9195 5.89624 44.0337 6.92777 44.0337 8.24479C44.0337 9.56181 41.9193 10.593 39.2202 10.593ZM39.2202 6.39572C36.6344 6.39572 34.8973 7.3518 34.8973 8.24479C34.8973 9.13778 36.6344 10.0935 39.2202 10.0935C41.8061 10.0935 43.543 9.13746 43.543 8.24479C43.543 7.35213 41.8061 6.39572 39.2202 6.39572Z" fill="black"/>
<path d="M46.8065 7.12506C48.5822 5.30074 49.3546 3.1724 48.5315 2.37126C47.7085 1.57012 45.6017 2.39958 43.826 4.22389C42.0502 6.0482 41.2779 8.17655 42.101 8.97768C42.924 9.77882 45.0308 8.94937 46.8065 7.12506Z" fill="#CFE8FD"/>
<path d="M42.9686 9.53255C42.5301 9.53255 42.1696 9.40085 41.9124 9.13907C40.9977 8.20804 41.7763 5.95672 43.685 4.01367C44.5717 3.11094 45.5653 2.41923 46.4826 2.06608C47.4636 1.68854 48.2579 1.73925 48.7196 2.20915C49.1812 2.67905 49.2312 3.48784 48.8601 4.4865C48.5134 5.42047 47.8339 6.43183 46.947 7.33456C46.0603 8.23729 45.0667 8.92899 44.1494 9.28214C43.715 9.44929 43.3171 9.53255 42.9686 9.53255ZM47.6607 2.3158C47.3737 2.3158 47.0329 2.38832 46.6563 2.53305C45.8025 2.86183 44.8706 3.51285 44.0319 4.36681C43.1932 5.22078 42.5535 6.16937 42.2308 7.03861C41.9364 7.83078 41.947 8.46786 42.2594 8.78589C42.5719 9.10392 43.1977 9.11402 43.9759 8.81514C44.8296 8.48635 45.7615 7.83534 46.6002 6.98138C47.4389 6.12774 48.0786 5.17882 48.4014 4.3099C48.6957 3.51741 48.6852 2.88033 48.3728 2.5623C48.2114 2.39809 47.9667 2.3158 47.6607 2.3158Z" fill="black"/>
<path d="M41.7565 12.266C43.5322 10.4417 44.3045 8.31339 43.4815 7.51225C42.6584 6.71112 40.5517 7.54057 38.7759 9.36488C37.0002 11.1892 36.2279 13.3175 37.0509 14.1187C37.874 14.9198 39.9807 14.0904 41.7565 12.266Z" fill="#CFE8FD"/>
<path d="M37.9186 14.6735C37.4801 14.6735 37.1196 14.5418 36.8624 14.2801C35.9477 13.349 36.7263 11.0977 38.635 9.15466C39.5217 8.25193 40.5153 7.56022 41.4326 7.20708C42.4136 6.82953 43.208 6.88025 43.6696 7.35014C44.1312 7.82004 44.1812 8.62883 43.8102 9.62749C43.4634 10.5615 42.7839 11.5728 41.897 12.4756C41.0103 13.3783 40.0167 14.07 39.0994 14.4231C38.665 14.5903 38.2672 14.6735 37.9186 14.6735ZM42.6107 7.4568C42.3237 7.4568 41.9829 7.52931 41.6063 7.67404C40.7526 8.00283 39.8206 8.65384 38.9819 9.50781C38.1432 10.3618 37.5036 11.3104 37.1808 12.1796C36.8864 12.9718 36.897 13.6088 37.2094 13.9269C37.5221 14.2449 38.1477 14.2553 38.9259 13.9561C39.7796 13.6273 40.7115 12.9763 41.5502 12.1224C42.3889 11.2687 43.0286 10.3198 43.3514 9.4509C43.6457 8.6584 43.6352 8.02133 43.3228 7.70329C43.1615 7.53908 42.9167 7.4568 42.6107 7.4568Z" fill="black"/>
<path d="M48.5311 14.1179C49.3542 13.3167 48.5819 11.1884 46.8061 9.36408C45.0304 7.53977 42.9237 6.71032 42.1006 7.51145C41.2776 8.31259 42.0499 10.4409 43.8256 12.2652C45.6014 14.0896 47.7081 14.919 48.5311 14.1179Z" fill="#CFE8FD"/>
<path d="M47.6635 14.6735C47.3148 14.6735 46.9171 14.5903 46.4827 14.4231C45.5654 14.07 44.5718 13.3783 43.685 12.4756C42.7981 11.5728 42.1187 10.5615 41.7719 9.62749C41.4009 8.62883 41.4509 7.82005 41.9125 7.35015C42.374 6.88025 43.1688 6.82982 44.1495 7.20708C45.0668 7.56023 46.0603 8.25193 46.9471 9.15466C48.8557 11.0977 49.6344 13.349 48.7197 14.2801C48.4625 14.5418 48.1019 14.6735 47.6634 14.6735H47.6635ZM42.9714 7.4568C42.6654 7.4568 42.4207 7.53908 42.2594 7.7033C41.947 8.02133 41.9364 8.65841 42.2308 9.4509C42.5536 10.3198 43.1932 11.2687 44.0319 12.1224C44.8706 12.9763 45.8026 13.6274 46.6563 13.9561C47.4346 14.2553 48.0603 14.2452 48.3728 13.9269C48.6852 13.6089 48.6957 12.9718 48.4014 12.1796C48.0786 11.3104 47.4389 10.3618 46.6002 9.50781C45.7615 8.65385 44.8296 8.00279 43.9759 7.67405C43.5993 7.52935 43.2584 7.4568 42.9714 7.4568Z" fill="black"/>
<path d="M43.4812 8.97688C44.3042 8.17575 43.5319 6.0474 41.7562 4.22309C39.9804 2.39877 37.8737 1.56933 37.0506 2.37046C36.2276 3.1716 36.9999 5.29994 38.7756 7.12426C40.5514 8.94857 42.6581 9.77802 43.4812 8.97688Z" fill="#CFE8FD"/>
<path d="M42.6134 9.53242C42.2648 9.53242 41.867 9.44915 41.4326 9.28201C40.5153 8.92886 39.5218 8.23716 38.635 7.33443C37.7481 6.4317 37.0686 5.42033 36.7219 4.48637C36.3508 3.4877 36.4008 2.67892 36.8624 2.20902C37.324 1.73912 38.1188 1.68902 39.0994 2.06595C40.0167 2.4191 41.0103 3.11081 41.8971 4.01353C43.8057 5.95659 44.5843 8.2079 43.6696 9.13894C43.4125 9.40072 43.0519 9.53242 42.6134 9.53242ZM37.9213 2.31567C37.6153 2.31567 37.3706 2.39796 37.2093 2.56217C36.8969 2.8802 36.8864 3.51728 37.1807 4.30977C37.5035 5.17869 38.1432 6.12761 38.9819 6.98124C39.8206 7.83521 40.7525 8.48626 41.6062 8.81501C42.3845 9.11418 43.0102 9.10412 43.3227 8.78576C43.6351 8.46772 43.6457 7.83065 43.3513 7.03848C43.0285 6.16924 42.3889 5.22065 41.5502 4.36668C40.7115 3.51272 39.7795 2.86167 38.9258 2.53292C38.5492 2.38822 38.2084 2.31567 37.9214 2.31567H37.9213Z" fill="black"/>
<path d="M42.4904 11.4271C44.051 11.4271 45.316 10.1392 45.316 8.55059C45.316 6.96193 44.051 5.67407 42.4904 5.67407C40.9299 5.67407 39.6648 6.96193 39.6648 8.55059C39.6648 10.1392 40.9299 11.4271 42.4904 11.4271Z" fill="#D797CA"/>
<path d="M42.4905 11.6768C40.7971 11.6768 39.4196 10.2746 39.4196 8.55073C39.4196 6.82688 40.7971 5.42432 42.4905 5.42432C44.1838 5.42432 45.5614 6.82688 45.5614 8.55073C45.5614 10.2746 44.1838 11.6768 42.4905 11.6768ZM42.4905 5.92379C41.0677 5.92379 39.9102 7.1023 39.9102 8.55073C39.9102 9.99917 41.0677 11.1774 42.4905 11.1774C43.9132 11.1774 45.0707 9.99917 45.0707 8.55073C45.0707 7.1023 43.9132 5.92379 42.4905 5.92379Z" fill="black"/>
<path d="M26.8373 3.64446C27.9758 3.64446 28.8987 1.56237 28.8987 -1.00602C28.8987 -3.57441 27.9758 -5.65649 26.8373 -5.65649C25.6988 -5.65649 24.7758 -3.57441 24.7758 -1.00602C24.7758 1.56237 25.6988 3.64446 26.8373 3.64446Z" fill="#CFE8FD"/>
<path d="M26.8372 3.89432C25.5438 3.89432 24.5306 1.74184 24.5306 -1.00605C24.5306 -3.75395 25.5438 -5.90625 26.8372 -5.90625C28.1307 -5.90625 29.1441 -3.75377 29.1441 -1.00605C29.1441 1.74166 28.1308 3.89432 26.8372 3.89432ZM26.8372 -5.40677C25.9602 -5.40677 25.0213 -3.63854 25.0213 -1.00605C25.0213 1.62643 25.9603 3.39481 26.8372 3.39481C27.7142 3.39481 28.6534 1.62639 28.6534 -1.00605C28.6534 -3.6385 27.7143 -5.40677 26.8372 -5.40677Z" fill="black"/>
<path d="M26.8373 10.915C27.9758 10.915 28.8987 8.83288 28.8987 6.26449C28.8987 3.6961 27.9758 1.61401 26.8373 1.61401C25.6988 1.61401 24.7758 3.6961 24.7758 6.26449C24.7758 8.83288 25.6988 10.915 26.8373 10.915Z" fill="#CFE8FD"/>
<path d="M26.8372 11.1647C25.5438 11.1647 24.5306 9.0122 24.5306 6.26431C24.5306 3.51642 25.5438 1.36426 26.8372 1.36426C28.1307 1.36426 29.1441 3.51674 29.1441 6.26431C29.1441 9.01188 28.1308 11.1647 26.8372 11.1647ZM26.8372 1.86377C25.9602 1.86377 25.0213 3.63186 25.0213 6.26431C25.0213 8.89676 25.9603 10.6652 26.8372 10.6652C27.7142 10.6652 28.6534 8.89676 28.6534 6.26431C28.6534 3.63186 27.7143 1.86377 26.8372 1.86377Z" fill="black"/>
<path d="M30.4081 4.72792C32.931 4.72792 34.9763 3.78835 34.9763 2.62934C34.9763 1.47033 32.931 0.530762 30.4081 0.530762C27.8852 0.530762 25.84 1.47033 25.84 2.62934C25.84 3.78835 27.8852 4.72792 30.4081 4.72792Z" fill="#CFE8FD"/>
<path d="M30.4081 4.97758C27.709 4.97758 25.5946 3.94605 25.5946 2.62935C25.5946 1.31266 27.709 0.281128 30.4081 0.281128C33.1072 0.281128 35.2215 1.31266 35.2215 2.62935C35.2215 3.94605 33.1072 4.97758 30.4081 4.97758ZM30.4081 0.780603C27.8222 0.780603 26.0853 1.73669 26.0853 2.62935C26.0853 3.52202 27.8222 4.47811 30.4081 4.47811C32.9939 4.47811 34.7308 3.52202 34.7308 2.62935C34.7308 1.73669 32.9939 0.780603 30.4081 0.780603Z" fill="black"/>
<path d="M23.2664 4.72792C25.7893 4.72792 27.8345 3.78835 27.8345 2.62934C27.8345 1.47033 25.7893 0.530762 23.2664 0.530762C20.7435 0.530762 18.6982 1.47033 18.6982 2.62934C18.6982 3.78835 20.7435 4.72792 23.2664 4.72792Z" fill="#CFE8FD"/>
<path d="M23.2664 4.97758C20.5673 4.97758 18.4529 3.94605 18.4529 2.62935C18.4529 1.31266 20.5673 0.281128 23.2664 0.281128C25.9655 0.281128 28.0799 1.31266 28.0799 2.62935C28.0799 3.94605 25.9655 4.97758 23.2664 4.97758ZM23.2664 0.780603C20.6805 0.780603 18.9436 1.73669 18.9436 2.62935C18.9436 3.52202 20.6805 4.47811 23.2664 4.47811C25.8523 4.47811 27.5892 3.52202 27.5892 2.62935C27.5892 1.73669 25.8523 0.780603 23.2664 0.780603Z" fill="black"/>
<path d="M30.8526 1.50958C32.6284 -0.314735 33.4007 -2.44308 32.5776 -3.24422C31.7546 -4.04535 29.6479 -3.2159 27.8721 -1.39159C26.0964 0.432723 25.3241 2.56107 26.1471 3.36221C26.9702 4.16334 29.0769 3.33389 30.8526 1.50958Z" fill="#CFE8FD"/>
<path d="M27.0148 3.91706C26.5762 3.91706 26.2158 3.78535 25.9586 3.52358C25.0439 2.59254 25.8225 0.341228 27.7312 -1.60183C28.6181 -2.50455 29.6115 -3.19644 30.5288 -3.54941C31.5103 -3.92696 32.3044 -3.87624 32.7658 -3.40616C33.2274 -2.93641 33.2774 -2.12766 32.9063 -1.12896C32.5596 -0.194993 31.8801 0.816375 30.9932 1.7191C30.1065 2.62183 29.1129 3.31354 28.1956 3.66668C27.7612 3.83383 27.3633 3.91709 27.0148 3.91709L27.0148 3.91706ZM31.7069 -3.29951C31.4199 -3.29951 31.0791 -3.22714 30.7025 -3.08226C29.8487 -2.75366 28.9168 -2.10261 28.0781 -1.24864C27.2394 -0.394682 26.5997 0.553913 26.277 1.42315C25.9826 2.21532 25.9932 2.8524 26.3056 3.17043C26.6183 3.48846 27.2439 3.49889 28.0221 3.19968C28.8758 2.8709 29.8077 2.21988 30.6464 1.36592C31.4851 0.512281 32.1248 -0.436639 32.4476 -1.30555C32.7419 -2.09805 32.7314 -2.73494 32.419 -3.05298C32.2576 -3.21719 32.013 -3.29947 31.7069 -3.29947L31.7069 -3.29951Z" fill="black"/>
<path d="M25.8027 6.65069C27.5784 4.82638 28.3507 2.69803 27.5277 1.8969C26.7046 1.09576 24.5979 1.92521 22.8221 3.74952C21.0464 5.57384 20.2741 7.70218 21.0971 8.50332C21.9202 9.30445 24.0269 8.475 25.8027 6.65069Z" fill="#CFE8FD"/>
<path d="M21.9649 9.05818C21.5263 9.05818 21.1658 8.92648 20.9087 8.66471C19.994 7.73367 20.7726 5.48236 22.6812 3.5393C23.568 2.63657 24.5616 1.94487 25.4789 1.59172C26.46 1.21417 27.2541 1.26489 27.7159 1.73479C28.1775 2.20469 28.2275 3.01347 27.8564 4.01213C27.5097 4.9461 26.8302 5.95747 25.9433 6.8602C25.0565 7.76292 24.0629 8.45463 23.1457 8.80778C22.7112 8.97492 22.3134 9.05818 21.9649 9.05818H21.9649ZM26.657 1.84144C26.37 1.84144 26.0291 1.91395 25.6525 2.05869C24.7988 2.38747 23.8669 3.03849 23.0282 3.89245C22.1895 4.74641 21.5498 5.69501 21.227 6.56425C20.9327 7.35641 20.9432 7.99349 21.2556 8.31152C21.5682 8.62988 22.194 8.63965 22.9722 8.34077C23.8259 8.01199 24.7578 7.36097 25.5965 6.50701C26.4352 5.65337 27.0749 4.70445 27.3976 3.83554C27.692 3.04305 27.6815 2.40597 27.369 2.08794C27.2077 1.92373 26.963 1.84144 26.657 1.84144Z" fill="black"/>
<path d="M32.5774 8.50264C33.4005 7.7015 32.6281 5.57316 30.8524 3.74884C29.0767 1.92453 26.9699 1.09508 26.1469 1.89622C25.3238 2.69735 26.0961 4.8257 27.8719 6.65001C29.6476 8.47433 31.7544 9.30377 32.5774 8.50264Z" fill="#CFE8FD"/>
<path d="M31.7096 9.05808C31.361 9.05808 30.9632 8.97482 30.5288 8.80767C29.6115 8.45452 28.6179 7.76282 27.7312 6.86009C26.8443 5.95736 26.1648 4.946 25.8181 4.01203C25.447 3.01337 25.497 2.20458 25.9586 1.73468C26.4205 1.26511 27.2153 1.21436 28.1956 1.59161C29.1129 1.94476 30.1065 2.63647 30.9932 3.5392C32.9019 5.48225 33.6805 7.73357 32.7658 8.6646C32.5087 8.92638 32.1481 9.05808 31.7096 9.05808ZM27.0175 1.84133C26.7115 1.84133 26.4668 1.92362 26.3055 2.08783C25.9931 2.40586 25.9826 3.04294 26.2769 3.83544C26.5997 4.70435 27.2394 5.65327 28.0781 6.50691C28.9168 7.36087 29.8487 8.01192 30.7024 8.34067C31.4807 8.63984 32.1063 8.6301 32.4189 8.31142C32.7313 7.99339 32.7419 7.35631 32.4475 6.56414C32.1247 5.6949 31.4851 4.74631 30.6464 3.89234C29.8077 3.03838 28.8757 2.38733 28.022 2.05858C27.6454 1.91388 27.3045 1.84133 27.0175 1.84133Z" fill="black"/>
<path d="M27.5274 3.36165C28.3505 2.56051 27.5782 0.432166 25.8024 -1.39215C24.0267 -3.21646 21.9199 -4.04591 21.0969 -3.24477C20.2738 -2.44364 21.0462 -0.315292 22.8219 1.50902C24.5976 3.33334 26.7044 4.16278 27.5274 3.36165Z" fill="#CFE8FD"/>
<path d="M26.6596 3.917C26.311 3.917 25.9133 3.83374 25.4788 3.6666C24.5616 3.31345 23.568 2.62174 22.6812 1.71902C21.7943 0.816289 21.1148 -0.19508 20.7681 -1.12905C20.397 -2.12771 20.447 -2.93649 20.9086 -3.40625C21.3705 -3.87647 22.165 -3.92672 23.1456 -3.5495C24.0629 -3.19649 25.0564 -2.50464 25.9433 -1.60192C27.8519 0.341141 28.6305 2.59246 27.7158 3.52349C27.4587 3.78527 27.098 3.91697 26.6596 3.91697L26.6596 3.917ZM21.9676 -3.29956C21.6615 -3.29956 21.4169 -3.21727 21.2555 -3.05306C20.9431 -2.73503 20.9326 -2.09813 21.2269 -1.30564C21.5497 -0.436726 22.1894 0.512194 23.0281 1.36583C23.8668 2.21979 24.7987 2.87085 25.6524 3.19959C26.4307 3.49877 27.0565 3.4887 27.3689 3.17034C27.6813 2.85231 27.6919 2.21523 27.3975 1.42307C27.0747 0.553826 26.4351 -0.394768 25.5964 -1.24873C24.7577 -2.10269 23.8258 -2.75375 22.972 -3.08235C22.5954 -3.22723 22.2546 -3.2996 21.9676 -3.2996L21.9676 -3.29956Z" fill="black"/>
<path d="M26.8373 5.50584C28.3978 5.50584 29.6629 4.21798 29.6629 2.62933C29.6629 1.04067 28.3978 -0.247192 26.8373 -0.247192C25.2767 -0.247192 24.0117 1.04067 24.0117 2.62933C24.0117 4.21798 25.2767 5.50584 26.8373 5.50584Z" fill="#D797CA"/>
<path d="M26.8372 5.75544C25.1439 5.75544 23.7663 4.3532 23.7663 2.62935C23.7663 0.905494 25.1439 -0.49707 26.8372 -0.49707C28.5306 -0.49707 29.9081 0.905494 29.9081 2.62935C29.9081 4.3532 28.5306 5.75544 26.8372 5.75544ZM26.8372 0.00240505C25.4145 0.00240505 24.257 1.18092 24.257 2.62935C24.257 4.07778 25.4145 5.25597 26.8372 5.25597C28.26 5.25597 29.4175 4.07778 29.4175 2.62935C29.4175 1.18092 28.26 0.00240505 26.8372 0.00240505Z" fill="black"/>
<path d="M34.2866 29.7668H34.2846C34.149 29.7659 34.0401 29.653 34.0412 29.5151C34.1532 15.4436 31.2881 8.96408 31.2592 8.9C31.2023 8.77514 31.256 8.62649 31.3789 8.56861C31.5023 8.51137 31.6478 8.56535 31.7045 8.69025C31.7347 8.75689 32.4538 10.3578 33.1668 13.7379C33.8221 16.8448 34.5908 22.1049 34.5319 29.519C34.5308 29.6563 34.4212 29.7668 34.2866 29.7668Z" fill="black"/>
<path d="M37.2037 29.7775C37.0778 29.7775 36.9706 29.6793 36.9596 29.5496C36.3958 22.9468 38.3875 14.3392 38.4076 14.253C38.4391 14.1187 38.571 14.0365 38.7031 14.068C38.8349 14.0999 38.9163 14.2348 38.8849 14.3688C38.8649 14.4543 36.8916 22.9849 37.4483 29.506C37.4601 29.6436 37.3602 29.7646 37.2252 29.7766C37.218 29.7773 37.2109 29.7776 37.2037 29.7776V29.7775Z" fill="black"/>
<path d="M35.5662 22.9346C36.7047 22.9346 37.6276 20.8525 37.6276 18.2841C37.6276 15.7158 36.7047 13.6337 35.5662 13.6337C34.4277 13.6337 33.5048 15.7158 33.5048 18.2841C33.5048 20.8525 34.4277 22.9346 35.5662 22.9346Z" fill="#CFE8FD"/>
<path d="M35.5662 23.1842C34.2728 23.1842 33.2595 21.0317 33.2595 18.2842C33.2595 15.5366 34.2728 13.3838 35.5662 13.3838C36.8596 13.3838 37.873 15.5363 37.873 18.2842C37.873 21.0321 36.8597 23.1842 35.5662 23.1842ZM35.5662 13.8833C34.6892 13.8833 33.7502 15.6517 33.7502 18.2842C33.7502 20.9166 34.6892 22.6847 35.5662 22.6847C36.4432 22.6847 37.3824 20.9166 37.3824 18.2842C37.3824 15.6517 36.4432 13.8833 35.5662 13.8833Z" fill="black"/>
<path d="M35.5662 30.2051C36.7047 30.2051 37.6276 28.123 37.6276 25.5546C37.6276 22.9863 36.7047 20.9042 35.5662 20.9042C34.4277 20.9042 33.5048 22.9863 33.5048 25.5546C33.5048 28.123 34.4277 30.2051 35.5662 30.2051Z" fill="#CFE8FD"/>
<path d="M35.5662 30.455C34.2728 30.455 33.2595 28.3025 33.2595 25.5546C33.2595 22.8067 34.2728 20.6545 35.5662 20.6545C36.8596 20.6545 37.873 22.807 37.873 25.5546C37.873 28.3022 36.8597 30.455 35.5662 30.455ZM35.5662 21.1541C34.6892 21.1541 33.7502 22.9221 33.7502 25.5546C33.7502 28.187 34.6892 29.9555 35.5662 29.9555C36.4432 29.9555 37.3824 28.187 37.3824 25.5546C37.3824 22.9221 36.4432 21.1541 35.5662 21.1541Z" fill="black"/>
<path d="M39.1371 24.018C41.66 24.018 43.7052 23.0784 43.7052 21.9194C43.7052 20.7604 41.66 19.8208 39.1371 19.8208C36.6142 19.8208 34.569 20.7604 34.569 21.9194C34.569 23.0784 36.6142 24.018 39.1371 24.018Z" fill="#CFE8FD"/>
<path d="M39.1371 24.2678C36.438 24.2678 34.3237 23.2363 34.3237 21.9193C34.3237 20.6023 36.438 19.571 39.1371 19.571C41.8362 19.571 43.9506 20.6026 43.9506 21.9193C43.9506 23.236 41.8362 24.2678 39.1371 24.2678ZM39.1371 20.0705C36.5513 20.0705 34.8143 21.0266 34.8143 21.9193C34.8143 22.8119 36.5513 23.7683 39.1371 23.7683C41.723 23.7683 43.4599 22.8123 43.4599 21.9193C43.4599 21.0263 41.723 20.0705 39.1371 20.0705Z" fill="black"/>
<path d="M31.9954 24.018C34.5183 24.018 36.5635 23.0784 36.5635 21.9194C36.5635 20.7604 34.5183 19.8208 31.9954 19.8208C29.4725 19.8208 27.4272 20.7604 27.4272 21.9194C27.4272 23.0784 29.4725 24.018 31.9954 24.018Z" fill="#CFE8FD"/>
<path d="M31.9953 24.2678C29.2962 24.2678 27.1819 23.2363 27.1819 21.9193C27.1819 20.6023 29.2962 19.571 31.9953 19.571C34.6944 19.571 36.8088 20.6026 36.8088 21.9193C36.8088 23.236 34.6944 24.2678 31.9953 24.2678ZM31.9953 20.0705C29.4095 20.0705 27.6726 21.0266 27.6726 21.9193C27.6726 22.8119 29.4095 23.7683 31.9953 23.7683C34.5812 23.7683 36.3181 22.8123 36.3181 21.9193C36.3181 21.0263 34.5812 20.0705 31.9953 20.0705Z" fill="black"/>
<path d="M39.5816 20.7999C41.3573 18.9755 42.1296 16.8472 41.3066 16.0461C40.4835 15.2449 38.3768 16.0744 36.6011 17.8987C34.8253 19.723 34.053 21.8514 34.8761 22.6525C35.6991 23.4536 37.8058 22.6242 39.5816 20.7999Z" fill="#CFE8FD"/>
<path d="M35.7415 23.2031C35.3103 23.2031 34.9468 23.0779 34.6875 22.8139C34.226 22.344 34.176 21.5352 34.547 20.5365C34.8939 19.6026 35.5732 18.5912 36.4601 17.6885C37.3469 16.7857 38.3405 16.094 39.2578 15.7409C40.2388 15.363 41.0332 15.4137 41.4948 15.884C41.9563 16.3539 42.0063 17.1626 41.6355 18.1613C41.2888 19.0949 40.6093 20.1063 39.7224 21.0094C38.3549 22.4015 36.8316 23.2031 35.7415 23.2031ZM40.4358 15.9906C40.1488 15.9906 39.808 16.0631 39.4313 16.2079C38.5776 16.5366 37.6457 17.1877 36.807 18.0416C35.9683 18.8953 35.3286 19.8442 35.0059 20.7131C34.7115 21.5056 34.722 22.1427 35.0345 22.4607C35.6548 23.0926 37.5468 22.5176 39.3755 20.6562C40.2141 19.8022 40.8538 18.8533 41.1766 17.9844C41.4708 17.1922 41.4604 16.5551 41.1479 16.2371C40.9865 16.0729 40.7418 15.9906 40.4358 15.9906Z" fill="black"/>
<path d="M34.5315 25.9409C36.3073 24.1165 37.0796 21.9882 36.2565 21.1871C35.4335 20.3859 33.3268 21.2154 31.551 23.0397C29.7753 24.864 29.003 26.9923 29.826 27.7935C30.6491 28.5946 32.7558 27.7652 34.5315 25.9409Z" fill="#CFE8FD"/>
<path d="M30.6915 28.344C30.2603 28.344 29.8967 28.2188 29.6375 27.9547C28.723 27.0237 29.5016 24.7724 31.4101 22.8293C32.2969 21.9266 33.2904 21.2349 34.2077 20.8818C35.1887 20.5042 35.9832 20.5549 36.4447 21.0248C36.9063 21.4947 36.9563 22.3035 36.5855 23.3022C36.2387 24.2358 35.5592 25.2472 34.6723 26.1502C33.3048 27.5424 31.7816 28.344 30.6915 28.344ZM35.3858 21.1315C35.0988 21.1315 34.758 21.204 34.3814 21.3487C33.5276 21.6775 32.5957 22.3285 31.757 23.1825C29.9287 25.0439 29.3644 26.9703 29.9845 27.6016C30.6051 28.2328 32.4968 27.6585 34.3255 25.7971C35.1641 24.9431 35.8038 23.9942 36.1266 23.1253C36.4208 22.3331 36.4104 21.696 36.0979 21.378C35.9365 21.2138 35.6918 21.1315 35.3858 21.1315Z" fill="black"/>
<path d="M41.3064 27.7927C42.1295 26.9915 41.3571 24.8632 39.5814 23.0389C37.8057 21.2146 35.6989 20.3851 34.8759 21.1863C34.0528 21.9874 34.8251 24.1157 36.6009 25.9401C38.3766 27.7644 40.4834 28.5938 41.3064 27.7927Z" fill="#CFE8FD"/>
<path d="M40.4386 28.3483C40.0899 28.3483 39.6922 28.2651 39.2578 28.0979C38.3405 27.7448 37.3469 27.0531 36.4601 26.1503C34.5517 24.2073 33.773 21.956 34.6876 21.0249C35.6022 20.0942 37.8138 20.8864 39.7224 22.8294C40.6093 23.7325 41.2888 24.7439 41.6355 25.6775C42.0064 26.6762 41.9564 27.4849 41.4948 27.9548C41.2377 28.2166 40.877 28.3483 40.4386 28.3483ZM35.7511 21.1316C35.4419 21.1316 35.1955 21.2142 35.0345 21.3781C34.4144 22.0093 34.9787 23.9357 36.807 25.7972C37.6457 26.6511 38.5777 27.3022 39.4314 27.6309C40.2098 27.9301 40.8354 27.9203 41.1479 27.6017C41.4604 27.2836 41.4708 26.6466 41.1766 25.8544C40.8538 24.9855 40.2141 24.0366 39.3755 23.1826C38.0217 21.8044 36.6326 21.1316 35.7511 21.1316Z" fill="black"/>
<path d="M36.2564 22.6517C37.0795 21.8506 36.3072 19.7222 34.5314 17.8979C32.7557 16.0736 30.6489 15.2441 29.8259 16.0453C29.0028 16.8464 29.7752 18.9747 31.5509 20.7991C33.3266 22.6234 35.4334 23.4528 36.2564 22.6517Z" fill="#CFE8FD"/>
<path d="M35.3886 23.2074C35.0399 23.2074 34.6422 23.1241 34.2078 22.957C33.2905 22.6038 32.2969 21.9121 31.4102 21.0094C29.5017 19.0663 28.723 16.815 29.6376 15.884C30.5523 14.9536 32.7638 15.7451 34.6724 17.6885C35.5593 18.5912 36.2388 19.6026 36.5856 20.5366C36.9564 21.5352 36.9064 22.344 36.4448 22.8139C36.1877 23.0757 35.827 23.2074 35.3886 23.2074ZM30.7011 15.9906C30.3919 15.9906 30.1455 16.0732 29.9845 16.2371C29.3645 16.8683 29.9287 18.7948 31.757 20.6562C32.5957 21.5102 33.5277 22.1612 34.3814 22.49C35.1597 22.7891 35.7853 22.7791 36.0979 22.4607C36.4104 22.1427 36.4208 21.5056 36.1266 20.7131C35.8038 19.8442 35.1642 18.8953 34.3255 18.0416C32.9717 16.6635 31.5826 15.9906 30.7011 15.9906Z" fill="black"/>
<path d="M35.2656 25.1019C36.8262 25.1019 38.0912 23.8141 38.0912 22.2254C38.0912 20.6367 36.8262 19.3489 35.2656 19.3489C33.7051 19.3489 32.44 20.6367 32.44 22.2254C32.44 23.8141 33.7051 25.1019 35.2656 25.1019Z" fill="#D797CA"/>
<path d="M35.2656 25.3516C33.5722 25.3516 32.1946 23.9494 32.1946 22.2255C32.1946 20.5017 33.5722 19.0991 35.2656 19.0991C36.9589 19.0991 38.3365 20.5017 38.3365 22.2255C38.3365 23.9494 36.9589 25.3516 35.2656 25.3516ZM35.2656 19.5986C33.8428 19.5986 32.6853 20.7771 32.6853 22.2255C32.6853 23.674 33.8428 24.8522 35.2656 24.8522C36.6883 24.8522 37.8458 23.674 37.8458 22.2255C37.8458 20.7771 36.6883 19.5986 35.2656 19.5986Z" fill="black"/>
<path d="M48.6677 -6.80946C47.5196 -8.18422 44.9937 -8.00611 45.0511 -5.61003C45.1085 -3.21394 48.6677 0.0587339 48.6677 0.0587339C48.6677 0.0587339 52.2268 -3.21394 52.2843 -5.61003C52.3417 -8.00611 49.8158 -8.18422 48.6677 -6.80946Z" fill="#D797CA"/>
<path d="M48.6676 0.308337C48.6087 0.308337 48.5499 0.28687 48.5031 0.243935C48.3547 0.107346 44.8651 -3.12916 44.8058 -5.60406C44.7804 -6.66633 45.2377 -7.45896 46.0607 -7.77863C46.9093 -8.10806 47.9647 -7.85197 48.6676 -7.17228C49.3707 -7.85226 50.4261 -8.10802 51.2747 -7.77863C52.0976 -7.45896 52.555 -6.66629 52.5296 -5.60406C52.4702 -3.12916 48.9805 0.107346 48.8321 0.243935C48.7853 0.28687 48.7266 0.308337 48.6676 0.308337ZM46.8539 -7.42417C46.6408 -7.42417 46.4311 -7.38776 46.2356 -7.3118C45.6095 -7.06871 45.276 -6.46646 45.2965 -5.61622C45.3436 -3.64098 47.9764 -0.955357 48.6676 -0.283489C49.3587 -0.955683 51.9917 -3.64243 52.039 -5.61622C52.0594 -6.46646 51.7258 -7.06871 51.0998 -7.3118C50.3604 -7.5991 49.4158 -7.31977 48.8545 -6.64776C48.8079 -6.59197 48.7397 -6.55978 48.6676 -6.55978C48.5956 -6.55978 48.5274 -6.59197 48.4808 -6.64776C48.0677 -7.1422 47.4474 -7.42417 46.8539 -7.42417Z" fill="black"/>
<path d="M11.5666 8.42406C10.4185 7.0493 7.89262 7.22741 7.95 9.6235C8.00741 12.0196 11.5666 15.2923 11.5666 15.2923C11.5666 15.2923 15.1258 12.0196 15.1832 9.6235C15.2406 7.22741 12.7147 7.0493 11.5666 8.42406Z" fill="#F9EA31"/>
<path d="M11.5667 15.5421C11.5077 15.5421 11.449 15.5206 11.4022 15.4777C11.2538 15.3411 7.76412 12.1044 7.70468 9.62969C7.6793 8.56728 8.13671 7.77479 8.95976 7.45513C9.80818 7.12569 10.8636 7.38164 11.5667 8.06161C12.2696 7.38131 13.3256 7.12602 14.1735 7.45513C14.9965 7.77446 15.4539 8.56728 15.4285 9.62969C15.3691 12.1044 11.8796 15.3411 11.7312 15.4777C11.6844 15.5206 11.6256 15.5421 11.5667 15.5421ZM9.75275 7.80958C9.53971 7.80958 9.32999 7.84567 9.13465 7.92177C8.50854 8.16501 8.1749 8.76693 8.19535 9.61735C8.24263 11.591 10.8754 14.278 11.5667 14.9499C12.2578 14.278 14.8906 11.591 14.9379 9.61735C14.9583 8.76697 14.6247 8.16472 13.9986 7.92177C13.2591 7.63364 12.3149 7.91395 11.7536 8.58582C11.6603 8.69768 11.4731 8.69768 11.3798 8.58582C10.9668 8.09152 10.3464 7.80958 9.75275 7.80958Z" fill="black"/>
<path d="M57.4657 21.1282C56.3176 19.7534 53.7917 19.9315 53.8491 22.3276C53.9065 24.7237 57.4657 27.9964 57.4657 27.9964C57.4657 27.9964 61.0249 24.7237 61.0823 22.3276C61.1397 19.9315 58.6138 19.7534 57.4657 21.1282Z" fill="#CFE8FD"/>
<path d="M57.4657 28.2463C57.4068 28.2463 57.348 28.2248 57.3012 28.1819C57.1528 28.0453 53.6632 24.8086 53.6037 22.3339C53.5783 21.2715 54.0358 20.479 54.8586 20.1593C55.7077 19.8302 56.7626 20.0858 57.4657 20.7655C58.1688 20.0852 59.2242 19.8286 60.0727 20.1593C60.8957 20.479 61.353 21.2715 61.3276 22.3339C61.2683 24.8086 57.7786 28.0453 57.6302 28.1819C57.5834 28.2248 57.5247 28.2463 57.4657 28.2463ZM55.6519 20.5134C55.4387 20.5134 55.229 20.5499 55.0335 20.626C54.4076 20.8692 54.0739 21.4711 54.0944 22.3215C54.1417 24.2952 56.7745 26.9822 57.4657 27.6541C58.157 26.9822 60.7898 24.2952 60.8369 22.3215C60.8574 21.4712 60.5239 20.8692 59.8978 20.626C59.1589 20.3382 58.2138 20.6178 57.6526 21.2897C57.5595 21.4015 57.3723 21.4015 57.2789 21.29C56.8658 20.7954 56.2455 20.5134 55.6519 20.5134Z" fill="black"/>
<path d="M73.577 2.08844C61.646 1.92871 61.7732 1.79926 61.9301 13.9453C62.087 1.79926 62.2142 1.92875 50.2832 2.08844C62.2142 2.24816 62.087 2.37761 61.9301 -9.76843C61.7732 2.37761 61.646 2.24812 73.577 2.08844Z" fill="#F9EA31"/>
<path d="M61.9301 14.1305C61.8305 14.1305 61.7493 14.0489 61.748 13.9478L61.7429 13.5624C61.7147 11.3897 61.6915 9.61778 61.7484 8.17261C61.6564 5.82764 61.352 4.3896 60.5109 3.53336C59.6696 2.67711 58.2565 2.36719 55.9528 2.27354C54.5334 2.33142 52.7938 2.30833 50.6589 2.27907L50.2807 2.27386C50.1811 2.27256 50.1011 2.18995 50.1011 2.08851C50.1011 1.98707 50.1811 1.90446 50.2807 1.90316L50.6599 1.89794C52.7939 1.86902 54.5337 1.84592 55.9532 1.90348C58.2571 1.80983 59.6695 1.4999 60.5107 0.643661C61.352 -0.212909 61.6564 -1.65091 61.7484 -3.99592C61.6915 -5.44109 61.7147 -7.21291 61.743 -9.38589L61.7481 -9.77093C61.7493 -9.8724 61.8305 -9.95386 61.9302 -9.95386C62.0298 -9.95386 62.111 -9.8724 62.1123 -9.77093L62.1174 -9.38589C62.1456 -7.21291 62.1686 -5.44109 62.1119 -3.99592C62.2038 -1.65095 62.5082 -0.212909 63.3494 0.643661C64.1907 1.4999 65.6035 1.80983 67.9075 1.90348C69.3264 1.84592 71.0659 1.86902 73.2002 1.89794L73.5794 1.90316C73.6791 1.90446 73.7591 1.98707 73.7591 2.08851C73.7591 2.18995 73.6791 2.27256 73.5794 2.27386L73.2012 2.27907C71.0664 2.308 69.3263 2.33175 67.907 2.27354C65.6029 2.36719 64.1907 2.67679 63.3493 3.53336C62.5082 4.3896 62.2038 5.82761 62.1119 8.17261C62.1686 9.61778 62.1456 11.3898 62.1174 13.5624L62.1123 13.9474C62.111 14.0489 62.0298 14.1305 61.9301 14.1305ZM58.0373 2.08851C59.2755 2.28429 60.1494 2.64102 60.7684 3.27126C61.3874 3.90117 61.7377 4.79057 61.9301 6.05104C62.1224 4.79057 62.4729 3.90117 63.0918 3.27126C63.7107 2.64102 64.5848 2.28429 65.8228 2.08851C64.5848 1.89273 63.7107 1.536 63.0918 0.905762C62.4729 0.275525 62.1224 -0.613879 61.9301 -1.87435C61.7377 -0.613879 61.3873 0.275525 60.7684 0.905762C60.1494 1.53567 59.275 1.8924 58.0373 2.08851Z" fill="black"/>
<path d="M39.1372 0.214086C39.0118 0.214086 38.9057 0.11978 38.8888 -0.00671005C38.4745 -3.09475 38.217 -3.38125 35.4449 -3.83816C35.3235 -3.85814 35.2343 -3.96497 35.2343 -4.09019C35.2343 -4.21542 35.3235 -4.32221 35.4449 -4.34223C38.217 -4.79913 38.4745 -5.08563 38.8888 -8.17386C38.9057 -8.30035 39.0118 -8.39465 39.1372 -8.39465C39.2625 -8.39465 39.3686 -8.30035 39.3855 -8.17386C39.7997 -5.08563 40.0572 -4.79913 42.8294 -4.34223C42.9508 -4.32225 43.0401 -4.21542 43.0401 -4.09019C43.0401 -3.96497 42.9508 -3.85818 42.8294 -3.83816C40.0572 -3.38125 39.7997 -3.09475 39.3855 -0.00671005C39.3686 0.11978 39.2626 0.214086 39.1372 0.214086ZM36.7933 -4.09019C38.2584 -3.71884 38.7946 -3.1525 39.1372 -1.57837C39.4796 -3.1525 40.0158 -3.7188 41.481 -4.09019C40.0158 -4.46155 39.4796 -5.02789 39.1372 -6.60202C38.7946 -5.02789 38.2584 -4.46159 36.7933 -4.09019Z" fill="black"/>
<path d="M17.6467 -0.0410452C14.7693 0.433306 14.4225 0.817878 13.9946 4.00812C13.5668 0.817878 13.22 0.433342 10.3425 -0.0410452C13.22 -0.515397 13.5668 -0.899967 13.9946 -4.09021C14.4225 -0.899967 14.7693 -0.515433 17.6467 -0.0410452Z" fill="#F9EA31"/>
<path d="M13.9946 4.26342C13.8692 4.26342 13.7631 4.16912 13.7462 4.04263C13.3321 0.954258 13.0746 0.667758 10.3023 0.210856C10.1809 0.190691 10.0917 0.0840406 10.0917 -0.0411811C10.0917 -0.166403 10.1809 -0.273052 10.3023 -0.293217C13.0746 -0.750119 13.332 -1.03629 13.7462 -4.12466C13.7631 -4.25115 13.8692 -4.34546 13.9946 -4.34546C14.12 -4.34546 14.226 -4.25115 14.243 -4.12466C14.6573 -1.03629 14.9147 -0.750119 17.6868 -0.293217C17.8082 -0.273052 17.8975 -0.166403 17.8975 -0.0411811C17.8975 0.0840406 17.8082 0.190691 17.6868 0.210856C14.9148 0.667758 14.6573 0.954258 14.243 4.04263C14.226 4.16912 14.12 4.26342 13.9946 4.26342ZM11.6507 -0.0411811C13.116 0.330176 13.6522 0.896698 13.9946 2.47097C14.3372 0.896698 14.8733 0.330213 16.3385 -0.0411811C14.8734 -0.412539 14.3372 -0.978733 13.9946 -2.55282C13.6522 -0.978697 13.116 -0.412539 11.6507 -0.0411811Z" fill="black"/>
<path d="M34.8879 67.3323H34.8612C31.7852 67.3211 28.7515 65.3071 26.0883 61.5077C24.0953 58.6646 22.9885 55.7843 22.9775 55.7556C22.9303 55.6314 22.9949 55.4934 23.1218 55.4472C23.2486 55.4004 23.3898 55.4644 23.4374 55.5883C23.4802 55.7007 27.8005 66.8274 34.8631 66.853H34.8886C41.9683 66.853 48.1586 56.063 48.2204 55.9538C48.2858 55.838 48.4358 55.7965 48.5537 55.8602C48.6724 55.9241 48.7153 56.0702 48.6497 56.186C48.6339 56.2137 47.0445 59.0026 44.577 61.7493C41.2955 65.4024 37.9455 67.3323 34.8879 67.3323Z" fill="black"/>
<path d="M66.0653 72.103C66.0653 72.103 72.7165 62.335 74.7881 65.221C76.8598 68.107 64.5389 76.099 66.0653 72.103Z" fill="#F2E8E0"/>
<path d="M66.5133 73.4416C66.3067 73.4416 66.1338 73.4022 66.002 73.3183C65.7584 73.1625 65.5321 72.8097 65.8365 72.0126C65.8435 71.9941 65.8527 71.9769 65.8637 71.9606C66.0718 71.6549 70.9935 64.4733 73.763 64.4382C73.7704 64.4379 73.7777 64.4379 73.7849 64.4379C74.2792 64.4379 74.6833 64.6519 74.9862 65.0736C75.6274 65.967 75.1802 67.298 73.6927 68.923C71.7021 71.0975 68.108 73.4416 66.5132 73.4416H66.5133ZM66.2838 72.2204C66.2148 72.4078 66.0993 72.7905 66.2628 72.8952C66.9522 73.3342 70.8551 71.2904 73.3339 68.5825C74.0798 67.7675 75.2347 66.2664 74.5901 65.3682C74.382 65.0785 74.1183 64.9373 73.7843 64.9373C73.7794 64.9373 73.7743 64.9373 73.7692 64.9377C71.6877 64.964 67.6776 70.1792 66.2838 72.2204L66.2838 72.2204Z" fill="black"/>
</g>
</g>
<defs>
<clipPath id="clip0_101_6122">
<rect width="68" height="68" rx="6" fill="white"/>
</clipPath>
<clipPath id="clip1_101_6122">
<rect width="68" height="68" fill="white"/>
</clipPath>
<clipPath id="clip2_101_6122">
<rect width="97" height="108.605" fill="white" transform="translate(-15 -11)"/>
</clipPath>
</defs>
</svg>
