<svg width="68" height="68" viewBox="0 0 68 68" fill="none" xmlns="http://www.w3.org/2000/svg">
<g clip-path="url(#clip0_101_6494)">
<g clip-path="url(#clip1_101_6494)">
<rect width="68" height="68" rx="6" fill="#F4F2F7"/>
</g>
<g style="mix-blend-mode:color-burn" clip-path="url(#clip2_101_6494)">
<path d="M18.9753 15.7519C18.9753 15.7519 14.0588 20.3866 17.8246 21.68C21.5904 22.9734 21.5904 22.219 21.5904 22.219L17.5108 26.2069C17.5108 26.2069 33.7544 16.4451 46.6957 20.2788C54.4054 22.5628 55.2734 22.8656 55.2734 22.8656C55.2734 22.8656 56.0057 17.0993 58.307 17.4226C60.6083 17.7459 61.9681 19.8477 61.9681 19.8477C61.9681 19.8477 59.9806 18.4465 59.0392 19.2549C58.0977 20.0633 57.4178 22.5423 58.7777 22.7579C60.1375 22.9734 63.4326 20.3327 65.4201 21.3567C67.4076 22.3806 68.8198 24.5902 68.8198 24.5902C68.8198 24.5902 67.5122 23.4584 65.3678 23.8357C63.2234 24.2129 62.125 25.4524 62.125 25.4524C62.125 25.4524 66.4662 24.5363 67.1984 26.8536C67.9306 29.171 67.6168 30.0332 67.6168 30.0332C67.6168 30.0332 64.0602 26.4764 63.3803 27.7698C62.7003 29.0631 65.6293 31.2188 64.2694 33.2667C62.9096 35.3146 62.4912 35.6918 62.4912 35.6918C62.4912 35.6918 61.8112 29.656 60.5036 30.0871C59.1961 30.5182 61.1836 34.5601 59.7191 35.0451C59.7191 35.0451 59.6145 31.8655 55.8487 29.8715C52.0829 27.8775 30.6213 23.5122 21.8345 32.7098C13.0476 41.9073 -1.3182 84.302 32.4345 102.41H8.72395C8.72395 102.41 -28.0972 83.7272 -27.8182 40.3265C-27.5393 -3.07417 8.23529 -11.5969 20.5 -10.7627C40.7381 -9.38615 49.4503 -1.63706 49.4503 -1.63706C49.4503 -1.63706 63.7464 -1.78079 60.2596 3.32094C60.2596 3.32094 59.9457 0.806008 57.9583 0.877872C55.9707 0.949736 55.3431 1.63236 55.3431 1.63236C55.3431 1.63236 60.5037 3.21319 58.6905 7.0215C58.6905 7.0215 55.9359 3.5006 54.5063 3.53653C53.0767 3.57247 52.7977 3.82395 52.7977 3.82395C52.7977 3.82395 55.8313 5.97961 55.0293 7.52451C54.2273 9.06941 53.0418 9.21309 53.1116 9.06941C53.1813 8.92568 52.5188 5.00957 51.0892 4.86584L47.4289 4.72609L50.078 7.99158C50.078 7.99158 48.1253 9.32089 46.8701 8.02751C45.6149 6.73413 45.9984 4.07547 45.9984 4.07547C45.9984 4.07547 28.7195 -3.64899 20.5 -1.38554C12.2806 0.877914 6.94566 6.806 7.57332 15.4286L13.4312 6.37486C13.4312 6.37486 16.7438 3.39285 20.8582 5.18923C24.9727 6.98561 29.9938 8.42272 29.7846 12.1592C29.5754 15.8957 24.2753 19.0573 24.2753 19.0573L23.4385 17.5484L21.9043 18.4825L22.253 16.8298L20.5 17.0454L20.0911 15.249L18.9753 15.752L18.9753 15.7519Z" fill="#5A78FF"/>
<path d="M32.4346 102.595H8.72398C8.69641 102.595 8.66919 102.589 8.64431 102.576C8.55196 102.529 -0.695555 97.7748 -9.7833 87.7701C-15.1214 81.8934 -19.3631 75.3806 -22.3907 68.4124C-26.1755 59.7013 -28.0623 50.2516 -27.9984 40.3253C-27.8952 24.2667 -22.9829 11.4672 -13.3978 2.28251C-1.42239 -9.1924 14.02 -11.3891 20.5119 -10.9481C39.771 -9.63809 48.7464 -2.4669 49.5147 -1.82329C50.449 -1.82811 59.3586 -1.79546 60.789 1.01145C61.1487 1.71746 61.0201 2.53045 60.4069 3.42781C60.364 3.49054 60.2884 3.51884 60.2163 3.50121C60.1442 3.48282 60.0905 3.42068 60.0808 3.34477C60.0688 3.249 59.7651 0.992719 57.9646 1.0633C56.7568 1.10704 56.0718 1.38332 55.7366 1.5748C56.5078 1.87087 58.3517 2.72095 59.0163 4.28442C59.3851 5.15169 59.3298 6.10009 58.8523 7.10311C58.8252 7.16016 58.7717 7.19887 58.7104 7.20587C58.6489 7.21385 58.5889 7.18726 58.5502 7.13793C57.8035 6.18373 55.6341 3.72192 54.5289 3.72192C54.5228 3.72192 54.5167 3.72192 54.5106 3.72218C53.8076 3.73985 53.3962 3.8109 53.1667 3.87256C53.9162 4.46237 55.9139 6.21386 55.188 7.61196C54.4413 9.05043 53.3002 9.40429 53.0406 9.26611C52.9496 9.2175 52.9088 9.1173 52.9365 9.02192C52.944 8.65876 52.2925 5.17337 51.0716 5.05068L47.8267 4.92701L50.2162 7.87249C50.249 7.91311 50.2636 7.96616 50.2562 8.01839C50.2487 8.07075 50.2201 8.11727 50.1772 8.14654C50.1566 8.16045 48.0866 9.54353 46.7425 8.15875C45.5944 6.97572 45.7401 4.77769 45.8025 4.19126C44.2303 3.50544 28.2484 -3.32645 20.5465 -1.20626C12.1471 1.10674 7.38857 7.09154 7.72109 14.8652L13.2812 6.27181C13.29 6.25815 13.3006 6.24582 13.3125 6.23494C13.3465 6.20447 16.7585 3.19771 20.9284 5.01829C21.5079 5.27118 22.1167 5.5218 22.7056 5.76407C26.3661 7.27022 30.1514 8.82767 29.9643 12.1698C29.752 15.9626 24.5852 19.0869 24.3655 19.218C24.3239 19.2429 24.2745 19.249 24.2282 19.2366C24.1819 19.2238 24.1424 19.1923 24.1186 19.1494L23.3727 17.804L21.9958 18.6423C21.9345 18.6799 21.8568 18.6764 21.7986 18.633C21.7406 18.5897 21.7127 18.5152 21.728 18.4431L22.023 17.0451L20.5213 17.2297C20.4285 17.2418 20.3453 17.1798 20.3245 17.0878L19.9649 15.5085L19.0755 15.9094C18.8145 16.1619 16.2749 18.6706 16.6156 20.3196C16.7263 20.855 17.1521 21.2535 17.8815 21.5039C20.3304 22.3451 21.1062 22.2851 21.334 22.2137L21.4663 22.0843C21.5187 22.0332 21.5955 22.0192 21.6614 22.0484C21.7276 22.0777 21.7706 22.1448 21.7706 22.219C21.7706 22.2542 21.7599 22.3768 21.622 22.4791C21.5951 22.4991 21.5649 22.517 21.5312 22.5328L18.625 25.3736C20.2441 24.5059 23.3652 22.9512 27.1929 21.6292C32.3981 19.8315 40.0159 18.1068 46.7453 20.1004C52.7265 21.8723 54.585 22.4499 55.1256 22.6227C55.2568 21.7578 55.8138 18.6367 57.1521 17.5826C57.5165 17.2957 57.9131 17.18 58.3311 17.2387C60.6859 17.5695 62.0606 19.6561 62.118 19.7448C62.1658 19.8188 62.1561 19.9173 62.0947 19.9798C62.0335 20.0422 61.9377 20.0514 61.8663 20.0011C61.3444 19.6337 59.84 18.8092 59.1543 19.3976C58.5115 19.9496 58.0406 21.309 58.2385 22.0423C58.3224 22.3532 58.5076 22.5273 58.805 22.5744C59.2906 22.6527 60.1338 22.29 61.0248 21.9073C62.5245 21.2629 64.2245 20.5334 65.5006 21.1906C67.5083 22.225 68.9114 24.3963 68.9702 24.4882C69.0193 24.5651 69.0062 24.6673 68.9395 24.7286C68.873 24.7898 68.7726 24.7918 68.7039 24.7327C68.6915 24.722 67.4276 23.6624 65.3979 24.0188C64.1234 24.243 63.2246 24.7858 62.7241 25.1676C63.9961 25.0049 66.7658 24.8853 67.3697 26.7961C68.1128 29.1484 67.7991 30.0609 67.7854 30.0986C67.764 30.1571 67.7154 30.2009 67.6561 30.2144C67.5966 30.2285 67.5348 30.2103 67.4911 30.1665C66.7529 29.4284 64.6476 27.5468 63.7881 27.6789C63.6727 27.697 63.5934 27.7541 63.5386 27.8585C63.2941 28.3235 63.6345 28.9792 64.0287 29.7381C64.5765 30.7933 65.2583 32.1064 64.418 33.3719C63.0608 35.4156 62.6274 35.8158 62.6096 35.8317C62.5594 35.8774 62.4887 35.8898 62.4262 35.8654C62.3637 35.8405 62.3197 35.7819 62.312 35.7135C62.1629 34.3905 61.5996 30.8402 60.7943 30.3051C60.7127 30.251 60.6377 30.2387 60.5585 30.264C60.0676 30.426 60.2039 31.4422 60.3358 32.4248C60.5008 33.654 60.6712 34.9248 59.7741 35.222C59.7209 35.2401 59.6619 35.2307 59.6156 35.197C59.5694 35.1637 59.541 35.11 59.5389 35.0517C59.5002 33.9877 58.6619 31.5701 55.7662 30.0367C53.8093 29.0007 47.4917 27.4659 40.7196 27.2797C34.7436 27.1143 26.6383 27.9465 21.9628 32.8404C19.0429 35.8965 15.9698 42.0049 13.9429 48.7812C12.1808 54.6724 10.3927 63.7337 11.8811 73.446C12.7888 79.3687 14.8157 84.7137 17.9055 89.3327C21.4176 94.5832 26.334 98.9276 32.5177 102.245C32.5914 102.284 32.6292 102.371 32.6095 102.454C32.5898 102.537 32.5176 102.595 32.4345 102.595L32.4346 102.595ZM8.7667 102.224H31.7097C25.774 98.9244 21.0322 94.6611 17.6088 89.5433C14.4881 84.8782 12.4414 79.4816 11.5253 73.5038C10.0261 63.7211 11.8253 54.6005 13.5985 48.6717C15.6415 41.8419 18.7481 35.6758 21.706 32.5795C26.4724 27.5906 34.6813 26.7441 40.7292 26.9081C47.5551 27.0959 53.9436 28.6537 55.931 29.7062C59.1152 31.3924 59.7453 33.884 59.8693 34.7408C60.233 34.3694 60.104 33.4089 59.9789 32.4756C59.8265 31.3406 59.6691 30.1673 60.4487 29.9103C60.631 29.8501 60.8181 29.8786 60.9897 29.993C61.9349 30.6209 62.4592 34.0288 62.6207 35.2669C62.8741 34.9548 63.3426 34.3337 64.1205 33.1618C64.8373 32.0825 64.2647 30.9797 63.711 29.9132C63.2861 29.095 62.8849 28.3223 63.2217 27.6813C63.3301 27.4751 63.5071 27.3475 63.7337 27.3117C64.7533 27.1506 66.7639 28.9601 67.4945 29.6581C67.5238 29.2401 67.4892 28.3738 67.0269 26.911C66.3525 24.7762 62.203 25.6252 62.1611 25.6343C62.0848 25.6502 62.0068 25.614 61.9682 25.544C61.9297 25.4741 61.9392 25.3866 61.9919 25.3271C62.0384 25.2747 63.157 24.0361 65.3373 23.6525C66.5624 23.4371 67.5201 23.6927 68.1389 23.9699C67.5613 23.245 66.5552 22.149 65.3394 21.5227C64.2106 20.941 62.5915 21.6365 61.1635 22.2499C60.1835 22.6708 59.3375 23.0333 58.7501 22.9413C58.3105 22.8717 58.0135 22.5951 57.8911 22.1415C57.6311 21.1778 58.2433 19.6961 58.9236 19.1121C59.5318 18.5899 60.4838 18.8626 61.1819 19.1882C60.5832 18.576 59.5845 17.7895 58.2824 17.6066C57.9577 17.5607 57.6602 17.6497 57.371 17.8776C55.9622 18.987 55.4569 22.8508 55.4519 22.8896C55.4449 22.9447 55.4142 22.9937 55.3685 23.023C55.3231 23.0525 55.2669 23.0594 55.2155 23.0414C55.2067 23.0384 54.2392 22.7068 46.6457 20.4571C40.0049 18.4896 32.464 20.2 27.3073 21.9812C21.711 23.9141 17.6418 26.3431 17.6014 26.3673C17.5223 26.4149 17.4212 26.3941 17.3664 26.3184C17.3115 26.243 17.3202 26.1371 17.3866 26.0723L20.9163 22.6219C20.2479 22.6023 19.1949 22.3465 17.7674 21.8561C16.9081 21.5611 16.402 21.07 16.2629 20.3966C15.8631 18.4605 18.7312 15.7301 18.8534 15.6149C18.8681 15.6011 18.8847 15.5899 18.9027 15.5818L20.0185 15.0788C20.0675 15.0568 20.1235 15.0581 20.1714 15.0828C20.2192 15.1074 20.254 15.1528 20.2662 15.2064L20.6384 16.8413L22.2313 16.6454C22.2898 16.6389 22.347 16.6605 22.386 16.7049C22.4252 16.7493 22.441 16.8106 22.4287 16.8692L22.1678 18.1062L23.3466 17.3886C23.3882 17.3633 23.4381 17.3564 23.4843 17.3688C23.531 17.3816 23.5708 17.4131 23.5947 17.4562L24.3396 18.7997C25.2076 18.2446 29.423 15.3869 29.6044 12.1485C29.7765 9.0733 26.1139 7.5663 22.5718 6.10884C21.9813 5.86597 21.3706 5.61475 20.7877 5.36015C16.9728 3.69427 13.8273 6.2765 13.5668 6.49965L7.72297 15.5315C7.68038 15.5974 7.60258 15.6286 7.52726 15.6081C7.45288 15.5879 7.39902 15.5215 7.39326 15.4424C6.79408 7.20975 11.6764 0.851892 20.4532 -1.56506C28.6395 -3.81857 45.3619 3.58861 46.0697 3.90512C46.1446 3.9385 46.1883 4.01962 46.1763 4.10266C46.1726 4.1284 45.8216 6.6849 46.9972 7.89621C47.9276 8.85498 49.3166 8.21478 49.8028 7.94226L47.2904 4.84516C47.2447 4.78896 47.2355 4.71026 47.2668 4.64437C47.2981 4.57836 47.3621 4.53654 47.4353 4.54055L51.0956 4.68031C51.5724 4.72793 51.9973 5.10368 52.3697 5.79795C52.8895 6.76666 53.2429 8.30678 53.2851 8.91353C53.5663 8.84837 54.3046 8.52622 54.8701 7.43699C55.4652 6.29071 53.5019 4.55062 52.6951 3.97673C52.6494 3.94421 52.6208 3.89177 52.6176 3.83458C52.6144 3.7774 52.637 3.72192 52.6788 3.6842C52.7336 3.63474 53.0789 3.38667 54.5016 3.35091C55.7882 3.32697 57.9904 5.87425 58.6449 6.67385C58.964 5.87306 58.9781 5.12066 58.6859 4.43361C57.9209 2.63389 55.3177 1.81839 55.2914 1.81028C55.2315 1.79188 55.1849 1.74268 55.1687 1.68033C55.1525 1.61807 55.1689 1.55146 55.212 1.50456C55.2397 1.47447 55.9139 0.766032 57.9517 0.69229C59.5299 0.635235 60.1319 2.07938 60.34 2.84138C60.6757 2.21564 60.7175 1.67082 60.4697 1.1842C59.0931 -1.51722 49.5475 -1.4524 49.4519 -1.45133C49.41 -1.44954 49.3657 -1.46691 49.3325 -1.49644C49.2456 -1.57355 40.4212 -9.22159 20.4879 -10.5774C14.0492 -11.0146 -1.26697 -8.83432 -13.1523 2.55439C-22.6619 11.6668 -27.5355 24.3755 -27.638 40.3277C-27.7015 50.1974 -25.8265 59.5928 -22.0651 68.2527C-19.0555 75.1821 -14.8378 81.6599 -9.52943 87.5061C-0.777575 97.1445 8.11903 101.886 8.76666 102.224L8.7667 102.224Z" fill="black"/>
<path d="M21.9587 12.8344C21.9587 12.8344 20.6972 7.57324 16.1919 9.36826C16.1919 9.36826 23.2146 3.24716 21.9587 12.8344Z" fill="#F2E8E0"/>
<path d="M21.9586 13.0201C21.8764 13.0201 21.8039 12.9622 21.7838 12.879C21.778 12.8551 21.1871 10.4755 19.4584 9.54995C18.5461 9.06142 17.4689 9.05843 16.2569 9.5415C16.1748 9.57389 16.082 9.54091 16.0369 9.46303C15.992 9.38506 16.0083 9.28507 16.0755 9.22644C16.2051 9.11352 19.269 6.4727 21.0731 7.49129C22.165 8.10807 22.5231 9.91405 22.1373 12.8592C22.1258 12.9476 22.055 13.0149 21.9686 13.0197C21.9652 13.02 21.9619 13.0201 21.9586 13.0201L21.9586 13.0201ZM17.962 8.80904C18.5577 8.80904 19.1138 8.94649 19.6266 9.2214C20.853 9.87906 21.5374 11.1599 21.8708 11.9956C22.0769 9.70205 21.7513 8.29793 20.8998 7.81703C19.821 7.20725 18.1039 8.19431 17.1036 8.89874C17.398 8.83904 17.6843 8.80904 17.962 8.80904Z" fill="black"/>
<path d="M52.3474 44.9545C52.3474 44.9545 55.3314 43.909 55.494 41.3441C55.6565 38.7793 53.9572 35.0653 50.2715 33.2753C46.5858 31.4852 38.871 28.8508 35.9663 33.4633C31.4143 34.5353 35.648 41.1131 33.0825 43.478C30.5171 45.8429 26.7034 46.5085 27.2267 50.2234C27.6519 53.2412 22.7798 55.2457 20.5 56.6327C22.701 67.0227 52.7811 67.7724 55.1546 62.4567C55.1546 62.4567 49.3955 57.1305 51.1841 53.8315C53.6771 49.2334 52.3474 44.9545 52.3474 44.9545Z" fill="#D797CA"/>
<path d="M42.8086 65.8716C40.9506 65.8716 39.0503 65.7679 37.2303 65.564C27.5951 64.4862 21.2751 61.1622 20.324 56.6723C20.3074 56.594 20.3415 56.5135 20.4085 56.4728C20.8 56.2347 21.2692 55.9772 21.7661 55.705C24.1365 54.4051 27.3831 52.6249 27.0484 50.2499C26.6654 47.5309 28.5222 46.3601 30.4879 45.1208C31.3312 44.5891 32.2033 44.0393 32.9625 43.3396C34.014 42.3703 33.8482 40.6363 33.6726 38.8002C33.4453 36.4235 33.2103 33.9665 35.8551 33.2997C39.2456 28.0656 48.5175 32.2182 50.3484 33.1072C52.5342 34.1689 53.8017 35.7682 54.4801 36.923C55.3261 38.363 55.7612 39.9791 55.674 41.3563C55.5257 43.6943 53.2072 44.805 52.565 45.0686C52.778 45.9201 53.5641 49.8227 51.3416 53.9221C49.6428 57.0553 55.2185 62.2662 55.2751 62.3184C55.3338 62.3728 55.3514 62.4604 55.3184 62.5343C54.3061 64.8015 48.7765 65.8714 42.8087 65.8716L42.8086 65.8716ZM20.7056 56.7241C21.7186 60.9843 27.8916 64.1458 37.2691 65.1949C45.6321 66.1305 53.623 64.8973 54.932 62.4978C54.5795 62.1578 53.3798 60.963 52.3523 59.4895C50.694 57.1116 50.248 55.1774 51.0269 53.7407C53.45 49.2717 52.1887 45.0531 52.1757 45.011C52.1459 44.9145 52.1963 44.8113 52.2892 44.7786C52.3179 44.7685 55.1615 43.7409 55.3141 41.332C55.5299 37.9277 52.8374 34.7268 50.1946 33.4432C48.4041 32.5738 39.3111 28.4937 36.1173 33.5644C36.0918 33.605 36.0521 33.6335 36.0063 33.6444C33.5959 34.2121 33.8073 36.4229 34.0311 38.7638C34.2078 40.611 34.3905 42.5214 33.2027 43.6161C32.4192 44.3386 31.5329 44.8973 30.6759 45.4377C28.7337 46.6621 27.0561 47.7196 27.405 50.1967C27.776 52.8301 24.4002 54.6812 21.9353 56.0328C21.4898 56.277 21.0667 56.5091 20.7056 56.724L20.7056 56.7241Z" fill="black"/>
<path d="M40.9005 36.3151C40.8895 36.3151 40.8783 36.3141 40.867 36.3119C37.3563 35.6345 36.4181 33.8465 36.3799 33.7706C36.334 33.6797 36.3684 33.5675 36.4567 33.5203C36.5443 33.473 36.6533 33.5082 36.6994 33.5987C36.7091 33.6175 37.6138 35.3064 40.9335 35.9468C41.0313 35.9657 41.0957 36.0627 41.0774 36.1635C41.0612 36.2527 40.9854 36.3151 40.9005 36.3151Z" fill="black"/>
<path d="M37.4222 51.1858C37.4222 51.1858 32.825 51.5606 30.6625 54.2427C28.2743 57.2046 21.6663 87.6266 23.2682 92.2482C24.8701 96.8697 47.9774 96.0884 52.8432 94.6634C57.709 93.2385 50.9665 70.0261 50.9665 70.0261C50.9665 70.0261 53.4041 57.7903 48.4249 54.5052L37.4222 51.1858Z" fill="#CFE8FD"/>
<path d="M39.7352 95.9532C38.7761 95.9532 37.8029 95.9392 36.8263 95.909C32.1145 95.7627 24.0657 95.1009 23.0985 92.3105C22.2445 89.8465 23.672 80.5051 25.2927 72.5848C26.9242 64.6114 29.2451 55.71 30.5239 54.1239C32.71 51.4128 37.2173 51.0163 37.408 51.0006C37.4298 50.9994 37.4518 51.0011 37.4729 51.0076L48.4755 54.327C48.492 54.3318 48.5076 54.3393 48.522 54.3488C50.6419 55.7475 51.7256 58.8253 51.7431 63.4968C51.7552 66.7151 51.2275 69.6184 51.152 70.0171C51.5144 71.2722 56.5919 89.0929 54.1071 93.7624C53.8043 94.3315 53.3956 94.6947 52.8924 94.8422C50.8954 95.4268 45.5906 95.9532 39.7352 95.9532ZM37.4044 51.3739C36.9944 51.4145 32.7959 51.8872 30.801 54.3613C28.3893 57.3527 21.892 87.7256 23.438 92.1857C24.0917 94.0721 28.9756 95.2939 36.8371 95.5376C43.7424 95.753 50.4957 95.158 52.7939 94.4849C53.2066 94.364 53.5328 94.0693 53.791 93.584C56.2402 88.9815 50.8486 70.2679 50.7938 70.0793C50.7854 70.05 50.784 70.0189 50.7899 69.9889C50.7961 69.9584 51.3962 66.9038 51.3827 63.4924C51.3704 60.3841 50.8335 56.336 48.3492 54.6759L37.4044 51.3739Z" fill="black"/>
<path d="M35.1077 46.6503L33.0148 56.5536C33.0148 56.5536 37.7535 59.6897 42.2775 59.4421C46.8015 59.1945 46.2335 57.0488 46.2335 57.0488L45.2931 53.4176L35.1077 46.6503Z" fill="#F9EA31"/>
<path d="M41.7693 59.6414C37.3997 59.6414 32.9635 56.7403 32.9174 56.7098C32.854 56.668 32.8227 56.5899 32.8387 56.5142L34.9316 46.6108C34.9442 46.5514 34.9843 46.5018 35.0389 46.4786C35.0934 46.4554 35.1556 46.4609 35.2053 46.4943L45.3907 53.2615C45.4283 53.2864 45.4557 53.3251 45.4672 53.3696L46.4077 57.0009C46.4139 57.0244 46.5603 57.6034 46.1279 58.2202C45.5486 59.0461 44.2564 59.5195 42.2871 59.6273C42.1148 59.6368 41.942 59.6414 41.7693 59.6414ZM33.218 56.4649C33.9402 56.9173 38.2218 59.4784 42.268 59.2565C44.5676 59.1308 45.4738 58.5104 45.8289 58.0123C46.1647 57.5413 46.0638 57.1143 46.0593 57.0962L45.1369 53.5347L35.2285 46.9515L33.218 56.4649Z" fill="black"/>
<path d="M33.076 39.209C34.3438 39.0529 35.7374 39.8248 36.6808 41.0686L37.3621 38.1533C37.3621 38.1533 39.3895 37.7182 41.3945 35.8364C42.6694 36.2947 43.0354 36.8129 43.3981 38.7089C46.638 40.6532 51.5756 41.3166 51.5756 41.3166L49.695 49.3645C48.743 53.4382 44.7059 56.0667 40.7689 55.0172C37.2307 54.074 34.9643 50.5875 35.3709 46.925C33.6918 46.9571 31.8655 45.4636 31.1925 43.449C30.4821 41.3229 31.3254 39.4246 33.076 39.209H33.076Z" fill="#F9EA31"/>
<path d="M42.5371 55.4356C41.9309 55.4356 41.3227 55.3567 40.7237 55.1972C37.2153 54.2615 34.8587 50.8069 35.1718 47.1079C33.4506 47.0272 31.693 45.5177 31.022 43.5095C30.6137 42.2873 30.6852 41.0844 31.2179 40.209C31.6244 39.5411 32.2767 39.1205 33.0545 39.0245C34.2589 38.878 35.5865 39.4998 36.5897 40.6657L37.1869 38.1098C37.2031 38.0402 37.257 37.9863 37.3252 37.9715C37.345 37.9674 39.3317 37.5211 41.2731 35.699C41.322 35.6531 41.3916 35.6388 41.4538 35.661C42.7836 36.139 43.1877 36.6932 43.5587 38.5902C46.7308 40.4609 51.5502 41.1258 51.5989 41.1323C51.6496 41.1393 51.6951 41.1679 51.7241 41.2114C51.7531 41.2546 51.7627 41.3088 51.7507 41.3601L49.8701 49.408C49.3936 51.4471 48.1113 53.2409 46.352 54.3292C45.1694 55.0608 43.8581 55.4356 42.5371 55.4356ZM35.3708 46.7394C35.4215 46.7394 35.47 46.7615 35.5042 46.8001C35.5391 46.8398 35.5557 46.893 35.5499 46.9461C35.1512 50.5385 37.4142 53.9309 40.814 54.8374C42.6234 55.3207 44.5246 55.0262 46.1665 54.0107C47.8434 52.9735 49.0656 51.2641 49.5198 49.3209L51.354 41.4712C50.3954 41.3218 46.1732 40.589 43.3073 38.8694C43.2627 38.8426 43.2312 38.7971 43.2212 38.7446C42.8799 36.9605 42.5708 36.4762 41.4352 36.0483C39.689 37.6544 37.9653 38.1885 37.5114 38.3075L36.856 41.1121C36.8399 41.1813 36.7867 41.2349 36.7191 41.2502C36.6509 41.2642 36.5814 41.2388 36.5389 41.183C35.6062 39.9532 34.2551 39.2485 33.0973 39.3933C32.4202 39.4767 31.8759 39.8269 31.5232 40.4062C31.0486 41.1862 30.9901 42.273 31.3627 43.3885C32.0009 45.2981 33.7596 46.7681 35.3675 46.7393H35.3708V46.7394Z" fill="black"/>
<path d="M34.8058 44.9342C34.7241 44.9342 34.6502 44.8767 34.6305 44.7914C34.0522 42.2735 32.6606 41.766 32.6466 41.7611C32.5525 41.7288 32.5013 41.6241 32.5322 41.5269C32.5633 41.4299 32.6641 41.3772 32.7584 41.4081C32.8232 41.4299 34.3525 41.9688 34.9813 44.7058C35.0042 44.8056 34.9442 44.9057 34.8474 44.9292C34.8335 44.9325 34.8195 44.9342 34.8058 44.9342Z" fill="black"/>
<path d="M43.0957 40.9665C42.6913 40.8279 42.0168 40.7154 41.3592 41.1424C41.212 41.238 41.0644 41.034 41.1591 40.8642C41.411 40.4127 41.7671 39.9333 42.1646 39.8766C42.6405 39.8087 43.1886 39.9623 43.4386 40.3001C43.6541 40.5913 43.4056 41.0728 43.0957 40.9665Z" fill="black"/>
<path d="M48.282 42.2531C48.7033 42.3192 49.3536 42.5355 49.7505 43.224C49.8393 43.3782 50.0609 43.2658 50.0515 43.0702C50.0267 42.5501 49.9214 41.9562 49.5925 41.7193C49.1987 41.4356 48.6429 41.3153 48.2711 41.4989C47.9506 41.6571 47.9591 42.2024 48.282 42.2531Z" fill="black"/>
<path d="M44.2922 49.732C44.282 49.732 44.2719 49.7318 44.2616 49.7318C44.162 49.7308 44.0821 49.6469 44.083 49.5444C44.084 49.4423 44.1644 49.3604 44.2632 49.3604C44.2734 49.3601 44.2825 49.3606 44.2921 49.3606C45.4595 49.3606 45.9424 48.622 46.1268 48.1795C46.3401 47.6674 46.297 47.2228 46.2323 47.1539C46.0992 47.0581 45.4427 47.2968 44.8307 47.6699C44.7684 47.7081 44.6901 47.7035 44.6319 47.6594C44.5736 47.615 44.5468 47.539 44.5638 47.4665L45.2926 44.3473C45.3158 44.2477 45.4137 44.1875 45.51 44.2102C45.6067 44.2344 45.6663 44.3345 45.643 44.4344L45.0096 47.1452C45.462 46.9078 46.1345 46.6273 46.444 46.8536C46.7043 47.0442 46.6878 47.6297 46.5369 48.1097C46.4168 48.4917 45.9009 49.7318 44.2922 49.732Z" fill="black"/>
<path d="M44.0235 51.3153C44.0181 51.3153 44.0127 51.3151 44.0072 51.3146C43.9081 51.3054 43.835 51.2152 43.8437 51.1132C43.8884 50.5972 43.7831 50.2476 43.5304 50.0742C42.9053 49.6456 41.459 50.2623 40.9546 50.536C40.866 50.5836 40.7574 50.5491 40.7111 50.4584C40.6647 50.3677 40.6983 50.2555 40.7863 50.2077C40.868 50.1632 42.7985 49.1262 43.7298 49.765C44.101 50.0196 44.2601 50.484 44.2028 51.146C44.1944 51.2427 44.1157 51.3152 44.0235 51.3152V51.3153Z" fill="black"/>
<path d="M42.3239 44.2537C42.2136 44.2537 42.1003 44.2416 41.9851 44.2138C41.3954 44.0718 40.9199 43.5612 40.5717 42.6956C40.5335 42.6008 40.5772 42.4923 40.6692 42.4531C40.7609 42.4135 40.8665 42.4587 40.9047 42.5534C41.2059 43.302 41.597 43.7391 42.0671 43.8523C42.7576 44.0186 43.4102 43.4391 43.4167 43.4332C43.4917 43.366 43.6054 43.3738 43.671 43.4507C43.7366 43.528 43.7289 43.6453 43.654 43.7128C43.626 43.7379 43.0442 44.2536 42.324 44.2536L42.3239 44.2537Z" fill="black"/>
<path d="M48.3552 45.781C48.329 45.781 48.3027 45.78 48.2762 45.7783C47.455 45.7256 46.8498 44.8598 46.8244 44.8228C46.767 44.7394 46.7861 44.6236 46.867 44.5643C46.9482 44.5051 47.0605 44.5244 47.1183 44.6079C47.1235 44.6154 47.6511 45.367 48.2998 45.4077C48.6069 45.4282 48.9036 45.2786 49.1809 44.9662C49.2483 44.8907 49.3622 44.8859 49.4355 44.9546C49.509 45.0239 49.514 45.1415 49.4468 45.2171C49.1142 45.5914 48.7473 45.781 48.3552 45.781Z" fill="black"/>
<path d="M35.6655 50.4407C35.6655 50.4407 39.6173 59.487 46.0756 56.6314L45.3788 54.8104C45.3788 54.8104 40.3025 57.566 35.6655 50.4407Z" fill="black"/>
<path d="M43.5955 57.3706C38.5623 57.3706 35.5358 50.5964 35.501 50.5168C35.4627 50.4289 35.496 50.3251 35.5779 50.2785C35.6599 50.2313 35.7628 50.2574 35.8151 50.3372C40.3098 57.2442 45.2455 54.6726 45.2948 54.6462C45.34 54.6216 45.3934 54.6182 45.4414 54.6363C45.4894 54.6547 45.5277 54.6931 45.5464 54.7423L46.2432 56.5631C46.279 56.6567 46.2362 56.7623 46.1467 56.802C45.2482 57.1992 44.3964 57.3707 43.5955 57.3707L43.5955 57.3706ZM37.1299 52.6358C38.7484 55.0179 41.7997 58.1994 45.843 56.5297L45.2801 55.059C44.4379 55.4152 40.816 56.6023 37.1299 52.6358Z" fill="black"/>
<path d="M23.0589 86.9901C23.0589 86.9901 19.7695 99.3029 28.0594 101.779C32.3044 102.879 39.0791 101.779 39.0791 101.779L39.8333 106.483H49.0842V101.036L50.9664 100.953V106.07L61.137 105.839C61.137 105.839 64.6626 74.2063 60.6579 69.5888C56.6531 64.9713 51.4181 68.7676 51.4181 68.7676C51.4181 68.7676 47.4078 63.4504 42.7395 65.6964C38.0712 67.9423 23.0588 86.99 23.0588 86.99L23.0589 86.9901Z" fill="#D797CA"/>
<path d="M49.0843 106.668H39.8333C39.7451 106.668 39.6699 106.603 39.6556 106.513L38.9303 101.989C37.8305 102.151 31.8641 102.956 28.0154 101.959C19.6455 99.459 22.8518 87.0658 22.8851 86.9408C22.8917 86.9162 22.9033 86.8929 22.919 86.8731C23.533 86.0941 38.011 67.7664 42.6633 65.5283C46.9835 63.4497 50.7805 67.7048 51.4548 68.5217C52.3286 67.9584 57.096 65.2033 60.7923 69.4652C62.4858 71.4176 63.087 78.143 62.5794 89.4544C62.2027 97.8491 61.325 105.782 61.3162 105.861C61.3059 105.953 61.2311 106.023 61.1411 106.025L50.9706 106.256C50.9175 106.255 50.8751 106.238 50.8406 106.203C50.8059 106.168 50.7864 106.12 50.7864 106.07V101.147L49.2646 101.214V106.483C49.2646 106.585 49.1838 106.669 49.0844 106.669L49.0843 106.668ZM39.9862 106.297H48.9041V101.036C48.9041 100.936 48.9802 100.855 49.0766 100.85L50.9589 100.768C51.0084 100.764 51.0557 100.784 51.0912 100.819C51.1267 100.854 51.1467 100.903 51.1467 100.953V105.88L60.9755 105.658C61.2389 103.21 64.2838 74.0478 60.5236 69.7127C56.6703 65.2695 51.5729 68.8822 51.5218 68.9194C51.443 68.9762 51.3349 68.9598 51.2759 68.8815C51.2365 68.8297 47.2977 63.7076 42.8157 65.8648C38.325 68.0251 23.9119 86.205 23.2232 87.0762C23.0369 87.818 20.3081 99.2704 28.1096 101.6C32.2629 102.677 38.9835 101.606 39.0511 101.595C39.1484 101.58 39.2408 101.648 39.2568 101.748L39.9862 106.297Z" fill="black"/>
<path d="M31.0479 53.8146C31.0479 53.8146 25.2961 53.8112 23.0207 65.3847C21.7599 71.7978 20.1979 77.2105 23.1375 81.048C26.0771 84.8856 41.0836 93.1796 43.5848 93.0558L47.0798 83.4001C47.0798 83.4001 32.1615 76.0374 30.8562 72.3826C34.1477 58.2703 34.6441 54.0507 31.0479 53.8146Z" fill="#CFE8FD"/>
<path d="M43.5293 93.2429C40.691 93.2436 25.8398 84.8755 22.9961 81.1632C20.322 77.6722 21.2993 72.9074 22.431 67.3902C22.5682 66.7215 22.7079 66.0406 22.8441 65.3479C25.1213 53.7652 30.8009 53.629 31.0477 53.629C31.0491 53.6259 31.0553 53.6293 31.0594 53.6295C31.9824 53.6899 32.6392 54.0101 33.0673 54.608C34.4418 56.5277 33.5976 61.4189 31.0445 72.3699C32.4321 75.9313 47.0099 83.1599 47.1578 83.2326C47.2418 83.2742 47.2813 83.375 47.2487 83.465L43.7537 93.1207C43.7284 93.1904 43.6654 93.2377 43.5935 93.2414C43.573 93.2423 43.5513 93.2428 43.5293 93.2428V93.2429ZM31.0437 54.0004C30.8544 54.0062 25.3847 54.2963 23.1973 65.4214C23.0609 66.1153 22.9211 66.7973 22.7837 67.4669C21.6708 72.8927 20.7095 77.5786 23.2791 80.9331C26.2945 84.8698 40.7931 92.7378 43.4598 92.87L46.8536 83.494C45.2017 82.671 31.9472 75.9749 30.6871 72.4468C30.6749 72.4125 30.6728 72.375 30.6811 72.3395C33.1675 61.6786 34.0603 56.6203 32.7774 54.8285C32.4124 54.3189 31.8613 54.0555 31.0437 54.0004L31.0437 54.0004Z" fill="black"/>
<path d="M57.9725 82.348C57.9725 82.348 61.7504 74.1988 61.6047 71.5863C61.5077 69.8492 60.1974 67.0552 54.0493 67.5638C52.545 67.1607 51.4181 66.9314 51.4181 66.9314C51.4181 66.9314 51.7874 63.7747 50.9665 60.4324C50.1378 57.0585 48.4249 54.5052 48.4249 54.5052C48.4249 54.5052 58.1998 57.7089 63.4035 64.6279C68.0651 70.8261 68.1171 73.2242 67.9569 76.7729C67.7967 80.3216 63.9003 86.9901 63.9003 86.9901L57.9725 82.348Z" fill="#CFE8FD"/>
<path d="M63.9003 87.1759C63.8613 87.1759 63.8229 87.1628 63.7914 87.1379L57.8636 82.4957C57.7955 82.4425 57.7731 82.3475 57.81 82.268C57.8475 82.187 61.5663 74.132 61.4249 71.597C61.3933 71.0302 61.1947 69.9487 60.2214 69.0752C58.9787 67.9598 56.9063 67.5126 54.0637 67.749C54.0438 67.7498 54.0234 67.7488 54.0039 67.7435C52.5228 67.3465 51.3945 67.1158 51.3833 67.1134C51.2908 67.0948 51.228 67.0056 51.2392 66.9091C51.2429 66.8779 51.5945 63.7459 50.7919 60.4777C49.9813 57.1779 48.2936 54.636 48.2767 54.6109C48.2329 54.5454 48.2343 54.4586 48.2801 54.3947C48.3261 54.3312 48.4061 54.3046 48.4797 54.3283C48.5779 54.3604 58.3679 57.629 63.546 64.5142C68.1742 70.668 68.3048 73.0684 68.137 76.7815C67.9766 80.3364 64.2149 86.812 64.0549 87.0859C64.0284 87.1311 63.9847 87.1626 63.9344 87.1725C63.9231 87.1746 63.9117 87.1758 63.9004 87.1758L63.9003 87.1759ZM58.198 82.2914L63.8481 86.716C64.4626 85.634 67.6351 79.9053 67.7769 76.7641C67.9406 73.1383 67.8117 70.7923 63.261 64.7415C58.8109 58.8244 50.8871 55.6068 48.8549 54.8549C49.3812 55.7429 50.5167 57.8442 51.1412 60.3868C51.8529 63.2843 51.6752 66.0764 51.6136 66.7828C51.9752 66.8602 52.9123 67.0679 54.0652 67.3762C56.9934 67.1383 59.1441 67.6158 60.458 68.7949C61.531 69.7579 61.7498 70.9504 61.7846 71.5757C61.9227 74.0495 58.709 81.1761 58.1981 82.2914L58.198 82.2914Z" fill="black"/>
<path d="M39.8733 44.0679C39.8733 44.0679 38.1513 45.7836 39.0724 46.32C39.9934 46.8564 39.8733 44.0679 39.8733 44.0679Z" fill="#CFE8FD"/>
<path d="M39.2919 46.5743C39.2034 46.5743 39.1004 46.5497 38.9837 46.4817C38.7787 46.3623 38.6555 46.1798 38.6274 45.9539C38.5305 45.173 39.6232 44.0591 39.748 43.9346C39.7989 43.8838 39.8742 43.8691 39.94 43.8954C40.0059 43.9225 40.0502 43.9868 40.0533 44.0598C40.0682 44.4039 40.1131 46.1391 39.5398 46.5016C39.4783 46.5405 39.3951 46.5743 39.2919 46.5743ZM39.699 44.5296C39.3573 44.9329 38.9379 45.5284 38.9849 45.9068C38.9986 46.0163 39.0545 46.0963 39.1611 46.1582C39.2823 46.2293 39.3324 46.1974 39.3513 46.1851C39.5886 46.0351 39.6883 45.2346 39.699 44.5296Z" fill="black"/>
</g>
</g>
<defs>
<clipPath id="clip0_101_6494">
<rect width="68" height="68" rx="6" fill="white"/>
</clipPath>
<clipPath id="clip1_101_6494">
<rect width="68" height="68" fill="white"/>
</clipPath>
<clipPath id="clip2_101_6494">
<rect width="97" height="128.023" fill="white" transform="translate(-28 -11)"/>
</clipPath>
</defs>
</svg>
