<svg width="68" height="68" viewBox="0 0 68 68" fill="none" xmlns="http://www.w3.org/2000/svg">
<g clip-path="url(#clip0_101_4439)">
<g clip-path="url(#clip1_101_4439)">
<rect width="68" height="68" rx="6" fill="#5620CC"/>
<g clip-path="url(#clip2_101_4439)">
<path d="M42.9743 28.2398C42.9743 28.2398 46.3346 21.8347 44.8983 18.1345C43.4619 14.4342 44.291 12.584 41.538 10.5026C38.785 8.42123 33.9429 10.0401 33.9429 10.0401C33.9429 10.0401 33.5185 6.45545 30.0473 7.49616C26.5761 8.53687 23.87 12.4684 23.87 12.4684C23.87 12.4684 23.8232 10.0401 21.0702 11.0808C18.3172 12.1215 15.5589 17.3367 16.1627 22.1816C17.3596 31.7858 25.858 38.3451 42.9744 28.2398H42.9743Z" fill="#CFE8FD"/>
<path d="M27.962 33.5674C25.6756 33.5674 23.8935 33.0823 22.541 32.4495C18.8635 30.7278 16.5033 27.0925 15.8953 22.2128C15.3856 18.1229 17.5364 12.1371 20.9721 10.8386C21.948 10.4693 22.7307 10.4683 23.2999 10.8359C23.7007 11.0951 23.9104 11.4863 24.0198 11.8204C24.8866 10.7068 27.1621 8.08846 29.9675 7.24763C31.0553 6.92106 31.9793 6.99083 32.7157 7.45462C33.6758 8.06 34.0332 9.16507 34.1545 9.7027C35.2784 9.37951 39.2378 8.43266 41.704 10.2976C43.5815 11.7174 43.8729 13.0853 44.2422 14.8171C44.4382 15.7376 44.6606 16.7806 45.1504 18.0429C46.6117 21.807 43.3543 28.0918 43.2148 28.3574C43.1923 28.4004 43.1576 28.4367 43.1148 28.4618C36.571 32.3255 31.6209 33.5674 27.9621 33.5674L27.962 33.5674ZM22.2885 11.0812C21.9694 11.0812 21.5953 11.1618 21.1685 11.3231C18.5351 12.3187 15.8343 17.3701 16.43 22.1505C17.0155 26.8482 19.2692 30.3396 22.7759 31.981C26.1644 33.5678 32.3811 34.1708 42.7676 28.057C43.1112 27.3771 45.9485 21.5807 44.6461 18.2258C44.1415 16.9253 43.9146 15.8609 43.7144 14.9222C43.3405 13.168 43.0937 12.0094 41.3722 10.7075C38.7643 8.73552 34.078 10.2698 34.031 10.2861C33.9545 10.3115 33.869 10.3023 33.7999 10.2603C33.7308 10.2183 33.6849 10.1482 33.6754 10.0699C33.6737 10.055 33.4804 8.55597 32.419 7.88926C31.8242 7.51526 31.0531 7.46716 30.1273 7.74425C26.7862 8.74601 24.1207 12.5737 24.0944 12.6124C24.0288 12.7072 23.9065 12.7499 23.7946 12.7181C23.6813 12.6862 23.6028 12.587 23.6007 12.4731C23.6007 12.4657 23.573 11.6364 22.9979 11.2668C22.8051 11.1428 22.568 11.0811 22.2885 11.0811V11.0812Z" fill="black"/>
<path d="M41.0493 22.2349C40.9263 22.2349 40.8216 22.1397 40.8097 22.0122C40.7975 21.8774 40.8946 21.7579 41.027 21.7451C41.0461 21.7435 42.9443 21.5553 43.9513 20.8881C44.0639 20.814 44.2122 20.8469 44.2846 20.96C44.357 21.0737 44.3254 21.2258 44.2141 21.2996C43.1067 22.0333 41.1546 22.226 41.0718 22.2339C41.0643 22.2346 41.0568 22.2349 41.0493 22.2349Z" fill="black"/>
<path d="M22.1146 18.5101C21.9676 18.5101 21.8477 18.3962 21.8453 18.2539C21.8116 16.2532 23.5506 12.5192 23.6246 12.361C23.6863 12.2302 23.8455 12.173 23.9812 12.2313C24.1166 12.2906 24.1769 12.4447 24.1155 12.5758C24.0976 12.6134 22.3523 16.3612 22.3839 18.2458C22.3863 18.3895 22.2678 18.5077 22.1188 18.5101H22.1146V18.5101Z" fill="black"/>
<path d="M32.4414 14.6941C32.4239 14.6941 32.406 14.6924 32.3881 14.689C32.2423 14.6609 32.1479 14.5237 32.177 14.3828C32.5371 12.6432 33.647 10.0499 33.6944 9.94049C33.7512 9.80768 33.9093 9.74502 34.0461 9.79989C34.1836 9.85476 34.2488 10.0072 34.1916 10.1397C34.1804 10.1661 33.0548 12.796 32.7051 14.4851C32.6795 14.6088 32.567 14.6941 32.4414 14.6941Z" fill="black"/>
<path d="M64.3399 85.4332C64.4303 90.3614 57.4403 98.5986 50.0907 100.465C46.456 101.388 42.6141 99.9574 40.4438 96.9934L23.464 73.8026L14.0271 95.4L-1.73187 89.3486L14.0271 52.1307C14.0271 52.1307 21.2496 39.9892 28.0722 43.1113C34.8949 46.2334 64.3399 85.4332 64.3399 85.4332L64.3399 85.4332Z" fill="black"/>
<path d="M47.8804 101C44.9113 101 42.0162 99.591 40.2242 97.1434L23.5236 74.3347L14.2752 95.5014C14.2182 95.6315 14.0634 95.6948 13.9277 95.642L-1.83122 89.5905C-1.89803 89.5648 -1.95151 89.5143 -1.97973 89.4506C-2.00779 89.3866 -2.00833 89.3144 -1.98115 89.25L13.7778 52.032C13.8118 51.9704 15.6467 48.9069 18.2981 46.2689C21.8645 42.7206 25.2854 41.5474 28.1878 42.8761C34.9943 45.9908 63.354 83.6776 64.5582 85.2803C64.5904 85.3234 64.6083 85.3752 64.6094 85.4284C64.7016 90.4784 57.711 98.799 50.159 100.716C49.4065 100.908 48.6407 101 47.8804 101ZM23.464 73.5423C23.551 73.5423 23.633 73.5829 23.6838 73.652L40.6639 96.8433C42.7859 99.7411 46.5461 101.095 50.0222 100.213C56.0842 98.674 64.0963 91.1512 64.0718 85.5188C62.6895 83.6837 34.5086 46.3444 27.9571 43.3463C25.2429 42.1041 22.1234 43.2101 18.6845 46.6314C16.0796 49.2233 14.2785 52.2302 14.2606 52.2604L-1.37955 89.204L13.8816 95.0644L23.2157 73.7012C23.2539 73.6141 23.3377 73.5542 23.4349 73.5437C23.4447 73.5426 23.4545 73.5423 23.464 73.5423Z" fill="black"/>
<path d="M44.054 34.2654L50.6748 40.1567L37.5916 49.7837L33.9429 44.2676L44.054 34.2654Z" fill="#F2E8E0"/>
<path d="M37.5917 50.0438C37.5759 50.0438 37.5602 50.0424 37.5447 50.0397C37.4704 50.0272 37.4051 49.9848 37.3648 49.9238L33.7161 44.4077C33.6488 44.3057 33.6628 44.1722 33.7505 44.0855L43.8613 34.0833C43.9627 33.9833 44.1292 33.9782 44.2362 34.0738L50.8572 39.9653C50.9158 40.0175 50.9477 40.092 50.9438 40.1689C50.9403 40.2459 50.9013 40.317 50.8379 40.3637L37.7547 49.9906C37.7077 50.0255 37.6502 50.0438 37.5916 50.0438H37.5917ZM34.2853 44.3013L37.6612 49.4056L50.2562 40.1378L44.0637 34.6277L34.2853 44.3013Z" fill="black"/>
<path d="M47.4834 23.454C45.5887 23.2352 43.5061 24.3167 42.0962 26.0595L41.0782 21.9747C41.0782 21.9747 39.5384 21.7197 37.6112 20.7284C35.8656 19.8305 33.7648 19.9429 32.1148 20.9962C27.5723 23.8958 19.8373 26.407 19.8373 26.407L22.6477 37.6832C24.0703 43.3911 30.1035 47.0741 35.987 45.6036C41.2745 44.282 44.6615 39.3969 44.0539 34.2653C46.5632 34.3102 49.2924 32.2175 50.2983 29.3948C51.3599 26.4158 50.0996 23.7561 47.4834 23.454Z" fill="#F2E8E0"/>
<path d="M33.3444 46.1896C31.3701 46.1899 29.4106 45.6645 27.6432 44.6394C25.0142 43.1146 23.0982 40.6012 22.386 37.7444L19.5756 26.4681C19.5428 26.337 19.6192 26.2035 19.7516 26.1605C19.8286 26.1354 27.5058 23.6265 31.9666 20.7791C33.7049 19.669 35.9159 19.5615 37.7379 20.4986C39.6053 21.4593 41.1085 21.7158 41.1236 21.7182C41.2296 21.7358 41.3148 21.8127 41.34 21.9136L42.2328 25.4958C43.72 23.8846 45.7479 22.9919 47.5153 23.1955C48.6778 23.33 49.653 23.9195 50.2604 24.8555C51.0567 26.0822 51.163 27.7673 50.5528 29.4794C49.5503 32.2936 46.9234 34.4082 44.3512 34.5213C44.8194 39.7045 41.2976 44.5448 36.0544 45.8556C35.1595 46.0792 34.2502 46.1896 33.3444 46.1896H33.3444ZM20.1564 26.5761L22.9099 37.6224C23.5881 40.3448 25.4143 42.7395 27.9202 44.1932C30.3742 45.616 33.215 46.0287 35.9197 45.3515C41.0005 44.0818 44.3824 39.3285 43.7862 34.2947C43.7775 34.2202 43.8024 34.1456 43.8546 34.09C43.9069 34.0345 43.9991 34.0091 44.0587 34.005C46.458 34.0443 49.0898 31.9862 50.0436 29.31C50.6005 27.7472 50.5131 26.2245 49.8041 25.1319C49.2771 24.3202 48.4635 23.8294 47.4514 23.7125C45.7191 23.5112 43.7024 24.4971 42.3085 26.2197C42.245 26.2983 42.1399 26.3335 42.0392 26.3139C41.9382 26.2925 41.8586 26.2173 41.8344 26.1205L40.8564 22.1971C40.3928 22.0999 39.0736 21.7754 37.4847 20.9579C35.8383 20.1113 33.8374 20.2089 32.2633 21.2134C28.1864 23.8154 21.4869 26.1293 20.1564 26.5761Z" fill="black"/>
<path d="M44.8986 31.4761C44.8779 31.4761 44.8572 31.4738 44.8362 31.469C44.6914 31.4361 44.602 31.2959 44.6363 31.156C45.5758 27.3211 47.8611 26.5657 47.9579 26.5352C48.1006 26.4921 48.2514 26.5663 48.2973 26.7025C48.3429 26.839 48.2658 26.985 48.1252 27.0298C48.1045 27.0365 46.025 27.748 45.1602 31.2759C45.1311 31.3955 45.0207 31.4761 44.8986 31.4761L44.8986 31.4761Z" fill="black"/>
<path d="M32.5099 25.9165C33.1142 25.7222 34.1223 25.5646 35.1048 26.1629C35.3248 26.2968 35.5454 26.011 35.4039 25.7731C35.0275 25.1405 34.4953 24.4689 33.9013 24.3894C33.1901 24.2942 32.3711 24.5094 31.9975 24.9827C31.6755 25.3908 32.0468 26.0654 32.5099 25.9165L32.5099 25.9165Z" fill="black"/>
<path d="M24.7592 27.7193C24.1296 27.8121 23.1578 28.115 22.5647 29.0797C22.432 29.2957 22.1009 29.1382 22.1148 28.8642C22.1519 28.1354 22.3093 27.3033 22.8008 26.9714C23.3892 26.5739 24.2199 26.4053 24.7755 26.6625C25.2545 26.8842 25.2417 27.6483 24.7592 27.7193Z" fill="black"/>
<path d="M30.7214 38.198C28.3165 38.198 27.5464 36.4598 27.3668 35.9242C27.1417 35.2517 27.1172 34.4315 27.5061 34.1653C27.9697 33.8488 28.9733 34.2415 29.6497 34.5738L28.7029 30.7756C28.6682 30.6356 28.7573 30.4954 28.9018 30.4615C29.0466 30.4287 29.1918 30.5137 29.2269 30.6536L30.316 35.0241C30.3413 35.1258 30.3013 35.2321 30.214 35.2944C30.127 35.3561 30.0102 35.3629 29.917 35.309C29.0028 34.7866 28.0233 34.4509 27.8175 34.5898C27.7256 34.6826 27.6611 35.3056 27.9802 36.0228C28.2559 36.6431 28.9775 37.6777 30.7217 37.6777C30.7358 37.6777 30.748 37.6753 30.7652 37.6773C30.9129 37.6773 31.0331 37.7922 31.0345 37.9351C31.0359 38.0788 30.9163 38.1963 30.7677 38.1977C30.7523 38.1977 30.7368 38.198 30.7214 38.198Z" fill="black"/>
<path d="M31.1232 40.4169C30.9854 40.4169 30.868 40.3153 30.8553 40.1798C30.7694 39.2522 31.0072 38.6011 31.5619 38.2447C32.953 37.3503 35.8387 38.8027 35.9611 38.865C36.0926 38.932 36.1427 39.0893 36.0733 39.2163C36.0039 39.3433 35.8408 39.3928 35.7096 39.325C34.9557 38.9412 32.7945 38.0767 31.86 38.678C31.4826 38.9209 31.3248 39.4104 31.3918 40.1337C31.4052 40.2766 31.2958 40.403 31.1474 40.4159C31.1393 40.4166 31.1313 40.4169 31.1232 40.4169L31.1232 40.4169Z" fill="black"/>
<path d="M33.6631 30.5225C32.5866 30.5225 31.7172 29.7999 31.6752 29.7646C31.5637 29.6701 31.5521 29.5062 31.6496 29.3981C31.7467 29.2904 31.9168 29.2785 32.0294 29.3727C32.0395 29.3812 33.0242 30.1952 34.0499 29.9594C34.7513 29.7995 35.3348 29.1877 35.7843 28.1402C35.8411 28.0074 35.9993 27.9444 36.1361 27.9996C36.2735 28.0545 36.3387 28.2066 36.2816 28.3394C35.7612 29.5522 35.0507 30.2677 34.1695 30.4665C33.9973 30.5055 33.8276 30.5225 33.6631 30.5225Z" fill="black"/>
<path d="M24.6499 32.6622C24.064 32.6622 23.5155 32.3969 23.0182 31.8722C22.918 31.7661 22.9257 31.6015 23.0351 31.5042C23.1455 31.408 23.3156 31.4151 23.4159 31.5205C23.8311 31.9589 24.2765 32.1665 24.7344 32.1391C25.7079 32.0808 26.4902 31.0296 26.4983 31.0191C26.5835 30.9022 26.7514 30.8735 26.8735 30.9575C26.9948 31.0404 27.0236 31.2027 26.9373 31.3199C26.8995 31.3718 25.9954 32.5849 24.7681 32.6584C24.7284 32.6608 24.6892 32.6621 24.6499 32.6621L24.6499 32.6622Z" fill="black"/>
<path d="M23.6212 34.3262C23.6212 34.3262 21.6567 39.7163 23.6116 40.1567C26.7177 40.8564 23.6212 34.3262 23.6212 34.3262Z" fill="#CFE8FD"/>
<path d="M24.0422 40.4698C23.8911 40.4698 23.727 40.4498 23.5506 40.4102C23.2041 40.3323 22.9362 40.13 22.7542 39.8092C21.901 38.3065 23.3072 34.4052 23.3675 34.2398C23.404 34.1399 23.4993 34.0711 23.6091 34.0664C23.7308 34.0566 23.8209 34.1216 23.8662 34.2178C24.0881 34.686 26.0046 38.8288 24.9368 40.0914C24.7236 40.3431 24.4237 40.4698 24.0422 40.4698ZM23.6582 35.0624C23.2445 36.3955 22.7125 38.654 23.2266 39.5592C23.3332 39.7473 23.4791 39.8597 23.6726 39.9034C24.2845 40.042 24.4613 39.8309 24.5198 39.7622C25.0897 39.0883 24.374 36.7413 23.6582 35.0624Z" fill="black"/>
<path d="M7.33515 62.9715H9.43698L11.2451 58.7013C11.2451 58.7013 9.13056 58.247 7.33515 58.7013C5.53974 59.1555 4.12968 61.1891 4.12968 61.1891C4.12968 61.1891 2.93637 61.0635 2.39772 62.1909C1.85911 63.3184 1.76932 65.66 1.76932 65.66C1.76932 65.66 0.602312 65.5732 0.15344 66.6139C-0.295431 67.6547 4.55187 73.8549 4.55187 73.8549L7.33515 62.9715Z" fill="#F2E8E0"/>
<path d="M4.55184 74.1149C4.46839 74.1149 4.38842 74.0773 4.3369 74.0116C3.17793 72.5291 -0.566876 67.6071 -0.0951946 66.5139C0.249519 65.7147 0.999592 65.4505 1.51298 65.4044C1.55243 64.7621 1.6978 63.0351 2.15311 62.0818C2.59286 61.1614 3.47182 60.9252 3.99429 60.9229C4.33866 60.4628 5.63402 58.8628 7.26692 58.4495C9.10374 57.9854 11.2146 58.4281 11.3035 58.4471C11.381 58.4637 11.4469 58.5129 11.4837 58.5806C11.5205 58.6487 11.5244 58.7287 11.4944 58.7998L9.68636 63.07C9.645 63.1676 9.54643 63.2316 9.43702 63.2316H7.54605L4.81329 73.9171C4.78841 74.0147 4.70775 74.0895 4.60605 74.1095C4.58799 74.1132 4.56975 74.1149 4.55188 74.1149L4.55184 74.1149ZM1.69492 65.918C1.484 65.918 0.722349 65.9709 0.402017 66.7138C0.173383 67.2439 2.25669 70.4331 4.42683 73.2591L7.07367 62.909C7.10331 62.7928 7.2113 62.7112 7.33508 62.7112H9.25623L10.8704 58.899C10.2265 58.7971 8.71356 58.6216 7.40328 58.9529C5.72971 59.3763 4.36684 61.3145 4.35334 61.3341C4.2976 61.4144 4.1987 61.4615 4.10052 61.4476C4.06073 61.4459 3.08973 61.3632 2.64227 62.2999C2.13256 63.3667 2.03929 65.6466 2.03841 65.6697C2.03561 65.7402 2.00318 65.8069 1.94848 65.854C1.89377 65.9011 1.82204 65.9221 1.74859 65.9194C1.74388 65.9191 1.72494 65.918 1.69492 65.918Z" fill="black"/>
<path d="M83.7305 2.75517C83.7305 -5.80243 74.5622 -12.7397 63.2525 -12.7397C51.9428 -12.7397 42.7744 -5.80243 42.7744 2.75517C42.7744 9.69914 48.8128 15.5734 57.132 17.5428C57.5892 17.651 57.8889 18.0743 57.8355 18.5261C57.6599 20.0112 57.4015 21.6532 57.028 22.9979C56.8107 23.7803 57.6722 24.4277 58.4018 24.0285C60.8207 22.7054 64.6696 20.4643 67.9636 17.9365C68.078 17.8487 68.2122 17.7893 68.3554 17.7615C77.1954 16.0454 83.7305 9.97916 83.7305 2.75513V2.75517Z" fill="#CFE8FD"/>
<path d="M57.9333 24.4108C57.6735 24.4108 57.4161 24.3274 57.1965 24.1631C56.8028 23.8687 56.6386 23.3965 56.7677 22.9303C57.0864 21.7833 57.3554 20.2916 57.5679 18.4965C57.6061 18.1733 57.3912 17.8721 57.0678 17.7956C48.3572 15.7331 42.5049 9.68915 42.5049 2.75518C42.5049 -5.93223 51.812 -13 63.2523 -13C74.6925 -13 83.9999 -5.93223 83.9999 2.75522C83.9999 9.95884 77.5887 16.2345 68.4085 18.0165C68.3068 18.0361 68.2107 18.0788 68.1311 18.1401C64.887 20.6297 61.1219 22.8395 58.5343 24.2549C58.3439 24.3593 58.1377 24.4108 57.9332 24.4108H57.9333ZM63.2523 -12.4797C52.109 -12.4797 43.0435 -5.64533 43.0435 2.75518C43.0435 9.44489 48.731 15.2859 57.1962 17.2901C57.7818 17.4287 58.1718 17.9728 58.103 18.5555C57.8877 20.376 57.6135 21.8934 57.2881 23.0652C57.2018 23.3755 57.3547 23.6235 57.5262 23.7515C57.7471 23.9175 58.0252 23.9358 58.2692 23.8023C60.8396 22.3961 64.5792 20.2015 67.7959 17.733C67.9425 17.6205 68.1174 17.5422 68.3026 17.5063C77.2278 15.7739 83.4613 9.70781 83.4613 2.75525C83.4613 -5.64525 74.3955 -12.4796 63.2523 -12.4796V-12.4797Z" fill="black"/>
<path d="M69.6864 11.1929C69.5331 11.1929 69.3855 11.1645 69.2435 11.1075C68.4229 10.7793 67.9625 9.4862 68.0084 7.64328C67.534 7.84924 67.03 8.03829 66.4981 8.20598C64.9204 8.70295 63.813 8.40347 63.0471 7.83772C62.1669 8.88352 61.1399 9.73552 59.9672 10.2749C58.0101 11.176 56.7358 10.739 56.012 10.2149C54.9821 9.46823 54.3874 8.11182 54.1258 6.55754C51.9807 6.93291 50.1576 7.73547 48.9713 9.2704C48.8829 9.38558 48.7135 9.40963 48.5947 9.32326C48.4754 9.23757 48.4509 9.07425 48.54 8.95941C49.8279 7.29231 51.7766 6.43419 54.0518 6.04055C53.9241 4.97241 53.9413 3.83617 54.0725 2.75549C52.0386 3.70743 50.9301 4.06315 50.4111 3.60715C49.9868 3.23551 50.2154 2.51054 50.4241 1.99766C50.9483 0.709306 52.3517 0.00432968 54.482 -0.0407381C54.556 -0.042448 54.6307 -0.0430946 54.7061 -0.0430946C55.3405 -1.89548 56.4114 -3.58055 57.9708 -4.08276C59.3237 -4.51843 60.8526 -4.46914 62.4864 -3.95048C62.944 -4.89379 63.5037 -5.71733 64.1517 -6.33407C64.7731 -6.92524 65.337 -7.1285 65.8332 -6.93743C66.7169 -6.59597 66.9487 -5.13703 66.9873 -3.97321C66.9981 -3.64052 66.9957 -3.2916 66.9799 -2.93083C69.0702 -3.23878 70.9821 -3.04027 72.4619 -1.96228C72.5847 -1.87827 75.6236 0.230923 75.8399 2.82659C75.9325 3.94147 75.4896 4.97237 74.5235 5.89076C73.7836 6.59338 72.6018 6.91147 71.1213 7.01107C71.3801 7.33255 71.5845 7.64966 71.7269 7.95963C72.1245 8.82314 72.0176 9.60435 71.4183 10.2185C70.7857 10.8666 70.205 11.1929 69.6863 11.1929L69.6864 11.1929ZM68.5572 7.39126C68.5534 7.46274 68.5506 7.53388 68.5481 7.60467C68.5011 9.17791 68.8633 10.3924 69.4497 10.6269C69.9424 10.825 70.5792 10.3196 71.0263 9.86157C71.4776 9.39949 71.5456 8.84663 71.235 8.1711C71.0666 7.80524 70.8009 7.42615 70.454 7.04128C70.0652 7.05143 69.6594 7.04907 69.2389 7.03722C69.0198 7.15916 68.7925 7.27707 68.5573 7.39122L68.5572 7.39126ZM54.6598 6.47387C54.9229 7.99056 55.5018 9.19452 56.3353 9.79856C57.2148 10.4365 58.3587 10.4382 59.7358 9.80533C60.8348 9.29955 61.803 8.48547 62.6376 7.48068C62.4212 7.26081 62.2409 7.02232 62.0923 6.78585C62.0267 6.68218 61.965 6.57445 61.9061 6.46266C59.4044 6.26517 56.8806 6.16318 54.6598 6.47383V6.47387ZM63.3778 7.42683C64.1493 7.99155 65.1375 8.08742 66.3311 7.71141C66.9497 7.51628 67.5189 7.29573 68.0396 7.05793L68.0459 6.98375C66.9276 6.91702 65.7284 6.80557 64.4814 6.69005C64.3011 6.6731 64.1209 6.6565 63.9396 6.63993C63.7601 6.9106 63.5731 7.17349 63.3778 7.42691V7.42683ZM62.5527 6.5159C62.681 6.71984 62.8202 6.90209 62.9693 7.06199C63.0875 6.90615 63.2028 6.74591 63.315 6.58262C63.0615 6.55994 62.8076 6.53756 62.5527 6.5159ZM68.6452 6.49218C68.8016 6.49929 68.9559 6.50506 69.1084 6.50982C69.2775 6.41292 69.4405 6.314 69.5966 6.21406C69.3549 6.00673 69.0934 5.79941 68.8146 5.5931C68.7448 5.8892 68.6883 6.19069 68.6452 6.49218ZM70.4441 6.27604C70.5244 6.35394 70.6019 6.43119 70.677 6.50913C72.221 6.4478 73.4533 6.17781 74.1455 5.51957C74.9927 4.715 75.382 3.82337 75.303 2.86972C75.108 0.516949 72.1733 -1.52209 72.1438 -1.54242C70.7846 -2.53297 68.9555 -2.69086 66.9459 -2.37683C66.9259 -2.12105 66.8996 -1.86022 66.867 -1.59528C68.0898 -0.684002 68.8619 0.104346 68.905 0.148692C69.0067 0.253382 69.0015 0.417997 68.8931 0.516265C68.7851 0.614837 68.6147 0.61043 68.5126 0.505094C68.4937 0.48579 67.8341 -0.182592 66.7824 -0.990244C66.5762 0.331966 66.22 1.73382 65.714 3.09297C66.7221 3.60654 67.6654 4.15739 68.4979 4.72381C68.9738 3.25116 69.7852 2.02316 70.8947 1.65083C71.9559 1.29344 72.505 1.49602 72.7792 1.72774C73.0931 1.99333 73.2046 2.43036 73.0927 2.95849C72.8809 3.95751 71.9604 5.18688 70.4441 6.27604ZM64.2527 6.14597C64.346 6.15478 64.4396 6.16326 64.5329 6.17203C65.7624 6.28584 66.9722 6.39832 68.1048 6.46406C68.1609 6.0572 68.2405 5.65067 68.3433 5.25635C67.5104 4.6811 66.5514 4.1184 65.5204 3.59263C65.1627 4.4802 64.7398 5.34272 64.2527 6.14593V6.14597ZM62.2578 5.96877C62.7199 6.00704 63.1811 6.0477 63.6387 6.08938C64.1745 5.23533 64.635 4.30338 65.0196 3.34297C63.9276 2.81078 62.7662 2.32191 61.5967 1.90524C61.5438 3.42631 61.7507 4.86745 62.2578 5.96881V5.96877ZM54.6521 2.48079C54.4718 3.70815 54.4554 4.89622 54.5841 5.9576C56.7694 5.65303 59.2213 5.73636 61.6577 5.92135C61.1928 4.75224 61.016 3.27419 61.0896 1.72907C60.0338 1.37233 58.9783 1.07696 57.9659 0.862826C57.3522 1.1579 56.762 1.4489 56.2045 1.7233C55.6409 2.00074 55.1244 2.25416 54.6521 2.48079ZM68.9597 5.04799C69.3539 5.33356 69.7175 5.62153 70.0465 5.91018C71.6066 4.80035 72.4072 3.59909 72.565 2.85414C72.6063 2.65901 72.6428 2.30398 72.4244 2.11933C72.1926 1.92284 71.6995 1.93131 71.0715 2.14202C70.0977 2.46928 69.377 3.65225 68.9597 5.04799ZM54.5402 0.478646C54.5244 0.478988 54.509 0.47933 54.4936 0.479672C52.5709 0.520332 51.3702 1.09523 50.9255 2.18808C50.6671 2.8226 50.6773 3.13834 50.773 3.22202C51.0893 3.49946 52.5344 2.9046 54.1615 2.13423C54.1636 2.12101 54.1657 2.10816 54.1682 2.09528C54.2569 1.56647 54.3807 1.01969 54.5402 0.478684V0.478646ZM61.6273 1.34896C62.8522 1.77749 64.0672 2.28498 65.2118 2.84259C65.7322 1.43465 66.0913 -0.016304 66.2848 -1.36055C65.978 -1.58179 65.6459 -1.80774 65.2939 -2.02825C64.2026 -1.7447 63.0832 -1.35816 61.9762 -0.920134C61.8019 -0.172484 61.6841 0.594166 61.6273 1.34896ZM55.0922 0.48408C54.9624 0.913974 54.8506 1.36997 54.7591 1.84763C55.1599 1.65353 55.5645 1.45433 55.9598 1.25955C56.3322 1.07627 56.7134 0.88859 57.1029 0.698553C56.3988 0.579992 55.723 0.50612 55.0922 0.484118V0.48408ZM58.7384 0.49491C59.5229 0.681908 60.3245 0.912264 61.1261 1.17823C61.1791 0.557268 61.271 -0.0694661 61.3993 -0.687042C60.4911 -0.312362 59.5969 0.0911222 58.7384 0.49491ZM55.2609 -0.0305157C56.0867 0.0071044 56.9774 0.125664 57.9025 0.311294C59.0744 -0.251752 60.3038 -0.81818 61.5452 -1.32191C61.7332 -2.06925 61.9755 -2.79521 62.2669 -3.47073C60.9291 -3.89215 59.5064 -4.02937 58.1413 -3.58895C56.9528 -3.20648 55.924 -1.90525 55.2609 -0.0305157ZM62.7603 -3.30133C62.5179 -2.75048 62.3104 -2.16338 62.1399 -1.558C62.9787 -1.88286 63.8203 -2.17489 64.6489 -2.41274C64.0574 -2.74744 63.4216 -3.05608 62.7603 -3.30133ZM66.0092 -2.19997C66.1295 -2.12002 66.247 -2.03973 66.3613 -1.96012C66.3732 -2.06751 66.3837 -2.17387 66.3936 -2.27958C66.2659 -2.2545 66.1379 -2.22809 66.0092 -2.19997ZM62.984 -3.77899C63.7604 -3.49102 64.5578 -3.09974 65.37 -2.60684C65.7284 -2.69629 66.0832 -2.77453 66.4342 -2.83959C66.4556 -3.22951 66.4605 -3.6035 66.4486 -3.95652C66.4034 -5.32023 66.0909 -6.27745 65.6329 -6.45426C65.2865 -6.58806 64.8425 -6.26065 64.5297 -5.96338C63.9318 -5.39425 63.4129 -4.64132 62.984 -3.77899Z" fill="black"/>
<path d="M16.5233 91.7479C16.5002 91.7479 16.4768 91.7456 16.4533 91.7402C16.2859 91.7038 16.1816 91.5459 16.2201 91.3872L24.4268 57.7276C24.4653 57.5689 24.6341 57.4696 24.7997 57.5072C24.9669 57.5436 25.0713 57.7015 25.0325 57.8602L16.8261 91.5198C16.7929 91.6559 16.665 91.7479 16.5233 91.7479Z" fill="white"/>
<path d="M47.3297 37.1803C47.3297 37.1803 59.6718 34.8338 64.3399 44.9566C69.008 55.0794 64.3399 85.4333 64.3399 85.4333L44.6501 72.5979L40.9994 70.1696L29.1192 77.3389L4.12964 75.5057L7.33511 62.9714L25.1281 60.2829L37.0138 48.9102L47.3297 37.1803Z" fill="#D797CA"/>
<path d="M64.34 85.6934C64.2871 85.6934 64.2345 85.6785 64.1893 85.649L44.4992 72.8137L40.9925 70.4805L29.2619 77.5595C29.2135 77.589 29.1553 77.6012 29.0988 77.5984L4.10928 75.765C4.03019 75.7592 3.95797 75.7199 3.91151 75.658C3.86504 75.596 3.84909 75.5174 3.86819 75.4432L7.07365 62.909C7.09961 62.8074 7.18621 62.7305 7.29351 62.7142L25.0006 60.0389L36.8244 48.7254L47.1246 37.0117C47.1639 36.9666 47.2179 36.9362 47.2779 36.9246C47.4034 36.902 59.8851 34.6569 64.5862 44.8505C66.5398 49.0875 67.1366 57.2153 66.3592 69.0076C65.7816 77.7709 64.6181 85.3956 64.6066 85.4715C64.5929 85.5599 64.5333 85.6355 64.4488 85.6714C64.4137 85.6859 64.3769 85.6934 64.34 85.6934ZM40.9995 69.9094C41.0528 69.9094 41.1065 69.9246 41.1524 69.9552L44.8028 72.3835L64.1342 84.9851C64.6651 81.3287 68.3839 54.3653 64.0939 45.0626C59.7775 35.7017 48.5964 37.2387 47.4721 37.42L37.2189 49.0788L25.3175 60.4679C25.2775 60.5061 25.2256 60.5316 25.1699 60.54L7.5535 63.2018L4.46745 75.2694L29.0515 77.0731L40.8568 69.9491C40.9006 69.9227 40.95 69.9094 40.9995 69.9094Z" fill="black"/>
<path d="M40.9999 70.4297C40.9182 70.4297 40.8379 70.3941 40.7849 70.3267C40.6951 70.2122 40.7183 70.049 40.8368 69.9622L53.0671 61.0099C53.4237 60.4682 57.4249 54.2687 55.8998 51.3217C55.8332 51.1933 55.8872 51.0371 56.0204 50.9728C56.1537 50.9084 56.315 50.9606 56.3816 51.0893C58.1066 54.4221 53.6829 61.0505 53.4939 61.331C53.4767 61.3561 53.4553 61.3785 53.4308 61.3964L41.1623 70.3769C41.1135 70.4125 41.0563 70.4298 40.9999 70.4298L40.9999 70.4297Z" fill="black"/>
</g>
</g>
</g>
<defs>
<clipPath id="clip0_101_4439">
<rect width="68" height="68" rx="6" fill="white"/>
</clipPath>
<clipPath id="clip1_101_4439">
<rect width="68" height="68" fill="white"/>
</clipPath>
<clipPath id="clip2_101_4439">
<rect width="97" height="114" fill="white" transform="translate(-13 -13)"/>
</clipPath>
</defs>
</svg>
